%TF.GenerationSoftware,KiCad,Pcbnew,8.0.7*%
%TF.CreationDate,2024-12-30T10:45:42+13:00*%
%TF.ProjectId,Flight Computer V1,466c6967-6874-4204-936f-6d7075746572,rev?*%
%TF.SameCoordinates,Original*%
%TF.FileFunction,Other,Comment*%
%FSLAX46Y46*%
G04 Gerber Fmt 4.6, Leading zero omitted, Abs format (unit mm)*
G04 Created by KiCad (PCBNEW 8.0.7) date 2024-12-30 10:45:42*
%MOMM*%
%LPD*%
G01*
G04 APERTURE LIST*
%ADD10C,0.040000*%
G04 APERTURE END LIST*
D10*
X182257143Y-98875443D02*
X182257143Y-98675443D01*
X182257143Y-98675443D02*
X182371428Y-98875443D01*
X182371428Y-98875443D02*
X182371428Y-98675443D01*
X182495238Y-98875443D02*
X182476190Y-98865920D01*
X182476190Y-98865920D02*
X182466667Y-98856396D01*
X182466667Y-98856396D02*
X182457143Y-98837348D01*
X182457143Y-98837348D02*
X182457143Y-98780205D01*
X182457143Y-98780205D02*
X182466667Y-98761158D01*
X182466667Y-98761158D02*
X182476190Y-98751634D01*
X182476190Y-98751634D02*
X182495238Y-98742110D01*
X182495238Y-98742110D02*
X182523809Y-98742110D01*
X182523809Y-98742110D02*
X182542857Y-98751634D01*
X182542857Y-98751634D02*
X182552381Y-98761158D01*
X182552381Y-98761158D02*
X182561905Y-98780205D01*
X182561905Y-98780205D02*
X182561905Y-98837348D01*
X182561905Y-98837348D02*
X182552381Y-98856396D01*
X182552381Y-98856396D02*
X182542857Y-98865920D01*
X182542857Y-98865920D02*
X182523809Y-98875443D01*
X182523809Y-98875443D02*
X182495238Y-98875443D01*
X182914285Y-98856396D02*
X182904761Y-98865920D01*
X182904761Y-98865920D02*
X182876190Y-98875443D01*
X182876190Y-98875443D02*
X182857142Y-98875443D01*
X182857142Y-98875443D02*
X182828571Y-98865920D01*
X182828571Y-98865920D02*
X182809523Y-98846872D01*
X182809523Y-98846872D02*
X182800000Y-98827824D01*
X182800000Y-98827824D02*
X182790476Y-98789729D01*
X182790476Y-98789729D02*
X182790476Y-98761158D01*
X182790476Y-98761158D02*
X182800000Y-98723062D01*
X182800000Y-98723062D02*
X182809523Y-98704015D01*
X182809523Y-98704015D02*
X182828571Y-98684967D01*
X182828571Y-98684967D02*
X182857142Y-98675443D01*
X182857142Y-98675443D02*
X182876190Y-98675443D01*
X182876190Y-98675443D02*
X182904761Y-98684967D01*
X182904761Y-98684967D02*
X182914285Y-98694491D01*
X183028571Y-98875443D02*
X183009523Y-98865920D01*
X183009523Y-98865920D02*
X183000000Y-98856396D01*
X183000000Y-98856396D02*
X182990476Y-98837348D01*
X182990476Y-98837348D02*
X182990476Y-98780205D01*
X182990476Y-98780205D02*
X183000000Y-98761158D01*
X183000000Y-98761158D02*
X183009523Y-98751634D01*
X183009523Y-98751634D02*
X183028571Y-98742110D01*
X183028571Y-98742110D02*
X183057142Y-98742110D01*
X183057142Y-98742110D02*
X183076190Y-98751634D01*
X183076190Y-98751634D02*
X183085714Y-98761158D01*
X183085714Y-98761158D02*
X183095238Y-98780205D01*
X183095238Y-98780205D02*
X183095238Y-98837348D01*
X183095238Y-98837348D02*
X183085714Y-98856396D01*
X183085714Y-98856396D02*
X183076190Y-98865920D01*
X183076190Y-98865920D02*
X183057142Y-98875443D01*
X183057142Y-98875443D02*
X183028571Y-98875443D01*
X183180952Y-98742110D02*
X183180952Y-98942110D01*
X183180952Y-98751634D02*
X183199999Y-98742110D01*
X183199999Y-98742110D02*
X183238094Y-98742110D01*
X183238094Y-98742110D02*
X183257142Y-98751634D01*
X183257142Y-98751634D02*
X183266666Y-98761158D01*
X183266666Y-98761158D02*
X183276190Y-98780205D01*
X183276190Y-98780205D02*
X183276190Y-98837348D01*
X183276190Y-98837348D02*
X183266666Y-98856396D01*
X183266666Y-98856396D02*
X183257142Y-98865920D01*
X183257142Y-98865920D02*
X183238094Y-98875443D01*
X183238094Y-98875443D02*
X183199999Y-98875443D01*
X183199999Y-98875443D02*
X183180952Y-98865920D01*
X183361904Y-98742110D02*
X183361904Y-98942110D01*
X183361904Y-98751634D02*
X183380951Y-98742110D01*
X183380951Y-98742110D02*
X183419046Y-98742110D01*
X183419046Y-98742110D02*
X183438094Y-98751634D01*
X183438094Y-98751634D02*
X183447618Y-98761158D01*
X183447618Y-98761158D02*
X183457142Y-98780205D01*
X183457142Y-98780205D02*
X183457142Y-98837348D01*
X183457142Y-98837348D02*
X183447618Y-98856396D01*
X183447618Y-98856396D02*
X183438094Y-98865920D01*
X183438094Y-98865920D02*
X183419046Y-98875443D01*
X183419046Y-98875443D02*
X183380951Y-98875443D01*
X183380951Y-98875443D02*
X183361904Y-98865920D01*
X183619046Y-98865920D02*
X183599998Y-98875443D01*
X183599998Y-98875443D02*
X183561903Y-98875443D01*
X183561903Y-98875443D02*
X183542856Y-98865920D01*
X183542856Y-98865920D02*
X183533332Y-98846872D01*
X183533332Y-98846872D02*
X183533332Y-98770681D01*
X183533332Y-98770681D02*
X183542856Y-98751634D01*
X183542856Y-98751634D02*
X183561903Y-98742110D01*
X183561903Y-98742110D02*
X183599998Y-98742110D01*
X183599998Y-98742110D02*
X183619046Y-98751634D01*
X183619046Y-98751634D02*
X183628570Y-98770681D01*
X183628570Y-98770681D02*
X183628570Y-98789729D01*
X183628570Y-98789729D02*
X183533332Y-98808777D01*
X183714285Y-98875443D02*
X183714285Y-98742110D01*
X183714285Y-98780205D02*
X183723808Y-98761158D01*
X183723808Y-98761158D02*
X183733332Y-98751634D01*
X183733332Y-98751634D02*
X183752380Y-98742110D01*
X183752380Y-98742110D02*
X183771427Y-98742110D01*
X182380953Y-98475443D02*
X182380953Y-98275443D01*
X182495238Y-98475443D02*
X182409524Y-98361158D01*
X182495238Y-98275443D02*
X182380953Y-98389729D01*
X182580953Y-98370681D02*
X182647619Y-98370681D01*
X182676191Y-98475443D02*
X182580953Y-98475443D01*
X182580953Y-98475443D02*
X182580953Y-98275443D01*
X182580953Y-98275443D02*
X182676191Y-98275443D01*
X182761905Y-98370681D02*
X182828571Y-98370681D01*
X182857143Y-98475443D02*
X182761905Y-98475443D01*
X182761905Y-98475443D02*
X182761905Y-98275443D01*
X182761905Y-98275443D02*
X182857143Y-98275443D01*
X182942857Y-98475443D02*
X182942857Y-98275443D01*
X182942857Y-98275443D02*
X183019047Y-98275443D01*
X183019047Y-98275443D02*
X183038095Y-98284967D01*
X183038095Y-98284967D02*
X183047618Y-98294491D01*
X183047618Y-98294491D02*
X183057142Y-98313539D01*
X183057142Y-98313539D02*
X183057142Y-98342110D01*
X183057142Y-98342110D02*
X183047618Y-98361158D01*
X183047618Y-98361158D02*
X183038095Y-98370681D01*
X183038095Y-98370681D02*
X183019047Y-98380205D01*
X183019047Y-98380205D02*
X182942857Y-98380205D01*
X183180952Y-98275443D02*
X183219047Y-98275443D01*
X183219047Y-98275443D02*
X183238095Y-98284967D01*
X183238095Y-98284967D02*
X183257142Y-98304015D01*
X183257142Y-98304015D02*
X183266666Y-98342110D01*
X183266666Y-98342110D02*
X183266666Y-98408777D01*
X183266666Y-98408777D02*
X183257142Y-98446872D01*
X183257142Y-98446872D02*
X183238095Y-98465920D01*
X183238095Y-98465920D02*
X183219047Y-98475443D01*
X183219047Y-98475443D02*
X183180952Y-98475443D01*
X183180952Y-98475443D02*
X183161904Y-98465920D01*
X183161904Y-98465920D02*
X183142857Y-98446872D01*
X183142857Y-98446872D02*
X183133333Y-98408777D01*
X183133333Y-98408777D02*
X183133333Y-98342110D01*
X183133333Y-98342110D02*
X183142857Y-98304015D01*
X183142857Y-98304015D02*
X183161904Y-98284967D01*
X183161904Y-98284967D02*
X183180952Y-98275443D01*
X183352381Y-98275443D02*
X183352381Y-98437348D01*
X183352381Y-98437348D02*
X183361904Y-98456396D01*
X183361904Y-98456396D02*
X183371428Y-98465920D01*
X183371428Y-98465920D02*
X183390476Y-98475443D01*
X183390476Y-98475443D02*
X183428571Y-98475443D01*
X183428571Y-98475443D02*
X183447619Y-98465920D01*
X183447619Y-98465920D02*
X183457142Y-98456396D01*
X183457142Y-98456396D02*
X183466666Y-98437348D01*
X183466666Y-98437348D02*
X183466666Y-98275443D01*
X183533333Y-98275443D02*
X183647619Y-98275443D01*
X183590476Y-98475443D02*
X183590476Y-98275443D01*
X181971428Y-99225443D02*
X181971428Y-99025443D01*
X181971428Y-99025443D02*
X182019047Y-99025443D01*
X182019047Y-99025443D02*
X182047618Y-99034967D01*
X182047618Y-99034967D02*
X182066666Y-99054015D01*
X182066666Y-99054015D02*
X182076189Y-99073062D01*
X182076189Y-99073062D02*
X182085713Y-99111158D01*
X182085713Y-99111158D02*
X182085713Y-99139729D01*
X182085713Y-99139729D02*
X182076189Y-99177824D01*
X182076189Y-99177824D02*
X182066666Y-99196872D01*
X182066666Y-99196872D02*
X182047618Y-99215920D01*
X182047618Y-99215920D02*
X182019047Y-99225443D01*
X182019047Y-99225443D02*
X181971428Y-99225443D01*
X182171428Y-99225443D02*
X182171428Y-99092110D01*
X182171428Y-99025443D02*
X182161904Y-99034967D01*
X182161904Y-99034967D02*
X182171428Y-99044491D01*
X182171428Y-99044491D02*
X182180951Y-99034967D01*
X182180951Y-99034967D02*
X182171428Y-99025443D01*
X182171428Y-99025443D02*
X182171428Y-99044491D01*
X182266666Y-99225443D02*
X182266666Y-99092110D01*
X182266666Y-99130205D02*
X182276189Y-99111158D01*
X182276189Y-99111158D02*
X182285713Y-99101634D01*
X182285713Y-99101634D02*
X182304761Y-99092110D01*
X182304761Y-99092110D02*
X182323808Y-99092110D01*
X182466666Y-99215920D02*
X182447618Y-99225443D01*
X182447618Y-99225443D02*
X182409523Y-99225443D01*
X182409523Y-99225443D02*
X182390476Y-99215920D01*
X182390476Y-99215920D02*
X182380952Y-99196872D01*
X182380952Y-99196872D02*
X182380952Y-99120681D01*
X182380952Y-99120681D02*
X182390476Y-99101634D01*
X182390476Y-99101634D02*
X182409523Y-99092110D01*
X182409523Y-99092110D02*
X182447618Y-99092110D01*
X182447618Y-99092110D02*
X182466666Y-99101634D01*
X182466666Y-99101634D02*
X182476190Y-99120681D01*
X182476190Y-99120681D02*
X182476190Y-99139729D01*
X182476190Y-99139729D02*
X182380952Y-99158777D01*
X182647619Y-99215920D02*
X182628571Y-99225443D01*
X182628571Y-99225443D02*
X182590476Y-99225443D01*
X182590476Y-99225443D02*
X182571428Y-99215920D01*
X182571428Y-99215920D02*
X182561905Y-99206396D01*
X182561905Y-99206396D02*
X182552381Y-99187348D01*
X182552381Y-99187348D02*
X182552381Y-99130205D01*
X182552381Y-99130205D02*
X182561905Y-99111158D01*
X182561905Y-99111158D02*
X182571428Y-99101634D01*
X182571428Y-99101634D02*
X182590476Y-99092110D01*
X182590476Y-99092110D02*
X182628571Y-99092110D01*
X182628571Y-99092110D02*
X182647619Y-99101634D01*
X182704762Y-99092110D02*
X182780953Y-99092110D01*
X182733334Y-99025443D02*
X182733334Y-99196872D01*
X182733334Y-99196872D02*
X182742857Y-99215920D01*
X182742857Y-99215920D02*
X182761905Y-99225443D01*
X182761905Y-99225443D02*
X182780953Y-99225443D01*
X182876191Y-99225443D02*
X182857143Y-99215920D01*
X182857143Y-99215920D02*
X182847620Y-99196872D01*
X182847620Y-99196872D02*
X182847620Y-99025443D01*
X182933334Y-99092110D02*
X182980953Y-99225443D01*
X183028572Y-99092110D02*
X182980953Y-99225443D01*
X182980953Y-99225443D02*
X182961905Y-99273062D01*
X182961905Y-99273062D02*
X182952382Y-99282586D01*
X182952382Y-99282586D02*
X182933334Y-99292110D01*
X183323810Y-99120681D02*
X183352382Y-99130205D01*
X183352382Y-99130205D02*
X183361905Y-99139729D01*
X183361905Y-99139729D02*
X183371429Y-99158777D01*
X183371429Y-99158777D02*
X183371429Y-99187348D01*
X183371429Y-99187348D02*
X183361905Y-99206396D01*
X183361905Y-99206396D02*
X183352382Y-99215920D01*
X183352382Y-99215920D02*
X183333334Y-99225443D01*
X183333334Y-99225443D02*
X183257144Y-99225443D01*
X183257144Y-99225443D02*
X183257144Y-99025443D01*
X183257144Y-99025443D02*
X183323810Y-99025443D01*
X183323810Y-99025443D02*
X183342858Y-99034967D01*
X183342858Y-99034967D02*
X183352382Y-99044491D01*
X183352382Y-99044491D02*
X183361905Y-99063539D01*
X183361905Y-99063539D02*
X183361905Y-99082586D01*
X183361905Y-99082586D02*
X183352382Y-99101634D01*
X183352382Y-99101634D02*
X183342858Y-99111158D01*
X183342858Y-99111158D02*
X183323810Y-99120681D01*
X183323810Y-99120681D02*
X183257144Y-99120681D01*
X183533334Y-99215920D02*
X183514286Y-99225443D01*
X183514286Y-99225443D02*
X183476191Y-99225443D01*
X183476191Y-99225443D02*
X183457144Y-99215920D01*
X183457144Y-99215920D02*
X183447620Y-99196872D01*
X183447620Y-99196872D02*
X183447620Y-99120681D01*
X183447620Y-99120681D02*
X183457144Y-99101634D01*
X183457144Y-99101634D02*
X183476191Y-99092110D01*
X183476191Y-99092110D02*
X183514286Y-99092110D01*
X183514286Y-99092110D02*
X183533334Y-99101634D01*
X183533334Y-99101634D02*
X183542858Y-99120681D01*
X183542858Y-99120681D02*
X183542858Y-99139729D01*
X183542858Y-99139729D02*
X183447620Y-99158777D01*
X183657144Y-99225443D02*
X183638096Y-99215920D01*
X183638096Y-99215920D02*
X183628573Y-99196872D01*
X183628573Y-99196872D02*
X183628573Y-99025443D01*
X183761906Y-99225443D02*
X183742858Y-99215920D01*
X183742858Y-99215920D02*
X183733335Y-99206396D01*
X183733335Y-99206396D02*
X183723811Y-99187348D01*
X183723811Y-99187348D02*
X183723811Y-99130205D01*
X183723811Y-99130205D02*
X183733335Y-99111158D01*
X183733335Y-99111158D02*
X183742858Y-99101634D01*
X183742858Y-99101634D02*
X183761906Y-99092110D01*
X183761906Y-99092110D02*
X183790477Y-99092110D01*
X183790477Y-99092110D02*
X183809525Y-99101634D01*
X183809525Y-99101634D02*
X183819049Y-99111158D01*
X183819049Y-99111158D02*
X183828573Y-99130205D01*
X183828573Y-99130205D02*
X183828573Y-99187348D01*
X183828573Y-99187348D02*
X183819049Y-99206396D01*
X183819049Y-99206396D02*
X183809525Y-99215920D01*
X183809525Y-99215920D02*
X183790477Y-99225443D01*
X183790477Y-99225443D02*
X183761906Y-99225443D01*
X183895239Y-99092110D02*
X183933334Y-99225443D01*
X183933334Y-99225443D02*
X183971429Y-99130205D01*
X183971429Y-99130205D02*
X184009525Y-99225443D01*
X184009525Y-99225443D02*
X184047620Y-99092110D01*
X182333333Y-99506396D02*
X182323809Y-99515920D01*
X182323809Y-99515920D02*
X182295238Y-99525443D01*
X182295238Y-99525443D02*
X182276190Y-99525443D01*
X182276190Y-99525443D02*
X182247619Y-99515920D01*
X182247619Y-99515920D02*
X182228571Y-99496872D01*
X182228571Y-99496872D02*
X182219048Y-99477824D01*
X182219048Y-99477824D02*
X182209524Y-99439729D01*
X182209524Y-99439729D02*
X182209524Y-99411158D01*
X182209524Y-99411158D02*
X182219048Y-99373062D01*
X182219048Y-99373062D02*
X182228571Y-99354015D01*
X182228571Y-99354015D02*
X182247619Y-99334967D01*
X182247619Y-99334967D02*
X182276190Y-99325443D01*
X182276190Y-99325443D02*
X182295238Y-99325443D01*
X182295238Y-99325443D02*
X182323809Y-99334967D01*
X182323809Y-99334967D02*
X182333333Y-99344491D01*
X182447619Y-99525443D02*
X182428571Y-99515920D01*
X182428571Y-99515920D02*
X182419048Y-99506396D01*
X182419048Y-99506396D02*
X182409524Y-99487348D01*
X182409524Y-99487348D02*
X182409524Y-99430205D01*
X182409524Y-99430205D02*
X182419048Y-99411158D01*
X182419048Y-99411158D02*
X182428571Y-99401634D01*
X182428571Y-99401634D02*
X182447619Y-99392110D01*
X182447619Y-99392110D02*
X182476190Y-99392110D01*
X182476190Y-99392110D02*
X182495238Y-99401634D01*
X182495238Y-99401634D02*
X182504762Y-99411158D01*
X182504762Y-99411158D02*
X182514286Y-99430205D01*
X182514286Y-99430205D02*
X182514286Y-99487348D01*
X182514286Y-99487348D02*
X182504762Y-99506396D01*
X182504762Y-99506396D02*
X182495238Y-99515920D01*
X182495238Y-99515920D02*
X182476190Y-99525443D01*
X182476190Y-99525443D02*
X182447619Y-99525443D01*
X182600000Y-99525443D02*
X182600000Y-99392110D01*
X182600000Y-99411158D02*
X182609523Y-99401634D01*
X182609523Y-99401634D02*
X182628571Y-99392110D01*
X182628571Y-99392110D02*
X182657142Y-99392110D01*
X182657142Y-99392110D02*
X182676190Y-99401634D01*
X182676190Y-99401634D02*
X182685714Y-99420681D01*
X182685714Y-99420681D02*
X182685714Y-99525443D01*
X182685714Y-99420681D02*
X182695238Y-99401634D01*
X182695238Y-99401634D02*
X182714285Y-99392110D01*
X182714285Y-99392110D02*
X182742857Y-99392110D01*
X182742857Y-99392110D02*
X182761904Y-99401634D01*
X182761904Y-99401634D02*
X182771428Y-99420681D01*
X182771428Y-99420681D02*
X182771428Y-99525443D01*
X182866667Y-99392110D02*
X182866667Y-99592110D01*
X182866667Y-99401634D02*
X182885714Y-99392110D01*
X182885714Y-99392110D02*
X182923809Y-99392110D01*
X182923809Y-99392110D02*
X182942857Y-99401634D01*
X182942857Y-99401634D02*
X182952381Y-99411158D01*
X182952381Y-99411158D02*
X182961905Y-99430205D01*
X182961905Y-99430205D02*
X182961905Y-99487348D01*
X182961905Y-99487348D02*
X182952381Y-99506396D01*
X182952381Y-99506396D02*
X182942857Y-99515920D01*
X182942857Y-99515920D02*
X182923809Y-99525443D01*
X182923809Y-99525443D02*
X182885714Y-99525443D01*
X182885714Y-99525443D02*
X182866667Y-99515920D01*
X183076190Y-99525443D02*
X183057142Y-99515920D01*
X183057142Y-99515920D02*
X183047619Y-99506396D01*
X183047619Y-99506396D02*
X183038095Y-99487348D01*
X183038095Y-99487348D02*
X183038095Y-99430205D01*
X183038095Y-99430205D02*
X183047619Y-99411158D01*
X183047619Y-99411158D02*
X183057142Y-99401634D01*
X183057142Y-99401634D02*
X183076190Y-99392110D01*
X183076190Y-99392110D02*
X183104761Y-99392110D01*
X183104761Y-99392110D02*
X183123809Y-99401634D01*
X183123809Y-99401634D02*
X183133333Y-99411158D01*
X183133333Y-99411158D02*
X183142857Y-99430205D01*
X183142857Y-99430205D02*
X183142857Y-99487348D01*
X183142857Y-99487348D02*
X183133333Y-99506396D01*
X183133333Y-99506396D02*
X183123809Y-99515920D01*
X183123809Y-99515920D02*
X183104761Y-99525443D01*
X183104761Y-99525443D02*
X183076190Y-99525443D01*
X183228571Y-99392110D02*
X183228571Y-99525443D01*
X183228571Y-99411158D02*
X183238094Y-99401634D01*
X183238094Y-99401634D02*
X183257142Y-99392110D01*
X183257142Y-99392110D02*
X183285713Y-99392110D01*
X183285713Y-99392110D02*
X183304761Y-99401634D01*
X183304761Y-99401634D02*
X183314285Y-99420681D01*
X183314285Y-99420681D02*
X183314285Y-99525443D01*
X183485713Y-99515920D02*
X183466665Y-99525443D01*
X183466665Y-99525443D02*
X183428570Y-99525443D01*
X183428570Y-99525443D02*
X183409523Y-99515920D01*
X183409523Y-99515920D02*
X183399999Y-99496872D01*
X183399999Y-99496872D02*
X183399999Y-99420681D01*
X183399999Y-99420681D02*
X183409523Y-99401634D01*
X183409523Y-99401634D02*
X183428570Y-99392110D01*
X183428570Y-99392110D02*
X183466665Y-99392110D01*
X183466665Y-99392110D02*
X183485713Y-99401634D01*
X183485713Y-99401634D02*
X183495237Y-99420681D01*
X183495237Y-99420681D02*
X183495237Y-99439729D01*
X183495237Y-99439729D02*
X183399999Y-99458777D01*
X183580952Y-99392110D02*
X183580952Y-99525443D01*
X183580952Y-99411158D02*
X183590475Y-99401634D01*
X183590475Y-99401634D02*
X183609523Y-99392110D01*
X183609523Y-99392110D02*
X183638094Y-99392110D01*
X183638094Y-99392110D02*
X183657142Y-99401634D01*
X183657142Y-99401634D02*
X183666666Y-99420681D01*
X183666666Y-99420681D02*
X183666666Y-99525443D01*
X183733332Y-99392110D02*
X183809523Y-99392110D01*
X183761904Y-99325443D02*
X183761904Y-99496872D01*
X183761904Y-99496872D02*
X183771427Y-99515920D01*
X183771427Y-99515920D02*
X183790475Y-99525443D01*
X183790475Y-99525443D02*
X183809523Y-99525443D01*
X181968333Y-108936396D02*
X181958809Y-108945920D01*
X181958809Y-108945920D02*
X181930238Y-108955443D01*
X181930238Y-108955443D02*
X181911190Y-108955443D01*
X181911190Y-108955443D02*
X181882619Y-108945920D01*
X181882619Y-108945920D02*
X181863571Y-108926872D01*
X181863571Y-108926872D02*
X181854048Y-108907824D01*
X181854048Y-108907824D02*
X181844524Y-108869729D01*
X181844524Y-108869729D02*
X181844524Y-108841158D01*
X181844524Y-108841158D02*
X181854048Y-108803062D01*
X181854048Y-108803062D02*
X181863571Y-108784015D01*
X181863571Y-108784015D02*
X181882619Y-108764967D01*
X181882619Y-108764967D02*
X181911190Y-108755443D01*
X181911190Y-108755443D02*
X181930238Y-108755443D01*
X181930238Y-108755443D02*
X181958809Y-108764967D01*
X181958809Y-108764967D02*
X181968333Y-108774491D01*
X182082619Y-108955443D02*
X182063571Y-108945920D01*
X182063571Y-108945920D02*
X182054048Y-108936396D01*
X182054048Y-108936396D02*
X182044524Y-108917348D01*
X182044524Y-108917348D02*
X182044524Y-108860205D01*
X182044524Y-108860205D02*
X182054048Y-108841158D01*
X182054048Y-108841158D02*
X182063571Y-108831634D01*
X182063571Y-108831634D02*
X182082619Y-108822110D01*
X182082619Y-108822110D02*
X182111190Y-108822110D01*
X182111190Y-108822110D02*
X182130238Y-108831634D01*
X182130238Y-108831634D02*
X182139762Y-108841158D01*
X182139762Y-108841158D02*
X182149286Y-108860205D01*
X182149286Y-108860205D02*
X182149286Y-108917348D01*
X182149286Y-108917348D02*
X182139762Y-108936396D01*
X182139762Y-108936396D02*
X182130238Y-108945920D01*
X182130238Y-108945920D02*
X182111190Y-108955443D01*
X182111190Y-108955443D02*
X182082619Y-108955443D01*
X182235000Y-108955443D02*
X182235000Y-108822110D01*
X182235000Y-108841158D02*
X182244523Y-108831634D01*
X182244523Y-108831634D02*
X182263571Y-108822110D01*
X182263571Y-108822110D02*
X182292142Y-108822110D01*
X182292142Y-108822110D02*
X182311190Y-108831634D01*
X182311190Y-108831634D02*
X182320714Y-108850681D01*
X182320714Y-108850681D02*
X182320714Y-108955443D01*
X182320714Y-108850681D02*
X182330238Y-108831634D01*
X182330238Y-108831634D02*
X182349285Y-108822110D01*
X182349285Y-108822110D02*
X182377857Y-108822110D01*
X182377857Y-108822110D02*
X182396904Y-108831634D01*
X182396904Y-108831634D02*
X182406428Y-108850681D01*
X182406428Y-108850681D02*
X182406428Y-108955443D01*
X182501667Y-108822110D02*
X182501667Y-109022110D01*
X182501667Y-108831634D02*
X182520714Y-108822110D01*
X182520714Y-108822110D02*
X182558809Y-108822110D01*
X182558809Y-108822110D02*
X182577857Y-108831634D01*
X182577857Y-108831634D02*
X182587381Y-108841158D01*
X182587381Y-108841158D02*
X182596905Y-108860205D01*
X182596905Y-108860205D02*
X182596905Y-108917348D01*
X182596905Y-108917348D02*
X182587381Y-108936396D01*
X182587381Y-108936396D02*
X182577857Y-108945920D01*
X182577857Y-108945920D02*
X182558809Y-108955443D01*
X182558809Y-108955443D02*
X182520714Y-108955443D01*
X182520714Y-108955443D02*
X182501667Y-108945920D01*
X182711190Y-108955443D02*
X182692142Y-108945920D01*
X182692142Y-108945920D02*
X182682619Y-108936396D01*
X182682619Y-108936396D02*
X182673095Y-108917348D01*
X182673095Y-108917348D02*
X182673095Y-108860205D01*
X182673095Y-108860205D02*
X182682619Y-108841158D01*
X182682619Y-108841158D02*
X182692142Y-108831634D01*
X182692142Y-108831634D02*
X182711190Y-108822110D01*
X182711190Y-108822110D02*
X182739761Y-108822110D01*
X182739761Y-108822110D02*
X182758809Y-108831634D01*
X182758809Y-108831634D02*
X182768333Y-108841158D01*
X182768333Y-108841158D02*
X182777857Y-108860205D01*
X182777857Y-108860205D02*
X182777857Y-108917348D01*
X182777857Y-108917348D02*
X182768333Y-108936396D01*
X182768333Y-108936396D02*
X182758809Y-108945920D01*
X182758809Y-108945920D02*
X182739761Y-108955443D01*
X182739761Y-108955443D02*
X182711190Y-108955443D01*
X182863571Y-108822110D02*
X182863571Y-108955443D01*
X182863571Y-108841158D02*
X182873094Y-108831634D01*
X182873094Y-108831634D02*
X182892142Y-108822110D01*
X182892142Y-108822110D02*
X182920713Y-108822110D01*
X182920713Y-108822110D02*
X182939761Y-108831634D01*
X182939761Y-108831634D02*
X182949285Y-108850681D01*
X182949285Y-108850681D02*
X182949285Y-108955443D01*
X183120713Y-108945920D02*
X183101665Y-108955443D01*
X183101665Y-108955443D02*
X183063570Y-108955443D01*
X183063570Y-108955443D02*
X183044523Y-108945920D01*
X183044523Y-108945920D02*
X183034999Y-108926872D01*
X183034999Y-108926872D02*
X183034999Y-108850681D01*
X183034999Y-108850681D02*
X183044523Y-108831634D01*
X183044523Y-108831634D02*
X183063570Y-108822110D01*
X183063570Y-108822110D02*
X183101665Y-108822110D01*
X183101665Y-108822110D02*
X183120713Y-108831634D01*
X183120713Y-108831634D02*
X183130237Y-108850681D01*
X183130237Y-108850681D02*
X183130237Y-108869729D01*
X183130237Y-108869729D02*
X183034999Y-108888777D01*
X183215952Y-108822110D02*
X183215952Y-108955443D01*
X183215952Y-108841158D02*
X183225475Y-108831634D01*
X183225475Y-108831634D02*
X183244523Y-108822110D01*
X183244523Y-108822110D02*
X183273094Y-108822110D01*
X183273094Y-108822110D02*
X183292142Y-108831634D01*
X183292142Y-108831634D02*
X183301666Y-108850681D01*
X183301666Y-108850681D02*
X183301666Y-108955443D01*
X183368332Y-108822110D02*
X183444523Y-108822110D01*
X183396904Y-108755443D02*
X183396904Y-108926872D01*
X183396904Y-108926872D02*
X183406427Y-108945920D01*
X183406427Y-108945920D02*
X183425475Y-108955443D01*
X183425475Y-108955443D02*
X183444523Y-108955443D01*
X181606428Y-108655443D02*
X181606428Y-108455443D01*
X181606428Y-108455443D02*
X181654047Y-108455443D01*
X181654047Y-108455443D02*
X181682618Y-108464967D01*
X181682618Y-108464967D02*
X181701666Y-108484015D01*
X181701666Y-108484015D02*
X181711189Y-108503062D01*
X181711189Y-108503062D02*
X181720713Y-108541158D01*
X181720713Y-108541158D02*
X181720713Y-108569729D01*
X181720713Y-108569729D02*
X181711189Y-108607824D01*
X181711189Y-108607824D02*
X181701666Y-108626872D01*
X181701666Y-108626872D02*
X181682618Y-108645920D01*
X181682618Y-108645920D02*
X181654047Y-108655443D01*
X181654047Y-108655443D02*
X181606428Y-108655443D01*
X181806428Y-108655443D02*
X181806428Y-108522110D01*
X181806428Y-108455443D02*
X181796904Y-108464967D01*
X181796904Y-108464967D02*
X181806428Y-108474491D01*
X181806428Y-108474491D02*
X181815951Y-108464967D01*
X181815951Y-108464967D02*
X181806428Y-108455443D01*
X181806428Y-108455443D02*
X181806428Y-108474491D01*
X181901666Y-108655443D02*
X181901666Y-108522110D01*
X181901666Y-108560205D02*
X181911189Y-108541158D01*
X181911189Y-108541158D02*
X181920713Y-108531634D01*
X181920713Y-108531634D02*
X181939761Y-108522110D01*
X181939761Y-108522110D02*
X181958808Y-108522110D01*
X182101666Y-108645920D02*
X182082618Y-108655443D01*
X182082618Y-108655443D02*
X182044523Y-108655443D01*
X182044523Y-108655443D02*
X182025476Y-108645920D01*
X182025476Y-108645920D02*
X182015952Y-108626872D01*
X182015952Y-108626872D02*
X182015952Y-108550681D01*
X182015952Y-108550681D02*
X182025476Y-108531634D01*
X182025476Y-108531634D02*
X182044523Y-108522110D01*
X182044523Y-108522110D02*
X182082618Y-108522110D01*
X182082618Y-108522110D02*
X182101666Y-108531634D01*
X182101666Y-108531634D02*
X182111190Y-108550681D01*
X182111190Y-108550681D02*
X182111190Y-108569729D01*
X182111190Y-108569729D02*
X182015952Y-108588777D01*
X182282619Y-108645920D02*
X182263571Y-108655443D01*
X182263571Y-108655443D02*
X182225476Y-108655443D01*
X182225476Y-108655443D02*
X182206428Y-108645920D01*
X182206428Y-108645920D02*
X182196905Y-108636396D01*
X182196905Y-108636396D02*
X182187381Y-108617348D01*
X182187381Y-108617348D02*
X182187381Y-108560205D01*
X182187381Y-108560205D02*
X182196905Y-108541158D01*
X182196905Y-108541158D02*
X182206428Y-108531634D01*
X182206428Y-108531634D02*
X182225476Y-108522110D01*
X182225476Y-108522110D02*
X182263571Y-108522110D01*
X182263571Y-108522110D02*
X182282619Y-108531634D01*
X182339762Y-108522110D02*
X182415953Y-108522110D01*
X182368334Y-108455443D02*
X182368334Y-108626872D01*
X182368334Y-108626872D02*
X182377857Y-108645920D01*
X182377857Y-108645920D02*
X182396905Y-108655443D01*
X182396905Y-108655443D02*
X182415953Y-108655443D01*
X182511191Y-108655443D02*
X182492143Y-108645920D01*
X182492143Y-108645920D02*
X182482620Y-108626872D01*
X182482620Y-108626872D02*
X182482620Y-108455443D01*
X182568334Y-108522110D02*
X182615953Y-108655443D01*
X182663572Y-108522110D02*
X182615953Y-108655443D01*
X182615953Y-108655443D02*
X182596905Y-108703062D01*
X182596905Y-108703062D02*
X182587382Y-108712586D01*
X182587382Y-108712586D02*
X182568334Y-108722110D01*
X182958810Y-108550681D02*
X182987382Y-108560205D01*
X182987382Y-108560205D02*
X182996905Y-108569729D01*
X182996905Y-108569729D02*
X183006429Y-108588777D01*
X183006429Y-108588777D02*
X183006429Y-108617348D01*
X183006429Y-108617348D02*
X182996905Y-108636396D01*
X182996905Y-108636396D02*
X182987382Y-108645920D01*
X182987382Y-108645920D02*
X182968334Y-108655443D01*
X182968334Y-108655443D02*
X182892144Y-108655443D01*
X182892144Y-108655443D02*
X182892144Y-108455443D01*
X182892144Y-108455443D02*
X182958810Y-108455443D01*
X182958810Y-108455443D02*
X182977858Y-108464967D01*
X182977858Y-108464967D02*
X182987382Y-108474491D01*
X182987382Y-108474491D02*
X182996905Y-108493539D01*
X182996905Y-108493539D02*
X182996905Y-108512586D01*
X182996905Y-108512586D02*
X182987382Y-108531634D01*
X182987382Y-108531634D02*
X182977858Y-108541158D01*
X182977858Y-108541158D02*
X182958810Y-108550681D01*
X182958810Y-108550681D02*
X182892144Y-108550681D01*
X183168334Y-108645920D02*
X183149286Y-108655443D01*
X183149286Y-108655443D02*
X183111191Y-108655443D01*
X183111191Y-108655443D02*
X183092144Y-108645920D01*
X183092144Y-108645920D02*
X183082620Y-108626872D01*
X183082620Y-108626872D02*
X183082620Y-108550681D01*
X183082620Y-108550681D02*
X183092144Y-108531634D01*
X183092144Y-108531634D02*
X183111191Y-108522110D01*
X183111191Y-108522110D02*
X183149286Y-108522110D01*
X183149286Y-108522110D02*
X183168334Y-108531634D01*
X183168334Y-108531634D02*
X183177858Y-108550681D01*
X183177858Y-108550681D02*
X183177858Y-108569729D01*
X183177858Y-108569729D02*
X183082620Y-108588777D01*
X183292144Y-108655443D02*
X183273096Y-108645920D01*
X183273096Y-108645920D02*
X183263573Y-108626872D01*
X183263573Y-108626872D02*
X183263573Y-108455443D01*
X183396906Y-108655443D02*
X183377858Y-108645920D01*
X183377858Y-108645920D02*
X183368335Y-108636396D01*
X183368335Y-108636396D02*
X183358811Y-108617348D01*
X183358811Y-108617348D02*
X183358811Y-108560205D01*
X183358811Y-108560205D02*
X183368335Y-108541158D01*
X183368335Y-108541158D02*
X183377858Y-108531634D01*
X183377858Y-108531634D02*
X183396906Y-108522110D01*
X183396906Y-108522110D02*
X183425477Y-108522110D01*
X183425477Y-108522110D02*
X183444525Y-108531634D01*
X183444525Y-108531634D02*
X183454049Y-108541158D01*
X183454049Y-108541158D02*
X183463573Y-108560205D01*
X183463573Y-108560205D02*
X183463573Y-108617348D01*
X183463573Y-108617348D02*
X183454049Y-108636396D01*
X183454049Y-108636396D02*
X183444525Y-108645920D01*
X183444525Y-108645920D02*
X183425477Y-108655443D01*
X183425477Y-108655443D02*
X183396906Y-108655443D01*
X183530239Y-108522110D02*
X183568334Y-108655443D01*
X183568334Y-108655443D02*
X183606429Y-108560205D01*
X183606429Y-108560205D02*
X183644525Y-108655443D01*
X183644525Y-108655443D02*
X183682620Y-108522110D01*
X182015953Y-107905443D02*
X182015953Y-107705443D01*
X182130238Y-107905443D02*
X182044524Y-107791158D01*
X182130238Y-107705443D02*
X182015953Y-107819729D01*
X182215953Y-107800681D02*
X182282619Y-107800681D01*
X182311191Y-107905443D02*
X182215953Y-107905443D01*
X182215953Y-107905443D02*
X182215953Y-107705443D01*
X182215953Y-107705443D02*
X182311191Y-107705443D01*
X182396905Y-107800681D02*
X182463571Y-107800681D01*
X182492143Y-107905443D02*
X182396905Y-107905443D01*
X182396905Y-107905443D02*
X182396905Y-107705443D01*
X182396905Y-107705443D02*
X182492143Y-107705443D01*
X182577857Y-107905443D02*
X182577857Y-107705443D01*
X182577857Y-107705443D02*
X182654047Y-107705443D01*
X182654047Y-107705443D02*
X182673095Y-107714967D01*
X182673095Y-107714967D02*
X182682618Y-107724491D01*
X182682618Y-107724491D02*
X182692142Y-107743539D01*
X182692142Y-107743539D02*
X182692142Y-107772110D01*
X182692142Y-107772110D02*
X182682618Y-107791158D01*
X182682618Y-107791158D02*
X182673095Y-107800681D01*
X182673095Y-107800681D02*
X182654047Y-107810205D01*
X182654047Y-107810205D02*
X182577857Y-107810205D01*
X182815952Y-107705443D02*
X182854047Y-107705443D01*
X182854047Y-107705443D02*
X182873095Y-107714967D01*
X182873095Y-107714967D02*
X182892142Y-107734015D01*
X182892142Y-107734015D02*
X182901666Y-107772110D01*
X182901666Y-107772110D02*
X182901666Y-107838777D01*
X182901666Y-107838777D02*
X182892142Y-107876872D01*
X182892142Y-107876872D02*
X182873095Y-107895920D01*
X182873095Y-107895920D02*
X182854047Y-107905443D01*
X182854047Y-107905443D02*
X182815952Y-107905443D01*
X182815952Y-107905443D02*
X182796904Y-107895920D01*
X182796904Y-107895920D02*
X182777857Y-107876872D01*
X182777857Y-107876872D02*
X182768333Y-107838777D01*
X182768333Y-107838777D02*
X182768333Y-107772110D01*
X182768333Y-107772110D02*
X182777857Y-107734015D01*
X182777857Y-107734015D02*
X182796904Y-107714967D01*
X182796904Y-107714967D02*
X182815952Y-107705443D01*
X182987381Y-107705443D02*
X182987381Y-107867348D01*
X182987381Y-107867348D02*
X182996904Y-107886396D01*
X182996904Y-107886396D02*
X183006428Y-107895920D01*
X183006428Y-107895920D02*
X183025476Y-107905443D01*
X183025476Y-107905443D02*
X183063571Y-107905443D01*
X183063571Y-107905443D02*
X183082619Y-107895920D01*
X183082619Y-107895920D02*
X183092142Y-107886396D01*
X183092142Y-107886396D02*
X183101666Y-107867348D01*
X183101666Y-107867348D02*
X183101666Y-107705443D01*
X183168333Y-107705443D02*
X183282619Y-107705443D01*
X183225476Y-107905443D02*
X183225476Y-107705443D01*
X181892143Y-108305443D02*
X181892143Y-108105443D01*
X181892143Y-108105443D02*
X182006428Y-108305443D01*
X182006428Y-108305443D02*
X182006428Y-108105443D01*
X182130238Y-108305443D02*
X182111190Y-108295920D01*
X182111190Y-108295920D02*
X182101667Y-108286396D01*
X182101667Y-108286396D02*
X182092143Y-108267348D01*
X182092143Y-108267348D02*
X182092143Y-108210205D01*
X182092143Y-108210205D02*
X182101667Y-108191158D01*
X182101667Y-108191158D02*
X182111190Y-108181634D01*
X182111190Y-108181634D02*
X182130238Y-108172110D01*
X182130238Y-108172110D02*
X182158809Y-108172110D01*
X182158809Y-108172110D02*
X182177857Y-108181634D01*
X182177857Y-108181634D02*
X182187381Y-108191158D01*
X182187381Y-108191158D02*
X182196905Y-108210205D01*
X182196905Y-108210205D02*
X182196905Y-108267348D01*
X182196905Y-108267348D02*
X182187381Y-108286396D01*
X182187381Y-108286396D02*
X182177857Y-108295920D01*
X182177857Y-108295920D02*
X182158809Y-108305443D01*
X182158809Y-108305443D02*
X182130238Y-108305443D01*
X182549285Y-108286396D02*
X182539761Y-108295920D01*
X182539761Y-108295920D02*
X182511190Y-108305443D01*
X182511190Y-108305443D02*
X182492142Y-108305443D01*
X182492142Y-108305443D02*
X182463571Y-108295920D01*
X182463571Y-108295920D02*
X182444523Y-108276872D01*
X182444523Y-108276872D02*
X182435000Y-108257824D01*
X182435000Y-108257824D02*
X182425476Y-108219729D01*
X182425476Y-108219729D02*
X182425476Y-108191158D01*
X182425476Y-108191158D02*
X182435000Y-108153062D01*
X182435000Y-108153062D02*
X182444523Y-108134015D01*
X182444523Y-108134015D02*
X182463571Y-108114967D01*
X182463571Y-108114967D02*
X182492142Y-108105443D01*
X182492142Y-108105443D02*
X182511190Y-108105443D01*
X182511190Y-108105443D02*
X182539761Y-108114967D01*
X182539761Y-108114967D02*
X182549285Y-108124491D01*
X182663571Y-108305443D02*
X182644523Y-108295920D01*
X182644523Y-108295920D02*
X182635000Y-108286396D01*
X182635000Y-108286396D02*
X182625476Y-108267348D01*
X182625476Y-108267348D02*
X182625476Y-108210205D01*
X182625476Y-108210205D02*
X182635000Y-108191158D01*
X182635000Y-108191158D02*
X182644523Y-108181634D01*
X182644523Y-108181634D02*
X182663571Y-108172110D01*
X182663571Y-108172110D02*
X182692142Y-108172110D01*
X182692142Y-108172110D02*
X182711190Y-108181634D01*
X182711190Y-108181634D02*
X182720714Y-108191158D01*
X182720714Y-108191158D02*
X182730238Y-108210205D01*
X182730238Y-108210205D02*
X182730238Y-108267348D01*
X182730238Y-108267348D02*
X182720714Y-108286396D01*
X182720714Y-108286396D02*
X182711190Y-108295920D01*
X182711190Y-108295920D02*
X182692142Y-108305443D01*
X182692142Y-108305443D02*
X182663571Y-108305443D01*
X182815952Y-108172110D02*
X182815952Y-108372110D01*
X182815952Y-108181634D02*
X182834999Y-108172110D01*
X182834999Y-108172110D02*
X182873094Y-108172110D01*
X182873094Y-108172110D02*
X182892142Y-108181634D01*
X182892142Y-108181634D02*
X182901666Y-108191158D01*
X182901666Y-108191158D02*
X182911190Y-108210205D01*
X182911190Y-108210205D02*
X182911190Y-108267348D01*
X182911190Y-108267348D02*
X182901666Y-108286396D01*
X182901666Y-108286396D02*
X182892142Y-108295920D01*
X182892142Y-108295920D02*
X182873094Y-108305443D01*
X182873094Y-108305443D02*
X182834999Y-108305443D01*
X182834999Y-108305443D02*
X182815952Y-108295920D01*
X182996904Y-108172110D02*
X182996904Y-108372110D01*
X182996904Y-108181634D02*
X183015951Y-108172110D01*
X183015951Y-108172110D02*
X183054046Y-108172110D01*
X183054046Y-108172110D02*
X183073094Y-108181634D01*
X183073094Y-108181634D02*
X183082618Y-108191158D01*
X183082618Y-108191158D02*
X183092142Y-108210205D01*
X183092142Y-108210205D02*
X183092142Y-108267348D01*
X183092142Y-108267348D02*
X183082618Y-108286396D01*
X183082618Y-108286396D02*
X183073094Y-108295920D01*
X183073094Y-108295920D02*
X183054046Y-108305443D01*
X183054046Y-108305443D02*
X183015951Y-108305443D01*
X183015951Y-108305443D02*
X182996904Y-108295920D01*
X183254046Y-108295920D02*
X183234998Y-108305443D01*
X183234998Y-108305443D02*
X183196903Y-108305443D01*
X183196903Y-108305443D02*
X183177856Y-108295920D01*
X183177856Y-108295920D02*
X183168332Y-108276872D01*
X183168332Y-108276872D02*
X183168332Y-108200681D01*
X183168332Y-108200681D02*
X183177856Y-108181634D01*
X183177856Y-108181634D02*
X183196903Y-108172110D01*
X183196903Y-108172110D02*
X183234998Y-108172110D01*
X183234998Y-108172110D02*
X183254046Y-108181634D01*
X183254046Y-108181634D02*
X183263570Y-108200681D01*
X183263570Y-108200681D02*
X183263570Y-108219729D01*
X183263570Y-108219729D02*
X183168332Y-108238777D01*
X183349285Y-108305443D02*
X183349285Y-108172110D01*
X183349285Y-108210205D02*
X183358808Y-108191158D01*
X183358808Y-108191158D02*
X183368332Y-108181634D01*
X183368332Y-108181634D02*
X183387380Y-108172110D01*
X183387380Y-108172110D02*
X183406427Y-108172110D01*
M02*
