%TF.GenerationSoftware,KiCad,Pcbnew,8.0.7*%
%TF.CreationDate,2024-12-30T10:45:42+13:00*%
%TF.ProjectId,Flight Computer V1,466c6967-6874-4204-936f-6d7075746572,rev?*%
%TF.SameCoordinates,Original*%
%TF.FileFunction,Legend,Top*%
%TF.FilePolarity,Positive*%
%FSLAX46Y46*%
G04 Gerber Fmt 4.6, Leading zero omitted, Abs format (unit mm)*
G04 Created by KiCad (PCBNEW 8.0.7) date 2024-12-30 10:45:42*
%MOMM*%
%LPD*%
G01*
G04 APERTURE LIST*
G04 Aperture macros list*
%AMRoundRect*
0 Rectangle with rounded corners*
0 $1 Rounding radius*
0 $2 $3 $4 $5 $6 $7 $8 $9 X,Y pos of 4 corners*
0 Add a 4 corners polygon primitive as box body*
4,1,4,$2,$3,$4,$5,$6,$7,$8,$9,$2,$3,0*
0 Add four circle primitives for the rounded corners*
1,1,$1+$1,$2,$3*
1,1,$1+$1,$4,$5*
1,1,$1+$1,$6,$7*
1,1,$1+$1,$8,$9*
0 Add four rect primitives between the rounded corners*
20,1,$1+$1,$2,$3,$4,$5,0*
20,1,$1+$1,$4,$5,$6,$7,0*
20,1,$1+$1,$6,$7,$8,$9,0*
20,1,$1+$1,$8,$9,$2,$3,0*%
G04 Aperture macros list end*
%ADD10C,0.200000*%
%ADD11C,1.000000*%
%ADD12C,0.300000*%
%ADD13C,0.100000*%
%ADD14C,0.150000*%
%ADD15C,0.120000*%
%ADD16C,0.152400*%
%ADD17C,0.000000*%
%ADD18R,1.700000X1.700000*%
%ADD19O,1.700000X1.700000*%
%ADD20R,2.600000X2.600000*%
%ADD21RoundRect,0.062500X-0.350000X0.062500X-0.350000X-0.062500X0.350000X-0.062500X0.350000X0.062500X0*%
%ADD22RoundRect,0.062500X-0.062500X0.350000X-0.062500X-0.350000X0.062500X-0.350000X0.062500X0.350000X0*%
%ADD23RoundRect,0.075000X-0.650000X-0.075000X0.650000X-0.075000X0.650000X0.075000X-0.650000X0.075000X0*%
%ADD24RoundRect,0.075000X-0.075000X0.650000X-0.075000X-0.650000X0.075000X-0.650000X0.075000X0.650000X0*%
%ADD25RoundRect,0.375000X0.375000X-0.625000X0.375000X0.625000X-0.375000X0.625000X-0.375000X-0.625000X0*%
%ADD26RoundRect,0.500000X1.400000X-0.500000X1.400000X0.500000X-1.400000X0.500000X-1.400000X-0.500000X0*%
%ADD27RoundRect,0.250000X0.300000X-2.050000X0.300000X2.050000X-0.300000X2.050000X-0.300000X-2.050000X0*%
%ADD28RoundRect,0.250002X5.149998X-4.449998X5.149998X4.449998X-5.149998X4.449998X-5.149998X-4.449998X0*%
%ADD29RoundRect,0.250000X-2.050000X-0.300000X2.050000X-0.300000X2.050000X0.300000X-2.050000X0.300000X0*%
%ADD30RoundRect,0.250002X-4.449998X-5.149998X4.449998X-5.149998X4.449998X5.149998X-4.449998X5.149998X0*%
%ADD31R,0.650000X0.350000*%
%ADD32R,1.550000X2.400000*%
%ADD33RoundRect,0.050000X-0.225000X-0.050000X0.225000X-0.050000X0.225000X0.050000X-0.225000X0.050000X0*%
%ADD34RoundRect,0.050000X0.050000X-0.225000X0.050000X0.225000X-0.050000X0.225000X-0.050000X-0.225000X0*%
%ADD35R,0.950000X0.550000*%
%ADD36RoundRect,0.093750X-0.093750X0.156250X-0.093750X-0.156250X0.093750X-0.156250X0.093750X0.156250X0*%
%ADD37RoundRect,0.075000X-0.075000X0.250000X-0.075000X-0.250000X0.075000X-0.250000X0.075000X0.250000X0*%
%ADD38R,1.117800X0.449200*%
%ADD39R,0.500000X0.813000*%
%ADD40R,1.550000X1.300000*%
%ADD41RoundRect,0.200000X0.200000X0.275000X-0.200000X0.275000X-0.200000X-0.275000X0.200000X-0.275000X0*%
%ADD42RoundRect,0.200000X-0.200000X-0.275000X0.200000X-0.275000X0.200000X0.275000X-0.200000X0.275000X0*%
%ADD43RoundRect,0.200000X-0.275000X0.200000X-0.275000X-0.200000X0.275000X-0.200000X0.275000X0.200000X0*%
%ADD44RoundRect,0.200000X0.275000X-0.200000X0.275000X0.200000X-0.275000X0.200000X-0.275000X-0.200000X0*%
%ADD45RoundRect,0.150000X-0.150000X0.587500X-0.150000X-0.587500X0.150000X-0.587500X0.150000X0.587500X0*%
%ADD46RoundRect,0.150000X-0.150000X-0.625000X0.150000X-0.625000X0.150000X0.625000X-0.150000X0.625000X0*%
%ADD47RoundRect,0.250000X-0.350000X-0.650000X0.350000X-0.650000X0.350000X0.650000X-0.350000X0.650000X0*%
%ADD48O,1.000000X1.600000*%
%ADD49O,1.000000X2.100000*%
%ADD50R,0.600000X1.450000*%
%ADD51R,0.300000X1.450000*%
%ADD52C,0.650000*%
%ADD53RoundRect,1.500000X1.500000X1.500000X-1.500000X1.500000X-1.500000X-1.500000X1.500000X-1.500000X0*%
%ADD54C,6.000000*%
%ADD55R,0.900000X1.500000*%
%ADD56R,1.500000X0.900000*%
%ADD57C,0.600000*%
%ADD58R,3.900000X3.900000*%
%ADD59RoundRect,0.237500X0.237500X-0.287500X0.237500X0.287500X-0.237500X0.287500X-0.237500X-0.287500X0*%
%ADD60RoundRect,0.218750X0.218750X0.256250X-0.218750X0.256250X-0.218750X-0.256250X0.218750X-0.256250X0*%
%ADD61RoundRect,0.250000X0.625000X-0.375000X0.625000X0.375000X-0.625000X0.375000X-0.625000X-0.375000X0*%
%ADD62RoundRect,0.237500X0.287500X0.237500X-0.287500X0.237500X-0.287500X-0.237500X0.287500X-0.237500X0*%
%ADD63RoundRect,0.218750X-0.256250X0.218750X-0.256250X-0.218750X0.256250X-0.218750X0.256250X0.218750X0*%
%ADD64RoundRect,0.225000X-0.225000X-0.250000X0.225000X-0.250000X0.225000X0.250000X-0.225000X0.250000X0*%
%ADD65RoundRect,0.225000X-0.250000X0.225000X-0.250000X-0.225000X0.250000X-0.225000X0.250000X0.225000X0*%
%ADD66RoundRect,0.225000X0.250000X-0.225000X0.250000X0.225000X-0.250000X0.225000X-0.250000X-0.225000X0*%
%ADD67RoundRect,0.250000X0.337500X0.475000X-0.337500X0.475000X-0.337500X-0.475000X0.337500X-0.475000X0*%
%ADD68RoundRect,0.225000X0.225000X0.250000X-0.225000X0.250000X-0.225000X-0.250000X0.225000X-0.250000X0*%
G04 APERTURE END LIST*
D10*
X184203006Y-87233465D02*
X183869673Y-87233465D01*
X183869673Y-87757275D02*
X183869673Y-86757275D01*
X183869673Y-86757275D02*
X184345863Y-86757275D01*
X184869673Y-87757275D02*
X184774435Y-87709656D01*
X184774435Y-87709656D02*
X184726816Y-87614417D01*
X184726816Y-87614417D02*
X184726816Y-86757275D01*
X185250626Y-87757275D02*
X185250626Y-87090608D01*
X185250626Y-86757275D02*
X185203007Y-86804894D01*
X185203007Y-86804894D02*
X185250626Y-86852513D01*
X185250626Y-86852513D02*
X185298245Y-86804894D01*
X185298245Y-86804894D02*
X185250626Y-86757275D01*
X185250626Y-86757275D02*
X185250626Y-86852513D01*
X186155387Y-87090608D02*
X186155387Y-87900132D01*
X186155387Y-87900132D02*
X186107768Y-87995370D01*
X186107768Y-87995370D02*
X186060149Y-88042989D01*
X186060149Y-88042989D02*
X185964911Y-88090608D01*
X185964911Y-88090608D02*
X185822054Y-88090608D01*
X185822054Y-88090608D02*
X185726816Y-88042989D01*
X186155387Y-87709656D02*
X186060149Y-87757275D01*
X186060149Y-87757275D02*
X185869673Y-87757275D01*
X185869673Y-87757275D02*
X185774435Y-87709656D01*
X185774435Y-87709656D02*
X185726816Y-87662036D01*
X185726816Y-87662036D02*
X185679197Y-87566798D01*
X185679197Y-87566798D02*
X185679197Y-87281084D01*
X185679197Y-87281084D02*
X185726816Y-87185846D01*
X185726816Y-87185846D02*
X185774435Y-87138227D01*
X185774435Y-87138227D02*
X185869673Y-87090608D01*
X185869673Y-87090608D02*
X186060149Y-87090608D01*
X186060149Y-87090608D02*
X186155387Y-87138227D01*
X186631578Y-87757275D02*
X186631578Y-86757275D01*
X187060149Y-87757275D02*
X187060149Y-87233465D01*
X187060149Y-87233465D02*
X187012530Y-87138227D01*
X187012530Y-87138227D02*
X186917292Y-87090608D01*
X186917292Y-87090608D02*
X186774435Y-87090608D01*
X186774435Y-87090608D02*
X186679197Y-87138227D01*
X186679197Y-87138227D02*
X186631578Y-87185846D01*
X187393483Y-87090608D02*
X187774435Y-87090608D01*
X187536340Y-86757275D02*
X187536340Y-87614417D01*
X187536340Y-87614417D02*
X187583959Y-87709656D01*
X187583959Y-87709656D02*
X187679197Y-87757275D01*
X187679197Y-87757275D02*
X187774435Y-87757275D01*
X189441102Y-87662036D02*
X189393483Y-87709656D01*
X189393483Y-87709656D02*
X189250626Y-87757275D01*
X189250626Y-87757275D02*
X189155388Y-87757275D01*
X189155388Y-87757275D02*
X189012531Y-87709656D01*
X189012531Y-87709656D02*
X188917293Y-87614417D01*
X188917293Y-87614417D02*
X188869674Y-87519179D01*
X188869674Y-87519179D02*
X188822055Y-87328703D01*
X188822055Y-87328703D02*
X188822055Y-87185846D01*
X188822055Y-87185846D02*
X188869674Y-86995370D01*
X188869674Y-86995370D02*
X188917293Y-86900132D01*
X188917293Y-86900132D02*
X189012531Y-86804894D01*
X189012531Y-86804894D02*
X189155388Y-86757275D01*
X189155388Y-86757275D02*
X189250626Y-86757275D01*
X189250626Y-86757275D02*
X189393483Y-86804894D01*
X189393483Y-86804894D02*
X189441102Y-86852513D01*
X190012531Y-87757275D02*
X189917293Y-87709656D01*
X189917293Y-87709656D02*
X189869674Y-87662036D01*
X189869674Y-87662036D02*
X189822055Y-87566798D01*
X189822055Y-87566798D02*
X189822055Y-87281084D01*
X189822055Y-87281084D02*
X189869674Y-87185846D01*
X189869674Y-87185846D02*
X189917293Y-87138227D01*
X189917293Y-87138227D02*
X190012531Y-87090608D01*
X190012531Y-87090608D02*
X190155388Y-87090608D01*
X190155388Y-87090608D02*
X190250626Y-87138227D01*
X190250626Y-87138227D02*
X190298245Y-87185846D01*
X190298245Y-87185846D02*
X190345864Y-87281084D01*
X190345864Y-87281084D02*
X190345864Y-87566798D01*
X190345864Y-87566798D02*
X190298245Y-87662036D01*
X190298245Y-87662036D02*
X190250626Y-87709656D01*
X190250626Y-87709656D02*
X190155388Y-87757275D01*
X190155388Y-87757275D02*
X190012531Y-87757275D01*
X190774436Y-87757275D02*
X190774436Y-87090608D01*
X190774436Y-87185846D02*
X190822055Y-87138227D01*
X190822055Y-87138227D02*
X190917293Y-87090608D01*
X190917293Y-87090608D02*
X191060150Y-87090608D01*
X191060150Y-87090608D02*
X191155388Y-87138227D01*
X191155388Y-87138227D02*
X191203007Y-87233465D01*
X191203007Y-87233465D02*
X191203007Y-87757275D01*
X191203007Y-87233465D02*
X191250626Y-87138227D01*
X191250626Y-87138227D02*
X191345864Y-87090608D01*
X191345864Y-87090608D02*
X191488721Y-87090608D01*
X191488721Y-87090608D02*
X191583960Y-87138227D01*
X191583960Y-87138227D02*
X191631579Y-87233465D01*
X191631579Y-87233465D02*
X191631579Y-87757275D01*
X192107769Y-87090608D02*
X192107769Y-88090608D01*
X192107769Y-87138227D02*
X192203007Y-87090608D01*
X192203007Y-87090608D02*
X192393483Y-87090608D01*
X192393483Y-87090608D02*
X192488721Y-87138227D01*
X192488721Y-87138227D02*
X192536340Y-87185846D01*
X192536340Y-87185846D02*
X192583959Y-87281084D01*
X192583959Y-87281084D02*
X192583959Y-87566798D01*
X192583959Y-87566798D02*
X192536340Y-87662036D01*
X192536340Y-87662036D02*
X192488721Y-87709656D01*
X192488721Y-87709656D02*
X192393483Y-87757275D01*
X192393483Y-87757275D02*
X192203007Y-87757275D01*
X192203007Y-87757275D02*
X192107769Y-87709656D01*
X193441102Y-87090608D02*
X193441102Y-87757275D01*
X193012531Y-87090608D02*
X193012531Y-87614417D01*
X193012531Y-87614417D02*
X193060150Y-87709656D01*
X193060150Y-87709656D02*
X193155388Y-87757275D01*
X193155388Y-87757275D02*
X193298245Y-87757275D01*
X193298245Y-87757275D02*
X193393483Y-87709656D01*
X193393483Y-87709656D02*
X193441102Y-87662036D01*
X193774436Y-87090608D02*
X194155388Y-87090608D01*
X193917293Y-86757275D02*
X193917293Y-87614417D01*
X193917293Y-87614417D02*
X193964912Y-87709656D01*
X193964912Y-87709656D02*
X194060150Y-87757275D01*
X194060150Y-87757275D02*
X194155388Y-87757275D01*
X194869674Y-87709656D02*
X194774436Y-87757275D01*
X194774436Y-87757275D02*
X194583960Y-87757275D01*
X194583960Y-87757275D02*
X194488722Y-87709656D01*
X194488722Y-87709656D02*
X194441103Y-87614417D01*
X194441103Y-87614417D02*
X194441103Y-87233465D01*
X194441103Y-87233465D02*
X194488722Y-87138227D01*
X194488722Y-87138227D02*
X194583960Y-87090608D01*
X194583960Y-87090608D02*
X194774436Y-87090608D01*
X194774436Y-87090608D02*
X194869674Y-87138227D01*
X194869674Y-87138227D02*
X194917293Y-87233465D01*
X194917293Y-87233465D02*
X194917293Y-87328703D01*
X194917293Y-87328703D02*
X194441103Y-87423941D01*
X195345865Y-87757275D02*
X195345865Y-87090608D01*
X195345865Y-87281084D02*
X195393484Y-87185846D01*
X195393484Y-87185846D02*
X195441103Y-87138227D01*
X195441103Y-87138227D02*
X195536341Y-87090608D01*
X195536341Y-87090608D02*
X195631579Y-87090608D01*
X183869673Y-89367219D02*
X183869673Y-88367219D01*
X184298244Y-88462457D02*
X184345863Y-88414838D01*
X184345863Y-88414838D02*
X184441101Y-88367219D01*
X184441101Y-88367219D02*
X184679196Y-88367219D01*
X184679196Y-88367219D02*
X184774434Y-88414838D01*
X184774434Y-88414838D02*
X184822053Y-88462457D01*
X184822053Y-88462457D02*
X184869672Y-88557695D01*
X184869672Y-88557695D02*
X184869672Y-88652933D01*
X184869672Y-88652933D02*
X184822053Y-88795790D01*
X184822053Y-88795790D02*
X184250625Y-89367219D01*
X184250625Y-89367219D02*
X184869672Y-89367219D01*
X185869672Y-89271980D02*
X185822053Y-89319600D01*
X185822053Y-89319600D02*
X185679196Y-89367219D01*
X185679196Y-89367219D02*
X185583958Y-89367219D01*
X185583958Y-89367219D02*
X185441101Y-89319600D01*
X185441101Y-89319600D02*
X185345863Y-89224361D01*
X185345863Y-89224361D02*
X185298244Y-89129123D01*
X185298244Y-89129123D02*
X185250625Y-88938647D01*
X185250625Y-88938647D02*
X185250625Y-88795790D01*
X185250625Y-88795790D02*
X185298244Y-88605314D01*
X185298244Y-88605314D02*
X185345863Y-88510076D01*
X185345863Y-88510076D02*
X185441101Y-88414838D01*
X185441101Y-88414838D02*
X185583958Y-88367219D01*
X185583958Y-88367219D02*
X185679196Y-88367219D01*
X185679196Y-88367219D02*
X185822053Y-88414838D01*
X185822053Y-88414838D02*
X185869672Y-88462457D01*
X186917292Y-88367219D02*
X187250625Y-89367219D01*
X187250625Y-89367219D02*
X187583958Y-88367219D01*
X188107768Y-88367219D02*
X188203006Y-88367219D01*
X188203006Y-88367219D02*
X188298244Y-88414838D01*
X188298244Y-88414838D02*
X188345863Y-88462457D01*
X188345863Y-88462457D02*
X188393482Y-88557695D01*
X188393482Y-88557695D02*
X188441101Y-88748171D01*
X188441101Y-88748171D02*
X188441101Y-88986266D01*
X188441101Y-88986266D02*
X188393482Y-89176742D01*
X188393482Y-89176742D02*
X188345863Y-89271980D01*
X188345863Y-89271980D02*
X188298244Y-89319600D01*
X188298244Y-89319600D02*
X188203006Y-89367219D01*
X188203006Y-89367219D02*
X188107768Y-89367219D01*
X188107768Y-89367219D02*
X188012530Y-89319600D01*
X188012530Y-89319600D02*
X187964911Y-89271980D01*
X187964911Y-89271980D02*
X187917292Y-89176742D01*
X187917292Y-89176742D02*
X187869673Y-88986266D01*
X187869673Y-88986266D02*
X187869673Y-88748171D01*
X187869673Y-88748171D02*
X187917292Y-88557695D01*
X187917292Y-88557695D02*
X187964911Y-88462457D01*
X187964911Y-88462457D02*
X188012530Y-88414838D01*
X188012530Y-88414838D02*
X188107768Y-88367219D01*
D11*
X182000000Y-90500000D02*
G75*
G02*
X182000000Y-93500000I0J-1500000D01*
G01*
X182000000Y-90500000D02*
G75*
G02*
X182000000Y-87500000I0J1500000D01*
G01*
X182000000Y-92000000D02*
G75*
G02*
X182000000Y-86000000I0J3000000D01*
G01*
D10*
X203941101Y-123271980D02*
X203893482Y-123319600D01*
X203893482Y-123319600D02*
X203750625Y-123367219D01*
X203750625Y-123367219D02*
X203655387Y-123367219D01*
X203655387Y-123367219D02*
X203512530Y-123319600D01*
X203512530Y-123319600D02*
X203417292Y-123224361D01*
X203417292Y-123224361D02*
X203369673Y-123129123D01*
X203369673Y-123129123D02*
X203322054Y-122938647D01*
X203322054Y-122938647D02*
X203322054Y-122795790D01*
X203322054Y-122795790D02*
X203369673Y-122605314D01*
X203369673Y-122605314D02*
X203417292Y-122510076D01*
X203417292Y-122510076D02*
X203512530Y-122414838D01*
X203512530Y-122414838D02*
X203655387Y-122367219D01*
X203655387Y-122367219D02*
X203750625Y-122367219D01*
X203750625Y-122367219D02*
X203893482Y-122414838D01*
X203893482Y-122414838D02*
X203941101Y-122462457D01*
X204131578Y-123462457D02*
X204893482Y-123462457D01*
X204988721Y-122367219D02*
X205560149Y-122367219D01*
X205274435Y-123367219D02*
X205274435Y-122367219D01*
X205798245Y-122367219D02*
X206464911Y-123367219D01*
X206464911Y-122367219D02*
X205798245Y-123367219D01*
X199441101Y-123271980D02*
X199393482Y-123319600D01*
X199393482Y-123319600D02*
X199250625Y-123367219D01*
X199250625Y-123367219D02*
X199155387Y-123367219D01*
X199155387Y-123367219D02*
X199012530Y-123319600D01*
X199012530Y-123319600D02*
X198917292Y-123224361D01*
X198917292Y-123224361D02*
X198869673Y-123129123D01*
X198869673Y-123129123D02*
X198822054Y-122938647D01*
X198822054Y-122938647D02*
X198822054Y-122795790D01*
X198822054Y-122795790D02*
X198869673Y-122605314D01*
X198869673Y-122605314D02*
X198917292Y-122510076D01*
X198917292Y-122510076D02*
X199012530Y-122414838D01*
X199012530Y-122414838D02*
X199155387Y-122367219D01*
X199155387Y-122367219D02*
X199250625Y-122367219D01*
X199250625Y-122367219D02*
X199393482Y-122414838D01*
X199393482Y-122414838D02*
X199441101Y-122462457D01*
X199631578Y-123462457D02*
X200393482Y-123462457D01*
X201203006Y-123367219D02*
X200869673Y-122891028D01*
X200631578Y-123367219D02*
X200631578Y-122367219D01*
X200631578Y-122367219D02*
X201012530Y-122367219D01*
X201012530Y-122367219D02*
X201107768Y-122414838D01*
X201107768Y-122414838D02*
X201155387Y-122462457D01*
X201155387Y-122462457D02*
X201203006Y-122557695D01*
X201203006Y-122557695D02*
X201203006Y-122700552D01*
X201203006Y-122700552D02*
X201155387Y-122795790D01*
X201155387Y-122795790D02*
X201107768Y-122843409D01*
X201107768Y-122843409D02*
X201012530Y-122891028D01*
X201012530Y-122891028D02*
X200631578Y-122891028D01*
X201536340Y-122367219D02*
X202203006Y-123367219D01*
X202203006Y-122367219D02*
X201536340Y-123367219D01*
D12*
X153699171Y-120554510D02*
X155199171Y-120554510D01*
X155199171Y-121554511D02*
X155199171Y-121840225D01*
X155199171Y-121840225D02*
X155127742Y-121983082D01*
X155127742Y-121983082D02*
X154984885Y-122125939D01*
X154984885Y-122125939D02*
X154699171Y-122197368D01*
X154699171Y-122197368D02*
X154199171Y-122197368D01*
X154199171Y-122197368D02*
X153913457Y-122125939D01*
X153913457Y-122125939D02*
X153770600Y-121983082D01*
X153770600Y-121983082D02*
X153699171Y-121840225D01*
X153699171Y-121840225D02*
X153699171Y-121554511D01*
X153699171Y-121554511D02*
X153770600Y-121411654D01*
X153770600Y-121411654D02*
X153913457Y-121268796D01*
X153913457Y-121268796D02*
X154199171Y-121197368D01*
X154199171Y-121197368D02*
X154699171Y-121197368D01*
X154699171Y-121197368D02*
X154984885Y-121268796D01*
X154984885Y-121268796D02*
X155127742Y-121411654D01*
X155127742Y-121411654D02*
X155199171Y-121554511D01*
X155199171Y-122697368D02*
X155199171Y-123625940D01*
X155199171Y-123625940D02*
X154627742Y-123125940D01*
X154627742Y-123125940D02*
X154627742Y-123340225D01*
X154627742Y-123340225D02*
X154556314Y-123483083D01*
X154556314Y-123483083D02*
X154484885Y-123554511D01*
X154484885Y-123554511D02*
X154342028Y-123625940D01*
X154342028Y-123625940D02*
X153984885Y-123625940D01*
X153984885Y-123625940D02*
X153842028Y-123554511D01*
X153842028Y-123554511D02*
X153770600Y-123483083D01*
X153770600Y-123483083D02*
X153699171Y-123340225D01*
X153699171Y-123340225D02*
X153699171Y-122911654D01*
X153699171Y-122911654D02*
X153770600Y-122768797D01*
X153770600Y-122768797D02*
X153842028Y-122697368D01*
X155199171Y-124983082D02*
X155199171Y-124268796D01*
X155199171Y-124268796D02*
X154484885Y-124197368D01*
X154484885Y-124197368D02*
X154556314Y-124268796D01*
X154556314Y-124268796D02*
X154627742Y-124411654D01*
X154627742Y-124411654D02*
X154627742Y-124768796D01*
X154627742Y-124768796D02*
X154556314Y-124911654D01*
X154556314Y-124911654D02*
X154484885Y-124983082D01*
X154484885Y-124983082D02*
X154342028Y-125054511D01*
X154342028Y-125054511D02*
X153984885Y-125054511D01*
X153984885Y-125054511D02*
X153842028Y-124983082D01*
X153842028Y-124983082D02*
X153770600Y-124911654D01*
X153770600Y-124911654D02*
X153699171Y-124768796D01*
X153699171Y-124768796D02*
X153699171Y-124411654D01*
X153699171Y-124411654D02*
X153770600Y-124268796D01*
X153770600Y-124268796D02*
X153842028Y-124197368D01*
X153699171Y-98554510D02*
X155199171Y-98554510D01*
X155199171Y-99554511D02*
X155199171Y-99840225D01*
X155199171Y-99840225D02*
X155127742Y-99983082D01*
X155127742Y-99983082D02*
X154984885Y-100125939D01*
X154984885Y-100125939D02*
X154699171Y-100197368D01*
X154699171Y-100197368D02*
X154199171Y-100197368D01*
X154199171Y-100197368D02*
X153913457Y-100125939D01*
X153913457Y-100125939D02*
X153770600Y-99983082D01*
X153770600Y-99983082D02*
X153699171Y-99840225D01*
X153699171Y-99840225D02*
X153699171Y-99554511D01*
X153699171Y-99554511D02*
X153770600Y-99411654D01*
X153770600Y-99411654D02*
X153913457Y-99268796D01*
X153913457Y-99268796D02*
X154199171Y-99197368D01*
X154199171Y-99197368D02*
X154699171Y-99197368D01*
X154699171Y-99197368D02*
X154984885Y-99268796D01*
X154984885Y-99268796D02*
X155127742Y-99411654D01*
X155127742Y-99411654D02*
X155199171Y-99554511D01*
X154699171Y-101483083D02*
X153699171Y-101483083D01*
X155270600Y-101125940D02*
X154199171Y-100768797D01*
X154199171Y-100768797D02*
X154199171Y-101697368D01*
X155199171Y-102554511D02*
X155199171Y-102697368D01*
X155199171Y-102697368D02*
X155127742Y-102840225D01*
X155127742Y-102840225D02*
X155056314Y-102911654D01*
X155056314Y-102911654D02*
X154913457Y-102983082D01*
X154913457Y-102983082D02*
X154627742Y-103054511D01*
X154627742Y-103054511D02*
X154270600Y-103054511D01*
X154270600Y-103054511D02*
X153984885Y-102983082D01*
X153984885Y-102983082D02*
X153842028Y-102911654D01*
X153842028Y-102911654D02*
X153770600Y-102840225D01*
X153770600Y-102840225D02*
X153699171Y-102697368D01*
X153699171Y-102697368D02*
X153699171Y-102554511D01*
X153699171Y-102554511D02*
X153770600Y-102411654D01*
X153770600Y-102411654D02*
X153842028Y-102340225D01*
X153842028Y-102340225D02*
X153984885Y-102268796D01*
X153984885Y-102268796D02*
X154270600Y-102197368D01*
X154270600Y-102197368D02*
X154627742Y-102197368D01*
X154627742Y-102197368D02*
X154913457Y-102268796D01*
X154913457Y-102268796D02*
X155056314Y-102340225D01*
X155056314Y-102340225D02*
X155127742Y-102411654D01*
X155127742Y-102411654D02*
X155199171Y-102554511D01*
D13*
X167627580Y-146708646D02*
X167627580Y-147327693D01*
X167627580Y-147327693D02*
X167246628Y-146994360D01*
X167246628Y-146994360D02*
X167246628Y-147137217D01*
X167246628Y-147137217D02*
X167199009Y-147232455D01*
X167199009Y-147232455D02*
X167151390Y-147280074D01*
X167151390Y-147280074D02*
X167056152Y-147327693D01*
X167056152Y-147327693D02*
X166818057Y-147327693D01*
X166818057Y-147327693D02*
X166722819Y-147280074D01*
X166722819Y-147280074D02*
X166675200Y-147232455D01*
X166675200Y-147232455D02*
X166627580Y-147137217D01*
X166627580Y-147137217D02*
X166627580Y-146851503D01*
X166627580Y-146851503D02*
X166675200Y-146756265D01*
X166675200Y-146756265D02*
X166722819Y-146708646D01*
X167627580Y-147613408D02*
X166627580Y-147946741D01*
X166627580Y-147946741D02*
X167627580Y-148280074D01*
X167627580Y-148518170D02*
X167627580Y-149137217D01*
X167627580Y-149137217D02*
X167246628Y-148803884D01*
X167246628Y-148803884D02*
X167246628Y-148946741D01*
X167246628Y-148946741D02*
X167199009Y-149041979D01*
X167199009Y-149041979D02*
X167151390Y-149089598D01*
X167151390Y-149089598D02*
X167056152Y-149137217D01*
X167056152Y-149137217D02*
X166818057Y-149137217D01*
X166818057Y-149137217D02*
X166722819Y-149089598D01*
X166722819Y-149089598D02*
X166675200Y-149041979D01*
X166675200Y-149041979D02*
X166627580Y-148946741D01*
X166627580Y-148946741D02*
X166627580Y-148661027D01*
X166627580Y-148661027D02*
X166675200Y-148565789D01*
X166675200Y-148565789D02*
X166722819Y-148518170D01*
X172579961Y-147327693D02*
X172627580Y-147232455D01*
X172627580Y-147232455D02*
X172627580Y-147089598D01*
X172627580Y-147089598D02*
X172579961Y-146946741D01*
X172579961Y-146946741D02*
X172484723Y-146851503D01*
X172484723Y-146851503D02*
X172389485Y-146803884D01*
X172389485Y-146803884D02*
X172199009Y-146756265D01*
X172199009Y-146756265D02*
X172056152Y-146756265D01*
X172056152Y-146756265D02*
X171865676Y-146803884D01*
X171865676Y-146803884D02*
X171770438Y-146851503D01*
X171770438Y-146851503D02*
X171675200Y-146946741D01*
X171675200Y-146946741D02*
X171627580Y-147089598D01*
X171627580Y-147089598D02*
X171627580Y-147184836D01*
X171627580Y-147184836D02*
X171675200Y-147327693D01*
X171675200Y-147327693D02*
X171722819Y-147375312D01*
X171722819Y-147375312D02*
X172056152Y-147375312D01*
X172056152Y-147375312D02*
X172056152Y-147184836D01*
X171627580Y-147803884D02*
X172627580Y-147803884D01*
X172627580Y-147803884D02*
X171627580Y-148375312D01*
X171627580Y-148375312D02*
X172627580Y-148375312D01*
X171627580Y-148851503D02*
X172627580Y-148851503D01*
X172627580Y-148851503D02*
X172627580Y-149089598D01*
X172627580Y-149089598D02*
X172579961Y-149232455D01*
X172579961Y-149232455D02*
X172484723Y-149327693D01*
X172484723Y-149327693D02*
X172389485Y-149375312D01*
X172389485Y-149375312D02*
X172199009Y-149422931D01*
X172199009Y-149422931D02*
X172056152Y-149422931D01*
X172056152Y-149422931D02*
X171865676Y-149375312D01*
X171865676Y-149375312D02*
X171770438Y-149327693D01*
X171770438Y-149327693D02*
X171675200Y-149232455D01*
X171675200Y-149232455D02*
X171627580Y-149089598D01*
X171627580Y-149089598D02*
X171627580Y-148851503D01*
X165127580Y-146661027D02*
X165127580Y-147232455D01*
X164127580Y-146946741D02*
X165127580Y-146946741D01*
X165127580Y-147470551D02*
X164127580Y-148137217D01*
X165127580Y-148137217D02*
X164127580Y-147470551D01*
X161627580Y-147375312D02*
X162103771Y-147041979D01*
X161627580Y-146803884D02*
X162627580Y-146803884D01*
X162627580Y-146803884D02*
X162627580Y-147184836D01*
X162627580Y-147184836D02*
X162579961Y-147280074D01*
X162579961Y-147280074D02*
X162532342Y-147327693D01*
X162532342Y-147327693D02*
X162437104Y-147375312D01*
X162437104Y-147375312D02*
X162294247Y-147375312D01*
X162294247Y-147375312D02*
X162199009Y-147327693D01*
X162199009Y-147327693D02*
X162151390Y-147280074D01*
X162151390Y-147280074D02*
X162103771Y-147184836D01*
X162103771Y-147184836D02*
X162103771Y-146803884D01*
X162627580Y-147708646D02*
X161627580Y-148375312D01*
X162627580Y-148375312D02*
X161627580Y-147708646D01*
X159127580Y-146803884D02*
X160127580Y-146803884D01*
X160127580Y-146803884D02*
X160127580Y-147041979D01*
X160127580Y-147041979D02*
X160079961Y-147184836D01*
X160079961Y-147184836D02*
X159984723Y-147280074D01*
X159984723Y-147280074D02*
X159889485Y-147327693D01*
X159889485Y-147327693D02*
X159699009Y-147375312D01*
X159699009Y-147375312D02*
X159556152Y-147375312D01*
X159556152Y-147375312D02*
X159365676Y-147327693D01*
X159365676Y-147327693D02*
X159270438Y-147280074D01*
X159270438Y-147280074D02*
X159175200Y-147184836D01*
X159175200Y-147184836D02*
X159127580Y-147041979D01*
X159127580Y-147041979D02*
X159127580Y-146803884D01*
X160127580Y-147661027D02*
X160127580Y-148232455D01*
X159127580Y-147946741D02*
X160127580Y-147946741D01*
X159127580Y-149137217D02*
X159603771Y-148803884D01*
X159127580Y-148565789D02*
X160127580Y-148565789D01*
X160127580Y-148565789D02*
X160127580Y-148946741D01*
X160127580Y-148946741D02*
X160079961Y-149041979D01*
X160079961Y-149041979D02*
X160032342Y-149089598D01*
X160032342Y-149089598D02*
X159937104Y-149137217D01*
X159937104Y-149137217D02*
X159794247Y-149137217D01*
X159794247Y-149137217D02*
X159699009Y-149089598D01*
X159699009Y-149089598D02*
X159651390Y-149041979D01*
X159651390Y-149041979D02*
X159603771Y-148946741D01*
X159603771Y-148946741D02*
X159603771Y-148565789D01*
D14*
X226360588Y-134257438D02*
X226265350Y-134209819D01*
X226265350Y-134209819D02*
X226122493Y-134209819D01*
X226122493Y-134209819D02*
X225979636Y-134257438D01*
X225979636Y-134257438D02*
X225884398Y-134352676D01*
X225884398Y-134352676D02*
X225836779Y-134447914D01*
X225836779Y-134447914D02*
X225789160Y-134638390D01*
X225789160Y-134638390D02*
X225789160Y-134781247D01*
X225789160Y-134781247D02*
X225836779Y-134971723D01*
X225836779Y-134971723D02*
X225884398Y-135066961D01*
X225884398Y-135066961D02*
X225979636Y-135162200D01*
X225979636Y-135162200D02*
X226122493Y-135209819D01*
X226122493Y-135209819D02*
X226217731Y-135209819D01*
X226217731Y-135209819D02*
X226360588Y-135162200D01*
X226360588Y-135162200D02*
X226408207Y-135114580D01*
X226408207Y-135114580D02*
X226408207Y-134781247D01*
X226408207Y-134781247D02*
X226217731Y-134781247D01*
X226836779Y-135209819D02*
X226836779Y-134209819D01*
X226836779Y-134209819D02*
X227408207Y-135209819D01*
X227408207Y-135209819D02*
X227408207Y-134209819D01*
X227884398Y-135209819D02*
X227884398Y-134209819D01*
X227884398Y-134209819D02*
X228122493Y-134209819D01*
X228122493Y-134209819D02*
X228265350Y-134257438D01*
X228265350Y-134257438D02*
X228360588Y-134352676D01*
X228360588Y-134352676D02*
X228408207Y-134447914D01*
X228408207Y-134447914D02*
X228455826Y-134638390D01*
X228455826Y-134638390D02*
X228455826Y-134781247D01*
X228455826Y-134781247D02*
X228408207Y-134971723D01*
X228408207Y-134971723D02*
X228360588Y-135066961D01*
X228360588Y-135066961D02*
X228265350Y-135162200D01*
X228265350Y-135162200D02*
X228122493Y-135209819D01*
X228122493Y-135209819D02*
X227884398Y-135209819D01*
X225836779Y-124828866D02*
X226598684Y-124828866D01*
X226217731Y-125209819D02*
X226217731Y-124447914D01*
X227598683Y-125209819D02*
X227027255Y-125209819D01*
X227312969Y-125209819D02*
X227312969Y-124209819D01*
X227312969Y-124209819D02*
X227217731Y-124352676D01*
X227217731Y-124352676D02*
X227122493Y-124447914D01*
X227122493Y-124447914D02*
X227027255Y-124495533D01*
X227979636Y-124305057D02*
X228027255Y-124257438D01*
X228027255Y-124257438D02*
X228122493Y-124209819D01*
X228122493Y-124209819D02*
X228360588Y-124209819D01*
X228360588Y-124209819D02*
X228455826Y-124257438D01*
X228455826Y-124257438D02*
X228503445Y-124305057D01*
X228503445Y-124305057D02*
X228551064Y-124400295D01*
X228551064Y-124400295D02*
X228551064Y-124495533D01*
X228551064Y-124495533D02*
X228503445Y-124638390D01*
X228503445Y-124638390D02*
X227932017Y-125209819D01*
X227932017Y-125209819D02*
X228551064Y-125209819D01*
X228836779Y-124209819D02*
X229170112Y-125209819D01*
X229170112Y-125209819D02*
X229503445Y-124209819D01*
X225836779Y-127328866D02*
X226598684Y-127328866D01*
X226217731Y-127709819D02*
X226217731Y-126947914D01*
X227551064Y-126709819D02*
X227074874Y-126709819D01*
X227074874Y-126709819D02*
X227027255Y-127186009D01*
X227027255Y-127186009D02*
X227074874Y-127138390D01*
X227074874Y-127138390D02*
X227170112Y-127090771D01*
X227170112Y-127090771D02*
X227408207Y-127090771D01*
X227408207Y-127090771D02*
X227503445Y-127138390D01*
X227503445Y-127138390D02*
X227551064Y-127186009D01*
X227551064Y-127186009D02*
X227598683Y-127281247D01*
X227598683Y-127281247D02*
X227598683Y-127519342D01*
X227598683Y-127519342D02*
X227551064Y-127614580D01*
X227551064Y-127614580D02*
X227503445Y-127662200D01*
X227503445Y-127662200D02*
X227408207Y-127709819D01*
X227408207Y-127709819D02*
X227170112Y-127709819D01*
X227170112Y-127709819D02*
X227074874Y-127662200D01*
X227074874Y-127662200D02*
X227027255Y-127614580D01*
X227884398Y-126709819D02*
X228217731Y-127709819D01*
X228217731Y-127709819D02*
X228551064Y-126709819D01*
X226408207Y-132614580D02*
X226360588Y-132662200D01*
X226360588Y-132662200D02*
X226217731Y-132709819D01*
X226217731Y-132709819D02*
X226122493Y-132709819D01*
X226122493Y-132709819D02*
X225979636Y-132662200D01*
X225979636Y-132662200D02*
X225884398Y-132566961D01*
X225884398Y-132566961D02*
X225836779Y-132471723D01*
X225836779Y-132471723D02*
X225789160Y-132281247D01*
X225789160Y-132281247D02*
X225789160Y-132138390D01*
X225789160Y-132138390D02*
X225836779Y-131947914D01*
X225836779Y-131947914D02*
X225884398Y-131852676D01*
X225884398Y-131852676D02*
X225979636Y-131757438D01*
X225979636Y-131757438D02*
X226122493Y-131709819D01*
X226122493Y-131709819D02*
X226217731Y-131709819D01*
X226217731Y-131709819D02*
X226360588Y-131757438D01*
X226360588Y-131757438D02*
X226408207Y-131805057D01*
X226789160Y-132424104D02*
X227265350Y-132424104D01*
X226693922Y-132709819D02*
X227027255Y-131709819D01*
X227027255Y-131709819D02*
X227360588Y-132709819D01*
X227693922Y-132709819D02*
X227693922Y-131709819D01*
X227693922Y-131709819D02*
X228265350Y-132709819D01*
X228265350Y-132709819D02*
X228265350Y-131709819D01*
X229217731Y-132709819D02*
X228741541Y-132709819D01*
X228741541Y-132709819D02*
X228741541Y-131709819D01*
X226408207Y-130114580D02*
X226360588Y-130162200D01*
X226360588Y-130162200D02*
X226217731Y-130209819D01*
X226217731Y-130209819D02*
X226122493Y-130209819D01*
X226122493Y-130209819D02*
X225979636Y-130162200D01*
X225979636Y-130162200D02*
X225884398Y-130066961D01*
X225884398Y-130066961D02*
X225836779Y-129971723D01*
X225836779Y-129971723D02*
X225789160Y-129781247D01*
X225789160Y-129781247D02*
X225789160Y-129638390D01*
X225789160Y-129638390D02*
X225836779Y-129447914D01*
X225836779Y-129447914D02*
X225884398Y-129352676D01*
X225884398Y-129352676D02*
X225979636Y-129257438D01*
X225979636Y-129257438D02*
X226122493Y-129209819D01*
X226122493Y-129209819D02*
X226217731Y-129209819D01*
X226217731Y-129209819D02*
X226360588Y-129257438D01*
X226360588Y-129257438D02*
X226408207Y-129305057D01*
X226789160Y-129924104D02*
X227265350Y-129924104D01*
X226693922Y-130209819D02*
X227027255Y-129209819D01*
X227027255Y-129209819D02*
X227360588Y-130209819D01*
X227693922Y-130209819D02*
X227693922Y-129209819D01*
X227693922Y-129209819D02*
X228265350Y-130209819D01*
X228265350Y-130209819D02*
X228265350Y-129209819D01*
X228741541Y-130209819D02*
X228741541Y-129209819D01*
X228741541Y-129686009D02*
X229312969Y-129686009D01*
X229312969Y-130209819D02*
X229312969Y-129209819D01*
X197934819Y-125808333D02*
X198649104Y-125808333D01*
X198649104Y-125808333D02*
X198791961Y-125855952D01*
X198791961Y-125855952D02*
X198887200Y-125951190D01*
X198887200Y-125951190D02*
X198934819Y-126094047D01*
X198934819Y-126094047D02*
X198934819Y-126189285D01*
X197934819Y-124903571D02*
X197934819Y-125094047D01*
X197934819Y-125094047D02*
X197982438Y-125189285D01*
X197982438Y-125189285D02*
X198030057Y-125236904D01*
X198030057Y-125236904D02*
X198172914Y-125332142D01*
X198172914Y-125332142D02*
X198363390Y-125379761D01*
X198363390Y-125379761D02*
X198744342Y-125379761D01*
X198744342Y-125379761D02*
X198839580Y-125332142D01*
X198839580Y-125332142D02*
X198887200Y-125284523D01*
X198887200Y-125284523D02*
X198934819Y-125189285D01*
X198934819Y-125189285D02*
X198934819Y-124998809D01*
X198934819Y-124998809D02*
X198887200Y-124903571D01*
X198887200Y-124903571D02*
X198839580Y-124855952D01*
X198839580Y-124855952D02*
X198744342Y-124808333D01*
X198744342Y-124808333D02*
X198506247Y-124808333D01*
X198506247Y-124808333D02*
X198411009Y-124855952D01*
X198411009Y-124855952D02*
X198363390Y-124903571D01*
X198363390Y-124903571D02*
X198315771Y-124998809D01*
X198315771Y-124998809D02*
X198315771Y-125189285D01*
X198315771Y-125189285D02*
X198363390Y-125284523D01*
X198363390Y-125284523D02*
X198411009Y-125332142D01*
X198411009Y-125332142D02*
X198506247Y-125379761D01*
X166754819Y-107708094D02*
X167564342Y-107708094D01*
X167564342Y-107708094D02*
X167659580Y-107660475D01*
X167659580Y-107660475D02*
X167707200Y-107612856D01*
X167707200Y-107612856D02*
X167754819Y-107517618D01*
X167754819Y-107517618D02*
X167754819Y-107327142D01*
X167754819Y-107327142D02*
X167707200Y-107231904D01*
X167707200Y-107231904D02*
X167659580Y-107184285D01*
X167659580Y-107184285D02*
X167564342Y-107136666D01*
X167564342Y-107136666D02*
X166754819Y-107136666D01*
X167754819Y-106136666D02*
X167754819Y-106708094D01*
X167754819Y-106422380D02*
X166754819Y-106422380D01*
X166754819Y-106422380D02*
X166897676Y-106517618D01*
X166897676Y-106517618D02*
X166992914Y-106612856D01*
X166992914Y-106612856D02*
X167040533Y-106708094D01*
X167754819Y-105184285D02*
X167754819Y-105755713D01*
X167754819Y-105469999D02*
X166754819Y-105469999D01*
X166754819Y-105469999D02*
X166897676Y-105565237D01*
X166897676Y-105565237D02*
X166992914Y-105660475D01*
X166992914Y-105660475D02*
X167040533Y-105755713D01*
X213461905Y-116504819D02*
X213461905Y-117314342D01*
X213461905Y-117314342D02*
X213509524Y-117409580D01*
X213509524Y-117409580D02*
X213557143Y-117457200D01*
X213557143Y-117457200D02*
X213652381Y-117504819D01*
X213652381Y-117504819D02*
X213842857Y-117504819D01*
X213842857Y-117504819D02*
X213938095Y-117457200D01*
X213938095Y-117457200D02*
X213985714Y-117409580D01*
X213985714Y-117409580D02*
X214033333Y-117314342D01*
X214033333Y-117314342D02*
X214033333Y-116504819D01*
X215033333Y-117504819D02*
X214461905Y-117504819D01*
X214747619Y-117504819D02*
X214747619Y-116504819D01*
X214747619Y-116504819D02*
X214652381Y-116647676D01*
X214652381Y-116647676D02*
X214557143Y-116742914D01*
X214557143Y-116742914D02*
X214461905Y-116790533D01*
X215652381Y-116504819D02*
X215747619Y-116504819D01*
X215747619Y-116504819D02*
X215842857Y-116552438D01*
X215842857Y-116552438D02*
X215890476Y-116600057D01*
X215890476Y-116600057D02*
X215938095Y-116695295D01*
X215938095Y-116695295D02*
X215985714Y-116885771D01*
X215985714Y-116885771D02*
X215985714Y-117123866D01*
X215985714Y-117123866D02*
X215938095Y-117314342D01*
X215938095Y-117314342D02*
X215890476Y-117409580D01*
X215890476Y-117409580D02*
X215842857Y-117457200D01*
X215842857Y-117457200D02*
X215747619Y-117504819D01*
X215747619Y-117504819D02*
X215652381Y-117504819D01*
X215652381Y-117504819D02*
X215557143Y-117457200D01*
X215557143Y-117457200D02*
X215509524Y-117409580D01*
X215509524Y-117409580D02*
X215461905Y-117314342D01*
X215461905Y-117314342D02*
X215414286Y-117123866D01*
X215414286Y-117123866D02*
X215414286Y-116885771D01*
X215414286Y-116885771D02*
X215461905Y-116695295D01*
X215461905Y-116695295D02*
X215509524Y-116600057D01*
X215509524Y-116600057D02*
X215557143Y-116552438D01*
X215557143Y-116552438D02*
X215652381Y-116504819D01*
X210104819Y-140261904D02*
X210914342Y-140261904D01*
X210914342Y-140261904D02*
X211009580Y-140214285D01*
X211009580Y-140214285D02*
X211057200Y-140166666D01*
X211057200Y-140166666D02*
X211104819Y-140071428D01*
X211104819Y-140071428D02*
X211104819Y-139880952D01*
X211104819Y-139880952D02*
X211057200Y-139785714D01*
X211057200Y-139785714D02*
X211009580Y-139738095D01*
X211009580Y-139738095D02*
X210914342Y-139690476D01*
X210914342Y-139690476D02*
X210104819Y-139690476D01*
X211104819Y-139166666D02*
X211104819Y-138976190D01*
X211104819Y-138976190D02*
X211057200Y-138880952D01*
X211057200Y-138880952D02*
X211009580Y-138833333D01*
X211009580Y-138833333D02*
X210866723Y-138738095D01*
X210866723Y-138738095D02*
X210676247Y-138690476D01*
X210676247Y-138690476D02*
X210295295Y-138690476D01*
X210295295Y-138690476D02*
X210200057Y-138738095D01*
X210200057Y-138738095D02*
X210152438Y-138785714D01*
X210152438Y-138785714D02*
X210104819Y-138880952D01*
X210104819Y-138880952D02*
X210104819Y-139071428D01*
X210104819Y-139071428D02*
X210152438Y-139166666D01*
X210152438Y-139166666D02*
X210200057Y-139214285D01*
X210200057Y-139214285D02*
X210295295Y-139261904D01*
X210295295Y-139261904D02*
X210533390Y-139261904D01*
X210533390Y-139261904D02*
X210628628Y-139214285D01*
X210628628Y-139214285D02*
X210676247Y-139166666D01*
X210676247Y-139166666D02*
X210723866Y-139071428D01*
X210723866Y-139071428D02*
X210723866Y-138880952D01*
X210723866Y-138880952D02*
X210676247Y-138785714D01*
X210676247Y-138785714D02*
X210628628Y-138738095D01*
X210628628Y-138738095D02*
X210533390Y-138690476D01*
X197954819Y-97261904D02*
X198764342Y-97261904D01*
X198764342Y-97261904D02*
X198859580Y-97214285D01*
X198859580Y-97214285D02*
X198907200Y-97166666D01*
X198907200Y-97166666D02*
X198954819Y-97071428D01*
X198954819Y-97071428D02*
X198954819Y-96880952D01*
X198954819Y-96880952D02*
X198907200Y-96785714D01*
X198907200Y-96785714D02*
X198859580Y-96738095D01*
X198859580Y-96738095D02*
X198764342Y-96690476D01*
X198764342Y-96690476D02*
X197954819Y-96690476D01*
X198383390Y-96071428D02*
X198335771Y-96166666D01*
X198335771Y-96166666D02*
X198288152Y-96214285D01*
X198288152Y-96214285D02*
X198192914Y-96261904D01*
X198192914Y-96261904D02*
X198145295Y-96261904D01*
X198145295Y-96261904D02*
X198050057Y-96214285D01*
X198050057Y-96214285D02*
X198002438Y-96166666D01*
X198002438Y-96166666D02*
X197954819Y-96071428D01*
X197954819Y-96071428D02*
X197954819Y-95880952D01*
X197954819Y-95880952D02*
X198002438Y-95785714D01*
X198002438Y-95785714D02*
X198050057Y-95738095D01*
X198050057Y-95738095D02*
X198145295Y-95690476D01*
X198145295Y-95690476D02*
X198192914Y-95690476D01*
X198192914Y-95690476D02*
X198288152Y-95738095D01*
X198288152Y-95738095D02*
X198335771Y-95785714D01*
X198335771Y-95785714D02*
X198383390Y-95880952D01*
X198383390Y-95880952D02*
X198383390Y-96071428D01*
X198383390Y-96071428D02*
X198431009Y-96166666D01*
X198431009Y-96166666D02*
X198478628Y-96214285D01*
X198478628Y-96214285D02*
X198573866Y-96261904D01*
X198573866Y-96261904D02*
X198764342Y-96261904D01*
X198764342Y-96261904D02*
X198859580Y-96214285D01*
X198859580Y-96214285D02*
X198907200Y-96166666D01*
X198907200Y-96166666D02*
X198954819Y-96071428D01*
X198954819Y-96071428D02*
X198954819Y-95880952D01*
X198954819Y-95880952D02*
X198907200Y-95785714D01*
X198907200Y-95785714D02*
X198859580Y-95738095D01*
X198859580Y-95738095D02*
X198764342Y-95690476D01*
X198764342Y-95690476D02*
X198573866Y-95690476D01*
X198573866Y-95690476D02*
X198478628Y-95738095D01*
X198478628Y-95738095D02*
X198431009Y-95785714D01*
X198431009Y-95785714D02*
X198383390Y-95880952D01*
X188804819Y-139386904D02*
X189614342Y-139386904D01*
X189614342Y-139386904D02*
X189709580Y-139339285D01*
X189709580Y-139339285D02*
X189757200Y-139291666D01*
X189757200Y-139291666D02*
X189804819Y-139196428D01*
X189804819Y-139196428D02*
X189804819Y-139005952D01*
X189804819Y-139005952D02*
X189757200Y-138910714D01*
X189757200Y-138910714D02*
X189709580Y-138863095D01*
X189709580Y-138863095D02*
X189614342Y-138815476D01*
X189614342Y-138815476D02*
X188804819Y-138815476D01*
X188804819Y-138434523D02*
X188804819Y-137767857D01*
X188804819Y-137767857D02*
X189804819Y-138196428D01*
X221663095Y-93029819D02*
X221663095Y-93839342D01*
X221663095Y-93839342D02*
X221710714Y-93934580D01*
X221710714Y-93934580D02*
X221758333Y-93982200D01*
X221758333Y-93982200D02*
X221853571Y-94029819D01*
X221853571Y-94029819D02*
X222044047Y-94029819D01*
X222044047Y-94029819D02*
X222139285Y-93982200D01*
X222139285Y-93982200D02*
X222186904Y-93934580D01*
X222186904Y-93934580D02*
X222234523Y-93839342D01*
X222234523Y-93839342D02*
X222234523Y-93029819D01*
X223139285Y-93029819D02*
X222948809Y-93029819D01*
X222948809Y-93029819D02*
X222853571Y-93077438D01*
X222853571Y-93077438D02*
X222805952Y-93125057D01*
X222805952Y-93125057D02*
X222710714Y-93267914D01*
X222710714Y-93267914D02*
X222663095Y-93458390D01*
X222663095Y-93458390D02*
X222663095Y-93839342D01*
X222663095Y-93839342D02*
X222710714Y-93934580D01*
X222710714Y-93934580D02*
X222758333Y-93982200D01*
X222758333Y-93982200D02*
X222853571Y-94029819D01*
X222853571Y-94029819D02*
X223044047Y-94029819D01*
X223044047Y-94029819D02*
X223139285Y-93982200D01*
X223139285Y-93982200D02*
X223186904Y-93934580D01*
X223186904Y-93934580D02*
X223234523Y-93839342D01*
X223234523Y-93839342D02*
X223234523Y-93601247D01*
X223234523Y-93601247D02*
X223186904Y-93506009D01*
X223186904Y-93506009D02*
X223139285Y-93458390D01*
X223139285Y-93458390D02*
X223044047Y-93410771D01*
X223044047Y-93410771D02*
X222853571Y-93410771D01*
X222853571Y-93410771D02*
X222758333Y-93458390D01*
X222758333Y-93458390D02*
X222710714Y-93506009D01*
X222710714Y-93506009D02*
X222663095Y-93601247D01*
X214350595Y-129304819D02*
X214350595Y-130114342D01*
X214350595Y-130114342D02*
X214398214Y-130209580D01*
X214398214Y-130209580D02*
X214445833Y-130257200D01*
X214445833Y-130257200D02*
X214541071Y-130304819D01*
X214541071Y-130304819D02*
X214731547Y-130304819D01*
X214731547Y-130304819D02*
X214826785Y-130257200D01*
X214826785Y-130257200D02*
X214874404Y-130209580D01*
X214874404Y-130209580D02*
X214922023Y-130114342D01*
X214922023Y-130114342D02*
X214922023Y-129304819D01*
X215874404Y-129304819D02*
X215398214Y-129304819D01*
X215398214Y-129304819D02*
X215350595Y-129781009D01*
X215350595Y-129781009D02*
X215398214Y-129733390D01*
X215398214Y-129733390D02*
X215493452Y-129685771D01*
X215493452Y-129685771D02*
X215731547Y-129685771D01*
X215731547Y-129685771D02*
X215826785Y-129733390D01*
X215826785Y-129733390D02*
X215874404Y-129781009D01*
X215874404Y-129781009D02*
X215922023Y-129876247D01*
X215922023Y-129876247D02*
X215922023Y-130114342D01*
X215922023Y-130114342D02*
X215874404Y-130209580D01*
X215874404Y-130209580D02*
X215826785Y-130257200D01*
X215826785Y-130257200D02*
X215731547Y-130304819D01*
X215731547Y-130304819D02*
X215493452Y-130304819D01*
X215493452Y-130304819D02*
X215398214Y-130257200D01*
X215398214Y-130257200D02*
X215350595Y-130209580D01*
X182238095Y-95089819D02*
X182238095Y-95899342D01*
X182238095Y-95899342D02*
X182285714Y-95994580D01*
X182285714Y-95994580D02*
X182333333Y-96042200D01*
X182333333Y-96042200D02*
X182428571Y-96089819D01*
X182428571Y-96089819D02*
X182619047Y-96089819D01*
X182619047Y-96089819D02*
X182714285Y-96042200D01*
X182714285Y-96042200D02*
X182761904Y-95994580D01*
X182761904Y-95994580D02*
X182809523Y-95899342D01*
X182809523Y-95899342D02*
X182809523Y-95089819D01*
X183714285Y-95423152D02*
X183714285Y-96089819D01*
X183476190Y-95042200D02*
X183238095Y-95756485D01*
X183238095Y-95756485D02*
X183857142Y-95756485D01*
X175313095Y-116979819D02*
X175313095Y-117789342D01*
X175313095Y-117789342D02*
X175360714Y-117884580D01*
X175360714Y-117884580D02*
X175408333Y-117932200D01*
X175408333Y-117932200D02*
X175503571Y-117979819D01*
X175503571Y-117979819D02*
X175694047Y-117979819D01*
X175694047Y-117979819D02*
X175789285Y-117932200D01*
X175789285Y-117932200D02*
X175836904Y-117884580D01*
X175836904Y-117884580D02*
X175884523Y-117789342D01*
X175884523Y-117789342D02*
X175884523Y-116979819D01*
X176265476Y-116979819D02*
X176884523Y-116979819D01*
X176884523Y-116979819D02*
X176551190Y-117360771D01*
X176551190Y-117360771D02*
X176694047Y-117360771D01*
X176694047Y-117360771D02*
X176789285Y-117408390D01*
X176789285Y-117408390D02*
X176836904Y-117456009D01*
X176836904Y-117456009D02*
X176884523Y-117551247D01*
X176884523Y-117551247D02*
X176884523Y-117789342D01*
X176884523Y-117789342D02*
X176836904Y-117884580D01*
X176836904Y-117884580D02*
X176789285Y-117932200D01*
X176789285Y-117932200D02*
X176694047Y-117979819D01*
X176694047Y-117979819D02*
X176408333Y-117979819D01*
X176408333Y-117979819D02*
X176313095Y-117932200D01*
X176313095Y-117932200D02*
X176265476Y-117884580D01*
X165417319Y-97656904D02*
X166226842Y-97656904D01*
X166226842Y-97656904D02*
X166322080Y-97609285D01*
X166322080Y-97609285D02*
X166369700Y-97561666D01*
X166369700Y-97561666D02*
X166417319Y-97466428D01*
X166417319Y-97466428D02*
X166417319Y-97275952D01*
X166417319Y-97275952D02*
X166369700Y-97180714D01*
X166369700Y-97180714D02*
X166322080Y-97133095D01*
X166322080Y-97133095D02*
X166226842Y-97085476D01*
X166226842Y-97085476D02*
X165417319Y-97085476D01*
X165512557Y-96656904D02*
X165464938Y-96609285D01*
X165464938Y-96609285D02*
X165417319Y-96514047D01*
X165417319Y-96514047D02*
X165417319Y-96275952D01*
X165417319Y-96275952D02*
X165464938Y-96180714D01*
X165464938Y-96180714D02*
X165512557Y-96133095D01*
X165512557Y-96133095D02*
X165607795Y-96085476D01*
X165607795Y-96085476D02*
X165703033Y-96085476D01*
X165703033Y-96085476D02*
X165845890Y-96133095D01*
X165845890Y-96133095D02*
X166417319Y-96704523D01*
X166417319Y-96704523D02*
X166417319Y-96085476D01*
X180261904Y-130545180D02*
X180261904Y-129735657D01*
X180261904Y-129735657D02*
X180214285Y-129640419D01*
X180214285Y-129640419D02*
X180166666Y-129592800D01*
X180166666Y-129592800D02*
X180071428Y-129545180D01*
X180071428Y-129545180D02*
X179880952Y-129545180D01*
X179880952Y-129545180D02*
X179785714Y-129592800D01*
X179785714Y-129592800D02*
X179738095Y-129640419D01*
X179738095Y-129640419D02*
X179690476Y-129735657D01*
X179690476Y-129735657D02*
X179690476Y-130545180D01*
X178690476Y-129545180D02*
X179261904Y-129545180D01*
X178976190Y-129545180D02*
X178976190Y-130545180D01*
X178976190Y-130545180D02*
X179071428Y-130402323D01*
X179071428Y-130402323D02*
X179166666Y-130307085D01*
X179166666Y-130307085D02*
X179261904Y-130259466D01*
X185564799Y-132726680D02*
X185564799Y-132488585D01*
X185802894Y-132583823D02*
X185564799Y-132488585D01*
X185564799Y-132488585D02*
X185326704Y-132583823D01*
X185707656Y-132298109D02*
X185564799Y-132488585D01*
X185564799Y-132488585D02*
X185421942Y-132298109D01*
X185564800Y-131636319D02*
X185564800Y-131874414D01*
X185326705Y-131779176D02*
X185564800Y-131874414D01*
X185564800Y-131874414D02*
X185802895Y-131779176D01*
X185421943Y-132064890D02*
X185564800Y-131874414D01*
X185564800Y-131874414D02*
X185707657Y-132064890D01*
X169761905Y-100124819D02*
X170333333Y-100124819D01*
X170047619Y-101124819D02*
X170047619Y-100124819D01*
X170666667Y-101124819D02*
X170666667Y-100124819D01*
X170666667Y-100124819D02*
X171047619Y-100124819D01*
X171047619Y-100124819D02*
X171142857Y-100172438D01*
X171142857Y-100172438D02*
X171190476Y-100220057D01*
X171190476Y-100220057D02*
X171238095Y-100315295D01*
X171238095Y-100315295D02*
X171238095Y-100458152D01*
X171238095Y-100458152D02*
X171190476Y-100553390D01*
X171190476Y-100553390D02*
X171142857Y-100601009D01*
X171142857Y-100601009D02*
X171047619Y-100648628D01*
X171047619Y-100648628D02*
X170666667Y-100648628D01*
X172190476Y-101124819D02*
X171619048Y-101124819D01*
X171904762Y-101124819D02*
X171904762Y-100124819D01*
X171904762Y-100124819D02*
X171809524Y-100267676D01*
X171809524Y-100267676D02*
X171714286Y-100362914D01*
X171714286Y-100362914D02*
X171619048Y-100410533D01*
X172809524Y-100124819D02*
X172904762Y-100124819D01*
X172904762Y-100124819D02*
X173000000Y-100172438D01*
X173000000Y-100172438D02*
X173047619Y-100220057D01*
X173047619Y-100220057D02*
X173095238Y-100315295D01*
X173095238Y-100315295D02*
X173142857Y-100505771D01*
X173142857Y-100505771D02*
X173142857Y-100743866D01*
X173142857Y-100743866D02*
X173095238Y-100934342D01*
X173095238Y-100934342D02*
X173047619Y-101029580D01*
X173047619Y-101029580D02*
X173000000Y-101077200D01*
X173000000Y-101077200D02*
X172904762Y-101124819D01*
X172904762Y-101124819D02*
X172809524Y-101124819D01*
X172809524Y-101124819D02*
X172714286Y-101077200D01*
X172714286Y-101077200D02*
X172666667Y-101029580D01*
X172666667Y-101029580D02*
X172619048Y-100934342D01*
X172619048Y-100934342D02*
X172571429Y-100743866D01*
X172571429Y-100743866D02*
X172571429Y-100505771D01*
X172571429Y-100505771D02*
X172619048Y-100315295D01*
X172619048Y-100315295D02*
X172666667Y-100220057D01*
X172666667Y-100220057D02*
X172714286Y-100172438D01*
X172714286Y-100172438D02*
X172809524Y-100124819D01*
X155738095Y-96454819D02*
X156309523Y-96454819D01*
X156023809Y-97454819D02*
X156023809Y-96454819D01*
X156642857Y-97454819D02*
X156642857Y-96454819D01*
X156642857Y-96454819D02*
X157023809Y-96454819D01*
X157023809Y-96454819D02*
X157119047Y-96502438D01*
X157119047Y-96502438D02*
X157166666Y-96550057D01*
X157166666Y-96550057D02*
X157214285Y-96645295D01*
X157214285Y-96645295D02*
X157214285Y-96788152D01*
X157214285Y-96788152D02*
X157166666Y-96883390D01*
X157166666Y-96883390D02*
X157119047Y-96931009D01*
X157119047Y-96931009D02*
X157023809Y-96978628D01*
X157023809Y-96978628D02*
X156642857Y-96978628D01*
X157690476Y-97454819D02*
X157880952Y-97454819D01*
X157880952Y-97454819D02*
X157976190Y-97407200D01*
X157976190Y-97407200D02*
X158023809Y-97359580D01*
X158023809Y-97359580D02*
X158119047Y-97216723D01*
X158119047Y-97216723D02*
X158166666Y-97026247D01*
X158166666Y-97026247D02*
X158166666Y-96645295D01*
X158166666Y-96645295D02*
X158119047Y-96550057D01*
X158119047Y-96550057D02*
X158071428Y-96502438D01*
X158071428Y-96502438D02*
X157976190Y-96454819D01*
X157976190Y-96454819D02*
X157785714Y-96454819D01*
X157785714Y-96454819D02*
X157690476Y-96502438D01*
X157690476Y-96502438D02*
X157642857Y-96550057D01*
X157642857Y-96550057D02*
X157595238Y-96645295D01*
X157595238Y-96645295D02*
X157595238Y-96883390D01*
X157595238Y-96883390D02*
X157642857Y-96978628D01*
X157642857Y-96978628D02*
X157690476Y-97026247D01*
X157690476Y-97026247D02*
X157785714Y-97073866D01*
X157785714Y-97073866D02*
X157976190Y-97073866D01*
X157976190Y-97073866D02*
X158071428Y-97026247D01*
X158071428Y-97026247D02*
X158119047Y-96978628D01*
X158119047Y-96978628D02*
X158166666Y-96883390D01*
X197738095Y-86624819D02*
X198309523Y-86624819D01*
X198023809Y-87624819D02*
X198023809Y-86624819D01*
X198642857Y-87624819D02*
X198642857Y-86624819D01*
X198642857Y-86624819D02*
X199023809Y-86624819D01*
X199023809Y-86624819D02*
X199119047Y-86672438D01*
X199119047Y-86672438D02*
X199166666Y-86720057D01*
X199166666Y-86720057D02*
X199214285Y-86815295D01*
X199214285Y-86815295D02*
X199214285Y-86958152D01*
X199214285Y-86958152D02*
X199166666Y-87053390D01*
X199166666Y-87053390D02*
X199119047Y-87101009D01*
X199119047Y-87101009D02*
X199023809Y-87148628D01*
X199023809Y-87148628D02*
X198642857Y-87148628D01*
X199785714Y-87053390D02*
X199690476Y-87005771D01*
X199690476Y-87005771D02*
X199642857Y-86958152D01*
X199642857Y-86958152D02*
X199595238Y-86862914D01*
X199595238Y-86862914D02*
X199595238Y-86815295D01*
X199595238Y-86815295D02*
X199642857Y-86720057D01*
X199642857Y-86720057D02*
X199690476Y-86672438D01*
X199690476Y-86672438D02*
X199785714Y-86624819D01*
X199785714Y-86624819D02*
X199976190Y-86624819D01*
X199976190Y-86624819D02*
X200071428Y-86672438D01*
X200071428Y-86672438D02*
X200119047Y-86720057D01*
X200119047Y-86720057D02*
X200166666Y-86815295D01*
X200166666Y-86815295D02*
X200166666Y-86862914D01*
X200166666Y-86862914D02*
X200119047Y-86958152D01*
X200119047Y-86958152D02*
X200071428Y-87005771D01*
X200071428Y-87005771D02*
X199976190Y-87053390D01*
X199976190Y-87053390D02*
X199785714Y-87053390D01*
X199785714Y-87053390D02*
X199690476Y-87101009D01*
X199690476Y-87101009D02*
X199642857Y-87148628D01*
X199642857Y-87148628D02*
X199595238Y-87243866D01*
X199595238Y-87243866D02*
X199595238Y-87434342D01*
X199595238Y-87434342D02*
X199642857Y-87529580D01*
X199642857Y-87529580D02*
X199690476Y-87577200D01*
X199690476Y-87577200D02*
X199785714Y-87624819D01*
X199785714Y-87624819D02*
X199976190Y-87624819D01*
X199976190Y-87624819D02*
X200071428Y-87577200D01*
X200071428Y-87577200D02*
X200119047Y-87529580D01*
X200119047Y-87529580D02*
X200166666Y-87434342D01*
X200166666Y-87434342D02*
X200166666Y-87243866D01*
X200166666Y-87243866D02*
X200119047Y-87148628D01*
X200119047Y-87148628D02*
X200071428Y-87101009D01*
X200071428Y-87101009D02*
X199976190Y-87053390D01*
X202738095Y-86624819D02*
X203309523Y-86624819D01*
X203023809Y-87624819D02*
X203023809Y-86624819D01*
X203642857Y-87624819D02*
X203642857Y-86624819D01*
X203642857Y-86624819D02*
X204023809Y-86624819D01*
X204023809Y-86624819D02*
X204119047Y-86672438D01*
X204119047Y-86672438D02*
X204166666Y-86720057D01*
X204166666Y-86720057D02*
X204214285Y-86815295D01*
X204214285Y-86815295D02*
X204214285Y-86958152D01*
X204214285Y-86958152D02*
X204166666Y-87053390D01*
X204166666Y-87053390D02*
X204119047Y-87101009D01*
X204119047Y-87101009D02*
X204023809Y-87148628D01*
X204023809Y-87148628D02*
X203642857Y-87148628D01*
X204547619Y-86624819D02*
X205214285Y-86624819D01*
X205214285Y-86624819D02*
X204785714Y-87624819D01*
X223238095Y-86454819D02*
X223809523Y-86454819D01*
X223523809Y-87454819D02*
X223523809Y-86454819D01*
X224142857Y-87454819D02*
X224142857Y-86454819D01*
X224142857Y-86454819D02*
X224523809Y-86454819D01*
X224523809Y-86454819D02*
X224619047Y-86502438D01*
X224619047Y-86502438D02*
X224666666Y-86550057D01*
X224666666Y-86550057D02*
X224714285Y-86645295D01*
X224714285Y-86645295D02*
X224714285Y-86788152D01*
X224714285Y-86788152D02*
X224666666Y-86883390D01*
X224666666Y-86883390D02*
X224619047Y-86931009D01*
X224619047Y-86931009D02*
X224523809Y-86978628D01*
X224523809Y-86978628D02*
X224142857Y-86978628D01*
X225571428Y-86454819D02*
X225380952Y-86454819D01*
X225380952Y-86454819D02*
X225285714Y-86502438D01*
X225285714Y-86502438D02*
X225238095Y-86550057D01*
X225238095Y-86550057D02*
X225142857Y-86692914D01*
X225142857Y-86692914D02*
X225095238Y-86883390D01*
X225095238Y-86883390D02*
X225095238Y-87264342D01*
X225095238Y-87264342D02*
X225142857Y-87359580D01*
X225142857Y-87359580D02*
X225190476Y-87407200D01*
X225190476Y-87407200D02*
X225285714Y-87454819D01*
X225285714Y-87454819D02*
X225476190Y-87454819D01*
X225476190Y-87454819D02*
X225571428Y-87407200D01*
X225571428Y-87407200D02*
X225619047Y-87359580D01*
X225619047Y-87359580D02*
X225666666Y-87264342D01*
X225666666Y-87264342D02*
X225666666Y-87026247D01*
X225666666Y-87026247D02*
X225619047Y-86931009D01*
X225619047Y-86931009D02*
X225571428Y-86883390D01*
X225571428Y-86883390D02*
X225476190Y-86835771D01*
X225476190Y-86835771D02*
X225285714Y-86835771D01*
X225285714Y-86835771D02*
X225190476Y-86883390D01*
X225190476Y-86883390D02*
X225142857Y-86931009D01*
X225142857Y-86931009D02*
X225095238Y-87026247D01*
X207738095Y-86624819D02*
X208309523Y-86624819D01*
X208023809Y-87624819D02*
X208023809Y-86624819D01*
X208642857Y-87624819D02*
X208642857Y-86624819D01*
X208642857Y-86624819D02*
X209023809Y-86624819D01*
X209023809Y-86624819D02*
X209119047Y-86672438D01*
X209119047Y-86672438D02*
X209166666Y-86720057D01*
X209166666Y-86720057D02*
X209214285Y-86815295D01*
X209214285Y-86815295D02*
X209214285Y-86958152D01*
X209214285Y-86958152D02*
X209166666Y-87053390D01*
X209166666Y-87053390D02*
X209119047Y-87101009D01*
X209119047Y-87101009D02*
X209023809Y-87148628D01*
X209023809Y-87148628D02*
X208642857Y-87148628D01*
X210119047Y-86624819D02*
X209642857Y-86624819D01*
X209642857Y-86624819D02*
X209595238Y-87101009D01*
X209595238Y-87101009D02*
X209642857Y-87053390D01*
X209642857Y-87053390D02*
X209738095Y-87005771D01*
X209738095Y-87005771D02*
X209976190Y-87005771D01*
X209976190Y-87005771D02*
X210071428Y-87053390D01*
X210071428Y-87053390D02*
X210119047Y-87101009D01*
X210119047Y-87101009D02*
X210166666Y-87196247D01*
X210166666Y-87196247D02*
X210166666Y-87434342D01*
X210166666Y-87434342D02*
X210119047Y-87529580D01*
X210119047Y-87529580D02*
X210071428Y-87577200D01*
X210071428Y-87577200D02*
X209976190Y-87624819D01*
X209976190Y-87624819D02*
X209738095Y-87624819D01*
X209738095Y-87624819D02*
X209642857Y-87577200D01*
X209642857Y-87577200D02*
X209595238Y-87529580D01*
X217738095Y-86624819D02*
X218309523Y-86624819D01*
X218023809Y-87624819D02*
X218023809Y-86624819D01*
X218642857Y-87624819D02*
X218642857Y-86624819D01*
X218642857Y-86624819D02*
X219023809Y-86624819D01*
X219023809Y-86624819D02*
X219119047Y-86672438D01*
X219119047Y-86672438D02*
X219166666Y-86720057D01*
X219166666Y-86720057D02*
X219214285Y-86815295D01*
X219214285Y-86815295D02*
X219214285Y-86958152D01*
X219214285Y-86958152D02*
X219166666Y-87053390D01*
X219166666Y-87053390D02*
X219119047Y-87101009D01*
X219119047Y-87101009D02*
X219023809Y-87148628D01*
X219023809Y-87148628D02*
X218642857Y-87148628D01*
X220071428Y-86958152D02*
X220071428Y-87624819D01*
X219833333Y-86577200D02*
X219595238Y-87291485D01*
X219595238Y-87291485D02*
X220214285Y-87291485D01*
X212738095Y-86624819D02*
X213309523Y-86624819D01*
X213023809Y-87624819D02*
X213023809Y-86624819D01*
X213642857Y-87624819D02*
X213642857Y-86624819D01*
X213642857Y-86624819D02*
X214023809Y-86624819D01*
X214023809Y-86624819D02*
X214119047Y-86672438D01*
X214119047Y-86672438D02*
X214166666Y-86720057D01*
X214166666Y-86720057D02*
X214214285Y-86815295D01*
X214214285Y-86815295D02*
X214214285Y-86958152D01*
X214214285Y-86958152D02*
X214166666Y-87053390D01*
X214166666Y-87053390D02*
X214119047Y-87101009D01*
X214119047Y-87101009D02*
X214023809Y-87148628D01*
X214023809Y-87148628D02*
X213642857Y-87148628D01*
X214547619Y-86624819D02*
X215166666Y-86624819D01*
X215166666Y-86624819D02*
X214833333Y-87005771D01*
X214833333Y-87005771D02*
X214976190Y-87005771D01*
X214976190Y-87005771D02*
X215071428Y-87053390D01*
X215071428Y-87053390D02*
X215119047Y-87101009D01*
X215119047Y-87101009D02*
X215166666Y-87196247D01*
X215166666Y-87196247D02*
X215166666Y-87434342D01*
X215166666Y-87434342D02*
X215119047Y-87529580D01*
X215119047Y-87529580D02*
X215071428Y-87577200D01*
X215071428Y-87577200D02*
X214976190Y-87624819D01*
X214976190Y-87624819D02*
X214690476Y-87624819D01*
X214690476Y-87624819D02*
X214595238Y-87577200D01*
X214595238Y-87577200D02*
X214547619Y-87529580D01*
X195141667Y-111157200D02*
X195284524Y-111204819D01*
X195284524Y-111204819D02*
X195522619Y-111204819D01*
X195522619Y-111204819D02*
X195617857Y-111157200D01*
X195617857Y-111157200D02*
X195665476Y-111109580D01*
X195665476Y-111109580D02*
X195713095Y-111014342D01*
X195713095Y-111014342D02*
X195713095Y-110919104D01*
X195713095Y-110919104D02*
X195665476Y-110823866D01*
X195665476Y-110823866D02*
X195617857Y-110776247D01*
X195617857Y-110776247D02*
X195522619Y-110728628D01*
X195522619Y-110728628D02*
X195332143Y-110681009D01*
X195332143Y-110681009D02*
X195236905Y-110633390D01*
X195236905Y-110633390D02*
X195189286Y-110585771D01*
X195189286Y-110585771D02*
X195141667Y-110490533D01*
X195141667Y-110490533D02*
X195141667Y-110395295D01*
X195141667Y-110395295D02*
X195189286Y-110300057D01*
X195189286Y-110300057D02*
X195236905Y-110252438D01*
X195236905Y-110252438D02*
X195332143Y-110204819D01*
X195332143Y-110204819D02*
X195570238Y-110204819D01*
X195570238Y-110204819D02*
X195713095Y-110252438D01*
X196046429Y-110204819D02*
X196284524Y-111204819D01*
X196284524Y-111204819D02*
X196475000Y-110490533D01*
X196475000Y-110490533D02*
X196665476Y-111204819D01*
X196665476Y-111204819D02*
X196903572Y-110204819D01*
X197236905Y-110300057D02*
X197284524Y-110252438D01*
X197284524Y-110252438D02*
X197379762Y-110204819D01*
X197379762Y-110204819D02*
X197617857Y-110204819D01*
X197617857Y-110204819D02*
X197713095Y-110252438D01*
X197713095Y-110252438D02*
X197760714Y-110300057D01*
X197760714Y-110300057D02*
X197808333Y-110395295D01*
X197808333Y-110395295D02*
X197808333Y-110490533D01*
X197808333Y-110490533D02*
X197760714Y-110633390D01*
X197760714Y-110633390D02*
X197189286Y-111204819D01*
X197189286Y-111204819D02*
X197808333Y-111204819D01*
X195141667Y-102157200D02*
X195284524Y-102204819D01*
X195284524Y-102204819D02*
X195522619Y-102204819D01*
X195522619Y-102204819D02*
X195617857Y-102157200D01*
X195617857Y-102157200D02*
X195665476Y-102109580D01*
X195665476Y-102109580D02*
X195713095Y-102014342D01*
X195713095Y-102014342D02*
X195713095Y-101919104D01*
X195713095Y-101919104D02*
X195665476Y-101823866D01*
X195665476Y-101823866D02*
X195617857Y-101776247D01*
X195617857Y-101776247D02*
X195522619Y-101728628D01*
X195522619Y-101728628D02*
X195332143Y-101681009D01*
X195332143Y-101681009D02*
X195236905Y-101633390D01*
X195236905Y-101633390D02*
X195189286Y-101585771D01*
X195189286Y-101585771D02*
X195141667Y-101490533D01*
X195141667Y-101490533D02*
X195141667Y-101395295D01*
X195141667Y-101395295D02*
X195189286Y-101300057D01*
X195189286Y-101300057D02*
X195236905Y-101252438D01*
X195236905Y-101252438D02*
X195332143Y-101204819D01*
X195332143Y-101204819D02*
X195570238Y-101204819D01*
X195570238Y-101204819D02*
X195713095Y-101252438D01*
X196046429Y-101204819D02*
X196284524Y-102204819D01*
X196284524Y-102204819D02*
X196475000Y-101490533D01*
X196475000Y-101490533D02*
X196665476Y-102204819D01*
X196665476Y-102204819D02*
X196903572Y-101204819D01*
X197808333Y-102204819D02*
X197236905Y-102204819D01*
X197522619Y-102204819D02*
X197522619Y-101204819D01*
X197522619Y-101204819D02*
X197427381Y-101347676D01*
X197427381Y-101347676D02*
X197332143Y-101442914D01*
X197332143Y-101442914D02*
X197236905Y-101490533D01*
X223032142Y-115384819D02*
X222698809Y-114908628D01*
X222460714Y-115384819D02*
X222460714Y-114384819D01*
X222460714Y-114384819D02*
X222841666Y-114384819D01*
X222841666Y-114384819D02*
X222936904Y-114432438D01*
X222936904Y-114432438D02*
X222984523Y-114480057D01*
X222984523Y-114480057D02*
X223032142Y-114575295D01*
X223032142Y-114575295D02*
X223032142Y-114718152D01*
X223032142Y-114718152D02*
X222984523Y-114813390D01*
X222984523Y-114813390D02*
X222936904Y-114861009D01*
X222936904Y-114861009D02*
X222841666Y-114908628D01*
X222841666Y-114908628D02*
X222460714Y-114908628D01*
X223413095Y-114480057D02*
X223460714Y-114432438D01*
X223460714Y-114432438D02*
X223555952Y-114384819D01*
X223555952Y-114384819D02*
X223794047Y-114384819D01*
X223794047Y-114384819D02*
X223889285Y-114432438D01*
X223889285Y-114432438D02*
X223936904Y-114480057D01*
X223936904Y-114480057D02*
X223984523Y-114575295D01*
X223984523Y-114575295D02*
X223984523Y-114670533D01*
X223984523Y-114670533D02*
X223936904Y-114813390D01*
X223936904Y-114813390D02*
X223365476Y-115384819D01*
X223365476Y-115384819D02*
X223984523Y-115384819D01*
X224936904Y-115384819D02*
X224365476Y-115384819D01*
X224651190Y-115384819D02*
X224651190Y-114384819D01*
X224651190Y-114384819D02*
X224555952Y-114527676D01*
X224555952Y-114527676D02*
X224460714Y-114622914D01*
X224460714Y-114622914D02*
X224365476Y-114670533D01*
X223043542Y-110454822D02*
X222710209Y-109978631D01*
X222472114Y-110454822D02*
X222472114Y-109454822D01*
X222472114Y-109454822D02*
X222853066Y-109454822D01*
X222853066Y-109454822D02*
X222948304Y-109502441D01*
X222948304Y-109502441D02*
X222995923Y-109550060D01*
X222995923Y-109550060D02*
X223043542Y-109645298D01*
X223043542Y-109645298D02*
X223043542Y-109788155D01*
X223043542Y-109788155D02*
X222995923Y-109883393D01*
X222995923Y-109883393D02*
X222948304Y-109931012D01*
X222948304Y-109931012D02*
X222853066Y-109978631D01*
X222853066Y-109978631D02*
X222472114Y-109978631D01*
X223424495Y-109550060D02*
X223472114Y-109502441D01*
X223472114Y-109502441D02*
X223567352Y-109454822D01*
X223567352Y-109454822D02*
X223805447Y-109454822D01*
X223805447Y-109454822D02*
X223900685Y-109502441D01*
X223900685Y-109502441D02*
X223948304Y-109550060D01*
X223948304Y-109550060D02*
X223995923Y-109645298D01*
X223995923Y-109645298D02*
X223995923Y-109740536D01*
X223995923Y-109740536D02*
X223948304Y-109883393D01*
X223948304Y-109883393D02*
X223376876Y-110454822D01*
X223376876Y-110454822D02*
X223995923Y-110454822D01*
X224614971Y-109454822D02*
X224710209Y-109454822D01*
X224710209Y-109454822D02*
X224805447Y-109502441D01*
X224805447Y-109502441D02*
X224853066Y-109550060D01*
X224853066Y-109550060D02*
X224900685Y-109645298D01*
X224900685Y-109645298D02*
X224948304Y-109835774D01*
X224948304Y-109835774D02*
X224948304Y-110073869D01*
X224948304Y-110073869D02*
X224900685Y-110264345D01*
X224900685Y-110264345D02*
X224853066Y-110359583D01*
X224853066Y-110359583D02*
X224805447Y-110407203D01*
X224805447Y-110407203D02*
X224710209Y-110454822D01*
X224710209Y-110454822D02*
X224614971Y-110454822D01*
X224614971Y-110454822D02*
X224519733Y-110407203D01*
X224519733Y-110407203D02*
X224472114Y-110359583D01*
X224472114Y-110359583D02*
X224424495Y-110264345D01*
X224424495Y-110264345D02*
X224376876Y-110073869D01*
X224376876Y-110073869D02*
X224376876Y-109835774D01*
X224376876Y-109835774D02*
X224424495Y-109645298D01*
X224424495Y-109645298D02*
X224472114Y-109550060D01*
X224472114Y-109550060D02*
X224519733Y-109502441D01*
X224519733Y-109502441D02*
X224614971Y-109454822D01*
X223182142Y-107454819D02*
X222848809Y-106978628D01*
X222610714Y-107454819D02*
X222610714Y-106454819D01*
X222610714Y-106454819D02*
X222991666Y-106454819D01*
X222991666Y-106454819D02*
X223086904Y-106502438D01*
X223086904Y-106502438D02*
X223134523Y-106550057D01*
X223134523Y-106550057D02*
X223182142Y-106645295D01*
X223182142Y-106645295D02*
X223182142Y-106788152D01*
X223182142Y-106788152D02*
X223134523Y-106883390D01*
X223134523Y-106883390D02*
X223086904Y-106931009D01*
X223086904Y-106931009D02*
X222991666Y-106978628D01*
X222991666Y-106978628D02*
X222610714Y-106978628D01*
X224134523Y-107454819D02*
X223563095Y-107454819D01*
X223848809Y-107454819D02*
X223848809Y-106454819D01*
X223848809Y-106454819D02*
X223753571Y-106597676D01*
X223753571Y-106597676D02*
X223658333Y-106692914D01*
X223658333Y-106692914D02*
X223563095Y-106740533D01*
X224610714Y-107454819D02*
X224801190Y-107454819D01*
X224801190Y-107454819D02*
X224896428Y-107407200D01*
X224896428Y-107407200D02*
X224944047Y-107359580D01*
X224944047Y-107359580D02*
X225039285Y-107216723D01*
X225039285Y-107216723D02*
X225086904Y-107026247D01*
X225086904Y-107026247D02*
X225086904Y-106645295D01*
X225086904Y-106645295D02*
X225039285Y-106550057D01*
X225039285Y-106550057D02*
X224991666Y-106502438D01*
X224991666Y-106502438D02*
X224896428Y-106454819D01*
X224896428Y-106454819D02*
X224705952Y-106454819D01*
X224705952Y-106454819D02*
X224610714Y-106502438D01*
X224610714Y-106502438D02*
X224563095Y-106550057D01*
X224563095Y-106550057D02*
X224515476Y-106645295D01*
X224515476Y-106645295D02*
X224515476Y-106883390D01*
X224515476Y-106883390D02*
X224563095Y-106978628D01*
X224563095Y-106978628D02*
X224610714Y-107026247D01*
X224610714Y-107026247D02*
X224705952Y-107073866D01*
X224705952Y-107073866D02*
X224896428Y-107073866D01*
X224896428Y-107073866D02*
X224991666Y-107026247D01*
X224991666Y-107026247D02*
X225039285Y-106978628D01*
X225039285Y-106978628D02*
X225086904Y-106883390D01*
X170652142Y-122335419D02*
X170318809Y-121859228D01*
X170080714Y-122335419D02*
X170080714Y-121335419D01*
X170080714Y-121335419D02*
X170461666Y-121335419D01*
X170461666Y-121335419D02*
X170556904Y-121383038D01*
X170556904Y-121383038D02*
X170604523Y-121430657D01*
X170604523Y-121430657D02*
X170652142Y-121525895D01*
X170652142Y-121525895D02*
X170652142Y-121668752D01*
X170652142Y-121668752D02*
X170604523Y-121763990D01*
X170604523Y-121763990D02*
X170556904Y-121811609D01*
X170556904Y-121811609D02*
X170461666Y-121859228D01*
X170461666Y-121859228D02*
X170080714Y-121859228D01*
X171604523Y-122335419D02*
X171033095Y-122335419D01*
X171318809Y-122335419D02*
X171318809Y-121335419D01*
X171318809Y-121335419D02*
X171223571Y-121478276D01*
X171223571Y-121478276D02*
X171128333Y-121573514D01*
X171128333Y-121573514D02*
X171033095Y-121621133D01*
X172175952Y-121763990D02*
X172080714Y-121716371D01*
X172080714Y-121716371D02*
X172033095Y-121668752D01*
X172033095Y-121668752D02*
X171985476Y-121573514D01*
X171985476Y-121573514D02*
X171985476Y-121525895D01*
X171985476Y-121525895D02*
X172033095Y-121430657D01*
X172033095Y-121430657D02*
X172080714Y-121383038D01*
X172080714Y-121383038D02*
X172175952Y-121335419D01*
X172175952Y-121335419D02*
X172366428Y-121335419D01*
X172366428Y-121335419D02*
X172461666Y-121383038D01*
X172461666Y-121383038D02*
X172509285Y-121430657D01*
X172509285Y-121430657D02*
X172556904Y-121525895D01*
X172556904Y-121525895D02*
X172556904Y-121573514D01*
X172556904Y-121573514D02*
X172509285Y-121668752D01*
X172509285Y-121668752D02*
X172461666Y-121716371D01*
X172461666Y-121716371D02*
X172366428Y-121763990D01*
X172366428Y-121763990D02*
X172175952Y-121763990D01*
X172175952Y-121763990D02*
X172080714Y-121811609D01*
X172080714Y-121811609D02*
X172033095Y-121859228D01*
X172033095Y-121859228D02*
X171985476Y-121954466D01*
X171985476Y-121954466D02*
X171985476Y-122144942D01*
X171985476Y-122144942D02*
X172033095Y-122240180D01*
X172033095Y-122240180D02*
X172080714Y-122287800D01*
X172080714Y-122287800D02*
X172175952Y-122335419D01*
X172175952Y-122335419D02*
X172366428Y-122335419D01*
X172366428Y-122335419D02*
X172461666Y-122287800D01*
X172461666Y-122287800D02*
X172509285Y-122240180D01*
X172509285Y-122240180D02*
X172556904Y-122144942D01*
X172556904Y-122144942D02*
X172556904Y-121954466D01*
X172556904Y-121954466D02*
X172509285Y-121859228D01*
X172509285Y-121859228D02*
X172461666Y-121811609D01*
X172461666Y-121811609D02*
X172366428Y-121763990D01*
X166802142Y-119475419D02*
X166468809Y-118999228D01*
X166230714Y-119475419D02*
X166230714Y-118475419D01*
X166230714Y-118475419D02*
X166611666Y-118475419D01*
X166611666Y-118475419D02*
X166706904Y-118523038D01*
X166706904Y-118523038D02*
X166754523Y-118570657D01*
X166754523Y-118570657D02*
X166802142Y-118665895D01*
X166802142Y-118665895D02*
X166802142Y-118808752D01*
X166802142Y-118808752D02*
X166754523Y-118903990D01*
X166754523Y-118903990D02*
X166706904Y-118951609D01*
X166706904Y-118951609D02*
X166611666Y-118999228D01*
X166611666Y-118999228D02*
X166230714Y-118999228D01*
X167754523Y-119475419D02*
X167183095Y-119475419D01*
X167468809Y-119475419D02*
X167468809Y-118475419D01*
X167468809Y-118475419D02*
X167373571Y-118618276D01*
X167373571Y-118618276D02*
X167278333Y-118713514D01*
X167278333Y-118713514D02*
X167183095Y-118761133D01*
X168087857Y-118475419D02*
X168754523Y-118475419D01*
X168754523Y-118475419D02*
X168325952Y-119475419D01*
X164182142Y-110494819D02*
X163848809Y-110018628D01*
X163610714Y-110494819D02*
X163610714Y-109494819D01*
X163610714Y-109494819D02*
X163991666Y-109494819D01*
X163991666Y-109494819D02*
X164086904Y-109542438D01*
X164086904Y-109542438D02*
X164134523Y-109590057D01*
X164134523Y-109590057D02*
X164182142Y-109685295D01*
X164182142Y-109685295D02*
X164182142Y-109828152D01*
X164182142Y-109828152D02*
X164134523Y-109923390D01*
X164134523Y-109923390D02*
X164086904Y-109971009D01*
X164086904Y-109971009D02*
X163991666Y-110018628D01*
X163991666Y-110018628D02*
X163610714Y-110018628D01*
X165134523Y-110494819D02*
X164563095Y-110494819D01*
X164848809Y-110494819D02*
X164848809Y-109494819D01*
X164848809Y-109494819D02*
X164753571Y-109637676D01*
X164753571Y-109637676D02*
X164658333Y-109732914D01*
X164658333Y-109732914D02*
X164563095Y-109780533D01*
X165991666Y-109494819D02*
X165801190Y-109494819D01*
X165801190Y-109494819D02*
X165705952Y-109542438D01*
X165705952Y-109542438D02*
X165658333Y-109590057D01*
X165658333Y-109590057D02*
X165563095Y-109732914D01*
X165563095Y-109732914D02*
X165515476Y-109923390D01*
X165515476Y-109923390D02*
X165515476Y-110304342D01*
X165515476Y-110304342D02*
X165563095Y-110399580D01*
X165563095Y-110399580D02*
X165610714Y-110447200D01*
X165610714Y-110447200D02*
X165705952Y-110494819D01*
X165705952Y-110494819D02*
X165896428Y-110494819D01*
X165896428Y-110494819D02*
X165991666Y-110447200D01*
X165991666Y-110447200D02*
X166039285Y-110399580D01*
X166039285Y-110399580D02*
X166086904Y-110304342D01*
X166086904Y-110304342D02*
X166086904Y-110066247D01*
X166086904Y-110066247D02*
X166039285Y-109971009D01*
X166039285Y-109971009D02*
X165991666Y-109923390D01*
X165991666Y-109923390D02*
X165896428Y-109875771D01*
X165896428Y-109875771D02*
X165705952Y-109875771D01*
X165705952Y-109875771D02*
X165610714Y-109923390D01*
X165610714Y-109923390D02*
X165563095Y-109971009D01*
X165563095Y-109971009D02*
X165515476Y-110066247D01*
X156884819Y-127817857D02*
X156408628Y-128151190D01*
X156884819Y-128389285D02*
X155884819Y-128389285D01*
X155884819Y-128389285D02*
X155884819Y-128008333D01*
X155884819Y-128008333D02*
X155932438Y-127913095D01*
X155932438Y-127913095D02*
X155980057Y-127865476D01*
X155980057Y-127865476D02*
X156075295Y-127817857D01*
X156075295Y-127817857D02*
X156218152Y-127817857D01*
X156218152Y-127817857D02*
X156313390Y-127865476D01*
X156313390Y-127865476D02*
X156361009Y-127913095D01*
X156361009Y-127913095D02*
X156408628Y-128008333D01*
X156408628Y-128008333D02*
X156408628Y-128389285D01*
X156884819Y-126865476D02*
X156884819Y-127436904D01*
X156884819Y-127151190D02*
X155884819Y-127151190D01*
X155884819Y-127151190D02*
X156027676Y-127246428D01*
X156027676Y-127246428D02*
X156122914Y-127341666D01*
X156122914Y-127341666D02*
X156170533Y-127436904D01*
X155884819Y-125960714D02*
X155884819Y-126436904D01*
X155884819Y-126436904D02*
X156361009Y-126484523D01*
X156361009Y-126484523D02*
X156313390Y-126436904D01*
X156313390Y-126436904D02*
X156265771Y-126341666D01*
X156265771Y-126341666D02*
X156265771Y-126103571D01*
X156265771Y-126103571D02*
X156313390Y-126008333D01*
X156313390Y-126008333D02*
X156361009Y-125960714D01*
X156361009Y-125960714D02*
X156456247Y-125913095D01*
X156456247Y-125913095D02*
X156694342Y-125913095D01*
X156694342Y-125913095D02*
X156789580Y-125960714D01*
X156789580Y-125960714D02*
X156837200Y-126008333D01*
X156837200Y-126008333D02*
X156884819Y-126103571D01*
X156884819Y-126103571D02*
X156884819Y-126341666D01*
X156884819Y-126341666D02*
X156837200Y-126436904D01*
X156837200Y-126436904D02*
X156789580Y-126484523D01*
X156884819Y-132317857D02*
X156408628Y-132651190D01*
X156884819Y-132889285D02*
X155884819Y-132889285D01*
X155884819Y-132889285D02*
X155884819Y-132508333D01*
X155884819Y-132508333D02*
X155932438Y-132413095D01*
X155932438Y-132413095D02*
X155980057Y-132365476D01*
X155980057Y-132365476D02*
X156075295Y-132317857D01*
X156075295Y-132317857D02*
X156218152Y-132317857D01*
X156218152Y-132317857D02*
X156313390Y-132365476D01*
X156313390Y-132365476D02*
X156361009Y-132413095D01*
X156361009Y-132413095D02*
X156408628Y-132508333D01*
X156408628Y-132508333D02*
X156408628Y-132889285D01*
X156884819Y-131365476D02*
X156884819Y-131936904D01*
X156884819Y-131651190D02*
X155884819Y-131651190D01*
X155884819Y-131651190D02*
X156027676Y-131746428D01*
X156027676Y-131746428D02*
X156122914Y-131841666D01*
X156122914Y-131841666D02*
X156170533Y-131936904D01*
X156218152Y-130508333D02*
X156884819Y-130508333D01*
X155837200Y-130746428D02*
X156551485Y-130984523D01*
X156551485Y-130984523D02*
X156551485Y-130365476D01*
X162884819Y-118967857D02*
X162408628Y-119301190D01*
X162884819Y-119539285D02*
X161884819Y-119539285D01*
X161884819Y-119539285D02*
X161884819Y-119158333D01*
X161884819Y-119158333D02*
X161932438Y-119063095D01*
X161932438Y-119063095D02*
X161980057Y-119015476D01*
X161980057Y-119015476D02*
X162075295Y-118967857D01*
X162075295Y-118967857D02*
X162218152Y-118967857D01*
X162218152Y-118967857D02*
X162313390Y-119015476D01*
X162313390Y-119015476D02*
X162361009Y-119063095D01*
X162361009Y-119063095D02*
X162408628Y-119158333D01*
X162408628Y-119158333D02*
X162408628Y-119539285D01*
X162884819Y-118015476D02*
X162884819Y-118586904D01*
X162884819Y-118301190D02*
X161884819Y-118301190D01*
X161884819Y-118301190D02*
X162027676Y-118396428D01*
X162027676Y-118396428D02*
X162122914Y-118491666D01*
X162122914Y-118491666D02*
X162170533Y-118586904D01*
X161884819Y-117682142D02*
X161884819Y-117063095D01*
X161884819Y-117063095D02*
X162265771Y-117396428D01*
X162265771Y-117396428D02*
X162265771Y-117253571D01*
X162265771Y-117253571D02*
X162313390Y-117158333D01*
X162313390Y-117158333D02*
X162361009Y-117110714D01*
X162361009Y-117110714D02*
X162456247Y-117063095D01*
X162456247Y-117063095D02*
X162694342Y-117063095D01*
X162694342Y-117063095D02*
X162789580Y-117110714D01*
X162789580Y-117110714D02*
X162837200Y-117158333D01*
X162837200Y-117158333D02*
X162884819Y-117253571D01*
X162884819Y-117253571D02*
X162884819Y-117539285D01*
X162884819Y-117539285D02*
X162837200Y-117634523D01*
X162837200Y-117634523D02*
X162789580Y-117682142D01*
X158532142Y-107994819D02*
X158198809Y-107518628D01*
X157960714Y-107994819D02*
X157960714Y-106994819D01*
X157960714Y-106994819D02*
X158341666Y-106994819D01*
X158341666Y-106994819D02*
X158436904Y-107042438D01*
X158436904Y-107042438D02*
X158484523Y-107090057D01*
X158484523Y-107090057D02*
X158532142Y-107185295D01*
X158532142Y-107185295D02*
X158532142Y-107328152D01*
X158532142Y-107328152D02*
X158484523Y-107423390D01*
X158484523Y-107423390D02*
X158436904Y-107471009D01*
X158436904Y-107471009D02*
X158341666Y-107518628D01*
X158341666Y-107518628D02*
X157960714Y-107518628D01*
X159484523Y-107994819D02*
X158913095Y-107994819D01*
X159198809Y-107994819D02*
X159198809Y-106994819D01*
X159198809Y-106994819D02*
X159103571Y-107137676D01*
X159103571Y-107137676D02*
X159008333Y-107232914D01*
X159008333Y-107232914D02*
X158913095Y-107280533D01*
X159865476Y-107090057D02*
X159913095Y-107042438D01*
X159913095Y-107042438D02*
X160008333Y-106994819D01*
X160008333Y-106994819D02*
X160246428Y-106994819D01*
X160246428Y-106994819D02*
X160341666Y-107042438D01*
X160341666Y-107042438D02*
X160389285Y-107090057D01*
X160389285Y-107090057D02*
X160436904Y-107185295D01*
X160436904Y-107185295D02*
X160436904Y-107280533D01*
X160436904Y-107280533D02*
X160389285Y-107423390D01*
X160389285Y-107423390D02*
X159817857Y-107994819D01*
X159817857Y-107994819D02*
X160436904Y-107994819D01*
X160384819Y-105787857D02*
X159908628Y-106121190D01*
X160384819Y-106359285D02*
X159384819Y-106359285D01*
X159384819Y-106359285D02*
X159384819Y-105978333D01*
X159384819Y-105978333D02*
X159432438Y-105883095D01*
X159432438Y-105883095D02*
X159480057Y-105835476D01*
X159480057Y-105835476D02*
X159575295Y-105787857D01*
X159575295Y-105787857D02*
X159718152Y-105787857D01*
X159718152Y-105787857D02*
X159813390Y-105835476D01*
X159813390Y-105835476D02*
X159861009Y-105883095D01*
X159861009Y-105883095D02*
X159908628Y-105978333D01*
X159908628Y-105978333D02*
X159908628Y-106359285D01*
X160384819Y-104835476D02*
X160384819Y-105406904D01*
X160384819Y-105121190D02*
X159384819Y-105121190D01*
X159384819Y-105121190D02*
X159527676Y-105216428D01*
X159527676Y-105216428D02*
X159622914Y-105311666D01*
X159622914Y-105311666D02*
X159670533Y-105406904D01*
X160384819Y-103883095D02*
X160384819Y-104454523D01*
X160384819Y-104168809D02*
X159384819Y-104168809D01*
X159384819Y-104168809D02*
X159527676Y-104264047D01*
X159527676Y-104264047D02*
X159622914Y-104359285D01*
X159622914Y-104359285D02*
X159670533Y-104454523D01*
X161384819Y-94967857D02*
X160908628Y-95301190D01*
X161384819Y-95539285D02*
X160384819Y-95539285D01*
X160384819Y-95539285D02*
X160384819Y-95158333D01*
X160384819Y-95158333D02*
X160432438Y-95063095D01*
X160432438Y-95063095D02*
X160480057Y-95015476D01*
X160480057Y-95015476D02*
X160575295Y-94967857D01*
X160575295Y-94967857D02*
X160718152Y-94967857D01*
X160718152Y-94967857D02*
X160813390Y-95015476D01*
X160813390Y-95015476D02*
X160861009Y-95063095D01*
X160861009Y-95063095D02*
X160908628Y-95158333D01*
X160908628Y-95158333D02*
X160908628Y-95539285D01*
X161384819Y-94015476D02*
X161384819Y-94586904D01*
X161384819Y-94301190D02*
X160384819Y-94301190D01*
X160384819Y-94301190D02*
X160527676Y-94396428D01*
X160527676Y-94396428D02*
X160622914Y-94491666D01*
X160622914Y-94491666D02*
X160670533Y-94586904D01*
X160384819Y-93396428D02*
X160384819Y-93301190D01*
X160384819Y-93301190D02*
X160432438Y-93205952D01*
X160432438Y-93205952D02*
X160480057Y-93158333D01*
X160480057Y-93158333D02*
X160575295Y-93110714D01*
X160575295Y-93110714D02*
X160765771Y-93063095D01*
X160765771Y-93063095D02*
X161003866Y-93063095D01*
X161003866Y-93063095D02*
X161194342Y-93110714D01*
X161194342Y-93110714D02*
X161289580Y-93158333D01*
X161289580Y-93158333D02*
X161337200Y-93205952D01*
X161337200Y-93205952D02*
X161384819Y-93301190D01*
X161384819Y-93301190D02*
X161384819Y-93396428D01*
X161384819Y-93396428D02*
X161337200Y-93491666D01*
X161337200Y-93491666D02*
X161289580Y-93539285D01*
X161289580Y-93539285D02*
X161194342Y-93586904D01*
X161194342Y-93586904D02*
X161003866Y-93634523D01*
X161003866Y-93634523D02*
X160765771Y-93634523D01*
X160765771Y-93634523D02*
X160575295Y-93586904D01*
X160575295Y-93586904D02*
X160480057Y-93539285D01*
X160480057Y-93539285D02*
X160432438Y-93491666D01*
X160432438Y-93491666D02*
X160384819Y-93396428D01*
X169847319Y-97811666D02*
X169371128Y-98144999D01*
X169847319Y-98383094D02*
X168847319Y-98383094D01*
X168847319Y-98383094D02*
X168847319Y-98002142D01*
X168847319Y-98002142D02*
X168894938Y-97906904D01*
X168894938Y-97906904D02*
X168942557Y-97859285D01*
X168942557Y-97859285D02*
X169037795Y-97811666D01*
X169037795Y-97811666D02*
X169180652Y-97811666D01*
X169180652Y-97811666D02*
X169275890Y-97859285D01*
X169275890Y-97859285D02*
X169323509Y-97906904D01*
X169323509Y-97906904D02*
X169371128Y-98002142D01*
X169371128Y-98002142D02*
X169371128Y-98383094D01*
X169847319Y-97335475D02*
X169847319Y-97144999D01*
X169847319Y-97144999D02*
X169799700Y-97049761D01*
X169799700Y-97049761D02*
X169752080Y-97002142D01*
X169752080Y-97002142D02*
X169609223Y-96906904D01*
X169609223Y-96906904D02*
X169418747Y-96859285D01*
X169418747Y-96859285D02*
X169037795Y-96859285D01*
X169037795Y-96859285D02*
X168942557Y-96906904D01*
X168942557Y-96906904D02*
X168894938Y-96954523D01*
X168894938Y-96954523D02*
X168847319Y-97049761D01*
X168847319Y-97049761D02*
X168847319Y-97240237D01*
X168847319Y-97240237D02*
X168894938Y-97335475D01*
X168894938Y-97335475D02*
X168942557Y-97383094D01*
X168942557Y-97383094D02*
X169037795Y-97430713D01*
X169037795Y-97430713D02*
X169275890Y-97430713D01*
X169275890Y-97430713D02*
X169371128Y-97383094D01*
X169371128Y-97383094D02*
X169418747Y-97335475D01*
X169418747Y-97335475D02*
X169466366Y-97240237D01*
X169466366Y-97240237D02*
X169466366Y-97049761D01*
X169466366Y-97049761D02*
X169418747Y-96954523D01*
X169418747Y-96954523D02*
X169371128Y-96906904D01*
X169371128Y-96906904D02*
X169275890Y-96859285D01*
X183634819Y-119269718D02*
X183158628Y-119603051D01*
X183634819Y-119841146D02*
X182634819Y-119841146D01*
X182634819Y-119841146D02*
X182634819Y-119460194D01*
X182634819Y-119460194D02*
X182682438Y-119364956D01*
X182682438Y-119364956D02*
X182730057Y-119317337D01*
X182730057Y-119317337D02*
X182825295Y-119269718D01*
X182825295Y-119269718D02*
X182968152Y-119269718D01*
X182968152Y-119269718D02*
X183063390Y-119317337D01*
X183063390Y-119317337D02*
X183111009Y-119364956D01*
X183111009Y-119364956D02*
X183158628Y-119460194D01*
X183158628Y-119460194D02*
X183158628Y-119841146D01*
X183063390Y-118698289D02*
X183015771Y-118793527D01*
X183015771Y-118793527D02*
X182968152Y-118841146D01*
X182968152Y-118841146D02*
X182872914Y-118888765D01*
X182872914Y-118888765D02*
X182825295Y-118888765D01*
X182825295Y-118888765D02*
X182730057Y-118841146D01*
X182730057Y-118841146D02*
X182682438Y-118793527D01*
X182682438Y-118793527D02*
X182634819Y-118698289D01*
X182634819Y-118698289D02*
X182634819Y-118507813D01*
X182634819Y-118507813D02*
X182682438Y-118412575D01*
X182682438Y-118412575D02*
X182730057Y-118364956D01*
X182730057Y-118364956D02*
X182825295Y-118317337D01*
X182825295Y-118317337D02*
X182872914Y-118317337D01*
X182872914Y-118317337D02*
X182968152Y-118364956D01*
X182968152Y-118364956D02*
X183015771Y-118412575D01*
X183015771Y-118412575D02*
X183063390Y-118507813D01*
X183063390Y-118507813D02*
X183063390Y-118698289D01*
X183063390Y-118698289D02*
X183111009Y-118793527D01*
X183111009Y-118793527D02*
X183158628Y-118841146D01*
X183158628Y-118841146D02*
X183253866Y-118888765D01*
X183253866Y-118888765D02*
X183444342Y-118888765D01*
X183444342Y-118888765D02*
X183539580Y-118841146D01*
X183539580Y-118841146D02*
X183587200Y-118793527D01*
X183587200Y-118793527D02*
X183634819Y-118698289D01*
X183634819Y-118698289D02*
X183634819Y-118507813D01*
X183634819Y-118507813D02*
X183587200Y-118412575D01*
X183587200Y-118412575D02*
X183539580Y-118364956D01*
X183539580Y-118364956D02*
X183444342Y-118317337D01*
X183444342Y-118317337D02*
X183253866Y-118317337D01*
X183253866Y-118317337D02*
X183158628Y-118364956D01*
X183158628Y-118364956D02*
X183111009Y-118412575D01*
X183111009Y-118412575D02*
X183063390Y-118507813D01*
X186834819Y-119269718D02*
X186358628Y-119603051D01*
X186834819Y-119841146D02*
X185834819Y-119841146D01*
X185834819Y-119841146D02*
X185834819Y-119460194D01*
X185834819Y-119460194D02*
X185882438Y-119364956D01*
X185882438Y-119364956D02*
X185930057Y-119317337D01*
X185930057Y-119317337D02*
X186025295Y-119269718D01*
X186025295Y-119269718D02*
X186168152Y-119269718D01*
X186168152Y-119269718D02*
X186263390Y-119317337D01*
X186263390Y-119317337D02*
X186311009Y-119364956D01*
X186311009Y-119364956D02*
X186358628Y-119460194D01*
X186358628Y-119460194D02*
X186358628Y-119841146D01*
X185834819Y-118936384D02*
X185834819Y-118269718D01*
X185834819Y-118269718D02*
X186834819Y-118698289D01*
X189308333Y-119084819D02*
X188975000Y-118608628D01*
X188736905Y-119084819D02*
X188736905Y-118084819D01*
X188736905Y-118084819D02*
X189117857Y-118084819D01*
X189117857Y-118084819D02*
X189213095Y-118132438D01*
X189213095Y-118132438D02*
X189260714Y-118180057D01*
X189260714Y-118180057D02*
X189308333Y-118275295D01*
X189308333Y-118275295D02*
X189308333Y-118418152D01*
X189308333Y-118418152D02*
X189260714Y-118513390D01*
X189260714Y-118513390D02*
X189213095Y-118561009D01*
X189213095Y-118561009D02*
X189117857Y-118608628D01*
X189117857Y-118608628D02*
X188736905Y-118608628D01*
X190165476Y-118084819D02*
X189975000Y-118084819D01*
X189975000Y-118084819D02*
X189879762Y-118132438D01*
X189879762Y-118132438D02*
X189832143Y-118180057D01*
X189832143Y-118180057D02*
X189736905Y-118322914D01*
X189736905Y-118322914D02*
X189689286Y-118513390D01*
X189689286Y-118513390D02*
X189689286Y-118894342D01*
X189689286Y-118894342D02*
X189736905Y-118989580D01*
X189736905Y-118989580D02*
X189784524Y-119037200D01*
X189784524Y-119037200D02*
X189879762Y-119084819D01*
X189879762Y-119084819D02*
X190070238Y-119084819D01*
X190070238Y-119084819D02*
X190165476Y-119037200D01*
X190165476Y-119037200D02*
X190213095Y-118989580D01*
X190213095Y-118989580D02*
X190260714Y-118894342D01*
X190260714Y-118894342D02*
X190260714Y-118656247D01*
X190260714Y-118656247D02*
X190213095Y-118561009D01*
X190213095Y-118561009D02*
X190165476Y-118513390D01*
X190165476Y-118513390D02*
X190070238Y-118465771D01*
X190070238Y-118465771D02*
X189879762Y-118465771D01*
X189879762Y-118465771D02*
X189784524Y-118513390D01*
X189784524Y-118513390D02*
X189736905Y-118561009D01*
X189736905Y-118561009D02*
X189689286Y-118656247D01*
X189633333Y-110584819D02*
X189300000Y-110108628D01*
X189061905Y-110584819D02*
X189061905Y-109584819D01*
X189061905Y-109584819D02*
X189442857Y-109584819D01*
X189442857Y-109584819D02*
X189538095Y-109632438D01*
X189538095Y-109632438D02*
X189585714Y-109680057D01*
X189585714Y-109680057D02*
X189633333Y-109775295D01*
X189633333Y-109775295D02*
X189633333Y-109918152D01*
X189633333Y-109918152D02*
X189585714Y-110013390D01*
X189585714Y-110013390D02*
X189538095Y-110061009D01*
X189538095Y-110061009D02*
X189442857Y-110108628D01*
X189442857Y-110108628D02*
X189061905Y-110108628D01*
X190538095Y-109584819D02*
X190061905Y-109584819D01*
X190061905Y-109584819D02*
X190014286Y-110061009D01*
X190014286Y-110061009D02*
X190061905Y-110013390D01*
X190061905Y-110013390D02*
X190157143Y-109965771D01*
X190157143Y-109965771D02*
X190395238Y-109965771D01*
X190395238Y-109965771D02*
X190490476Y-110013390D01*
X190490476Y-110013390D02*
X190538095Y-110061009D01*
X190538095Y-110061009D02*
X190585714Y-110156247D01*
X190585714Y-110156247D02*
X190585714Y-110394342D01*
X190585714Y-110394342D02*
X190538095Y-110489580D01*
X190538095Y-110489580D02*
X190490476Y-110537200D01*
X190490476Y-110537200D02*
X190395238Y-110584819D01*
X190395238Y-110584819D02*
X190157143Y-110584819D01*
X190157143Y-110584819D02*
X190061905Y-110537200D01*
X190061905Y-110537200D02*
X190014286Y-110489580D01*
X208524819Y-118841666D02*
X208048628Y-119174999D01*
X208524819Y-119413094D02*
X207524819Y-119413094D01*
X207524819Y-119413094D02*
X207524819Y-119032142D01*
X207524819Y-119032142D02*
X207572438Y-118936904D01*
X207572438Y-118936904D02*
X207620057Y-118889285D01*
X207620057Y-118889285D02*
X207715295Y-118841666D01*
X207715295Y-118841666D02*
X207858152Y-118841666D01*
X207858152Y-118841666D02*
X207953390Y-118889285D01*
X207953390Y-118889285D02*
X208001009Y-118936904D01*
X208001009Y-118936904D02*
X208048628Y-119032142D01*
X208048628Y-119032142D02*
X208048628Y-119413094D01*
X207858152Y-117984523D02*
X208524819Y-117984523D01*
X207477200Y-118222618D02*
X208191485Y-118460713D01*
X208191485Y-118460713D02*
X208191485Y-117841666D01*
X219524819Y-118841666D02*
X219048628Y-119174999D01*
X219524819Y-119413094D02*
X218524819Y-119413094D01*
X218524819Y-119413094D02*
X218524819Y-119032142D01*
X218524819Y-119032142D02*
X218572438Y-118936904D01*
X218572438Y-118936904D02*
X218620057Y-118889285D01*
X218620057Y-118889285D02*
X218715295Y-118841666D01*
X218715295Y-118841666D02*
X218858152Y-118841666D01*
X218858152Y-118841666D02*
X218953390Y-118889285D01*
X218953390Y-118889285D02*
X219001009Y-118936904D01*
X219001009Y-118936904D02*
X219048628Y-119032142D01*
X219048628Y-119032142D02*
X219048628Y-119413094D01*
X218524819Y-118508332D02*
X218524819Y-117889285D01*
X218524819Y-117889285D02*
X218905771Y-118222618D01*
X218905771Y-118222618D02*
X218905771Y-118079761D01*
X218905771Y-118079761D02*
X218953390Y-117984523D01*
X218953390Y-117984523D02*
X219001009Y-117936904D01*
X219001009Y-117936904D02*
X219096247Y-117889285D01*
X219096247Y-117889285D02*
X219334342Y-117889285D01*
X219334342Y-117889285D02*
X219429580Y-117936904D01*
X219429580Y-117936904D02*
X219477200Y-117984523D01*
X219477200Y-117984523D02*
X219524819Y-118079761D01*
X219524819Y-118079761D02*
X219524819Y-118365475D01*
X219524819Y-118365475D02*
X219477200Y-118460713D01*
X219477200Y-118460713D02*
X219429580Y-118508332D01*
X208508333Y-146884819D02*
X208175000Y-146408628D01*
X207936905Y-146884819D02*
X207936905Y-145884819D01*
X207936905Y-145884819D02*
X208317857Y-145884819D01*
X208317857Y-145884819D02*
X208413095Y-145932438D01*
X208413095Y-145932438D02*
X208460714Y-145980057D01*
X208460714Y-145980057D02*
X208508333Y-146075295D01*
X208508333Y-146075295D02*
X208508333Y-146218152D01*
X208508333Y-146218152D02*
X208460714Y-146313390D01*
X208460714Y-146313390D02*
X208413095Y-146361009D01*
X208413095Y-146361009D02*
X208317857Y-146408628D01*
X208317857Y-146408628D02*
X207936905Y-146408628D01*
X208889286Y-145980057D02*
X208936905Y-145932438D01*
X208936905Y-145932438D02*
X209032143Y-145884819D01*
X209032143Y-145884819D02*
X209270238Y-145884819D01*
X209270238Y-145884819D02*
X209365476Y-145932438D01*
X209365476Y-145932438D02*
X209413095Y-145980057D01*
X209413095Y-145980057D02*
X209460714Y-146075295D01*
X209460714Y-146075295D02*
X209460714Y-146170533D01*
X209460714Y-146170533D02*
X209413095Y-146313390D01*
X209413095Y-146313390D02*
X208841667Y-146884819D01*
X208841667Y-146884819D02*
X209460714Y-146884819D01*
X221384819Y-132841666D02*
X220908628Y-133174999D01*
X221384819Y-133413094D02*
X220384819Y-133413094D01*
X220384819Y-133413094D02*
X220384819Y-133032142D01*
X220384819Y-133032142D02*
X220432438Y-132936904D01*
X220432438Y-132936904D02*
X220480057Y-132889285D01*
X220480057Y-132889285D02*
X220575295Y-132841666D01*
X220575295Y-132841666D02*
X220718152Y-132841666D01*
X220718152Y-132841666D02*
X220813390Y-132889285D01*
X220813390Y-132889285D02*
X220861009Y-132936904D01*
X220861009Y-132936904D02*
X220908628Y-133032142D01*
X220908628Y-133032142D02*
X220908628Y-133413094D01*
X221384819Y-131889285D02*
X221384819Y-132460713D01*
X221384819Y-132174999D02*
X220384819Y-132174999D01*
X220384819Y-132174999D02*
X220527676Y-132270237D01*
X220527676Y-132270237D02*
X220622914Y-132365475D01*
X220622914Y-132365475D02*
X220670533Y-132460713D01*
X183950057Y-123460790D02*
X183902438Y-123556028D01*
X183902438Y-123556028D02*
X183807200Y-123651266D01*
X183807200Y-123651266D02*
X183664342Y-123794123D01*
X183664342Y-123794123D02*
X183616723Y-123889361D01*
X183616723Y-123889361D02*
X183616723Y-123984599D01*
X183854819Y-123936980D02*
X183807200Y-124032218D01*
X183807200Y-124032218D02*
X183711961Y-124127456D01*
X183711961Y-124127456D02*
X183521485Y-124175075D01*
X183521485Y-124175075D02*
X183188152Y-124175075D01*
X183188152Y-124175075D02*
X182997676Y-124127456D01*
X182997676Y-124127456D02*
X182902438Y-124032218D01*
X182902438Y-124032218D02*
X182854819Y-123936980D01*
X182854819Y-123936980D02*
X182854819Y-123746504D01*
X182854819Y-123746504D02*
X182902438Y-123651266D01*
X182902438Y-123651266D02*
X182997676Y-123556028D01*
X182997676Y-123556028D02*
X183188152Y-123508409D01*
X183188152Y-123508409D02*
X183521485Y-123508409D01*
X183521485Y-123508409D02*
X183711961Y-123556028D01*
X183711961Y-123556028D02*
X183807200Y-123651266D01*
X183807200Y-123651266D02*
X183854819Y-123746504D01*
X183854819Y-123746504D02*
X183854819Y-123936980D01*
X182950057Y-123127456D02*
X182902438Y-123079837D01*
X182902438Y-123079837D02*
X182854819Y-122984599D01*
X182854819Y-122984599D02*
X182854819Y-122746504D01*
X182854819Y-122746504D02*
X182902438Y-122651266D01*
X182902438Y-122651266D02*
X182950057Y-122603647D01*
X182950057Y-122603647D02*
X183045295Y-122556028D01*
X183045295Y-122556028D02*
X183140533Y-122556028D01*
X183140533Y-122556028D02*
X183283390Y-122603647D01*
X183283390Y-122603647D02*
X183854819Y-123175075D01*
X183854819Y-123175075D02*
X183854819Y-122556028D01*
X188850057Y-123460790D02*
X188802438Y-123556028D01*
X188802438Y-123556028D02*
X188707200Y-123651266D01*
X188707200Y-123651266D02*
X188564342Y-123794123D01*
X188564342Y-123794123D02*
X188516723Y-123889361D01*
X188516723Y-123889361D02*
X188516723Y-123984599D01*
X188754819Y-123936980D02*
X188707200Y-124032218D01*
X188707200Y-124032218D02*
X188611961Y-124127456D01*
X188611961Y-124127456D02*
X188421485Y-124175075D01*
X188421485Y-124175075D02*
X188088152Y-124175075D01*
X188088152Y-124175075D02*
X187897676Y-124127456D01*
X187897676Y-124127456D02*
X187802438Y-124032218D01*
X187802438Y-124032218D02*
X187754819Y-123936980D01*
X187754819Y-123936980D02*
X187754819Y-123746504D01*
X187754819Y-123746504D02*
X187802438Y-123651266D01*
X187802438Y-123651266D02*
X187897676Y-123556028D01*
X187897676Y-123556028D02*
X188088152Y-123508409D01*
X188088152Y-123508409D02*
X188421485Y-123508409D01*
X188421485Y-123508409D02*
X188611961Y-123556028D01*
X188611961Y-123556028D02*
X188707200Y-123651266D01*
X188707200Y-123651266D02*
X188754819Y-123746504D01*
X188754819Y-123746504D02*
X188754819Y-123936980D01*
X188754819Y-122556028D02*
X188754819Y-123127456D01*
X188754819Y-122841742D02*
X187754819Y-122841742D01*
X187754819Y-122841742D02*
X187897676Y-122936980D01*
X187897676Y-122936980D02*
X187992914Y-123032218D01*
X187992914Y-123032218D02*
X188040533Y-123127456D01*
X182666666Y-141974819D02*
X182666666Y-142689104D01*
X182666666Y-142689104D02*
X182619047Y-142831961D01*
X182619047Y-142831961D02*
X182523809Y-142927200D01*
X182523809Y-142927200D02*
X182380952Y-142974819D01*
X182380952Y-142974819D02*
X182285714Y-142974819D01*
X183619047Y-141974819D02*
X183142857Y-141974819D01*
X183142857Y-141974819D02*
X183095238Y-142451009D01*
X183095238Y-142451009D02*
X183142857Y-142403390D01*
X183142857Y-142403390D02*
X183238095Y-142355771D01*
X183238095Y-142355771D02*
X183476190Y-142355771D01*
X183476190Y-142355771D02*
X183571428Y-142403390D01*
X183571428Y-142403390D02*
X183619047Y-142451009D01*
X183619047Y-142451009D02*
X183666666Y-142546247D01*
X183666666Y-142546247D02*
X183666666Y-142784342D01*
X183666666Y-142784342D02*
X183619047Y-142879580D01*
X183619047Y-142879580D02*
X183571428Y-142927200D01*
X183571428Y-142927200D02*
X183476190Y-142974819D01*
X183476190Y-142974819D02*
X183238095Y-142974819D01*
X183238095Y-142974819D02*
X183142857Y-142927200D01*
X183142857Y-142927200D02*
X183095238Y-142879580D01*
X163519166Y-91969819D02*
X163519166Y-92684104D01*
X163519166Y-92684104D02*
X163471547Y-92826961D01*
X163471547Y-92826961D02*
X163376309Y-92922200D01*
X163376309Y-92922200D02*
X163233452Y-92969819D01*
X163233452Y-92969819D02*
X163138214Y-92969819D01*
X164423928Y-92303152D02*
X164423928Y-92969819D01*
X164185833Y-91922200D02*
X163947738Y-92636485D01*
X163947738Y-92636485D02*
X164566785Y-92636485D01*
X174764819Y-145333333D02*
X175479104Y-145333333D01*
X175479104Y-145333333D02*
X175621961Y-145380952D01*
X175621961Y-145380952D02*
X175717200Y-145476190D01*
X175717200Y-145476190D02*
X175764819Y-145619047D01*
X175764819Y-145619047D02*
X175764819Y-145714285D01*
X174764819Y-144952380D02*
X174764819Y-144333333D01*
X174764819Y-144333333D02*
X175145771Y-144666666D01*
X175145771Y-144666666D02*
X175145771Y-144523809D01*
X175145771Y-144523809D02*
X175193390Y-144428571D01*
X175193390Y-144428571D02*
X175241009Y-144380952D01*
X175241009Y-144380952D02*
X175336247Y-144333333D01*
X175336247Y-144333333D02*
X175574342Y-144333333D01*
X175574342Y-144333333D02*
X175669580Y-144380952D01*
X175669580Y-144380952D02*
X175717200Y-144428571D01*
X175717200Y-144428571D02*
X175764819Y-144523809D01*
X175764819Y-144523809D02*
X175764819Y-144809523D01*
X175764819Y-144809523D02*
X175717200Y-144904761D01*
X175717200Y-144904761D02*
X175669580Y-144952380D01*
X219566666Y-148754819D02*
X219566666Y-149469104D01*
X219566666Y-149469104D02*
X219519047Y-149611961D01*
X219519047Y-149611961D02*
X219423809Y-149707200D01*
X219423809Y-149707200D02*
X219280952Y-149754819D01*
X219280952Y-149754819D02*
X219185714Y-149754819D01*
X219995238Y-148850057D02*
X220042857Y-148802438D01*
X220042857Y-148802438D02*
X220138095Y-148754819D01*
X220138095Y-148754819D02*
X220376190Y-148754819D01*
X220376190Y-148754819D02*
X220471428Y-148802438D01*
X220471428Y-148802438D02*
X220519047Y-148850057D01*
X220519047Y-148850057D02*
X220566666Y-148945295D01*
X220566666Y-148945295D02*
X220566666Y-149040533D01*
X220566666Y-149040533D02*
X220519047Y-149183390D01*
X220519047Y-149183390D02*
X219947619Y-149754819D01*
X219947619Y-149754819D02*
X220566666Y-149754819D01*
X223166666Y-121524819D02*
X223166666Y-122239104D01*
X223166666Y-122239104D02*
X223119047Y-122381961D01*
X223119047Y-122381961D02*
X223023809Y-122477200D01*
X223023809Y-122477200D02*
X222880952Y-122524819D01*
X222880952Y-122524819D02*
X222785714Y-122524819D01*
X224166666Y-122524819D02*
X223595238Y-122524819D01*
X223880952Y-122524819D02*
X223880952Y-121524819D01*
X223880952Y-121524819D02*
X223785714Y-121667676D01*
X223785714Y-121667676D02*
X223690476Y-121762914D01*
X223690476Y-121762914D02*
X223595238Y-121810533D01*
X158603810Y-122509819D02*
X158603810Y-121509819D01*
X159651428Y-122414580D02*
X159603809Y-122462200D01*
X159603809Y-122462200D02*
X159460952Y-122509819D01*
X159460952Y-122509819D02*
X159365714Y-122509819D01*
X159365714Y-122509819D02*
X159222857Y-122462200D01*
X159222857Y-122462200D02*
X159127619Y-122366961D01*
X159127619Y-122366961D02*
X159080000Y-122271723D01*
X159080000Y-122271723D02*
X159032381Y-122081247D01*
X159032381Y-122081247D02*
X159032381Y-121938390D01*
X159032381Y-121938390D02*
X159080000Y-121747914D01*
X159080000Y-121747914D02*
X159127619Y-121652676D01*
X159127619Y-121652676D02*
X159222857Y-121557438D01*
X159222857Y-121557438D02*
X159365714Y-121509819D01*
X159365714Y-121509819D02*
X159460952Y-121509819D01*
X159460952Y-121509819D02*
X159603809Y-121557438D01*
X159603809Y-121557438D02*
X159651428Y-121605057D01*
X160603809Y-122509819D02*
X160032381Y-122509819D01*
X160318095Y-122509819D02*
X160318095Y-121509819D01*
X160318095Y-121509819D02*
X160222857Y-121652676D01*
X160222857Y-121652676D02*
X160127619Y-121747914D01*
X160127619Y-121747914D02*
X160032381Y-121795533D01*
X169963509Y-93428333D02*
X169963509Y-93761666D01*
X170487319Y-93761666D02*
X169487319Y-93761666D01*
X169487319Y-93761666D02*
X169487319Y-93285476D01*
X169963509Y-92571190D02*
X170011128Y-92428333D01*
X170011128Y-92428333D02*
X170058747Y-92380714D01*
X170058747Y-92380714D02*
X170153985Y-92333095D01*
X170153985Y-92333095D02*
X170296842Y-92333095D01*
X170296842Y-92333095D02*
X170392080Y-92380714D01*
X170392080Y-92380714D02*
X170439700Y-92428333D01*
X170439700Y-92428333D02*
X170487319Y-92523571D01*
X170487319Y-92523571D02*
X170487319Y-92904523D01*
X170487319Y-92904523D02*
X169487319Y-92904523D01*
X169487319Y-92904523D02*
X169487319Y-92571190D01*
X169487319Y-92571190D02*
X169534938Y-92475952D01*
X169534938Y-92475952D02*
X169582557Y-92428333D01*
X169582557Y-92428333D02*
X169677795Y-92380714D01*
X169677795Y-92380714D02*
X169773033Y-92380714D01*
X169773033Y-92380714D02*
X169868271Y-92428333D01*
X169868271Y-92428333D02*
X169915890Y-92475952D01*
X169915890Y-92475952D02*
X169963509Y-92571190D01*
X169963509Y-92571190D02*
X169963509Y-92904523D01*
X170487319Y-91380714D02*
X170487319Y-91952142D01*
X170487319Y-91666428D02*
X169487319Y-91666428D01*
X169487319Y-91666428D02*
X169630176Y-91761666D01*
X169630176Y-91761666D02*
X169725414Y-91856904D01*
X169725414Y-91856904D02*
X169773033Y-91952142D01*
X170841666Y-89831009D02*
X170508333Y-89831009D01*
X170508333Y-90354819D02*
X170508333Y-89354819D01*
X170508333Y-89354819D02*
X170984523Y-89354819D01*
X171317857Y-89450057D02*
X171365476Y-89402438D01*
X171365476Y-89402438D02*
X171460714Y-89354819D01*
X171460714Y-89354819D02*
X171698809Y-89354819D01*
X171698809Y-89354819D02*
X171794047Y-89402438D01*
X171794047Y-89402438D02*
X171841666Y-89450057D01*
X171841666Y-89450057D02*
X171889285Y-89545295D01*
X171889285Y-89545295D02*
X171889285Y-89640533D01*
X171889285Y-89640533D02*
X171841666Y-89783390D01*
X171841666Y-89783390D02*
X171270238Y-90354819D01*
X171270238Y-90354819D02*
X171889285Y-90354819D01*
X218111009Y-123733333D02*
X218111009Y-124066666D01*
X218634819Y-124066666D02*
X217634819Y-124066666D01*
X217634819Y-124066666D02*
X217634819Y-123590476D01*
X218634819Y-122685714D02*
X218634819Y-123257142D01*
X218634819Y-122971428D02*
X217634819Y-122971428D01*
X217634819Y-122971428D02*
X217777676Y-123066666D01*
X217777676Y-123066666D02*
X217872914Y-123161904D01*
X217872914Y-123161904D02*
X217920533Y-123257142D01*
X226636905Y-115384819D02*
X226636905Y-114384819D01*
X226636905Y-114384819D02*
X226875000Y-114384819D01*
X226875000Y-114384819D02*
X227017857Y-114432438D01*
X227017857Y-114432438D02*
X227113095Y-114527676D01*
X227113095Y-114527676D02*
X227160714Y-114622914D01*
X227160714Y-114622914D02*
X227208333Y-114813390D01*
X227208333Y-114813390D02*
X227208333Y-114956247D01*
X227208333Y-114956247D02*
X227160714Y-115146723D01*
X227160714Y-115146723D02*
X227113095Y-115241961D01*
X227113095Y-115241961D02*
X227017857Y-115337200D01*
X227017857Y-115337200D02*
X226875000Y-115384819D01*
X226875000Y-115384819D02*
X226636905Y-115384819D01*
X227684524Y-115384819D02*
X227875000Y-115384819D01*
X227875000Y-115384819D02*
X227970238Y-115337200D01*
X227970238Y-115337200D02*
X228017857Y-115289580D01*
X228017857Y-115289580D02*
X228113095Y-115146723D01*
X228113095Y-115146723D02*
X228160714Y-114956247D01*
X228160714Y-114956247D02*
X228160714Y-114575295D01*
X228160714Y-114575295D02*
X228113095Y-114480057D01*
X228113095Y-114480057D02*
X228065476Y-114432438D01*
X228065476Y-114432438D02*
X227970238Y-114384819D01*
X227970238Y-114384819D02*
X227779762Y-114384819D01*
X227779762Y-114384819D02*
X227684524Y-114432438D01*
X227684524Y-114432438D02*
X227636905Y-114480057D01*
X227636905Y-114480057D02*
X227589286Y-114575295D01*
X227589286Y-114575295D02*
X227589286Y-114813390D01*
X227589286Y-114813390D02*
X227636905Y-114908628D01*
X227636905Y-114908628D02*
X227684524Y-114956247D01*
X227684524Y-114956247D02*
X227779762Y-115003866D01*
X227779762Y-115003866D02*
X227970238Y-115003866D01*
X227970238Y-115003866D02*
X228065476Y-114956247D01*
X228065476Y-114956247D02*
X228113095Y-114908628D01*
X228113095Y-114908628D02*
X228160714Y-114813390D01*
X226636905Y-110454819D02*
X226636905Y-109454819D01*
X226636905Y-109454819D02*
X226875000Y-109454819D01*
X226875000Y-109454819D02*
X227017857Y-109502438D01*
X227017857Y-109502438D02*
X227113095Y-109597676D01*
X227113095Y-109597676D02*
X227160714Y-109692914D01*
X227160714Y-109692914D02*
X227208333Y-109883390D01*
X227208333Y-109883390D02*
X227208333Y-110026247D01*
X227208333Y-110026247D02*
X227160714Y-110216723D01*
X227160714Y-110216723D02*
X227113095Y-110311961D01*
X227113095Y-110311961D02*
X227017857Y-110407200D01*
X227017857Y-110407200D02*
X226875000Y-110454819D01*
X226875000Y-110454819D02*
X226636905Y-110454819D01*
X227779762Y-109883390D02*
X227684524Y-109835771D01*
X227684524Y-109835771D02*
X227636905Y-109788152D01*
X227636905Y-109788152D02*
X227589286Y-109692914D01*
X227589286Y-109692914D02*
X227589286Y-109645295D01*
X227589286Y-109645295D02*
X227636905Y-109550057D01*
X227636905Y-109550057D02*
X227684524Y-109502438D01*
X227684524Y-109502438D02*
X227779762Y-109454819D01*
X227779762Y-109454819D02*
X227970238Y-109454819D01*
X227970238Y-109454819D02*
X228065476Y-109502438D01*
X228065476Y-109502438D02*
X228113095Y-109550057D01*
X228113095Y-109550057D02*
X228160714Y-109645295D01*
X228160714Y-109645295D02*
X228160714Y-109692914D01*
X228160714Y-109692914D02*
X228113095Y-109788152D01*
X228113095Y-109788152D02*
X228065476Y-109835771D01*
X228065476Y-109835771D02*
X227970238Y-109883390D01*
X227970238Y-109883390D02*
X227779762Y-109883390D01*
X227779762Y-109883390D02*
X227684524Y-109931009D01*
X227684524Y-109931009D02*
X227636905Y-109978628D01*
X227636905Y-109978628D02*
X227589286Y-110073866D01*
X227589286Y-110073866D02*
X227589286Y-110264342D01*
X227589286Y-110264342D02*
X227636905Y-110359580D01*
X227636905Y-110359580D02*
X227684524Y-110407200D01*
X227684524Y-110407200D02*
X227779762Y-110454819D01*
X227779762Y-110454819D02*
X227970238Y-110454819D01*
X227970238Y-110454819D02*
X228065476Y-110407200D01*
X228065476Y-110407200D02*
X228113095Y-110359580D01*
X228113095Y-110359580D02*
X228160714Y-110264342D01*
X228160714Y-110264342D02*
X228160714Y-110073866D01*
X228160714Y-110073866D02*
X228113095Y-109978628D01*
X228113095Y-109978628D02*
X228065476Y-109931009D01*
X228065476Y-109931009D02*
X227970238Y-109883390D01*
X226710505Y-107454791D02*
X226710505Y-106454791D01*
X226710505Y-106454791D02*
X226948600Y-106454791D01*
X226948600Y-106454791D02*
X227091457Y-106502410D01*
X227091457Y-106502410D02*
X227186695Y-106597648D01*
X227186695Y-106597648D02*
X227234314Y-106692886D01*
X227234314Y-106692886D02*
X227281933Y-106883362D01*
X227281933Y-106883362D02*
X227281933Y-107026219D01*
X227281933Y-107026219D02*
X227234314Y-107216695D01*
X227234314Y-107216695D02*
X227186695Y-107311933D01*
X227186695Y-107311933D02*
X227091457Y-107407172D01*
X227091457Y-107407172D02*
X226948600Y-107454791D01*
X226948600Y-107454791D02*
X226710505Y-107454791D01*
X227615267Y-106454791D02*
X228281933Y-106454791D01*
X228281933Y-106454791D02*
X227853362Y-107454791D01*
X166936905Y-95354819D02*
X166936905Y-94354819D01*
X166936905Y-94354819D02*
X167175000Y-94354819D01*
X167175000Y-94354819D02*
X167317857Y-94402438D01*
X167317857Y-94402438D02*
X167413095Y-94497676D01*
X167413095Y-94497676D02*
X167460714Y-94592914D01*
X167460714Y-94592914D02*
X167508333Y-94783390D01*
X167508333Y-94783390D02*
X167508333Y-94926247D01*
X167508333Y-94926247D02*
X167460714Y-95116723D01*
X167460714Y-95116723D02*
X167413095Y-95211961D01*
X167413095Y-95211961D02*
X167317857Y-95307200D01*
X167317857Y-95307200D02*
X167175000Y-95354819D01*
X167175000Y-95354819D02*
X166936905Y-95354819D01*
X168365476Y-94354819D02*
X168175000Y-94354819D01*
X168175000Y-94354819D02*
X168079762Y-94402438D01*
X168079762Y-94402438D02*
X168032143Y-94450057D01*
X168032143Y-94450057D02*
X167936905Y-94592914D01*
X167936905Y-94592914D02*
X167889286Y-94783390D01*
X167889286Y-94783390D02*
X167889286Y-95164342D01*
X167889286Y-95164342D02*
X167936905Y-95259580D01*
X167936905Y-95259580D02*
X167984524Y-95307200D01*
X167984524Y-95307200D02*
X168079762Y-95354819D01*
X168079762Y-95354819D02*
X168270238Y-95354819D01*
X168270238Y-95354819D02*
X168365476Y-95307200D01*
X168365476Y-95307200D02*
X168413095Y-95259580D01*
X168413095Y-95259580D02*
X168460714Y-95164342D01*
X168460714Y-95164342D02*
X168460714Y-94926247D01*
X168460714Y-94926247D02*
X168413095Y-94831009D01*
X168413095Y-94831009D02*
X168365476Y-94783390D01*
X168365476Y-94783390D02*
X168270238Y-94735771D01*
X168270238Y-94735771D02*
X168079762Y-94735771D01*
X168079762Y-94735771D02*
X167984524Y-94783390D01*
X167984524Y-94783390D02*
X167936905Y-94831009D01*
X167936905Y-94831009D02*
X167889286Y-94926247D01*
X178884819Y-145950594D02*
X177884819Y-145950594D01*
X177884819Y-145950594D02*
X177884819Y-145712499D01*
X177884819Y-145712499D02*
X177932438Y-145569642D01*
X177932438Y-145569642D02*
X178027676Y-145474404D01*
X178027676Y-145474404D02*
X178122914Y-145426785D01*
X178122914Y-145426785D02*
X178313390Y-145379166D01*
X178313390Y-145379166D02*
X178456247Y-145379166D01*
X178456247Y-145379166D02*
X178646723Y-145426785D01*
X178646723Y-145426785D02*
X178741961Y-145474404D01*
X178741961Y-145474404D02*
X178837200Y-145569642D01*
X178837200Y-145569642D02*
X178884819Y-145712499D01*
X178884819Y-145712499D02*
X178884819Y-145950594D01*
X177884819Y-144474404D02*
X177884819Y-144950594D01*
X177884819Y-144950594D02*
X178361009Y-144998213D01*
X178361009Y-144998213D02*
X178313390Y-144950594D01*
X178313390Y-144950594D02*
X178265771Y-144855356D01*
X178265771Y-144855356D02*
X178265771Y-144617261D01*
X178265771Y-144617261D02*
X178313390Y-144522023D01*
X178313390Y-144522023D02*
X178361009Y-144474404D01*
X178361009Y-144474404D02*
X178456247Y-144426785D01*
X178456247Y-144426785D02*
X178694342Y-144426785D01*
X178694342Y-144426785D02*
X178789580Y-144474404D01*
X178789580Y-144474404D02*
X178837200Y-144522023D01*
X178837200Y-144522023D02*
X178884819Y-144617261D01*
X178884819Y-144617261D02*
X178884819Y-144855356D01*
X178884819Y-144855356D02*
X178837200Y-144950594D01*
X178837200Y-144950594D02*
X178789580Y-144998213D01*
X174474405Y-90454819D02*
X174474405Y-89454819D01*
X174474405Y-89454819D02*
X174712500Y-89454819D01*
X174712500Y-89454819D02*
X174855357Y-89502438D01*
X174855357Y-89502438D02*
X174950595Y-89597676D01*
X174950595Y-89597676D02*
X174998214Y-89692914D01*
X174998214Y-89692914D02*
X175045833Y-89883390D01*
X175045833Y-89883390D02*
X175045833Y-90026247D01*
X175045833Y-90026247D02*
X174998214Y-90216723D01*
X174998214Y-90216723D02*
X174950595Y-90311961D01*
X174950595Y-90311961D02*
X174855357Y-90407200D01*
X174855357Y-90407200D02*
X174712500Y-90454819D01*
X174712500Y-90454819D02*
X174474405Y-90454819D01*
X175902976Y-89788152D02*
X175902976Y-90454819D01*
X175664881Y-89407200D02*
X175426786Y-90121485D01*
X175426786Y-90121485D02*
X176045833Y-90121485D01*
X219384819Y-109025594D02*
X218384819Y-109025594D01*
X218384819Y-109025594D02*
X218384819Y-108787499D01*
X218384819Y-108787499D02*
X218432438Y-108644642D01*
X218432438Y-108644642D02*
X218527676Y-108549404D01*
X218527676Y-108549404D02*
X218622914Y-108501785D01*
X218622914Y-108501785D02*
X218813390Y-108454166D01*
X218813390Y-108454166D02*
X218956247Y-108454166D01*
X218956247Y-108454166D02*
X219146723Y-108501785D01*
X219146723Y-108501785D02*
X219241961Y-108549404D01*
X219241961Y-108549404D02*
X219337200Y-108644642D01*
X219337200Y-108644642D02*
X219384819Y-108787499D01*
X219384819Y-108787499D02*
X219384819Y-109025594D01*
X218384819Y-108120832D02*
X218384819Y-107501785D01*
X218384819Y-107501785D02*
X218765771Y-107835118D01*
X218765771Y-107835118D02*
X218765771Y-107692261D01*
X218765771Y-107692261D02*
X218813390Y-107597023D01*
X218813390Y-107597023D02*
X218861009Y-107549404D01*
X218861009Y-107549404D02*
X218956247Y-107501785D01*
X218956247Y-107501785D02*
X219194342Y-107501785D01*
X219194342Y-107501785D02*
X219289580Y-107549404D01*
X219289580Y-107549404D02*
X219337200Y-107597023D01*
X219337200Y-107597023D02*
X219384819Y-107692261D01*
X219384819Y-107692261D02*
X219384819Y-107977975D01*
X219384819Y-107977975D02*
X219337200Y-108073213D01*
X219337200Y-108073213D02*
X219289580Y-108120832D01*
X197884819Y-131025594D02*
X196884819Y-131025594D01*
X196884819Y-131025594D02*
X196884819Y-130787499D01*
X196884819Y-130787499D02*
X196932438Y-130644642D01*
X196932438Y-130644642D02*
X197027676Y-130549404D01*
X197027676Y-130549404D02*
X197122914Y-130501785D01*
X197122914Y-130501785D02*
X197313390Y-130454166D01*
X197313390Y-130454166D02*
X197456247Y-130454166D01*
X197456247Y-130454166D02*
X197646723Y-130501785D01*
X197646723Y-130501785D02*
X197741961Y-130549404D01*
X197741961Y-130549404D02*
X197837200Y-130644642D01*
X197837200Y-130644642D02*
X197884819Y-130787499D01*
X197884819Y-130787499D02*
X197884819Y-131025594D01*
X196980057Y-130073213D02*
X196932438Y-130025594D01*
X196932438Y-130025594D02*
X196884819Y-129930356D01*
X196884819Y-129930356D02*
X196884819Y-129692261D01*
X196884819Y-129692261D02*
X196932438Y-129597023D01*
X196932438Y-129597023D02*
X196980057Y-129549404D01*
X196980057Y-129549404D02*
X197075295Y-129501785D01*
X197075295Y-129501785D02*
X197170533Y-129501785D01*
X197170533Y-129501785D02*
X197313390Y-129549404D01*
X197313390Y-129549404D02*
X197884819Y-130120832D01*
X197884819Y-130120832D02*
X197884819Y-129501785D01*
X221384819Y-129450594D02*
X220384819Y-129450594D01*
X220384819Y-129450594D02*
X220384819Y-129212499D01*
X220384819Y-129212499D02*
X220432438Y-129069642D01*
X220432438Y-129069642D02*
X220527676Y-128974404D01*
X220527676Y-128974404D02*
X220622914Y-128926785D01*
X220622914Y-128926785D02*
X220813390Y-128879166D01*
X220813390Y-128879166D02*
X220956247Y-128879166D01*
X220956247Y-128879166D02*
X221146723Y-128926785D01*
X221146723Y-128926785D02*
X221241961Y-128974404D01*
X221241961Y-128974404D02*
X221337200Y-129069642D01*
X221337200Y-129069642D02*
X221384819Y-129212499D01*
X221384819Y-129212499D02*
X221384819Y-129450594D01*
X221384819Y-127926785D02*
X221384819Y-128498213D01*
X221384819Y-128212499D02*
X220384819Y-128212499D01*
X220384819Y-128212499D02*
X220527676Y-128307737D01*
X220527676Y-128307737D02*
X220622914Y-128402975D01*
X220622914Y-128402975D02*
X220670533Y-128498213D01*
X182082142Y-114359580D02*
X182034523Y-114407200D01*
X182034523Y-114407200D02*
X181891666Y-114454819D01*
X181891666Y-114454819D02*
X181796428Y-114454819D01*
X181796428Y-114454819D02*
X181653571Y-114407200D01*
X181653571Y-114407200D02*
X181558333Y-114311961D01*
X181558333Y-114311961D02*
X181510714Y-114216723D01*
X181510714Y-114216723D02*
X181463095Y-114026247D01*
X181463095Y-114026247D02*
X181463095Y-113883390D01*
X181463095Y-113883390D02*
X181510714Y-113692914D01*
X181510714Y-113692914D02*
X181558333Y-113597676D01*
X181558333Y-113597676D02*
X181653571Y-113502438D01*
X181653571Y-113502438D02*
X181796428Y-113454819D01*
X181796428Y-113454819D02*
X181891666Y-113454819D01*
X181891666Y-113454819D02*
X182034523Y-113502438D01*
X182034523Y-113502438D02*
X182082142Y-113550057D01*
X182463095Y-113550057D02*
X182510714Y-113502438D01*
X182510714Y-113502438D02*
X182605952Y-113454819D01*
X182605952Y-113454819D02*
X182844047Y-113454819D01*
X182844047Y-113454819D02*
X182939285Y-113502438D01*
X182939285Y-113502438D02*
X182986904Y-113550057D01*
X182986904Y-113550057D02*
X183034523Y-113645295D01*
X183034523Y-113645295D02*
X183034523Y-113740533D01*
X183034523Y-113740533D02*
X182986904Y-113883390D01*
X182986904Y-113883390D02*
X182415476Y-114454819D01*
X182415476Y-114454819D02*
X183034523Y-114454819D01*
X183367857Y-113454819D02*
X184034523Y-113454819D01*
X184034523Y-113454819D02*
X183605952Y-114454819D01*
X186132142Y-108429580D02*
X186084523Y-108477200D01*
X186084523Y-108477200D02*
X185941666Y-108524819D01*
X185941666Y-108524819D02*
X185846428Y-108524819D01*
X185846428Y-108524819D02*
X185703571Y-108477200D01*
X185703571Y-108477200D02*
X185608333Y-108381961D01*
X185608333Y-108381961D02*
X185560714Y-108286723D01*
X185560714Y-108286723D02*
X185513095Y-108096247D01*
X185513095Y-108096247D02*
X185513095Y-107953390D01*
X185513095Y-107953390D02*
X185560714Y-107762914D01*
X185560714Y-107762914D02*
X185608333Y-107667676D01*
X185608333Y-107667676D02*
X185703571Y-107572438D01*
X185703571Y-107572438D02*
X185846428Y-107524819D01*
X185846428Y-107524819D02*
X185941666Y-107524819D01*
X185941666Y-107524819D02*
X186084523Y-107572438D01*
X186084523Y-107572438D02*
X186132142Y-107620057D01*
X186513095Y-107620057D02*
X186560714Y-107572438D01*
X186560714Y-107572438D02*
X186655952Y-107524819D01*
X186655952Y-107524819D02*
X186894047Y-107524819D01*
X186894047Y-107524819D02*
X186989285Y-107572438D01*
X186989285Y-107572438D02*
X187036904Y-107620057D01*
X187036904Y-107620057D02*
X187084523Y-107715295D01*
X187084523Y-107715295D02*
X187084523Y-107810533D01*
X187084523Y-107810533D02*
X187036904Y-107953390D01*
X187036904Y-107953390D02*
X186465476Y-108524819D01*
X186465476Y-108524819D02*
X187084523Y-108524819D01*
X187941666Y-107524819D02*
X187751190Y-107524819D01*
X187751190Y-107524819D02*
X187655952Y-107572438D01*
X187655952Y-107572438D02*
X187608333Y-107620057D01*
X187608333Y-107620057D02*
X187513095Y-107762914D01*
X187513095Y-107762914D02*
X187465476Y-107953390D01*
X187465476Y-107953390D02*
X187465476Y-108334342D01*
X187465476Y-108334342D02*
X187513095Y-108429580D01*
X187513095Y-108429580D02*
X187560714Y-108477200D01*
X187560714Y-108477200D02*
X187655952Y-108524819D01*
X187655952Y-108524819D02*
X187846428Y-108524819D01*
X187846428Y-108524819D02*
X187941666Y-108477200D01*
X187941666Y-108477200D02*
X187989285Y-108429580D01*
X187989285Y-108429580D02*
X188036904Y-108334342D01*
X188036904Y-108334342D02*
X188036904Y-108096247D01*
X188036904Y-108096247D02*
X187989285Y-108001009D01*
X187989285Y-108001009D02*
X187941666Y-107953390D01*
X187941666Y-107953390D02*
X187846428Y-107905771D01*
X187846428Y-107905771D02*
X187655952Y-107905771D01*
X187655952Y-107905771D02*
X187560714Y-107953390D01*
X187560714Y-107953390D02*
X187513095Y-108001009D01*
X187513095Y-108001009D02*
X187465476Y-108096247D01*
X178359580Y-109367857D02*
X178407200Y-109415476D01*
X178407200Y-109415476D02*
X178454819Y-109558333D01*
X178454819Y-109558333D02*
X178454819Y-109653571D01*
X178454819Y-109653571D02*
X178407200Y-109796428D01*
X178407200Y-109796428D02*
X178311961Y-109891666D01*
X178311961Y-109891666D02*
X178216723Y-109939285D01*
X178216723Y-109939285D02*
X178026247Y-109986904D01*
X178026247Y-109986904D02*
X177883390Y-109986904D01*
X177883390Y-109986904D02*
X177692914Y-109939285D01*
X177692914Y-109939285D02*
X177597676Y-109891666D01*
X177597676Y-109891666D02*
X177502438Y-109796428D01*
X177502438Y-109796428D02*
X177454819Y-109653571D01*
X177454819Y-109653571D02*
X177454819Y-109558333D01*
X177454819Y-109558333D02*
X177502438Y-109415476D01*
X177502438Y-109415476D02*
X177550057Y-109367857D01*
X177550057Y-108986904D02*
X177502438Y-108939285D01*
X177502438Y-108939285D02*
X177454819Y-108844047D01*
X177454819Y-108844047D02*
X177454819Y-108605952D01*
X177454819Y-108605952D02*
X177502438Y-108510714D01*
X177502438Y-108510714D02*
X177550057Y-108463095D01*
X177550057Y-108463095D02*
X177645295Y-108415476D01*
X177645295Y-108415476D02*
X177740533Y-108415476D01*
X177740533Y-108415476D02*
X177883390Y-108463095D01*
X177883390Y-108463095D02*
X178454819Y-109034523D01*
X178454819Y-109034523D02*
X178454819Y-108415476D01*
X177454819Y-107510714D02*
X177454819Y-107986904D01*
X177454819Y-107986904D02*
X177931009Y-108034523D01*
X177931009Y-108034523D02*
X177883390Y-107986904D01*
X177883390Y-107986904D02*
X177835771Y-107891666D01*
X177835771Y-107891666D02*
X177835771Y-107653571D01*
X177835771Y-107653571D02*
X177883390Y-107558333D01*
X177883390Y-107558333D02*
X177931009Y-107510714D01*
X177931009Y-107510714D02*
X178026247Y-107463095D01*
X178026247Y-107463095D02*
X178264342Y-107463095D01*
X178264342Y-107463095D02*
X178359580Y-107510714D01*
X178359580Y-107510714D02*
X178407200Y-107558333D01*
X178407200Y-107558333D02*
X178454819Y-107653571D01*
X178454819Y-107653571D02*
X178454819Y-107891666D01*
X178454819Y-107891666D02*
X178407200Y-107986904D01*
X178407200Y-107986904D02*
X178359580Y-108034523D01*
X186761242Y-127311080D02*
X186713623Y-127358700D01*
X186713623Y-127358700D02*
X186570766Y-127406319D01*
X186570766Y-127406319D02*
X186475528Y-127406319D01*
X186475528Y-127406319D02*
X186332671Y-127358700D01*
X186332671Y-127358700D02*
X186237433Y-127263461D01*
X186237433Y-127263461D02*
X186189814Y-127168223D01*
X186189814Y-127168223D02*
X186142195Y-126977747D01*
X186142195Y-126977747D02*
X186142195Y-126834890D01*
X186142195Y-126834890D02*
X186189814Y-126644414D01*
X186189814Y-126644414D02*
X186237433Y-126549176D01*
X186237433Y-126549176D02*
X186332671Y-126453938D01*
X186332671Y-126453938D02*
X186475528Y-126406319D01*
X186475528Y-126406319D02*
X186570766Y-126406319D01*
X186570766Y-126406319D02*
X186713623Y-126453938D01*
X186713623Y-126453938D02*
X186761242Y-126501557D01*
X187142195Y-126501557D02*
X187189814Y-126453938D01*
X187189814Y-126453938D02*
X187285052Y-126406319D01*
X187285052Y-126406319D02*
X187523147Y-126406319D01*
X187523147Y-126406319D02*
X187618385Y-126453938D01*
X187618385Y-126453938D02*
X187666004Y-126501557D01*
X187666004Y-126501557D02*
X187713623Y-126596795D01*
X187713623Y-126596795D02*
X187713623Y-126692033D01*
X187713623Y-126692033D02*
X187666004Y-126834890D01*
X187666004Y-126834890D02*
X187094576Y-127406319D01*
X187094576Y-127406319D02*
X187713623Y-127406319D01*
X188570766Y-126739652D02*
X188570766Y-127406319D01*
X188332671Y-126358700D02*
X188094576Y-127072985D01*
X188094576Y-127072985D02*
X188713623Y-127072985D01*
X187000480Y-131634157D02*
X187048100Y-131681776D01*
X187048100Y-131681776D02*
X187095719Y-131824633D01*
X187095719Y-131824633D02*
X187095719Y-131919871D01*
X187095719Y-131919871D02*
X187048100Y-132062728D01*
X187048100Y-132062728D02*
X186952861Y-132157966D01*
X186952861Y-132157966D02*
X186857623Y-132205585D01*
X186857623Y-132205585D02*
X186667147Y-132253204D01*
X186667147Y-132253204D02*
X186524290Y-132253204D01*
X186524290Y-132253204D02*
X186333814Y-132205585D01*
X186333814Y-132205585D02*
X186238576Y-132157966D01*
X186238576Y-132157966D02*
X186143338Y-132062728D01*
X186143338Y-132062728D02*
X186095719Y-131919871D01*
X186095719Y-131919871D02*
X186095719Y-131824633D01*
X186095719Y-131824633D02*
X186143338Y-131681776D01*
X186143338Y-131681776D02*
X186190957Y-131634157D01*
X186190957Y-131253204D02*
X186143338Y-131205585D01*
X186143338Y-131205585D02*
X186095719Y-131110347D01*
X186095719Y-131110347D02*
X186095719Y-130872252D01*
X186095719Y-130872252D02*
X186143338Y-130777014D01*
X186143338Y-130777014D02*
X186190957Y-130729395D01*
X186190957Y-130729395D02*
X186286195Y-130681776D01*
X186286195Y-130681776D02*
X186381433Y-130681776D01*
X186381433Y-130681776D02*
X186524290Y-130729395D01*
X186524290Y-130729395D02*
X187095719Y-131300823D01*
X187095719Y-131300823D02*
X187095719Y-130681776D01*
X186095719Y-130348442D02*
X186095719Y-129729395D01*
X186095719Y-129729395D02*
X186476671Y-130062728D01*
X186476671Y-130062728D02*
X186476671Y-129919871D01*
X186476671Y-129919871D02*
X186524290Y-129824633D01*
X186524290Y-129824633D02*
X186571909Y-129777014D01*
X186571909Y-129777014D02*
X186667147Y-129729395D01*
X186667147Y-129729395D02*
X186905242Y-129729395D01*
X186905242Y-129729395D02*
X187000480Y-129777014D01*
X187000480Y-129777014D02*
X187048100Y-129824633D01*
X187048100Y-129824633D02*
X187095719Y-129919871D01*
X187095719Y-129919871D02*
X187095719Y-130205585D01*
X187095719Y-130205585D02*
X187048100Y-130300823D01*
X187048100Y-130300823D02*
X187000480Y-130348442D01*
X180394642Y-142039580D02*
X180347023Y-142087200D01*
X180347023Y-142087200D02*
X180204166Y-142134819D01*
X180204166Y-142134819D02*
X180108928Y-142134819D01*
X180108928Y-142134819D02*
X179966071Y-142087200D01*
X179966071Y-142087200D02*
X179870833Y-141991961D01*
X179870833Y-141991961D02*
X179823214Y-141896723D01*
X179823214Y-141896723D02*
X179775595Y-141706247D01*
X179775595Y-141706247D02*
X179775595Y-141563390D01*
X179775595Y-141563390D02*
X179823214Y-141372914D01*
X179823214Y-141372914D02*
X179870833Y-141277676D01*
X179870833Y-141277676D02*
X179966071Y-141182438D01*
X179966071Y-141182438D02*
X180108928Y-141134819D01*
X180108928Y-141134819D02*
X180204166Y-141134819D01*
X180204166Y-141134819D02*
X180347023Y-141182438D01*
X180347023Y-141182438D02*
X180394642Y-141230057D01*
X180775595Y-141230057D02*
X180823214Y-141182438D01*
X180823214Y-141182438D02*
X180918452Y-141134819D01*
X180918452Y-141134819D02*
X181156547Y-141134819D01*
X181156547Y-141134819D02*
X181251785Y-141182438D01*
X181251785Y-141182438D02*
X181299404Y-141230057D01*
X181299404Y-141230057D02*
X181347023Y-141325295D01*
X181347023Y-141325295D02*
X181347023Y-141420533D01*
X181347023Y-141420533D02*
X181299404Y-141563390D01*
X181299404Y-141563390D02*
X180727976Y-142134819D01*
X180727976Y-142134819D02*
X181347023Y-142134819D01*
X181727976Y-141230057D02*
X181775595Y-141182438D01*
X181775595Y-141182438D02*
X181870833Y-141134819D01*
X181870833Y-141134819D02*
X182108928Y-141134819D01*
X182108928Y-141134819D02*
X182204166Y-141182438D01*
X182204166Y-141182438D02*
X182251785Y-141230057D01*
X182251785Y-141230057D02*
X182299404Y-141325295D01*
X182299404Y-141325295D02*
X182299404Y-141420533D01*
X182299404Y-141420533D02*
X182251785Y-141563390D01*
X182251785Y-141563390D02*
X181680357Y-142134819D01*
X181680357Y-142134819D02*
X182299404Y-142134819D01*
X175252142Y-119380180D02*
X175204523Y-119427800D01*
X175204523Y-119427800D02*
X175061666Y-119475419D01*
X175061666Y-119475419D02*
X174966428Y-119475419D01*
X174966428Y-119475419D02*
X174823571Y-119427800D01*
X174823571Y-119427800D02*
X174728333Y-119332561D01*
X174728333Y-119332561D02*
X174680714Y-119237323D01*
X174680714Y-119237323D02*
X174633095Y-119046847D01*
X174633095Y-119046847D02*
X174633095Y-118903990D01*
X174633095Y-118903990D02*
X174680714Y-118713514D01*
X174680714Y-118713514D02*
X174728333Y-118618276D01*
X174728333Y-118618276D02*
X174823571Y-118523038D01*
X174823571Y-118523038D02*
X174966428Y-118475419D01*
X174966428Y-118475419D02*
X175061666Y-118475419D01*
X175061666Y-118475419D02*
X175204523Y-118523038D01*
X175204523Y-118523038D02*
X175252142Y-118570657D01*
X175633095Y-118570657D02*
X175680714Y-118523038D01*
X175680714Y-118523038D02*
X175775952Y-118475419D01*
X175775952Y-118475419D02*
X176014047Y-118475419D01*
X176014047Y-118475419D02*
X176109285Y-118523038D01*
X176109285Y-118523038D02*
X176156904Y-118570657D01*
X176156904Y-118570657D02*
X176204523Y-118665895D01*
X176204523Y-118665895D02*
X176204523Y-118761133D01*
X176204523Y-118761133D02*
X176156904Y-118903990D01*
X176156904Y-118903990D02*
X175585476Y-119475419D01*
X175585476Y-119475419D02*
X176204523Y-119475419D01*
X177156904Y-119475419D02*
X176585476Y-119475419D01*
X176871190Y-119475419D02*
X176871190Y-118475419D01*
X176871190Y-118475419D02*
X176775952Y-118618276D01*
X176775952Y-118618276D02*
X176680714Y-118713514D01*
X176680714Y-118713514D02*
X176585476Y-118761133D01*
X162859580Y-102642857D02*
X162907200Y-102690476D01*
X162907200Y-102690476D02*
X162954819Y-102833333D01*
X162954819Y-102833333D02*
X162954819Y-102928571D01*
X162954819Y-102928571D02*
X162907200Y-103071428D01*
X162907200Y-103071428D02*
X162811961Y-103166666D01*
X162811961Y-103166666D02*
X162716723Y-103214285D01*
X162716723Y-103214285D02*
X162526247Y-103261904D01*
X162526247Y-103261904D02*
X162383390Y-103261904D01*
X162383390Y-103261904D02*
X162192914Y-103214285D01*
X162192914Y-103214285D02*
X162097676Y-103166666D01*
X162097676Y-103166666D02*
X162002438Y-103071428D01*
X162002438Y-103071428D02*
X161954819Y-102928571D01*
X161954819Y-102928571D02*
X161954819Y-102833333D01*
X161954819Y-102833333D02*
X162002438Y-102690476D01*
X162002438Y-102690476D02*
X162050057Y-102642857D01*
X162050057Y-102261904D02*
X162002438Y-102214285D01*
X162002438Y-102214285D02*
X161954819Y-102119047D01*
X161954819Y-102119047D02*
X161954819Y-101880952D01*
X161954819Y-101880952D02*
X162002438Y-101785714D01*
X162002438Y-101785714D02*
X162050057Y-101738095D01*
X162050057Y-101738095D02*
X162145295Y-101690476D01*
X162145295Y-101690476D02*
X162240533Y-101690476D01*
X162240533Y-101690476D02*
X162383390Y-101738095D01*
X162383390Y-101738095D02*
X162954819Y-102309523D01*
X162954819Y-102309523D02*
X162954819Y-101690476D01*
X161954819Y-101071428D02*
X161954819Y-100976190D01*
X161954819Y-100976190D02*
X162002438Y-100880952D01*
X162002438Y-100880952D02*
X162050057Y-100833333D01*
X162050057Y-100833333D02*
X162145295Y-100785714D01*
X162145295Y-100785714D02*
X162335771Y-100738095D01*
X162335771Y-100738095D02*
X162573866Y-100738095D01*
X162573866Y-100738095D02*
X162764342Y-100785714D01*
X162764342Y-100785714D02*
X162859580Y-100833333D01*
X162859580Y-100833333D02*
X162907200Y-100880952D01*
X162907200Y-100880952D02*
X162954819Y-100976190D01*
X162954819Y-100976190D02*
X162954819Y-101071428D01*
X162954819Y-101071428D02*
X162907200Y-101166666D01*
X162907200Y-101166666D02*
X162859580Y-101214285D01*
X162859580Y-101214285D02*
X162764342Y-101261904D01*
X162764342Y-101261904D02*
X162573866Y-101309523D01*
X162573866Y-101309523D02*
X162335771Y-101309523D01*
X162335771Y-101309523D02*
X162145295Y-101261904D01*
X162145295Y-101261904D02*
X162050057Y-101214285D01*
X162050057Y-101214285D02*
X162002438Y-101166666D01*
X162002438Y-101166666D02*
X161954819Y-101071428D01*
X157419580Y-102387857D02*
X157467200Y-102435476D01*
X157467200Y-102435476D02*
X157514819Y-102578333D01*
X157514819Y-102578333D02*
X157514819Y-102673571D01*
X157514819Y-102673571D02*
X157467200Y-102816428D01*
X157467200Y-102816428D02*
X157371961Y-102911666D01*
X157371961Y-102911666D02*
X157276723Y-102959285D01*
X157276723Y-102959285D02*
X157086247Y-103006904D01*
X157086247Y-103006904D02*
X156943390Y-103006904D01*
X156943390Y-103006904D02*
X156752914Y-102959285D01*
X156752914Y-102959285D02*
X156657676Y-102911666D01*
X156657676Y-102911666D02*
X156562438Y-102816428D01*
X156562438Y-102816428D02*
X156514819Y-102673571D01*
X156514819Y-102673571D02*
X156514819Y-102578333D01*
X156514819Y-102578333D02*
X156562438Y-102435476D01*
X156562438Y-102435476D02*
X156610057Y-102387857D01*
X157514819Y-101435476D02*
X157514819Y-102006904D01*
X157514819Y-101721190D02*
X156514819Y-101721190D01*
X156514819Y-101721190D02*
X156657676Y-101816428D01*
X156657676Y-101816428D02*
X156752914Y-101911666D01*
X156752914Y-101911666D02*
X156800533Y-102006904D01*
X157514819Y-100959285D02*
X157514819Y-100768809D01*
X157514819Y-100768809D02*
X157467200Y-100673571D01*
X157467200Y-100673571D02*
X157419580Y-100625952D01*
X157419580Y-100625952D02*
X157276723Y-100530714D01*
X157276723Y-100530714D02*
X157086247Y-100483095D01*
X157086247Y-100483095D02*
X156705295Y-100483095D01*
X156705295Y-100483095D02*
X156610057Y-100530714D01*
X156610057Y-100530714D02*
X156562438Y-100578333D01*
X156562438Y-100578333D02*
X156514819Y-100673571D01*
X156514819Y-100673571D02*
X156514819Y-100864047D01*
X156514819Y-100864047D02*
X156562438Y-100959285D01*
X156562438Y-100959285D02*
X156610057Y-101006904D01*
X156610057Y-101006904D02*
X156705295Y-101054523D01*
X156705295Y-101054523D02*
X156943390Y-101054523D01*
X156943390Y-101054523D02*
X157038628Y-101006904D01*
X157038628Y-101006904D02*
X157086247Y-100959285D01*
X157086247Y-100959285D02*
X157133866Y-100864047D01*
X157133866Y-100864047D02*
X157133866Y-100673571D01*
X157133866Y-100673571D02*
X157086247Y-100578333D01*
X157086247Y-100578333D02*
X157038628Y-100530714D01*
X157038628Y-100530714D02*
X156943390Y-100483095D01*
X202557142Y-119039580D02*
X202509523Y-119087200D01*
X202509523Y-119087200D02*
X202366666Y-119134819D01*
X202366666Y-119134819D02*
X202271428Y-119134819D01*
X202271428Y-119134819D02*
X202128571Y-119087200D01*
X202128571Y-119087200D02*
X202033333Y-118991961D01*
X202033333Y-118991961D02*
X201985714Y-118896723D01*
X201985714Y-118896723D02*
X201938095Y-118706247D01*
X201938095Y-118706247D02*
X201938095Y-118563390D01*
X201938095Y-118563390D02*
X201985714Y-118372914D01*
X201985714Y-118372914D02*
X202033333Y-118277676D01*
X202033333Y-118277676D02*
X202128571Y-118182438D01*
X202128571Y-118182438D02*
X202271428Y-118134819D01*
X202271428Y-118134819D02*
X202366666Y-118134819D01*
X202366666Y-118134819D02*
X202509523Y-118182438D01*
X202509523Y-118182438D02*
X202557142Y-118230057D01*
X203509523Y-119134819D02*
X202938095Y-119134819D01*
X203223809Y-119134819D02*
X203223809Y-118134819D01*
X203223809Y-118134819D02*
X203128571Y-118277676D01*
X203128571Y-118277676D02*
X203033333Y-118372914D01*
X203033333Y-118372914D02*
X202938095Y-118420533D01*
X204080952Y-118563390D02*
X203985714Y-118515771D01*
X203985714Y-118515771D02*
X203938095Y-118468152D01*
X203938095Y-118468152D02*
X203890476Y-118372914D01*
X203890476Y-118372914D02*
X203890476Y-118325295D01*
X203890476Y-118325295D02*
X203938095Y-118230057D01*
X203938095Y-118230057D02*
X203985714Y-118182438D01*
X203985714Y-118182438D02*
X204080952Y-118134819D01*
X204080952Y-118134819D02*
X204271428Y-118134819D01*
X204271428Y-118134819D02*
X204366666Y-118182438D01*
X204366666Y-118182438D02*
X204414285Y-118230057D01*
X204414285Y-118230057D02*
X204461904Y-118325295D01*
X204461904Y-118325295D02*
X204461904Y-118372914D01*
X204461904Y-118372914D02*
X204414285Y-118468152D01*
X204414285Y-118468152D02*
X204366666Y-118515771D01*
X204366666Y-118515771D02*
X204271428Y-118563390D01*
X204271428Y-118563390D02*
X204080952Y-118563390D01*
X204080952Y-118563390D02*
X203985714Y-118611009D01*
X203985714Y-118611009D02*
X203938095Y-118658628D01*
X203938095Y-118658628D02*
X203890476Y-118753866D01*
X203890476Y-118753866D02*
X203890476Y-118944342D01*
X203890476Y-118944342D02*
X203938095Y-119039580D01*
X203938095Y-119039580D02*
X203985714Y-119087200D01*
X203985714Y-119087200D02*
X204080952Y-119134819D01*
X204080952Y-119134819D02*
X204271428Y-119134819D01*
X204271428Y-119134819D02*
X204366666Y-119087200D01*
X204366666Y-119087200D02*
X204414285Y-119039580D01*
X204414285Y-119039580D02*
X204461904Y-118944342D01*
X204461904Y-118944342D02*
X204461904Y-118753866D01*
X204461904Y-118753866D02*
X204414285Y-118658628D01*
X204414285Y-118658628D02*
X204366666Y-118611009D01*
X204366666Y-118611009D02*
X204271428Y-118563390D01*
X203404580Y-112067857D02*
X203452200Y-112115476D01*
X203452200Y-112115476D02*
X203499819Y-112258333D01*
X203499819Y-112258333D02*
X203499819Y-112353571D01*
X203499819Y-112353571D02*
X203452200Y-112496428D01*
X203452200Y-112496428D02*
X203356961Y-112591666D01*
X203356961Y-112591666D02*
X203261723Y-112639285D01*
X203261723Y-112639285D02*
X203071247Y-112686904D01*
X203071247Y-112686904D02*
X202928390Y-112686904D01*
X202928390Y-112686904D02*
X202737914Y-112639285D01*
X202737914Y-112639285D02*
X202642676Y-112591666D01*
X202642676Y-112591666D02*
X202547438Y-112496428D01*
X202547438Y-112496428D02*
X202499819Y-112353571D01*
X202499819Y-112353571D02*
X202499819Y-112258333D01*
X202499819Y-112258333D02*
X202547438Y-112115476D01*
X202547438Y-112115476D02*
X202595057Y-112067857D01*
X203499819Y-111115476D02*
X203499819Y-111686904D01*
X203499819Y-111401190D02*
X202499819Y-111401190D01*
X202499819Y-111401190D02*
X202642676Y-111496428D01*
X202642676Y-111496428D02*
X202737914Y-111591666D01*
X202737914Y-111591666D02*
X202785533Y-111686904D01*
X202499819Y-110782142D02*
X202499819Y-110115476D01*
X202499819Y-110115476D02*
X203499819Y-110544047D01*
X216289580Y-124367857D02*
X216337200Y-124415476D01*
X216337200Y-124415476D02*
X216384819Y-124558333D01*
X216384819Y-124558333D02*
X216384819Y-124653571D01*
X216384819Y-124653571D02*
X216337200Y-124796428D01*
X216337200Y-124796428D02*
X216241961Y-124891666D01*
X216241961Y-124891666D02*
X216146723Y-124939285D01*
X216146723Y-124939285D02*
X215956247Y-124986904D01*
X215956247Y-124986904D02*
X215813390Y-124986904D01*
X215813390Y-124986904D02*
X215622914Y-124939285D01*
X215622914Y-124939285D02*
X215527676Y-124891666D01*
X215527676Y-124891666D02*
X215432438Y-124796428D01*
X215432438Y-124796428D02*
X215384819Y-124653571D01*
X215384819Y-124653571D02*
X215384819Y-124558333D01*
X215384819Y-124558333D02*
X215432438Y-124415476D01*
X215432438Y-124415476D02*
X215480057Y-124367857D01*
X216384819Y-123415476D02*
X216384819Y-123986904D01*
X216384819Y-123701190D02*
X215384819Y-123701190D01*
X215384819Y-123701190D02*
X215527676Y-123796428D01*
X215527676Y-123796428D02*
X215622914Y-123891666D01*
X215622914Y-123891666D02*
X215670533Y-123986904D01*
X215384819Y-122558333D02*
X215384819Y-122748809D01*
X215384819Y-122748809D02*
X215432438Y-122844047D01*
X215432438Y-122844047D02*
X215480057Y-122891666D01*
X215480057Y-122891666D02*
X215622914Y-122986904D01*
X215622914Y-122986904D02*
X215813390Y-123034523D01*
X215813390Y-123034523D02*
X216194342Y-123034523D01*
X216194342Y-123034523D02*
X216289580Y-122986904D01*
X216289580Y-122986904D02*
X216337200Y-122939285D01*
X216337200Y-122939285D02*
X216384819Y-122844047D01*
X216384819Y-122844047D02*
X216384819Y-122653571D01*
X216384819Y-122653571D02*
X216337200Y-122558333D01*
X216337200Y-122558333D02*
X216289580Y-122510714D01*
X216289580Y-122510714D02*
X216194342Y-122463095D01*
X216194342Y-122463095D02*
X215956247Y-122463095D01*
X215956247Y-122463095D02*
X215861009Y-122510714D01*
X215861009Y-122510714D02*
X215813390Y-122558333D01*
X215813390Y-122558333D02*
X215765771Y-122653571D01*
X215765771Y-122653571D02*
X215765771Y-122844047D01*
X215765771Y-122844047D02*
X215813390Y-122939285D01*
X215813390Y-122939285D02*
X215861009Y-122986904D01*
X215861009Y-122986904D02*
X215956247Y-123034523D01*
X216132142Y-115789580D02*
X216084523Y-115837200D01*
X216084523Y-115837200D02*
X215941666Y-115884819D01*
X215941666Y-115884819D02*
X215846428Y-115884819D01*
X215846428Y-115884819D02*
X215703571Y-115837200D01*
X215703571Y-115837200D02*
X215608333Y-115741961D01*
X215608333Y-115741961D02*
X215560714Y-115646723D01*
X215560714Y-115646723D02*
X215513095Y-115456247D01*
X215513095Y-115456247D02*
X215513095Y-115313390D01*
X215513095Y-115313390D02*
X215560714Y-115122914D01*
X215560714Y-115122914D02*
X215608333Y-115027676D01*
X215608333Y-115027676D02*
X215703571Y-114932438D01*
X215703571Y-114932438D02*
X215846428Y-114884819D01*
X215846428Y-114884819D02*
X215941666Y-114884819D01*
X215941666Y-114884819D02*
X216084523Y-114932438D01*
X216084523Y-114932438D02*
X216132142Y-114980057D01*
X217084523Y-115884819D02*
X216513095Y-115884819D01*
X216798809Y-115884819D02*
X216798809Y-114884819D01*
X216798809Y-114884819D02*
X216703571Y-115027676D01*
X216703571Y-115027676D02*
X216608333Y-115122914D01*
X216608333Y-115122914D02*
X216513095Y-115170533D01*
X217989285Y-114884819D02*
X217513095Y-114884819D01*
X217513095Y-114884819D02*
X217465476Y-115361009D01*
X217465476Y-115361009D02*
X217513095Y-115313390D01*
X217513095Y-115313390D02*
X217608333Y-115265771D01*
X217608333Y-115265771D02*
X217846428Y-115265771D01*
X217846428Y-115265771D02*
X217941666Y-115313390D01*
X217941666Y-115313390D02*
X217989285Y-115361009D01*
X217989285Y-115361009D02*
X218036904Y-115456247D01*
X218036904Y-115456247D02*
X218036904Y-115694342D01*
X218036904Y-115694342D02*
X217989285Y-115789580D01*
X217989285Y-115789580D02*
X217941666Y-115837200D01*
X217941666Y-115837200D02*
X217846428Y-115884819D01*
X217846428Y-115884819D02*
X217608333Y-115884819D01*
X217608333Y-115884819D02*
X217513095Y-115837200D01*
X217513095Y-115837200D02*
X217465476Y-115789580D01*
X216182142Y-112789580D02*
X216134523Y-112837200D01*
X216134523Y-112837200D02*
X215991666Y-112884819D01*
X215991666Y-112884819D02*
X215896428Y-112884819D01*
X215896428Y-112884819D02*
X215753571Y-112837200D01*
X215753571Y-112837200D02*
X215658333Y-112741961D01*
X215658333Y-112741961D02*
X215610714Y-112646723D01*
X215610714Y-112646723D02*
X215563095Y-112456247D01*
X215563095Y-112456247D02*
X215563095Y-112313390D01*
X215563095Y-112313390D02*
X215610714Y-112122914D01*
X215610714Y-112122914D02*
X215658333Y-112027676D01*
X215658333Y-112027676D02*
X215753571Y-111932438D01*
X215753571Y-111932438D02*
X215896428Y-111884819D01*
X215896428Y-111884819D02*
X215991666Y-111884819D01*
X215991666Y-111884819D02*
X216134523Y-111932438D01*
X216134523Y-111932438D02*
X216182142Y-111980057D01*
X217134523Y-112884819D02*
X216563095Y-112884819D01*
X216848809Y-112884819D02*
X216848809Y-111884819D01*
X216848809Y-111884819D02*
X216753571Y-112027676D01*
X216753571Y-112027676D02*
X216658333Y-112122914D01*
X216658333Y-112122914D02*
X216563095Y-112170533D01*
X217991666Y-112218152D02*
X217991666Y-112884819D01*
X217753571Y-111837200D02*
X217515476Y-112551485D01*
X217515476Y-112551485D02*
X218134523Y-112551485D01*
X204082142Y-142789580D02*
X204034523Y-142837200D01*
X204034523Y-142837200D02*
X203891666Y-142884819D01*
X203891666Y-142884819D02*
X203796428Y-142884819D01*
X203796428Y-142884819D02*
X203653571Y-142837200D01*
X203653571Y-142837200D02*
X203558333Y-142741961D01*
X203558333Y-142741961D02*
X203510714Y-142646723D01*
X203510714Y-142646723D02*
X203463095Y-142456247D01*
X203463095Y-142456247D02*
X203463095Y-142313390D01*
X203463095Y-142313390D02*
X203510714Y-142122914D01*
X203510714Y-142122914D02*
X203558333Y-142027676D01*
X203558333Y-142027676D02*
X203653571Y-141932438D01*
X203653571Y-141932438D02*
X203796428Y-141884819D01*
X203796428Y-141884819D02*
X203891666Y-141884819D01*
X203891666Y-141884819D02*
X204034523Y-141932438D01*
X204034523Y-141932438D02*
X204082142Y-141980057D01*
X205034523Y-142884819D02*
X204463095Y-142884819D01*
X204748809Y-142884819D02*
X204748809Y-141884819D01*
X204748809Y-141884819D02*
X204653571Y-142027676D01*
X204653571Y-142027676D02*
X204558333Y-142122914D01*
X204558333Y-142122914D02*
X204463095Y-142170533D01*
X205367857Y-141884819D02*
X205986904Y-141884819D01*
X205986904Y-141884819D02*
X205653571Y-142265771D01*
X205653571Y-142265771D02*
X205796428Y-142265771D01*
X205796428Y-142265771D02*
X205891666Y-142313390D01*
X205891666Y-142313390D02*
X205939285Y-142361009D01*
X205939285Y-142361009D02*
X205986904Y-142456247D01*
X205986904Y-142456247D02*
X205986904Y-142694342D01*
X205986904Y-142694342D02*
X205939285Y-142789580D01*
X205939285Y-142789580D02*
X205891666Y-142837200D01*
X205891666Y-142837200D02*
X205796428Y-142884819D01*
X205796428Y-142884819D02*
X205510714Y-142884819D01*
X205510714Y-142884819D02*
X205415476Y-142837200D01*
X205415476Y-142837200D02*
X205367857Y-142789580D01*
X196632142Y-94789580D02*
X196584523Y-94837200D01*
X196584523Y-94837200D02*
X196441666Y-94884819D01*
X196441666Y-94884819D02*
X196346428Y-94884819D01*
X196346428Y-94884819D02*
X196203571Y-94837200D01*
X196203571Y-94837200D02*
X196108333Y-94741961D01*
X196108333Y-94741961D02*
X196060714Y-94646723D01*
X196060714Y-94646723D02*
X196013095Y-94456247D01*
X196013095Y-94456247D02*
X196013095Y-94313390D01*
X196013095Y-94313390D02*
X196060714Y-94122914D01*
X196060714Y-94122914D02*
X196108333Y-94027676D01*
X196108333Y-94027676D02*
X196203571Y-93932438D01*
X196203571Y-93932438D02*
X196346428Y-93884819D01*
X196346428Y-93884819D02*
X196441666Y-93884819D01*
X196441666Y-93884819D02*
X196584523Y-93932438D01*
X196584523Y-93932438D02*
X196632142Y-93980057D01*
X197584523Y-94884819D02*
X197013095Y-94884819D01*
X197298809Y-94884819D02*
X197298809Y-93884819D01*
X197298809Y-93884819D02*
X197203571Y-94027676D01*
X197203571Y-94027676D02*
X197108333Y-94122914D01*
X197108333Y-94122914D02*
X197013095Y-94170533D01*
X197965476Y-93980057D02*
X198013095Y-93932438D01*
X198013095Y-93932438D02*
X198108333Y-93884819D01*
X198108333Y-93884819D02*
X198346428Y-93884819D01*
X198346428Y-93884819D02*
X198441666Y-93932438D01*
X198441666Y-93932438D02*
X198489285Y-93980057D01*
X198489285Y-93980057D02*
X198536904Y-94075295D01*
X198536904Y-94075295D02*
X198536904Y-94170533D01*
X198536904Y-94170533D02*
X198489285Y-94313390D01*
X198489285Y-94313390D02*
X197917857Y-94884819D01*
X197917857Y-94884819D02*
X198536904Y-94884819D01*
X188082142Y-134929580D02*
X188034523Y-134977200D01*
X188034523Y-134977200D02*
X187891666Y-135024819D01*
X187891666Y-135024819D02*
X187796428Y-135024819D01*
X187796428Y-135024819D02*
X187653571Y-134977200D01*
X187653571Y-134977200D02*
X187558333Y-134881961D01*
X187558333Y-134881961D02*
X187510714Y-134786723D01*
X187510714Y-134786723D02*
X187463095Y-134596247D01*
X187463095Y-134596247D02*
X187463095Y-134453390D01*
X187463095Y-134453390D02*
X187510714Y-134262914D01*
X187510714Y-134262914D02*
X187558333Y-134167676D01*
X187558333Y-134167676D02*
X187653571Y-134072438D01*
X187653571Y-134072438D02*
X187796428Y-134024819D01*
X187796428Y-134024819D02*
X187891666Y-134024819D01*
X187891666Y-134024819D02*
X188034523Y-134072438D01*
X188034523Y-134072438D02*
X188082142Y-134120057D01*
X189034523Y-135024819D02*
X188463095Y-135024819D01*
X188748809Y-135024819D02*
X188748809Y-134024819D01*
X188748809Y-134024819D02*
X188653571Y-134167676D01*
X188653571Y-134167676D02*
X188558333Y-134262914D01*
X188558333Y-134262914D02*
X188463095Y-134310533D01*
X189986904Y-135024819D02*
X189415476Y-135024819D01*
X189701190Y-135024819D02*
X189701190Y-134024819D01*
X189701190Y-134024819D02*
X189605952Y-134167676D01*
X189605952Y-134167676D02*
X189510714Y-134262914D01*
X189510714Y-134262914D02*
X189415476Y-134310533D01*
X228021698Y-93534237D02*
X228069318Y-93581856D01*
X228069318Y-93581856D02*
X228116937Y-93724713D01*
X228116937Y-93724713D02*
X228116937Y-93819951D01*
X228116937Y-93819951D02*
X228069318Y-93962808D01*
X228069318Y-93962808D02*
X227974079Y-94058046D01*
X227974079Y-94058046D02*
X227878841Y-94105665D01*
X227878841Y-94105665D02*
X227688365Y-94153284D01*
X227688365Y-94153284D02*
X227545508Y-94153284D01*
X227545508Y-94153284D02*
X227355032Y-94105665D01*
X227355032Y-94105665D02*
X227259794Y-94058046D01*
X227259794Y-94058046D02*
X227164556Y-93962808D01*
X227164556Y-93962808D02*
X227116937Y-93819951D01*
X227116937Y-93819951D02*
X227116937Y-93724713D01*
X227116937Y-93724713D02*
X227164556Y-93581856D01*
X227164556Y-93581856D02*
X227212175Y-93534237D01*
X228116937Y-92581856D02*
X228116937Y-93153284D01*
X228116937Y-92867570D02*
X227116937Y-92867570D01*
X227116937Y-92867570D02*
X227259794Y-92962808D01*
X227259794Y-92962808D02*
X227355032Y-93058046D01*
X227355032Y-93058046D02*
X227402651Y-93153284D01*
X227116937Y-91962808D02*
X227116937Y-91867570D01*
X227116937Y-91867570D02*
X227164556Y-91772332D01*
X227164556Y-91772332D02*
X227212175Y-91724713D01*
X227212175Y-91724713D02*
X227307413Y-91677094D01*
X227307413Y-91677094D02*
X227497889Y-91629475D01*
X227497889Y-91629475D02*
X227735984Y-91629475D01*
X227735984Y-91629475D02*
X227926460Y-91677094D01*
X227926460Y-91677094D02*
X228021698Y-91724713D01*
X228021698Y-91724713D02*
X228069318Y-91772332D01*
X228069318Y-91772332D02*
X228116937Y-91867570D01*
X228116937Y-91867570D02*
X228116937Y-91962808D01*
X228116937Y-91962808D02*
X228069318Y-92058046D01*
X228069318Y-92058046D02*
X228021698Y-92105665D01*
X228021698Y-92105665D02*
X227926460Y-92153284D01*
X227926460Y-92153284D02*
X227735984Y-92200903D01*
X227735984Y-92200903D02*
X227497889Y-92200903D01*
X227497889Y-92200903D02*
X227307413Y-92153284D01*
X227307413Y-92153284D02*
X227212175Y-92105665D01*
X227212175Y-92105665D02*
X227164556Y-92058046D01*
X227164556Y-92058046D02*
X227116937Y-91962808D01*
X207729580Y-96891666D02*
X207777200Y-96939285D01*
X207777200Y-96939285D02*
X207824819Y-97082142D01*
X207824819Y-97082142D02*
X207824819Y-97177380D01*
X207824819Y-97177380D02*
X207777200Y-97320237D01*
X207777200Y-97320237D02*
X207681961Y-97415475D01*
X207681961Y-97415475D02*
X207586723Y-97463094D01*
X207586723Y-97463094D02*
X207396247Y-97510713D01*
X207396247Y-97510713D02*
X207253390Y-97510713D01*
X207253390Y-97510713D02*
X207062914Y-97463094D01*
X207062914Y-97463094D02*
X206967676Y-97415475D01*
X206967676Y-97415475D02*
X206872438Y-97320237D01*
X206872438Y-97320237D02*
X206824819Y-97177380D01*
X206824819Y-97177380D02*
X206824819Y-97082142D01*
X206824819Y-97082142D02*
X206872438Y-96939285D01*
X206872438Y-96939285D02*
X206920057Y-96891666D01*
X207824819Y-96415475D02*
X207824819Y-96224999D01*
X207824819Y-96224999D02*
X207777200Y-96129761D01*
X207777200Y-96129761D02*
X207729580Y-96082142D01*
X207729580Y-96082142D02*
X207586723Y-95986904D01*
X207586723Y-95986904D02*
X207396247Y-95939285D01*
X207396247Y-95939285D02*
X207015295Y-95939285D01*
X207015295Y-95939285D02*
X206920057Y-95986904D01*
X206920057Y-95986904D02*
X206872438Y-96034523D01*
X206872438Y-96034523D02*
X206824819Y-96129761D01*
X206824819Y-96129761D02*
X206824819Y-96320237D01*
X206824819Y-96320237D02*
X206872438Y-96415475D01*
X206872438Y-96415475D02*
X206920057Y-96463094D01*
X206920057Y-96463094D02*
X207015295Y-96510713D01*
X207015295Y-96510713D02*
X207253390Y-96510713D01*
X207253390Y-96510713D02*
X207348628Y-96463094D01*
X207348628Y-96463094D02*
X207396247Y-96415475D01*
X207396247Y-96415475D02*
X207443866Y-96320237D01*
X207443866Y-96320237D02*
X207443866Y-96129761D01*
X207443866Y-96129761D02*
X207396247Y-96034523D01*
X207396247Y-96034523D02*
X207348628Y-95986904D01*
X207348628Y-95986904D02*
X207253390Y-95939285D01*
X202929580Y-147891666D02*
X202977200Y-147939285D01*
X202977200Y-147939285D02*
X203024819Y-148082142D01*
X203024819Y-148082142D02*
X203024819Y-148177380D01*
X203024819Y-148177380D02*
X202977200Y-148320237D01*
X202977200Y-148320237D02*
X202881961Y-148415475D01*
X202881961Y-148415475D02*
X202786723Y-148463094D01*
X202786723Y-148463094D02*
X202596247Y-148510713D01*
X202596247Y-148510713D02*
X202453390Y-148510713D01*
X202453390Y-148510713D02*
X202262914Y-148463094D01*
X202262914Y-148463094D02*
X202167676Y-148415475D01*
X202167676Y-148415475D02*
X202072438Y-148320237D01*
X202072438Y-148320237D02*
X202024819Y-148177380D01*
X202024819Y-148177380D02*
X202024819Y-148082142D01*
X202024819Y-148082142D02*
X202072438Y-147939285D01*
X202072438Y-147939285D02*
X202120057Y-147891666D01*
X202453390Y-147320237D02*
X202405771Y-147415475D01*
X202405771Y-147415475D02*
X202358152Y-147463094D01*
X202358152Y-147463094D02*
X202262914Y-147510713D01*
X202262914Y-147510713D02*
X202215295Y-147510713D01*
X202215295Y-147510713D02*
X202120057Y-147463094D01*
X202120057Y-147463094D02*
X202072438Y-147415475D01*
X202072438Y-147415475D02*
X202024819Y-147320237D01*
X202024819Y-147320237D02*
X202024819Y-147129761D01*
X202024819Y-147129761D02*
X202072438Y-147034523D01*
X202072438Y-147034523D02*
X202120057Y-146986904D01*
X202120057Y-146986904D02*
X202215295Y-146939285D01*
X202215295Y-146939285D02*
X202262914Y-146939285D01*
X202262914Y-146939285D02*
X202358152Y-146986904D01*
X202358152Y-146986904D02*
X202405771Y-147034523D01*
X202405771Y-147034523D02*
X202453390Y-147129761D01*
X202453390Y-147129761D02*
X202453390Y-147320237D01*
X202453390Y-147320237D02*
X202501009Y-147415475D01*
X202501009Y-147415475D02*
X202548628Y-147463094D01*
X202548628Y-147463094D02*
X202643866Y-147510713D01*
X202643866Y-147510713D02*
X202834342Y-147510713D01*
X202834342Y-147510713D02*
X202929580Y-147463094D01*
X202929580Y-147463094D02*
X202977200Y-147415475D01*
X202977200Y-147415475D02*
X203024819Y-147320237D01*
X203024819Y-147320237D02*
X203024819Y-147129761D01*
X203024819Y-147129761D02*
X202977200Y-147034523D01*
X202977200Y-147034523D02*
X202929580Y-146986904D01*
X202929580Y-146986904D02*
X202834342Y-146939285D01*
X202834342Y-146939285D02*
X202643866Y-146939285D01*
X202643866Y-146939285D02*
X202548628Y-146986904D01*
X202548628Y-146986904D02*
X202501009Y-147034523D01*
X202501009Y-147034523D02*
X202453390Y-147129761D01*
X210333333Y-101929580D02*
X210285714Y-101977200D01*
X210285714Y-101977200D02*
X210142857Y-102024819D01*
X210142857Y-102024819D02*
X210047619Y-102024819D01*
X210047619Y-102024819D02*
X209904762Y-101977200D01*
X209904762Y-101977200D02*
X209809524Y-101881961D01*
X209809524Y-101881961D02*
X209761905Y-101786723D01*
X209761905Y-101786723D02*
X209714286Y-101596247D01*
X209714286Y-101596247D02*
X209714286Y-101453390D01*
X209714286Y-101453390D02*
X209761905Y-101262914D01*
X209761905Y-101262914D02*
X209809524Y-101167676D01*
X209809524Y-101167676D02*
X209904762Y-101072438D01*
X209904762Y-101072438D02*
X210047619Y-101024819D01*
X210047619Y-101024819D02*
X210142857Y-101024819D01*
X210142857Y-101024819D02*
X210285714Y-101072438D01*
X210285714Y-101072438D02*
X210333333Y-101120057D01*
X210666667Y-101024819D02*
X211333333Y-101024819D01*
X211333333Y-101024819D02*
X210904762Y-102024819D01*
X210429580Y-132391666D02*
X210477200Y-132439285D01*
X210477200Y-132439285D02*
X210524819Y-132582142D01*
X210524819Y-132582142D02*
X210524819Y-132677380D01*
X210524819Y-132677380D02*
X210477200Y-132820237D01*
X210477200Y-132820237D02*
X210381961Y-132915475D01*
X210381961Y-132915475D02*
X210286723Y-132963094D01*
X210286723Y-132963094D02*
X210096247Y-133010713D01*
X210096247Y-133010713D02*
X209953390Y-133010713D01*
X209953390Y-133010713D02*
X209762914Y-132963094D01*
X209762914Y-132963094D02*
X209667676Y-132915475D01*
X209667676Y-132915475D02*
X209572438Y-132820237D01*
X209572438Y-132820237D02*
X209524819Y-132677380D01*
X209524819Y-132677380D02*
X209524819Y-132582142D01*
X209524819Y-132582142D02*
X209572438Y-132439285D01*
X209572438Y-132439285D02*
X209620057Y-132391666D01*
X209524819Y-131534523D02*
X209524819Y-131724999D01*
X209524819Y-131724999D02*
X209572438Y-131820237D01*
X209572438Y-131820237D02*
X209620057Y-131867856D01*
X209620057Y-131867856D02*
X209762914Y-131963094D01*
X209762914Y-131963094D02*
X209953390Y-132010713D01*
X209953390Y-132010713D02*
X210334342Y-132010713D01*
X210334342Y-132010713D02*
X210429580Y-131963094D01*
X210429580Y-131963094D02*
X210477200Y-131915475D01*
X210477200Y-131915475D02*
X210524819Y-131820237D01*
X210524819Y-131820237D02*
X210524819Y-131629761D01*
X210524819Y-131629761D02*
X210477200Y-131534523D01*
X210477200Y-131534523D02*
X210429580Y-131486904D01*
X210429580Y-131486904D02*
X210334342Y-131439285D01*
X210334342Y-131439285D02*
X210096247Y-131439285D01*
X210096247Y-131439285D02*
X210001009Y-131486904D01*
X210001009Y-131486904D02*
X209953390Y-131534523D01*
X209953390Y-131534523D02*
X209905771Y-131629761D01*
X209905771Y-131629761D02*
X209905771Y-131820237D01*
X209905771Y-131820237D02*
X209953390Y-131915475D01*
X209953390Y-131915475D02*
X210001009Y-131963094D01*
X210001009Y-131963094D02*
X210096247Y-132010713D01*
X215929580Y-136441666D02*
X215977200Y-136489285D01*
X215977200Y-136489285D02*
X216024819Y-136632142D01*
X216024819Y-136632142D02*
X216024819Y-136727380D01*
X216024819Y-136727380D02*
X215977200Y-136870237D01*
X215977200Y-136870237D02*
X215881961Y-136965475D01*
X215881961Y-136965475D02*
X215786723Y-137013094D01*
X215786723Y-137013094D02*
X215596247Y-137060713D01*
X215596247Y-137060713D02*
X215453390Y-137060713D01*
X215453390Y-137060713D02*
X215262914Y-137013094D01*
X215262914Y-137013094D02*
X215167676Y-136965475D01*
X215167676Y-136965475D02*
X215072438Y-136870237D01*
X215072438Y-136870237D02*
X215024819Y-136727380D01*
X215024819Y-136727380D02*
X215024819Y-136632142D01*
X215024819Y-136632142D02*
X215072438Y-136489285D01*
X215072438Y-136489285D02*
X215120057Y-136441666D01*
X215024819Y-135536904D02*
X215024819Y-136013094D01*
X215024819Y-136013094D02*
X215501009Y-136060713D01*
X215501009Y-136060713D02*
X215453390Y-136013094D01*
X215453390Y-136013094D02*
X215405771Y-135917856D01*
X215405771Y-135917856D02*
X215405771Y-135679761D01*
X215405771Y-135679761D02*
X215453390Y-135584523D01*
X215453390Y-135584523D02*
X215501009Y-135536904D01*
X215501009Y-135536904D02*
X215596247Y-135489285D01*
X215596247Y-135489285D02*
X215834342Y-135489285D01*
X215834342Y-135489285D02*
X215929580Y-135536904D01*
X215929580Y-135536904D02*
X215977200Y-135584523D01*
X215977200Y-135584523D02*
X216024819Y-135679761D01*
X216024819Y-135679761D02*
X216024819Y-135917856D01*
X216024819Y-135917856D02*
X215977200Y-136013094D01*
X215977200Y-136013094D02*
X215929580Y-136060713D01*
X183608333Y-103959580D02*
X183560714Y-104007200D01*
X183560714Y-104007200D02*
X183417857Y-104054819D01*
X183417857Y-104054819D02*
X183322619Y-104054819D01*
X183322619Y-104054819D02*
X183179762Y-104007200D01*
X183179762Y-104007200D02*
X183084524Y-103911961D01*
X183084524Y-103911961D02*
X183036905Y-103816723D01*
X183036905Y-103816723D02*
X182989286Y-103626247D01*
X182989286Y-103626247D02*
X182989286Y-103483390D01*
X182989286Y-103483390D02*
X183036905Y-103292914D01*
X183036905Y-103292914D02*
X183084524Y-103197676D01*
X183084524Y-103197676D02*
X183179762Y-103102438D01*
X183179762Y-103102438D02*
X183322619Y-103054819D01*
X183322619Y-103054819D02*
X183417857Y-103054819D01*
X183417857Y-103054819D02*
X183560714Y-103102438D01*
X183560714Y-103102438D02*
X183608333Y-103150057D01*
X184465476Y-103388152D02*
X184465476Y-104054819D01*
X184227381Y-103007200D02*
X183989286Y-103721485D01*
X183989286Y-103721485D02*
X184608333Y-103721485D01*
X186923333Y-99029580D02*
X186875714Y-99077200D01*
X186875714Y-99077200D02*
X186732857Y-99124819D01*
X186732857Y-99124819D02*
X186637619Y-99124819D01*
X186637619Y-99124819D02*
X186494762Y-99077200D01*
X186494762Y-99077200D02*
X186399524Y-98981961D01*
X186399524Y-98981961D02*
X186351905Y-98886723D01*
X186351905Y-98886723D02*
X186304286Y-98696247D01*
X186304286Y-98696247D02*
X186304286Y-98553390D01*
X186304286Y-98553390D02*
X186351905Y-98362914D01*
X186351905Y-98362914D02*
X186399524Y-98267676D01*
X186399524Y-98267676D02*
X186494762Y-98172438D01*
X186494762Y-98172438D02*
X186637619Y-98124819D01*
X186637619Y-98124819D02*
X186732857Y-98124819D01*
X186732857Y-98124819D02*
X186875714Y-98172438D01*
X186875714Y-98172438D02*
X186923333Y-98220057D01*
X187256667Y-98124819D02*
X187875714Y-98124819D01*
X187875714Y-98124819D02*
X187542381Y-98505771D01*
X187542381Y-98505771D02*
X187685238Y-98505771D01*
X187685238Y-98505771D02*
X187780476Y-98553390D01*
X187780476Y-98553390D02*
X187828095Y-98601009D01*
X187828095Y-98601009D02*
X187875714Y-98696247D01*
X187875714Y-98696247D02*
X187875714Y-98934342D01*
X187875714Y-98934342D02*
X187828095Y-99029580D01*
X187828095Y-99029580D02*
X187780476Y-99077200D01*
X187780476Y-99077200D02*
X187685238Y-99124819D01*
X187685238Y-99124819D02*
X187399524Y-99124819D01*
X187399524Y-99124819D02*
X187304286Y-99077200D01*
X187304286Y-99077200D02*
X187256667Y-99029580D01*
X178724580Y-99491666D02*
X178772200Y-99539285D01*
X178772200Y-99539285D02*
X178819819Y-99682142D01*
X178819819Y-99682142D02*
X178819819Y-99777380D01*
X178819819Y-99777380D02*
X178772200Y-99920237D01*
X178772200Y-99920237D02*
X178676961Y-100015475D01*
X178676961Y-100015475D02*
X178581723Y-100063094D01*
X178581723Y-100063094D02*
X178391247Y-100110713D01*
X178391247Y-100110713D02*
X178248390Y-100110713D01*
X178248390Y-100110713D02*
X178057914Y-100063094D01*
X178057914Y-100063094D02*
X177962676Y-100015475D01*
X177962676Y-100015475D02*
X177867438Y-99920237D01*
X177867438Y-99920237D02*
X177819819Y-99777380D01*
X177819819Y-99777380D02*
X177819819Y-99682142D01*
X177819819Y-99682142D02*
X177867438Y-99539285D01*
X177867438Y-99539285D02*
X177915057Y-99491666D01*
X177915057Y-99110713D02*
X177867438Y-99063094D01*
X177867438Y-99063094D02*
X177819819Y-98967856D01*
X177819819Y-98967856D02*
X177819819Y-98729761D01*
X177819819Y-98729761D02*
X177867438Y-98634523D01*
X177867438Y-98634523D02*
X177915057Y-98586904D01*
X177915057Y-98586904D02*
X178010295Y-98539285D01*
X178010295Y-98539285D02*
X178105533Y-98539285D01*
X178105533Y-98539285D02*
X178248390Y-98586904D01*
X178248390Y-98586904D02*
X178819819Y-99158332D01*
X178819819Y-99158332D02*
X178819819Y-98539285D01*
X180108333Y-114429580D02*
X180060714Y-114477200D01*
X180060714Y-114477200D02*
X179917857Y-114524819D01*
X179917857Y-114524819D02*
X179822619Y-114524819D01*
X179822619Y-114524819D02*
X179679762Y-114477200D01*
X179679762Y-114477200D02*
X179584524Y-114381961D01*
X179584524Y-114381961D02*
X179536905Y-114286723D01*
X179536905Y-114286723D02*
X179489286Y-114096247D01*
X179489286Y-114096247D02*
X179489286Y-113953390D01*
X179489286Y-113953390D02*
X179536905Y-113762914D01*
X179536905Y-113762914D02*
X179584524Y-113667676D01*
X179584524Y-113667676D02*
X179679762Y-113572438D01*
X179679762Y-113572438D02*
X179822619Y-113524819D01*
X179822619Y-113524819D02*
X179917857Y-113524819D01*
X179917857Y-113524819D02*
X180060714Y-113572438D01*
X180060714Y-113572438D02*
X180108333Y-113620057D01*
X181060714Y-114524819D02*
X180489286Y-114524819D01*
X180775000Y-114524819D02*
X180775000Y-113524819D01*
X180775000Y-113524819D02*
X180679762Y-113667676D01*
X180679762Y-113667676D02*
X180584524Y-113762914D01*
X180584524Y-113762914D02*
X180489286Y-113810533D01*
X181396905Y-104519819D02*
X181396905Y-105329342D01*
X181396905Y-105329342D02*
X181444524Y-105424580D01*
X181444524Y-105424580D02*
X181492143Y-105472200D01*
X181492143Y-105472200D02*
X181587381Y-105519819D01*
X181587381Y-105519819D02*
X181777857Y-105519819D01*
X181777857Y-105519819D02*
X181873095Y-105472200D01*
X181873095Y-105472200D02*
X181920714Y-105424580D01*
X181920714Y-105424580D02*
X181968333Y-105329342D01*
X181968333Y-105329342D02*
X181968333Y-104519819D01*
X182968333Y-105519819D02*
X182396905Y-105519819D01*
X182682619Y-105519819D02*
X182682619Y-104519819D01*
X182682619Y-104519819D02*
X182587381Y-104662676D01*
X182587381Y-104662676D02*
X182492143Y-104757914D01*
X182492143Y-104757914D02*
X182396905Y-104805533D01*
X183349286Y-104615057D02*
X183396905Y-104567438D01*
X183396905Y-104567438D02*
X183492143Y-104519819D01*
X183492143Y-104519819D02*
X183730238Y-104519819D01*
X183730238Y-104519819D02*
X183825476Y-104567438D01*
X183825476Y-104567438D02*
X183873095Y-104615057D01*
X183873095Y-104615057D02*
X183920714Y-104710295D01*
X183920714Y-104710295D02*
X183920714Y-104805533D01*
X183920714Y-104805533D02*
X183873095Y-104948390D01*
X183873095Y-104948390D02*
X183301667Y-105519819D01*
X183301667Y-105519819D02*
X183920714Y-105519819D01*
D15*
%TO.C,J7*%
X154170000Y-106770000D02*
X154170000Y-119530000D01*
X154170000Y-106770000D02*
X156830000Y-106770000D01*
X154170000Y-119530000D02*
X156830000Y-119530000D01*
X155500000Y-104170000D02*
X156830000Y-104170000D01*
X156830000Y-104170000D02*
X156830000Y-105500000D01*
X156830000Y-106770000D02*
X156830000Y-119530000D01*
%TO.C,J6*%
X202520000Y-126805000D02*
X205120000Y-126805000D01*
X202520000Y-126805000D02*
X202520000Y-124145000D01*
X205120000Y-126805000D02*
X205120000Y-124145000D01*
X199920000Y-125475000D02*
X199920000Y-124145000D01*
X199920000Y-124145000D02*
X201250000Y-124145000D01*
X202520000Y-124145000D02*
X205120000Y-124145000D01*
%TO.C,U11*%
X166440000Y-104600000D02*
X166110000Y-104360000D01*
X166440000Y-104120000D01*
X166440000Y-104600000D01*
G36*
X166440000Y-104600000D02*
G01*
X166110000Y-104360000D01*
X166440000Y-104120000D01*
X166440000Y-104600000D01*
G37*
X161890000Y-108580000D02*
X162365000Y-108580000D01*
X166110000Y-108580000D02*
X165635000Y-108580000D01*
X161890000Y-108105000D02*
X161890000Y-108580000D01*
X166110000Y-108105000D02*
X166110000Y-108580000D01*
X161890000Y-104835000D02*
X161890000Y-104360000D01*
X166110000Y-104835000D02*
X166110000Y-104660000D01*
X161890000Y-104360000D02*
X162365000Y-104360000D01*
X165635000Y-104360000D02*
X165870000Y-104360000D01*
%TO.C,U10*%
X214700000Y-117890000D02*
X213200000Y-117890000D01*
X214700000Y-117890000D02*
X216200000Y-117890000D01*
X214700000Y-121110000D02*
X213200000Y-121110000D01*
X214700000Y-121110000D02*
X216200000Y-121110000D01*
X212487500Y-118090000D02*
X212247500Y-117760000D01*
X212727500Y-117760000D01*
X212487500Y-118090000D01*
G36*
X212487500Y-118090000D02*
G01*
X212247500Y-117760000D01*
X212727500Y-117760000D01*
X212487500Y-118090000D01*
G37*
%TO.C,U9*%
X209810000Y-139500000D02*
X209810000Y-138000000D01*
X209810000Y-139500000D02*
X209810000Y-141000000D01*
X206590000Y-139500000D02*
X206590000Y-138000000D01*
X206590000Y-139500000D02*
X206590000Y-141000000D01*
X209940000Y-137527500D02*
X209610000Y-137287500D01*
X209940000Y-137047500D01*
X209940000Y-137527500D01*
G36*
X209940000Y-137527500D02*
G01*
X209610000Y-137287500D01*
X209940000Y-137047500D01*
X209940000Y-137527500D01*
G37*
%TO.C,U8*%
X199390000Y-98500000D02*
X199390000Y-94740000D01*
X206210000Y-98500000D02*
X206210000Y-94740000D01*
X199390000Y-94740000D02*
X200650000Y-94740000D01*
X206210000Y-94740000D02*
X204950000Y-94740000D01*
X199490000Y-99780000D02*
X199160000Y-100020000D01*
X199160000Y-99540000D01*
X199490000Y-99780000D01*
G36*
X199490000Y-99780000D02*
G01*
X199160000Y-100020000D01*
X199160000Y-99540000D01*
X199490000Y-99780000D01*
G37*
%TO.C,U7*%
X190800000Y-143450000D02*
X192610000Y-143450000D01*
X201200000Y-143450000D02*
X199390000Y-143450000D01*
X190800000Y-142085000D02*
X190800000Y-143450000D01*
X201200000Y-142085000D02*
X201200000Y-143450000D01*
X192650000Y-146275000D02*
X192180000Y-146615000D01*
X192180000Y-145935000D01*
X192650000Y-146275000D01*
G36*
X192650000Y-146275000D02*
G01*
X192180000Y-146615000D01*
X192180000Y-145935000D01*
X192650000Y-146275000D01*
G37*
%TO.C,U6*%
X217600000Y-95025000D02*
X217600000Y-96835000D01*
X217600000Y-105425000D02*
X217600000Y-103615000D01*
X218965000Y-95025000D02*
X217600000Y-95025000D01*
X218965000Y-105425000D02*
X217600000Y-105425000D01*
X214775000Y-96875000D02*
X214435000Y-96405000D01*
X215115000Y-96405000D01*
X214775000Y-96875000D01*
G36*
X214775000Y-96875000D02*
G01*
X214435000Y-96405000D01*
X215115000Y-96405000D01*
X214775000Y-96875000D01*
G37*
%TO.C,U5*%
X213612500Y-130790000D02*
X216612500Y-130790000D01*
X213612500Y-134010000D02*
X216612500Y-134010000D01*
X216672500Y-130840000D02*
X216672500Y-130990000D01*
X213052500Y-131060000D02*
X212572500Y-131060000D01*
X213052500Y-130580000D01*
X213052500Y-131060000D01*
G36*
X213052500Y-131060000D02*
G01*
X212572500Y-131060000D01*
X213052500Y-130580000D01*
X213052500Y-131060000D01*
G37*
%TO.C,U4*%
X181400000Y-100485000D02*
X181400000Y-100235000D01*
X181400000Y-100485000D02*
X181650000Y-100485000D01*
X184600000Y-97285000D02*
X184350000Y-97285000D01*
X184600000Y-97285000D02*
X184600000Y-97535000D01*
X184600000Y-100485000D02*
X184350000Y-100485000D01*
X184600000Y-100485000D02*
X184600000Y-100235000D01*
X181400000Y-97285000D02*
X181160000Y-96955000D01*
X181640000Y-96955000D01*
X181400000Y-97285000D01*
G36*
X181400000Y-97285000D02*
G01*
X181160000Y-96955000D01*
X181640000Y-96955000D01*
X181400000Y-97285000D01*
G37*
%TO.C,U3*%
X177625000Y-116835000D02*
X177625000Y-116475000D01*
X177985000Y-116475000D01*
X177625000Y-116835000D01*
G36*
X177625000Y-116835000D02*
G01*
X177625000Y-116475000D01*
X177985000Y-116475000D01*
X177625000Y-116835000D01*
G37*
X174425000Y-111275000D02*
X174925000Y-111275000D01*
X174425000Y-111775000D02*
X174425000Y-111275000D01*
X174425000Y-116475000D02*
X174425000Y-115975000D01*
X174925000Y-116475000D02*
X174425000Y-116475000D01*
X177225000Y-111275000D02*
X177725000Y-111275000D01*
X177425000Y-116475000D02*
X176675000Y-116475000D01*
X177725000Y-111275000D02*
X177725000Y-111775000D01*
%TO.C,U2*%
X165232500Y-96125000D02*
X164952500Y-96125000D01*
X164952500Y-95845000D01*
X165232500Y-96125000D01*
G36*
X165232500Y-96125000D02*
G01*
X164952500Y-96125000D01*
X164952500Y-95845000D01*
X165232500Y-96125000D01*
G37*
X162972500Y-97545000D02*
X162972500Y-96245000D01*
X164952500Y-97545000D02*
X164952500Y-96495000D01*
D16*
%TO.C,U1*%
X184627000Y-127154500D02*
X181373000Y-127154500D01*
X181373000Y-132408500D02*
X184627000Y-132408500D01*
D17*
G36*
X180968599Y-129572001D02*
G01*
X180714599Y-129572001D01*
X180714599Y-129191001D01*
X180968599Y-129191001D01*
X180968599Y-129572001D01*
G37*
D15*
%TO.C,TP10*%
X170170000Y-101670000D02*
X171500000Y-101670000D01*
X170170000Y-103000000D02*
X170170000Y-101670000D01*
X170170000Y-104270000D02*
X170170000Y-104330000D01*
X170170000Y-104270000D02*
X172830000Y-104270000D01*
X170170000Y-104330000D02*
X172830000Y-104330000D01*
X172830000Y-104270000D02*
X172830000Y-104330000D01*
%TO.C,TP9*%
X159170000Y-96670000D02*
X160500000Y-96670000D01*
X159170000Y-98000000D02*
X159170000Y-96670000D01*
X159170000Y-99270000D02*
X159170000Y-99330000D01*
X159170000Y-99270000D02*
X161830000Y-99270000D01*
X159170000Y-99330000D02*
X161830000Y-99330000D01*
X161830000Y-99270000D02*
X161830000Y-99330000D01*
%TO.C,TP8*%
X200330000Y-90770000D02*
X200330000Y-90830000D01*
X197670000Y-90830000D02*
X200330000Y-90830000D01*
X197670000Y-90770000D02*
X200330000Y-90770000D01*
X197670000Y-90770000D02*
X197670000Y-90830000D01*
X197670000Y-89500000D02*
X197670000Y-88170000D01*
X197670000Y-88170000D02*
X199000000Y-88170000D01*
%TO.C,TP7*%
X205330000Y-90770000D02*
X205330000Y-90830000D01*
X202670000Y-90830000D02*
X205330000Y-90830000D01*
X202670000Y-90770000D02*
X205330000Y-90770000D01*
X202670000Y-90770000D02*
X202670000Y-90830000D01*
X202670000Y-89500000D02*
X202670000Y-88170000D01*
X202670000Y-88170000D02*
X204000000Y-88170000D01*
%TO.C,TP6*%
X223170000Y-88170000D02*
X224500000Y-88170000D01*
X223170000Y-89500000D02*
X223170000Y-88170000D01*
X223170000Y-90770000D02*
X223170000Y-90830000D01*
X223170000Y-90770000D02*
X225830000Y-90770000D01*
X223170000Y-90830000D02*
X225830000Y-90830000D01*
X225830000Y-90770000D02*
X225830000Y-90830000D01*
%TO.C,TP5*%
X207670000Y-88170000D02*
X209000000Y-88170000D01*
X207670000Y-89500000D02*
X207670000Y-88170000D01*
X207670000Y-90770000D02*
X207670000Y-90830000D01*
X207670000Y-90770000D02*
X210330000Y-90770000D01*
X207670000Y-90830000D02*
X210330000Y-90830000D01*
X210330000Y-90770000D02*
X210330000Y-90830000D01*
%TO.C,TP4*%
X220330000Y-90770000D02*
X220330000Y-90830000D01*
X217670000Y-90830000D02*
X220330000Y-90830000D01*
X217670000Y-90770000D02*
X220330000Y-90770000D01*
X217670000Y-90770000D02*
X217670000Y-90830000D01*
X217670000Y-89500000D02*
X217670000Y-88170000D01*
X217670000Y-88170000D02*
X219000000Y-88170000D01*
%TO.C,TP3*%
X212670000Y-88170000D02*
X214000000Y-88170000D01*
X212670000Y-89500000D02*
X212670000Y-88170000D01*
X212670000Y-90770000D02*
X212670000Y-90830000D01*
X212670000Y-90770000D02*
X215330000Y-90770000D01*
X212670000Y-90830000D02*
X215330000Y-90830000D01*
X215330000Y-90770000D02*
X215330000Y-90830000D01*
%TO.C,SW2*%
X199625000Y-118700000D02*
X193325000Y-118700000D01*
X199625000Y-118450000D02*
X199625000Y-118700000D01*
X199625000Y-113950000D02*
X199625000Y-116550000D01*
X199625000Y-111800000D02*
X199625000Y-112050000D01*
X193325000Y-118700000D02*
X193325000Y-118450000D01*
X193325000Y-116550000D02*
X193325000Y-113950000D01*
X193325000Y-112050000D02*
X193325000Y-111800000D01*
X193325000Y-111800000D02*
X199625000Y-111800000D01*
%TO.C,SW1*%
X199625000Y-109700000D02*
X193325000Y-109700000D01*
X199625000Y-109450000D02*
X199625000Y-109700000D01*
X199625000Y-104950000D02*
X199625000Y-107550000D01*
X199625000Y-102800000D02*
X199625000Y-103050000D01*
X193325000Y-109700000D02*
X193325000Y-109450000D01*
X193325000Y-107550000D02*
X193325000Y-104950000D01*
X193325000Y-103050000D02*
X193325000Y-102800000D01*
X193325000Y-102800000D02*
X199625000Y-102800000D01*
%TO.C,R21*%
X223912258Y-114022500D02*
X223437742Y-114022500D01*
X223912258Y-112977500D02*
X223437742Y-112977500D01*
%TO.C,R20*%
X223923658Y-112016200D02*
X223449142Y-112016200D01*
X223923658Y-110971200D02*
X223449142Y-110971200D01*
%TO.C,R19*%
X224062258Y-109022500D02*
X223587742Y-109022500D01*
X224062258Y-107977500D02*
X223587742Y-107977500D01*
%TO.C,R18*%
X171532258Y-120973100D02*
X171057742Y-120973100D01*
X171532258Y-119928100D02*
X171057742Y-119928100D01*
%TO.C,R17*%
X167207742Y-119928100D02*
X167682258Y-119928100D01*
X167207742Y-120973100D02*
X167682258Y-120973100D01*
%TO.C,R16*%
X164587742Y-111992500D02*
X165062258Y-111992500D01*
X164587742Y-110947500D02*
X165062258Y-110947500D01*
%TO.C,R15*%
X154477500Y-126937742D02*
X154477500Y-127412258D01*
X155522500Y-126937742D02*
X155522500Y-127412258D01*
%TO.C,R14*%
X154477500Y-131437742D02*
X154477500Y-131912258D01*
X155522500Y-131437742D02*
X155522500Y-131912258D01*
%TO.C,R13*%
X160477500Y-118087742D02*
X160477500Y-118562258D01*
X161522500Y-118087742D02*
X161522500Y-118562258D01*
%TO.C,R12*%
X158937742Y-109492500D02*
X159412258Y-109492500D01*
X158937742Y-108447500D02*
X159412258Y-108447500D01*
%TO.C,R11*%
X157977500Y-104907742D02*
X157977500Y-105382258D01*
X159022500Y-104907742D02*
X159022500Y-105382258D01*
%TO.C,R10*%
X158977500Y-94087742D02*
X158977500Y-94562258D01*
X160022500Y-94087742D02*
X160022500Y-94562258D01*
%TO.C,R9*%
X167440000Y-97407742D02*
X167440000Y-97882258D01*
X168485000Y-97407742D02*
X168485000Y-97882258D01*
%TO.C,R8*%
X181227500Y-118865794D02*
X181227500Y-119340310D01*
X182272500Y-118865794D02*
X182272500Y-119340310D01*
%TO.C,R7*%
X184427500Y-118865794D02*
X184427500Y-119340310D01*
X185472500Y-118865794D02*
X185472500Y-119340310D01*
%TO.C,R6*%
X189712258Y-116677500D02*
X189237742Y-116677500D01*
X189712258Y-117722500D02*
X189237742Y-117722500D01*
%TO.C,R5*%
X190037258Y-108177500D02*
X189562742Y-108177500D01*
X190037258Y-109222500D02*
X189562742Y-109222500D01*
%TO.C,R4*%
X208977500Y-118912258D02*
X208977500Y-118437742D01*
X210022500Y-118912258D02*
X210022500Y-118437742D01*
%TO.C,R3*%
X219977500Y-118912258D02*
X219977500Y-118437742D01*
X221022500Y-118912258D02*
X221022500Y-118437742D01*
%TO.C,R2*%
X208912258Y-145522500D02*
X208437742Y-145522500D01*
X208912258Y-144477500D02*
X208437742Y-144477500D01*
%TO.C,R1*%
X220022500Y-132437742D02*
X220022500Y-132912258D01*
X218977500Y-132437742D02*
X218977500Y-132912258D01*
%TO.C,Q2*%
X182840000Y-122443052D02*
X182510000Y-122203052D01*
X182840000Y-121963052D01*
X182840000Y-122443052D01*
G36*
X182840000Y-122443052D02*
G01*
X182510000Y-122203052D01*
X182840000Y-121963052D01*
X182840000Y-122443052D01*
G37*
X179440000Y-123365552D02*
X179440000Y-124015552D01*
X179440000Y-123365552D02*
X179440000Y-122715552D01*
X182560000Y-123365552D02*
X182560000Y-124015552D01*
X182560000Y-123365552D02*
X182560000Y-122715552D01*
%TO.C,Q1*%
X187740000Y-122443052D02*
X187410000Y-122203052D01*
X187740000Y-121963052D01*
X187740000Y-122443052D01*
G36*
X187740000Y-122443052D02*
G01*
X187410000Y-122203052D01*
X187740000Y-121963052D01*
X187740000Y-122443052D01*
G37*
X184340000Y-123365552D02*
X184340000Y-124015552D01*
X184340000Y-123365552D02*
X184340000Y-122715552D01*
X187460000Y-123365552D02*
X187460000Y-124015552D01*
X187460000Y-123365552D02*
X187460000Y-122715552D01*
%TO.C,J5*%
X179890000Y-144715000D02*
X180940000Y-144715000D01*
X179890000Y-147215000D02*
X179890000Y-144715000D01*
X180940000Y-144715000D02*
X180940000Y-143725000D01*
X181060000Y-149185000D02*
X184940000Y-149185000D01*
X186110000Y-144715000D02*
X185060000Y-144715000D01*
X186110000Y-147215000D02*
X186110000Y-144715000D01*
%TO.C,J4*%
X159152500Y-84870000D02*
X159152500Y-82970000D01*
X159152500Y-88770000D02*
X159152500Y-86770000D01*
X168552500Y-82970000D02*
X159152500Y-82970000D01*
X168552500Y-84870000D02*
X168552500Y-82970000D01*
X168552500Y-88770000D02*
X168552500Y-86770000D01*
%TO.C,J3*%
X171270000Y-146330000D02*
X158510000Y-146330000D01*
X173870000Y-146330000D02*
X172540000Y-146330000D01*
X173870000Y-145000000D02*
X173870000Y-146330000D01*
X158510000Y-143670000D02*
X158510000Y-146330000D01*
X171270000Y-143670000D02*
X171270000Y-146330000D01*
X171270000Y-143670000D02*
X158510000Y-143670000D01*
%TO.C,J2*%
X227750000Y-145600000D02*
X227750000Y-142450000D01*
X227750000Y-142450000D02*
X224900000Y-139850000D01*
X224900000Y-148150000D02*
X227750000Y-145600000D01*
X224900000Y-139850000D02*
X212050000Y-139850000D01*
X212050000Y-148150000D02*
X224900000Y-148150000D01*
X212050000Y-139850000D02*
X212050000Y-148150000D01*
%TO.C,J1*%
X222170000Y-126110000D02*
X222170000Y-136330000D01*
X222170000Y-126110000D02*
X224830000Y-126110000D01*
X222170000Y-136330000D02*
X224830000Y-136330000D01*
X223500000Y-123510000D02*
X224830000Y-123510000D01*
X224830000Y-123510000D02*
X224830000Y-124840000D01*
X224830000Y-126110000D02*
X224830000Y-136330000D01*
%TO.C,IC1*%
X177630000Y-123355000D02*
X177630000Y-141755000D01*
X159030000Y-123355000D02*
X158030000Y-123355000D01*
X158030000Y-123355000D02*
X158030000Y-124855000D01*
X177630000Y-141755000D02*
X176930000Y-141755000D01*
X158030000Y-141755000D02*
X158030000Y-140255000D01*
X158030000Y-141755000D02*
X159030000Y-141755000D01*
X177380000Y-123355000D02*
X176880000Y-123355000D01*
X176880000Y-122855000D01*
X177380000Y-123355000D01*
G36*
X177380000Y-123355000D02*
G01*
X176880000Y-123355000D01*
X176880000Y-122855000D01*
X177380000Y-123355000D01*
G37*
%TO.C,FB1*%
X171972500Y-92766267D02*
X171972500Y-92423733D01*
X170952500Y-92766267D02*
X170952500Y-92423733D01*
%TO.C,F2*%
X171337779Y-87960000D02*
X171012221Y-87960000D01*
X171337779Y-88980000D02*
X171012221Y-88980000D01*
%TO.C,F1*%
X220910000Y-124002064D02*
X220910000Y-122797936D01*
X219090000Y-124002064D02*
X219090000Y-122797936D01*
%TO.C,D9*%
X229035000Y-114235000D02*
X229035000Y-112765000D01*
X229035000Y-112765000D02*
X226575000Y-112765000D01*
X226575000Y-114235000D02*
X229035000Y-114235000D01*
%TO.C,D8*%
X229035000Y-112235000D02*
X229035000Y-110765000D01*
X229035000Y-110765000D02*
X226575000Y-110765000D01*
X226575000Y-112235000D02*
X229035000Y-112235000D01*
%TO.C,D7*%
X229108600Y-109195400D02*
X229108600Y-107725400D01*
X229108600Y-107725400D02*
X226648600Y-107725400D01*
X226648600Y-109195400D02*
X229108600Y-109195400D01*
%TO.C,D6*%
X166875000Y-94205000D02*
X169160000Y-94205000D01*
X169160000Y-92735000D02*
X166875000Y-92735000D01*
X169160000Y-94205000D02*
X169160000Y-92735000D01*
%TO.C,D5*%
X177735000Y-146012500D02*
X177735000Y-143727500D01*
X176265000Y-143727500D02*
X176265000Y-146012500D01*
X177735000Y-143727500D02*
X176265000Y-143727500D01*
%TO.C,D4*%
X176697500Y-89235000D02*
X176697500Y-87765000D01*
X176697500Y-87765000D02*
X174412500Y-87765000D01*
X174412500Y-89235000D02*
X176697500Y-89235000D01*
%TO.C,D3*%
X218235000Y-106802500D02*
X216765000Y-106802500D01*
X216765000Y-106802500D02*
X216765000Y-109087500D01*
X218235000Y-109087500D02*
X218235000Y-106802500D01*
%TO.C,D2*%
X196735000Y-128802500D02*
X195265000Y-128802500D01*
X195265000Y-128802500D02*
X195265000Y-131087500D01*
X196735000Y-131087500D02*
X196735000Y-128802500D01*
%TO.C,D1*%
X220235000Y-127227500D02*
X218765000Y-127227500D01*
X218765000Y-127227500D02*
X218765000Y-129512500D01*
X220235000Y-129512500D02*
X220235000Y-127227500D01*
%TO.C,C27*%
X182584420Y-113010000D02*
X182865580Y-113010000D01*
X182584420Y-111990000D02*
X182865580Y-111990000D01*
%TO.C,C26*%
X186634420Y-110010000D02*
X186915580Y-110010000D01*
X186634420Y-108990000D02*
X186915580Y-108990000D01*
%TO.C,C25*%
X178990000Y-108584420D02*
X178990000Y-108865580D01*
X180010000Y-108584420D02*
X180010000Y-108865580D01*
%TO.C,C24*%
X187263520Y-128891500D02*
X187544680Y-128891500D01*
X187263520Y-127871500D02*
X187544680Y-127871500D01*
%TO.C,C23*%
X188580900Y-131131880D02*
X188580900Y-130850720D01*
X187560900Y-131131880D02*
X187560900Y-130850720D01*
%TO.C,C22*%
X181298752Y-140735000D02*
X180776248Y-140735000D01*
X181298752Y-139265000D02*
X180776248Y-139265000D01*
%TO.C,C21*%
X175754420Y-119940600D02*
X176035580Y-119940600D01*
X175754420Y-120960600D02*
X176035580Y-120960600D01*
%TO.C,C20*%
X161510000Y-101885580D02*
X161510000Y-101604420D01*
X160490000Y-101885580D02*
X160490000Y-101604420D01*
%TO.C,C19*%
X159000000Y-101885580D02*
X159000000Y-101604420D01*
X157980000Y-101885580D02*
X157980000Y-101604420D01*
%TO.C,C18*%
X203340580Y-116740000D02*
X203059420Y-116740000D01*
X203340580Y-117760000D02*
X203059420Y-117760000D01*
%TO.C,C17*%
X204985000Y-111565580D02*
X204985000Y-111284420D01*
X203965000Y-111565580D02*
X203965000Y-111284420D01*
%TO.C,C16*%
X215010000Y-123584420D02*
X215010000Y-123865580D01*
X213990000Y-123584420D02*
X213990000Y-123865580D01*
%TO.C,C15*%
X216915580Y-113490000D02*
X216634420Y-113490000D01*
X216915580Y-114510000D02*
X216634420Y-114510000D01*
%TO.C,C14*%
X216965580Y-110490000D02*
X216684420Y-110490000D01*
X216965580Y-111510000D02*
X216684420Y-111510000D01*
%TO.C,C13*%
X204865580Y-141510000D02*
X204584420Y-141510000D01*
X204865580Y-140490000D02*
X204584420Y-140490000D01*
%TO.C,C12*%
X197415580Y-93510000D02*
X197134420Y-93510000D01*
X197415580Y-92490000D02*
X197134420Y-92490000D01*
%TO.C,C11*%
X188584420Y-135490000D02*
X188865580Y-135490000D01*
X188584420Y-136510000D02*
X188865580Y-136510000D01*
%TO.C,C10*%
X226742118Y-92750800D02*
X226742118Y-93031960D01*
X225722118Y-92750800D02*
X225722118Y-93031960D01*
%TO.C,C9*%
X208290000Y-96865580D02*
X208290000Y-96584420D01*
X209310000Y-96865580D02*
X209310000Y-96584420D01*
%TO.C,C8*%
X203490000Y-147865580D02*
X203490000Y-147584420D01*
X204510000Y-147865580D02*
X204510000Y-147584420D01*
%TO.C,C7*%
X210359420Y-102490000D02*
X210640580Y-102490000D01*
X210359420Y-103510000D02*
X210640580Y-103510000D01*
%TO.C,C6*%
X210990000Y-132365580D02*
X210990000Y-132084420D01*
X212010000Y-132365580D02*
X212010000Y-132084420D01*
%TO.C,C5*%
X216490000Y-136415580D02*
X216490000Y-136134420D01*
X217510000Y-136415580D02*
X217510000Y-136134420D01*
%TO.C,C4*%
X183634420Y-102610000D02*
X183915580Y-102610000D01*
X183634420Y-101590000D02*
X183915580Y-101590000D01*
%TO.C,C3*%
X186949420Y-99590000D02*
X187230580Y-99590000D01*
X186949420Y-100610000D02*
X187230580Y-100610000D01*
%TO.C,C2*%
X180375000Y-99184420D02*
X180375000Y-99465580D01*
X179355000Y-99184420D02*
X179355000Y-99465580D01*
%TO.C,C1*%
X180134420Y-116010000D02*
X180415580Y-116010000D01*
X180134420Y-114990000D02*
X180415580Y-114990000D01*
%TO.C,U12*%
X181035000Y-106715000D02*
X180795000Y-106385000D01*
X181275000Y-106385000D01*
X181035000Y-106715000D01*
G36*
X181035000Y-106715000D02*
G01*
X180795000Y-106385000D01*
X181275000Y-106385000D01*
X181035000Y-106715000D01*
G37*
X184235000Y-109915000D02*
X184235000Y-109665000D01*
X184235000Y-109915000D02*
X183985000Y-109915000D01*
X184235000Y-106715000D02*
X184235000Y-106965000D01*
X184235000Y-106715000D02*
X183985000Y-106715000D01*
X181035000Y-109915000D02*
X181285000Y-109915000D01*
X181035000Y-109915000D02*
X181035000Y-109665000D01*
%TD*%
%LPC*%
D18*
%TO.C,J7*%
X155500000Y-105500000D03*
D19*
X155500000Y-108040000D03*
X155500000Y-110580000D03*
X155500000Y-113120000D03*
X155500000Y-115660000D03*
X155500000Y-118200000D03*
%TD*%
D18*
%TO.C,J6*%
X201250000Y-125475000D03*
D19*
X203790000Y-125475000D03*
%TD*%
D20*
%TO.C,U11*%
X164000000Y-106470000D03*
D21*
X165937500Y-105220000D03*
X165937500Y-105720000D03*
X165937500Y-106220000D03*
X165937500Y-106720000D03*
X165937500Y-107220000D03*
X165937500Y-107720000D03*
D22*
X165250000Y-108407500D03*
X164750000Y-108407500D03*
X164250000Y-108407500D03*
X163750000Y-108407500D03*
X163250000Y-108407500D03*
X162750000Y-108407500D03*
D21*
X162062500Y-107720000D03*
X162062500Y-107220000D03*
X162062500Y-106720000D03*
X162062500Y-106220000D03*
X162062500Y-105720000D03*
X162062500Y-105220000D03*
D22*
X162750000Y-104532500D03*
X163250000Y-104532500D03*
X163750000Y-104532500D03*
X164250000Y-104532500D03*
X164750000Y-104532500D03*
X165250000Y-104532500D03*
%TD*%
D23*
%TO.C,U10*%
X212500000Y-118500000D03*
X212500000Y-119000000D03*
X212500000Y-119500000D03*
X212500000Y-120000000D03*
X212500000Y-120500000D03*
X216900000Y-120500000D03*
X216900000Y-120000000D03*
X216900000Y-119500000D03*
X216900000Y-119000000D03*
X216900000Y-118500000D03*
%TD*%
D24*
%TO.C,U9*%
X209200000Y-137300000D03*
X208700000Y-137300000D03*
X208200000Y-137300000D03*
X207700000Y-137300000D03*
X207200000Y-137300000D03*
X207200000Y-141700000D03*
X207700000Y-141700000D03*
X208200000Y-141700000D03*
X208700000Y-141700000D03*
X209200000Y-141700000D03*
%TD*%
D25*
%TO.C,U8*%
X200500000Y-99800000D03*
X202800000Y-99800000D03*
D26*
X202800000Y-93500000D03*
D25*
X205100000Y-99800000D03*
%TD*%
D27*
%TO.C,U7*%
X193460000Y-146275000D03*
X196000000Y-146275000D03*
D28*
X196000000Y-137125000D03*
D27*
X198540000Y-146275000D03*
%TD*%
D29*
%TO.C,U6*%
X214775000Y-97685000D03*
X214775000Y-100225000D03*
D30*
X223925000Y-100225000D03*
D29*
X214775000Y-102765000D03*
%TD*%
D31*
%TO.C,U5*%
X213562500Y-131425000D03*
X213562500Y-132075000D03*
X213562500Y-132725000D03*
X213562500Y-133375000D03*
X216662500Y-133375000D03*
X216662500Y-132725000D03*
X216662500Y-132075000D03*
X216662500Y-131425000D03*
D32*
X215112500Y-132400000D03*
%TD*%
D33*
%TO.C,U4*%
X181500000Y-97885000D03*
X181500000Y-98285000D03*
X181500000Y-98685000D03*
X181500000Y-99085000D03*
X181500000Y-99485000D03*
X181500000Y-99885000D03*
D34*
X182000000Y-100385000D03*
X182400000Y-100385000D03*
X182800000Y-100385000D03*
X183200000Y-100385000D03*
X183600000Y-100385000D03*
X184000000Y-100385000D03*
D33*
X184500000Y-99885000D03*
X184500000Y-99485000D03*
X184500000Y-99085000D03*
X184500000Y-98685000D03*
X184500000Y-98285000D03*
X184500000Y-97885000D03*
D34*
X184000000Y-97385000D03*
X183600000Y-97385000D03*
X183200000Y-97385000D03*
X182800000Y-97385000D03*
X182400000Y-97385000D03*
X182000000Y-97385000D03*
%TD*%
D35*
%TO.C,U3*%
X175000000Y-115750000D03*
X175000000Y-114500000D03*
X175000000Y-113250000D03*
X175000000Y-112000000D03*
X177150000Y-112000000D03*
X177150000Y-113250000D03*
X177150000Y-114500000D03*
X177150000Y-115750000D03*
%TD*%
D36*
%TO.C,U2*%
X164500000Y-97745000D03*
D37*
X163962500Y-97820000D03*
D36*
X163425000Y-97745000D03*
X163425000Y-96045000D03*
D37*
X163962500Y-95970000D03*
D36*
X164500000Y-96045000D03*
%TD*%
D38*
%TO.C,U1*%
X184370901Y-131781501D03*
X184370901Y-130981500D03*
X184370901Y-130181499D03*
X184370901Y-129381501D03*
X184370901Y-128581500D03*
X184370901Y-127781501D03*
D39*
X183000000Y-128063002D03*
D38*
X181629099Y-127781499D03*
X181629099Y-128581500D03*
X181629099Y-129381501D03*
X181629099Y-130181499D03*
X181629099Y-130981500D03*
X181629099Y-131781499D03*
D39*
X183000000Y-131499998D03*
%TD*%
D18*
%TO.C,TP10*%
X171500000Y-103000000D03*
%TD*%
%TO.C,TP9*%
X160500000Y-98000000D03*
%TD*%
%TO.C,TP8*%
X199000000Y-89500000D03*
%TD*%
%TO.C,TP7*%
X204000000Y-89500000D03*
%TD*%
%TO.C,TP6*%
X224500000Y-89500000D03*
%TD*%
%TO.C,TP5*%
X209000000Y-89500000D03*
%TD*%
%TO.C,TP4*%
X219000000Y-89500000D03*
%TD*%
%TO.C,TP3*%
X214000000Y-89500000D03*
%TD*%
D40*
%TO.C,SW2*%
X200450000Y-117500000D03*
X192500000Y-117500000D03*
X200450000Y-113000000D03*
X192500000Y-113000000D03*
%TD*%
%TO.C,SW1*%
X200450000Y-108500000D03*
X192500000Y-108500000D03*
X200450000Y-104000000D03*
X192500000Y-104000000D03*
%TD*%
D41*
%TO.C,R21*%
X224500000Y-113500000D03*
X222850000Y-113500000D03*
%TD*%
%TO.C,R20*%
X224511400Y-111493700D03*
X222861400Y-111493700D03*
%TD*%
%TO.C,R19*%
X224650000Y-108500000D03*
X223000000Y-108500000D03*
%TD*%
%TO.C,R18*%
X172120000Y-120450600D03*
X170470000Y-120450600D03*
%TD*%
D42*
%TO.C,R17*%
X166620000Y-120450600D03*
X168270000Y-120450600D03*
%TD*%
%TO.C,R16*%
X165650000Y-111470000D03*
X164000000Y-111470000D03*
%TD*%
D43*
%TO.C,R15*%
X155000000Y-128000000D03*
X155000000Y-126350000D03*
%TD*%
%TO.C,R14*%
X155000000Y-132500000D03*
X155000000Y-130850000D03*
%TD*%
%TO.C,R13*%
X161000000Y-119150000D03*
X161000000Y-117500000D03*
%TD*%
D42*
%TO.C,R12*%
X160000000Y-108970000D03*
X158350000Y-108970000D03*
%TD*%
D43*
%TO.C,R11*%
X158500000Y-105970000D03*
X158500000Y-104320000D03*
%TD*%
%TO.C,R10*%
X159500000Y-95150000D03*
X159500000Y-93500000D03*
%TD*%
%TO.C,R9*%
X167962500Y-98470000D03*
X167962500Y-96820000D03*
%TD*%
%TO.C,R8*%
X181750000Y-119928052D03*
X181750000Y-118278052D03*
%TD*%
%TO.C,R7*%
X184950000Y-119928052D03*
X184950000Y-118278052D03*
%TD*%
D41*
%TO.C,R6*%
X188650000Y-117200000D03*
X190300000Y-117200000D03*
%TD*%
%TO.C,R5*%
X188975000Y-108700000D03*
X190625000Y-108700000D03*
%TD*%
D44*
%TO.C,R4*%
X209500000Y-119500000D03*
X209500000Y-117850000D03*
%TD*%
%TO.C,R3*%
X220500000Y-119500000D03*
X220500000Y-117850000D03*
%TD*%
D41*
%TO.C,R2*%
X209500000Y-145000000D03*
X207850000Y-145000000D03*
%TD*%
D43*
%TO.C,R1*%
X219500000Y-131850000D03*
X219500000Y-133500000D03*
%TD*%
D45*
%TO.C,Q2*%
X181000000Y-124303052D03*
X180050000Y-122428052D03*
X181950000Y-122428052D03*
%TD*%
%TO.C,Q1*%
X185900000Y-124303052D03*
X184950000Y-122428052D03*
X186850000Y-122428052D03*
%TD*%
D46*
%TO.C,J5*%
X181500000Y-144500000D03*
X182500000Y-144500000D03*
X183500000Y-144500000D03*
X184500000Y-144500000D03*
D47*
X180200000Y-148375000D03*
X185800000Y-148375000D03*
%TD*%
D48*
%TO.C,J4*%
X159532500Y-85820000D03*
D49*
X159532500Y-90000000D03*
D48*
X168172500Y-85820000D03*
D49*
X168172500Y-90000000D03*
D50*
X167102500Y-90915000D03*
X166302500Y-90915000D03*
D51*
X165602500Y-90915000D03*
X164602500Y-90915000D03*
X163102500Y-90915000D03*
X162102500Y-90915000D03*
D50*
X161402500Y-90915000D03*
X160602500Y-90915000D03*
X160602500Y-90915000D03*
X161402500Y-90915000D03*
D51*
X162602500Y-90915000D03*
X163602500Y-90915000D03*
X164102500Y-90915000D03*
X165102500Y-90915000D03*
D50*
X166302500Y-90915000D03*
X167102500Y-90915000D03*
D52*
X160962500Y-89470000D03*
X166742500Y-89470000D03*
%TD*%
D19*
%TO.C,J3*%
X159840000Y-145000000D03*
X162380000Y-145000000D03*
X164920000Y-145000000D03*
X167460000Y-145000000D03*
X170000000Y-145000000D03*
D18*
X172540000Y-145000000D03*
%TD*%
D53*
%TO.C,J2*%
X223500000Y-144000000D03*
D54*
X216300000Y-144000000D03*
%TD*%
D18*
%TO.C,J1*%
X223500000Y-124840000D03*
D19*
X223500000Y-127380000D03*
X223500000Y-129920000D03*
X223500000Y-132460000D03*
X223500000Y-135000000D03*
%TD*%
D55*
%TO.C,IC1*%
X176240000Y-123805000D03*
X174970000Y-123805000D03*
X173700000Y-123805000D03*
X172430000Y-123805000D03*
X171160000Y-123805000D03*
X169890000Y-123805000D03*
X168620000Y-123805000D03*
X167350000Y-123805000D03*
X166080000Y-123805000D03*
X164810000Y-123805000D03*
X163540000Y-123805000D03*
X162270000Y-123805000D03*
X161000000Y-123805000D03*
X159730000Y-123805000D03*
D56*
X158480000Y-125570000D03*
X158480000Y-126840000D03*
X158480000Y-128110000D03*
X158480000Y-129380000D03*
X158480000Y-130650000D03*
X158480000Y-131920000D03*
X158480000Y-133190000D03*
X158480000Y-134460000D03*
X158480000Y-135730000D03*
X158480000Y-137000000D03*
X158480000Y-138270000D03*
X158480000Y-139540000D03*
D55*
X159730000Y-141305000D03*
X161000000Y-141305000D03*
X162270000Y-141305000D03*
X163540000Y-141305000D03*
X164810000Y-141305000D03*
X166080000Y-141305000D03*
X167350000Y-141305000D03*
X168620000Y-141305000D03*
X169890000Y-141305000D03*
X171160000Y-141305000D03*
X172430000Y-141305000D03*
X173700000Y-141305000D03*
X174970000Y-141305000D03*
X176240000Y-141305000D03*
D57*
X169220000Y-129655000D03*
X167820000Y-129655000D03*
X169920000Y-130355000D03*
X168520000Y-130355000D03*
X167120000Y-130355000D03*
X169220000Y-131055000D03*
D58*
X168520000Y-131055000D03*
D57*
X167820000Y-131055000D03*
X169920000Y-131755000D03*
X168520000Y-131755000D03*
X167120000Y-131755000D03*
X169220000Y-132455000D03*
X167820000Y-132455000D03*
%TD*%
D59*
%TO.C,FB1*%
X171462500Y-91720000D03*
X171462500Y-93470000D03*
%TD*%
D60*
%TO.C,F2*%
X170387500Y-88470000D03*
X171962500Y-88470000D03*
%TD*%
D61*
%TO.C,F1*%
X220000000Y-122000000D03*
X220000000Y-124800000D03*
%TD*%
D62*
%TO.C,D9*%
X228250000Y-113500000D03*
X226500000Y-113500000D03*
%TD*%
%TO.C,D8*%
X228250000Y-111500000D03*
X226500000Y-111500000D03*
%TD*%
%TO.C,D7*%
X228323600Y-108460400D03*
X226573600Y-108460400D03*
%TD*%
D60*
%TO.C,D6*%
X166887500Y-93470000D03*
X168462500Y-93470000D03*
%TD*%
D63*
%TO.C,D5*%
X177000000Y-146000000D03*
X177000000Y-144425000D03*
%TD*%
D60*
%TO.C,D4*%
X176000000Y-88500000D03*
X174425000Y-88500000D03*
%TD*%
D63*
%TO.C,D3*%
X217500000Y-107500000D03*
X217500000Y-109075000D03*
%TD*%
%TO.C,D2*%
X196000000Y-129500000D03*
X196000000Y-131075000D03*
%TD*%
%TO.C,D1*%
X219500000Y-127925000D03*
X219500000Y-129500000D03*
%TD*%
D64*
%TO.C,C27*%
X183500000Y-112500000D03*
X181950000Y-112500000D03*
%TD*%
%TO.C,C26*%
X187550000Y-109500000D03*
X186000000Y-109500000D03*
%TD*%
D65*
%TO.C,C25*%
X179500000Y-109500000D03*
X179500000Y-107950000D03*
%TD*%
D64*
%TO.C,C24*%
X188179100Y-128381500D03*
X186629100Y-128381500D03*
%TD*%
D66*
%TO.C,C23*%
X188070900Y-130216300D03*
X188070900Y-131766300D03*
%TD*%
D67*
%TO.C,C22*%
X182075000Y-140000000D03*
X180000000Y-140000000D03*
%TD*%
D64*
%TO.C,C21*%
X175120000Y-120450600D03*
X176670000Y-120450600D03*
%TD*%
D66*
%TO.C,C20*%
X161000000Y-100970000D03*
X161000000Y-102520000D03*
%TD*%
%TO.C,C19*%
X158490000Y-100970000D03*
X158490000Y-102520000D03*
%TD*%
D68*
%TO.C,C18*%
X202425000Y-117250000D03*
X203975000Y-117250000D03*
%TD*%
D66*
%TO.C,C17*%
X204475000Y-110650000D03*
X204475000Y-112200000D03*
%TD*%
D65*
%TO.C,C16*%
X214500000Y-122950000D03*
X214500000Y-124500000D03*
%TD*%
D68*
%TO.C,C15*%
X216000000Y-114000000D03*
X217550000Y-114000000D03*
%TD*%
%TO.C,C14*%
X216050000Y-111000000D03*
X217600000Y-111000000D03*
%TD*%
%TO.C,C13*%
X205500000Y-141000000D03*
X203950000Y-141000000D03*
%TD*%
%TO.C,C12*%
X198050000Y-93000000D03*
X196500000Y-93000000D03*
%TD*%
D64*
%TO.C,C11*%
X187950000Y-136000000D03*
X189500000Y-136000000D03*
%TD*%
D65*
%TO.C,C10*%
X226232118Y-92116380D03*
X226232118Y-93666380D03*
%TD*%
D66*
%TO.C,C9*%
X208800000Y-97500000D03*
X208800000Y-95950000D03*
%TD*%
%TO.C,C8*%
X204000000Y-148500000D03*
X204000000Y-146950000D03*
%TD*%
D64*
%TO.C,C7*%
X209725000Y-103000000D03*
X211275000Y-103000000D03*
%TD*%
D66*
%TO.C,C6*%
X211500000Y-133000000D03*
X211500000Y-131450000D03*
%TD*%
%TO.C,C5*%
X217000000Y-137050000D03*
X217000000Y-135500000D03*
%TD*%
D64*
%TO.C,C4*%
X184550000Y-102100000D03*
X183000000Y-102100000D03*
%TD*%
%TO.C,C3*%
X186315000Y-100100000D03*
X187865000Y-100100000D03*
%TD*%
D65*
%TO.C,C2*%
X179865000Y-98550000D03*
X179865000Y-100100000D03*
%TD*%
D64*
%TO.C,C1*%
X181050000Y-115500000D03*
X179500000Y-115500000D03*
%TD*%
D34*
%TO.C,U12*%
X181635000Y-106815000D03*
X182035000Y-106815000D03*
X182435000Y-106815000D03*
X182835000Y-106815000D03*
X183235000Y-106815000D03*
X183635000Y-106815000D03*
D33*
X184135000Y-107315000D03*
X184135000Y-107715000D03*
X184135000Y-108115000D03*
X184135000Y-108515000D03*
X184135000Y-108915000D03*
X184135000Y-109315000D03*
D34*
X183635000Y-109815000D03*
X183235000Y-109815000D03*
X182835000Y-109815000D03*
X182435000Y-109815000D03*
X182035000Y-109815000D03*
X181635000Y-109815000D03*
D33*
X181135000Y-109315000D03*
X181135000Y-108915000D03*
X181135000Y-108515000D03*
X181135000Y-108115000D03*
X181135000Y-107715000D03*
X181135000Y-107315000D03*
%TD*%
%LPD*%
M02*
