M48
INCH
T1C0.0079
T2C0.0118
T3C0.0236
T4C0.0394
T5C0.1772
%
G90
G05
T1
X6.5795Y-5.1321
X6.5795Y-5.1872
X6.6071Y-5.1045
X6.6071Y-5.1596
X6.6071Y-5.2148
X6.6346Y-5.1321
X6.6346Y-5.1872
X6.6622Y-5.1045
X6.6622Y-5.1596
X6.6622Y-5.2148
X6.6898Y-5.1321
X6.6898Y-5.1872
T2
X6.2795Y-4.0748
X6.2992Y-4.6457
X6.315Y-4.7835
X6.3189Y-4.0945
X6.3386Y-4.2126
X6.3386Y-4.5669
X6.3514Y-4.7372
X6.3583Y-3.6417
X6.3583Y-5.5118
X6.3976Y-5.4921
X6.4045Y-5.1643
X6.4173Y-5.4528
X6.4272Y-5.1083
X6.436Y-3.9558
X6.437Y-3.5236
X6.4567Y-3.7205
X6.4567Y-3.8189
X6.4567Y-5.4331
X6.4764Y-3.9567
X6.4961Y-3.5236
X6.4961Y-4.0354
X6.4961Y-4.7421
X6.4961Y-5.4134
X6.5183Y-5.3911
X6.5551Y-3.6417
X6.5748Y-4.1732
X6.5748Y-4.2717
X6.6535Y-4.9409
X6.7126Y-4.9409
X6.7736Y-4.7067
X6.7913Y-3.5236
X6.8307Y-4.5669
X6.8307Y-4.8031
X6.8307Y-5.0197
X6.8356Y-4.6112
X6.8504Y-4.9409
X6.8701Y-5.0591
X6.8898Y-5.2165
X6.9094Y-4.9409
X6.9094Y-5.7874
X7.0276Y-4.2717
X7.0276Y-4.7244
X7.0472Y-3.9173
X7.0669Y-5.0197
X7.0866Y-4.6457
X7.0866Y-4.685
X7.0866Y-5.0591
X7.1024Y-4.1142
X7.1063Y-4.9803
X7.126Y-4.1772
X7.1457Y-3.7947
X7.1645Y-4.0
X7.1654Y-4.1535
X7.1654Y-4.3701
X7.1654Y-4.8819
X7.1654Y-5.315
X7.1654Y-5.3543
X7.185Y-3.7947
X7.185Y-4.0945
X7.185Y-5.0
X7.185Y-5.4134
X7.2008Y-4.8031
X7.2244Y-3.7992
X7.2376Y-4.3491
X7.2441Y-4.685
X7.2638Y-5.4528
X7.2835Y-4.0945
X7.313Y-3.8878
X7.3228Y-3.9961
X7.3228Y-4.252
X7.3622Y-4.7638
X7.3819Y-4.6457
X7.4409Y-4.311
X7.7165Y-3.6024
X7.7756Y-5.0591
X8.0512Y-4.0157
X8.0906Y-5.2953
X8.0906Y-5.4134
X8.1102Y-5.1969
X8.1102Y-5.4528
X8.1496Y-3.8583
X8.2087Y-5.0787
X8.2874Y-5.5906
X8.3071Y-4.6457
X8.3071Y-5.1181
X8.3858Y-4.8228
X8.3858Y-5.2953
X8.5041Y-4.0943
X8.563Y-4.9606
X8.5827Y-5.2756
X8.6024Y-4.7441
X8.622Y-4.3307
X8.6417Y-3.7008
X8.6811Y-4.2323
X8.7008Y-3.6417
X8.7205Y-4.1929
X8.7205Y-4.4291
X8.9173Y-3.5236
T4
X6.122Y-4.1535
X6.122Y-4.2535
X6.122Y-4.3535
X6.122Y-4.4535
X6.122Y-4.5535
X6.122Y-4.6535
X6.2929Y-5.7087
X6.3189Y-3.8583
X6.3929Y-5.7087
X6.4929Y-5.7087
X6.5929Y-5.7087
X6.6929Y-5.7087
X6.752Y-4.0551
X6.7929Y-5.7087
X7.8346Y-3.5236
X7.9232Y-4.94
X8.0232Y-4.94
X8.0315Y-3.5236
X8.2283Y-3.5236
X8.4252Y-3.5236
X8.622Y-3.5236
X8.7992Y-4.915
X8.7992Y-5.015
X8.7992Y-5.115
X8.7992Y-5.215
X8.7992Y-5.315
X8.8386Y-3.5236
T5
X8.5157Y-5.6693
X8.7992Y-5.6693
T3
G00X6.2808Y-3.3906
M15
G01X6.2808Y-3.3669
M16
G05
G00X6.2808Y-3.565
M15
G01X6.2808Y-3.5217
M16
G05
G00X6.621Y-3.3906
M15
G01X6.621Y-3.3669
M16
G05
G00X6.621Y-3.565
M15
G01X6.621Y-3.5217
M16
G05
M30
