%TF.GenerationSoftware,KiCad,Pcbnew,8.0.7*%
%TF.CreationDate,2024-12-30T10:45:42+13:00*%
%TF.ProjectId,Flight Computer V1,466c6967-6874-4204-936f-6d7075746572,rev?*%
%TF.SameCoordinates,Original*%
%TF.FileFunction,Copper,L2,Bot*%
%TF.FilePolarity,Positive*%
%FSLAX46Y46*%
G04 Gerber Fmt 4.6, Leading zero omitted, Abs format (unit mm)*
G04 Created by KiCad (PCBNEW 8.0.7) date 2024-12-30 10:45:42*
%MOMM*%
%LPD*%
G01*
G04 APERTURE LIST*
G04 Aperture macros list*
%AMRoundRect*
0 Rectangle with rounded corners*
0 $1 Rounding radius*
0 $2 $3 $4 $5 $6 $7 $8 $9 X,Y pos of 4 corners*
0 Add a 4 corners polygon primitive as box body*
4,1,4,$2,$3,$4,$5,$6,$7,$8,$9,$2,$3,0*
0 Add four circle primitives for the rounded corners*
1,1,$1+$1,$2,$3*
1,1,$1+$1,$4,$5*
1,1,$1+$1,$6,$7*
1,1,$1+$1,$8,$9*
0 Add four rect primitives between the rounded corners*
20,1,$1+$1,$2,$3,$4,$5,0*
20,1,$1+$1,$4,$5,$6,$7,0*
20,1,$1+$1,$6,$7,$8,$9,0*
20,1,$1+$1,$8,$9,$2,$3,0*%
G04 Aperture macros list end*
%TA.AperFunction,ComponentPad*%
%ADD10R,1.700000X1.700000*%
%TD*%
%TA.AperFunction,ComponentPad*%
%ADD11O,1.700000X1.700000*%
%TD*%
%TA.AperFunction,ComponentPad*%
%ADD12O,1.000000X1.600000*%
%TD*%
%TA.AperFunction,ComponentPad*%
%ADD13O,1.000000X2.100000*%
%TD*%
%TA.AperFunction,ComponentPad*%
%ADD14RoundRect,1.500000X1.500000X1.500000X-1.500000X1.500000X-1.500000X-1.500000X1.500000X-1.500000X0*%
%TD*%
%TA.AperFunction,ComponentPad*%
%ADD15C,6.000000*%
%TD*%
%TA.AperFunction,HeatsinkPad*%
%ADD16C,0.600000*%
%TD*%
%TA.AperFunction,ViaPad*%
%ADD17C,0.600000*%
%TD*%
%TA.AperFunction,Conductor*%
%ADD18C,0.254000*%
%TD*%
%TA.AperFunction,Conductor*%
%ADD19C,0.200000*%
%TD*%
%TA.AperFunction,Conductor*%
%ADD20C,0.500000*%
%TD*%
G04 APERTURE END LIST*
D10*
%TO.P,J7,1,Pin_1*%
%TO.N,/MCU/IO40*%
X155500000Y-105500000D03*
D11*
%TO.P,J7,2,Pin_2*%
%TO.N,/MCU/IO39*%
X155500000Y-108040000D03*
%TO.P,J7,3,Pin_3*%
%TO.N,/MCU/IO38*%
X155500000Y-110580000D03*
%TO.P,J7,4,Pin_4*%
%TO.N,/MCU/IO37*%
X155500000Y-113120000D03*
%TO.P,J7,5,Pin_5*%
%TO.N,/MCU/IO36*%
X155500000Y-115660000D03*
%TO.P,J7,6,Pin_6*%
%TO.N,/MCU/IO35*%
X155500000Y-118200000D03*
%TD*%
D10*
%TO.P,J6,1,Pin_1*%
%TO.N,/CAN Bus/CAN_RX*%
X201250000Y-125475000D03*
D11*
%TO.P,J6,2,Pin_2*%
%TO.N,/CAN Bus/CAN_TX*%
X203790000Y-125475000D03*
%TD*%
D10*
%TO.P,TP10,1,1*%
%TO.N,/Flashing/D+*%
X171500000Y-103000000D03*
%TD*%
%TO.P,TP9,1,1*%
%TO.N,/Flashing/D-*%
X160500000Y-98000000D03*
%TD*%
%TO.P,TP8,1,1*%
%TO.N,/Flashing/V_USB*%
X199000000Y-89500000D03*
%TD*%
%TO.P,TP7,1,1*%
%TO.N,+1V8*%
X204000000Y-89500000D03*
%TD*%
%TO.P,TP6,1,1*%
%TO.N,/Power/BATT_INPUT*%
X224500000Y-89500000D03*
%TD*%
%TO.P,TP5,1,1*%
%TO.N,+3V3*%
X209000000Y-89500000D03*
%TD*%
%TO.P,TP4,1,1*%
%TO.N,5V_BUS*%
X219000000Y-89500000D03*
%TD*%
%TO.P,TP3,1,1*%
%TO.N,+5V*%
X214000000Y-89500000D03*
%TD*%
D12*
%TO.P,J4,S1,SHIELD*%
%TO.N,GND*%
X159532500Y-85820000D03*
D13*
X159532500Y-90000000D03*
D12*
X168172500Y-85820000D03*
D13*
X168172500Y-90000000D03*
%TD*%
D11*
%TO.P,J3,6,Pin_6*%
%TO.N,/Flashing/DTR*%
X159840000Y-145000000D03*
%TO.P,J3,5,Pin_5*%
%TO.N,/Flashing/RX0*%
X162380000Y-145000000D03*
%TO.P,J3,4,Pin_4*%
%TO.N,/Flashing/TX0*%
X164920000Y-145000000D03*
%TO.P,J3,3,Pin_3*%
%TO.N,Net-(D5-A)*%
X167460000Y-145000000D03*
%TO.P,J3,2,Pin_2*%
%TO.N,unconnected-(J3-Pin_2-Pad2)*%
X170000000Y-145000000D03*
D10*
%TO.P,J3,1,Pin_1*%
%TO.N,GND*%
X172540000Y-145000000D03*
%TD*%
D14*
%TO.P,J2,1,Pin_1*%
%TO.N,GND*%
X223500000Y-144000000D03*
D15*
%TO.P,J2,2,Pin_2*%
%TO.N,/Power/BATT_INPUT*%
X216300000Y-144000000D03*
%TD*%
D10*
%TO.P,J1,1,Pin_1*%
%TO.N,unconnected-(J1-Pin_1-Pad1)*%
X223500000Y-124840000D03*
D11*
%TO.P,J1,2,Pin_2*%
%TO.N,5V_BUS*%
X223500000Y-127380000D03*
%TO.P,J1,3,Pin_3*%
%TO.N,CANH*%
X223500000Y-129920000D03*
%TO.P,J1,4,Pin_4*%
%TO.N,CANL*%
X223500000Y-132460000D03*
%TO.P,J1,5,Pin_5*%
%TO.N,GND*%
X223500000Y-135000000D03*
%TD*%
D16*
%TO.P,IC1,41,GND_3*%
%TO.N,GND*%
X169220000Y-129655000D03*
X167820000Y-129655000D03*
X169920000Y-130355000D03*
X168520000Y-130355000D03*
X167120000Y-130355000D03*
X169220000Y-131055000D03*
X167820000Y-131055000D03*
X169920000Y-131755000D03*
X168520000Y-131755000D03*
X167120000Y-131755000D03*
X169220000Y-132455000D03*
X167820000Y-132455000D03*
%TD*%
D17*
%TO.N,/CAN Bus/CAN_RX*%
X205500000Y-134500000D03*
%TO.N,/CAN Bus/CAN_TX*%
X206000000Y-132000000D03*
%TO.N,/MCU/IO40*%
X165565687Y-136934313D03*
%TO.N,/MCU/IO39*%
X165000000Y-137500000D03*
%TO.N,/MCU/IO38*%
X164000000Y-138000000D03*
%TO.N,/MCU/IO37*%
X163000000Y-138500000D03*
%TO.N,/MCU/IO36*%
X162500000Y-139500000D03*
%TO.N,/MCU/IO35*%
X161500000Y-140000000D03*
%TO.N,GND*%
X182500000Y-104000000D03*
X164000000Y-94500000D03*
%TO.N,/Flashing/EN*%
X180500000Y-126500000D03*
X174000000Y-125500000D03*
%TO.N,5V_BUS*%
X221000000Y-92500000D03*
%TO.N,/Power/BATT_INPUT*%
X226500000Y-89500000D03*
X210500000Y-142000000D03*
%TO.N,+1V8*%
X204500000Y-102000000D03*
X220500000Y-107500000D03*
%TO.N,+3V3*%
X221500000Y-112500000D03*
X221500000Y-106500000D03*
X218500000Y-120500000D03*
X211000000Y-118000000D03*
X213000000Y-122500000D03*
X217500000Y-126000000D03*
X218000000Y-134000000D03*
%TO.N,+5V*%
X197500000Y-128500000D03*
X208500000Y-129000000D03*
X219000000Y-110000000D03*
%TO.N,/MCU/INA_ALERT*%
X178500000Y-120000000D03*
X173500000Y-122000000D03*
%TO.N,/ADXL375/SDA*%
X206000000Y-138500000D03*
%TO.N,/ADXL375/SCL*%
X205500000Y-137500000D03*
%TO.N,/CAN Bus/CAN_TX*%
X211000000Y-130000000D03*
%TO.N,/CAN Bus/CAN_RX*%
X213000000Y-134500000D03*
X182000000Y-136000000D03*
%TO.N,/CAN Bus/CAN_TX*%
X182000000Y-135000000D03*
%TO.N,/Flashing/DTR*%
X175000000Y-132500000D03*
%TO.N,/ADXL375/ADXL_INT2*%
X173500000Y-127500000D03*
X179500000Y-127500000D03*
%TO.N,/ADXL375/ADXL_INT1*%
X180000000Y-128500000D03*
X174500000Y-128500000D03*
%TO.N,/Flashing/DTR*%
X167000000Y-106000000D03*
X180000000Y-118000000D03*
%TO.N,/Flashing/RTS*%
X180000000Y-119000000D03*
X167000000Y-108500000D03*
%TO.N,+3V3*%
X172049265Y-119549265D03*
X165000000Y-120450600D03*
%TO.N,/Flashing/D-*%
X163475524Y-100478585D03*
%TO.N,/Flashing/D+*%
X164500000Y-100500000D03*
%TO.N,/Flashing/D-*%
X161325735Y-120325735D03*
%TO.N,/Flashing/D+*%
X160400000Y-121500000D03*
%TO.N,/ICM20948 IMU1/ICM_INT*%
X183835000Y-110467944D03*
X162674265Y-131174265D03*
%TO.N,/ICM20948 IMU/ICM_INT*%
X185000000Y-104000000D03*
X163250000Y-129750000D03*
%TO.N,GND*%
X181977280Y-101600000D03*
X182000000Y-111000000D03*
%TO.N,+1V8*%
X180400000Y-104500000D03*
X178500000Y-108500000D03*
X179000000Y-99500000D03*
X183500000Y-96500000D03*
X196000000Y-91500000D03*
%TO.N,+3V3*%
X182500000Y-127000000D03*
X175500000Y-125500000D03*
X186000000Y-108000000D03*
X186000000Y-101500000D03*
X185750000Y-98750000D03*
X207000000Y-98000000D03*
X160500000Y-104000000D03*
X160000000Y-118000000D03*
%TO.N,Net-(U11-~{RST})*%
X161000000Y-107000000D03*
X161000000Y-116000000D03*
%TO.N,/Flashing/D+*%
X165000000Y-102500000D03*
%TO.N,/Flashing/V_USB*%
X159500000Y-103500000D03*
X164000000Y-97000000D03*
X172500000Y-89500000D03*
%TO.N,/Flashing/USB-*%
X163500000Y-89500000D03*
X165000000Y-89500000D03*
%TO.N,/Flashing/VBUS*%
X166500000Y-92500000D03*
X161500000Y-92500000D03*
%TO.N,+3V3*%
X219500000Y-94000000D03*
%TO.N,+5V*%
X216005000Y-103995000D03*
%TO.N,/Flashing/IO0*%
X182900000Y-122000000D03*
%TO.N,/Flashing/DTR*%
X184000000Y-119000000D03*
X182000000Y-124000000D03*
%TO.N,/Flashing/IO0*%
X187500000Y-118000000D03*
%TO.N,/Flashing/EN*%
X187000000Y-121000000D03*
X189000000Y-109500000D03*
%TO.N,/ADXL375/SDA*%
X181500000Y-96385000D03*
%TO.N,/ADXL375/SCL*%
X182500000Y-96385000D03*
X182000000Y-105500000D03*
%TO.N,/ADXL375/SDA*%
X181000000Y-106100000D03*
%TO.N,/ADXL375/SCL*%
X173625000Y-117125000D03*
%TO.N,/ADXL375/SDA*%
X173500000Y-116000000D03*
%TO.N,Net-(D5-A)*%
X175500000Y-147000000D03*
%TO.N,/ADXL375/SCL*%
X182500000Y-137500000D03*
X170500000Y-125500000D03*
%TO.N,/ADXL375/SDA*%
X169000000Y-125500000D03*
X184500000Y-138500000D03*
%TD*%
D18*
%TO.N,5V_BUS*%
X221000000Y-92500000D02*
X227000000Y-98500000D01*
X227000000Y-98500000D02*
X227000000Y-127000000D01*
X227000000Y-127000000D02*
X226500000Y-127500000D01*
X226500000Y-127500000D02*
X223620000Y-127500000D01*
X223620000Y-127500000D02*
X223500000Y-127380000D01*
D19*
%TO.N,/CAN Bus/CAN_RX*%
X204500000Y-134500000D02*
X205500000Y-134500000D01*
X205500000Y-134500000D02*
X213000000Y-134500000D01*
%TO.N,/CAN Bus/CAN_TX*%
X208000000Y-130000000D02*
X206000000Y-132000000D01*
X206000000Y-132000000D02*
X203000000Y-135000000D01*
%TO.N,/MCU/IO37*%
X157050000Y-114670000D02*
X155500000Y-113120000D01*
X163000000Y-138500000D02*
X157050000Y-132550000D01*
X157050000Y-132550000D02*
X157050000Y-114670000D01*
%TO.N,/MCU/IO40*%
X159251471Y-130620097D02*
X165565687Y-136934313D01*
X159251471Y-109251471D02*
X159251471Y-130620097D01*
X155500000Y-105500000D02*
X159251471Y-109251471D01*
%TO.N,/MCU/IO39*%
X158400000Y-130900000D02*
X158400000Y-110940000D01*
X165000000Y-137500000D02*
X158400000Y-130900000D01*
X158400000Y-110940000D02*
X155500000Y-108040000D01*
%TO.N,/MCU/IO38*%
X164000000Y-138000000D02*
X158000000Y-132000000D01*
X158000000Y-132000000D02*
X158000000Y-113080000D01*
X158000000Y-113080000D02*
X155500000Y-110580000D01*
%TO.N,/ICM20948 IMU1/ICM_INT*%
X162674265Y-131174265D02*
X162674265Y-130022794D01*
X162674265Y-130022794D02*
X162650000Y-129998529D01*
X162650000Y-128784314D02*
X167934314Y-123500000D01*
X167934314Y-123500000D02*
X177000000Y-123500000D01*
X177000000Y-123500000D02*
X183835000Y-116665000D01*
X183835000Y-116665000D02*
X183835000Y-110467944D01*
X162650000Y-129998529D02*
X162650000Y-128784314D01*
%TO.N,/ICM20948 IMU/ICM_INT*%
X177000000Y-124500000D02*
X185000000Y-116500000D01*
X163250000Y-129750000D02*
X168500000Y-124500000D01*
X168500000Y-124500000D02*
X177000000Y-124500000D01*
X185000000Y-116500000D02*
X185000000Y-104000000D01*
%TO.N,/MCU/IO36*%
X156650000Y-133650000D02*
X162500000Y-139500000D01*
X156650000Y-116810000D02*
X156650000Y-133650000D01*
X155500000Y-115660000D02*
X156650000Y-116810000D01*
%TO.N,/MCU/IO35*%
X155500000Y-134000000D02*
X161500000Y-140000000D01*
X155500000Y-118200000D02*
X155500000Y-134000000D01*
D18*
%TO.N,/Flashing/EN*%
X175000000Y-126500000D02*
X174000000Y-125500000D01*
X180500000Y-126500000D02*
X175000000Y-126500000D01*
%TO.N,/Power/BATT_INPUT*%
X228500000Y-135500000D02*
X228500000Y-91500000D01*
X213500000Y-139000000D02*
X226000000Y-139000000D01*
X228500000Y-91500000D02*
X226500000Y-89500000D01*
X210500000Y-142000000D02*
X213500000Y-139000000D01*
X226000000Y-139000000D02*
X228500000Y-136500000D01*
X228500000Y-136500000D02*
X228500000Y-135500000D01*
%TO.N,+1V8*%
X208000000Y-105500000D02*
X204500000Y-102000000D01*
X220500000Y-107500000D02*
X218500000Y-105500000D01*
X218500000Y-105500000D02*
X208000000Y-105500000D01*
%TO.N,+3V3*%
X218500000Y-120500000D02*
X221500000Y-117500000D01*
X221500000Y-117500000D02*
X221500000Y-106500000D01*
%TO.N,+5V*%
X208500000Y-129000000D02*
X213000000Y-129000000D01*
X213000000Y-129000000D02*
X216500000Y-125500000D01*
X216500000Y-112500000D02*
X219000000Y-110000000D01*
X216500000Y-125500000D02*
X216500000Y-112500000D01*
%TO.N,+3V3*%
X213000000Y-120000000D02*
X211000000Y-118000000D01*
X213000000Y-122500000D02*
X213000000Y-120000000D01*
X218000000Y-126500000D02*
X217500000Y-126000000D01*
X218000000Y-134000000D02*
X218000000Y-126500000D01*
%TO.N,+5V*%
X208000000Y-128500000D02*
X197500000Y-128500000D01*
X208500000Y-129000000D02*
X208000000Y-128500000D01*
D19*
%TO.N,/MCU/INA_ALERT*%
X176500000Y-122000000D02*
X178500000Y-120000000D01*
X173500000Y-122000000D02*
X176500000Y-122000000D01*
%TO.N,/ADXL375/SCL*%
X205500000Y-137500000D02*
X182500000Y-137500000D01*
%TO.N,/ADXL375/SDA*%
X184500000Y-138500000D02*
X185000000Y-139000000D01*
X185000000Y-139000000D02*
X203500000Y-139000000D01*
X203500000Y-139000000D02*
X204000000Y-138500000D01*
X204000000Y-138500000D02*
X206000000Y-138500000D01*
%TO.N,/CAN Bus/CAN_RX*%
X182000000Y-136000000D02*
X203000000Y-136000000D01*
X203000000Y-136000000D02*
X204500000Y-134500000D01*
%TO.N,/CAN Bus/CAN_TX*%
X211000000Y-130000000D02*
X208000000Y-130000000D01*
X203000000Y-135000000D02*
X182000000Y-135000000D01*
%TO.N,/Flashing/DTR*%
X178000000Y-135500000D02*
X178000000Y-141500000D01*
X178000000Y-141500000D02*
X176500000Y-143000000D01*
X175000000Y-132500000D02*
X178000000Y-135500000D01*
X176500000Y-143000000D02*
X161840000Y-143000000D01*
X161840000Y-143000000D02*
X159840000Y-145000000D01*
X182000000Y-121000000D02*
X184000000Y-119000000D01*
X182000000Y-124000000D02*
X182000000Y-121000000D01*
%TO.N,/ADXL375/ADXL_INT2*%
X179500000Y-127500000D02*
X173500000Y-127500000D01*
%TO.N,/ADXL375/ADXL_INT1*%
X174500000Y-128500000D02*
X180000000Y-128500000D01*
%TO.N,/Flashing/DTR*%
X167600000Y-106600000D02*
X167600000Y-111948529D01*
X167000000Y-106000000D02*
X167600000Y-106600000D01*
X167600000Y-111948529D02*
X173651471Y-118000000D01*
X173651471Y-118000000D02*
X180000000Y-118000000D01*
%TO.N,/Flashing/RTS*%
X180000000Y-119000000D02*
X173500000Y-119000000D01*
X173500000Y-119000000D02*
X167000000Y-112500000D01*
X167000000Y-112500000D02*
X167000000Y-108500000D01*
%TO.N,+3V3*%
X172049265Y-119549265D02*
X165901335Y-119549265D01*
X165901335Y-119549265D02*
X165000000Y-120450600D01*
%TO.N,/Flashing/D-*%
X163775000Y-117906800D02*
X163775000Y-100775000D01*
X163478585Y-100478585D02*
X163475524Y-100478585D01*
X161325735Y-120174265D02*
X162500000Y-119000000D01*
X162500000Y-119000000D02*
X162681800Y-119000000D01*
X161325735Y-120325735D02*
X161325735Y-120174265D01*
X162681800Y-119000000D02*
X163775000Y-117906800D01*
X163775000Y-100775000D02*
X163478585Y-100478585D01*
%TO.N,/Flashing/D+*%
X164225000Y-100775000D02*
X164500000Y-100500000D01*
X164225000Y-101000000D02*
X164225000Y-100775000D01*
X163000000Y-119318200D02*
X164225000Y-118093200D01*
X161000000Y-121500000D02*
X163000000Y-119500000D01*
X163000000Y-119500000D02*
X163000000Y-119318200D01*
X164225000Y-118093200D02*
X164225000Y-101000000D01*
X160400000Y-121500000D02*
X161000000Y-121500000D01*
%TO.N,/ADXL375/SCL*%
X182000000Y-105500000D02*
X181400000Y-104900000D01*
X181000000Y-101967157D02*
X181000000Y-97885000D01*
X181400000Y-104900000D02*
X181400000Y-102367157D01*
X181400000Y-102367157D02*
X181000000Y-101967157D01*
X181000000Y-97885000D02*
X182500000Y-96385000D01*
%TO.N,/ADXL375/SDA*%
X181500000Y-96385000D02*
X180500000Y-97385000D01*
X180500000Y-97385000D02*
X180500000Y-102500000D01*
X180500000Y-102500000D02*
X181000000Y-103000000D01*
X181000000Y-103000000D02*
X181000000Y-106100000D01*
%TO.N,/ADXL375/SCL*%
X182000000Y-105500000D02*
X182000000Y-108750000D01*
X182000000Y-108750000D02*
X173625000Y-117125000D01*
%TO.N,+1V8*%
X179500000Y-104500000D02*
X180400000Y-104500000D01*
X178500000Y-103500000D02*
X179500000Y-104500000D01*
X178500000Y-100000000D02*
X178500000Y-103500000D01*
X178500000Y-103500000D02*
X178500000Y-108500000D01*
X179000000Y-99500000D02*
X178500000Y-100000000D01*
X181536471Y-95500000D02*
X179000000Y-98036471D01*
X188500000Y-91500000D02*
X184500000Y-95500000D01*
X179000000Y-98036471D02*
X179000000Y-99500000D01*
X184500000Y-95500000D02*
X181536471Y-95500000D01*
X184500000Y-95500000D02*
X183500000Y-96500000D01*
X196000000Y-91500000D02*
X188500000Y-91500000D01*
D20*
%TO.N,+3V3*%
X186000000Y-108000000D02*
X186000000Y-101500000D01*
X185750000Y-98750000D02*
X186500000Y-98000000D01*
X186500000Y-98000000D02*
X207000000Y-98000000D01*
D19*
X181000000Y-125500000D02*
X182500000Y-127000000D01*
X175500000Y-125500000D02*
X181000000Y-125500000D01*
X160000000Y-104500000D02*
X160500000Y-104000000D01*
X160000000Y-118000000D02*
X160000000Y-104500000D01*
%TO.N,Net-(U11-~{RST})*%
X161000000Y-116000000D02*
X161000000Y-107000000D01*
%TO.N,/Flashing/D+*%
X166000000Y-102500000D02*
X166500000Y-103000000D01*
X166500000Y-103000000D02*
X171500000Y-103000000D01*
X165000000Y-102500000D02*
X166000000Y-102500000D01*
%TO.N,/Flashing/V_USB*%
X159500000Y-101500000D02*
X159500000Y-103500000D01*
X164000000Y-97000000D02*
X159500000Y-101500000D01*
X166000000Y-97000000D02*
X164000000Y-97000000D01*
X172500000Y-90500000D02*
X166000000Y-97000000D01*
X172500000Y-89500000D02*
X172500000Y-90500000D01*
%TO.N,/Flashing/USB-*%
X163500000Y-89500000D02*
X165000000Y-89500000D01*
D20*
%TO.N,/Flashing/VBUS*%
X161500000Y-92500000D02*
X166500000Y-92500000D01*
%TO.N,+3V3*%
X216500000Y-89500000D02*
X216500000Y-91000000D01*
X216500000Y-91000000D02*
X219500000Y-94000000D01*
X214100000Y-87000000D02*
X216500000Y-89400000D01*
X210300000Y-88200000D02*
X210800000Y-88200000D01*
X210800000Y-88200000D02*
X212000000Y-87000000D01*
X212000000Y-87000000D02*
X214100000Y-87000000D01*
X216500000Y-89400000D02*
X216500000Y-89500000D01*
X209000000Y-89500000D02*
X210300000Y-88200000D01*
%TO.N,+5V*%
X214000000Y-101990000D02*
X216005000Y-103995000D01*
X214000000Y-89500000D02*
X214000000Y-101990000D01*
D19*
%TO.N,/Flashing/IO0*%
X186900000Y-118000000D02*
X182900000Y-122000000D01*
X187500000Y-118000000D02*
X186900000Y-118000000D01*
%TO.N,/Flashing/EN*%
X189000000Y-109500000D02*
X189000000Y-119000000D01*
X189000000Y-119000000D02*
X187000000Y-121000000D01*
%TO.N,/ADXL375/SDA*%
X181000000Y-106100000D02*
X181000000Y-108500000D01*
X173500000Y-116000000D02*
X181000000Y-108500000D01*
%TO.N,Net-(D5-A)*%
X169460000Y-147000000D02*
X175500000Y-147000000D01*
X167460000Y-145000000D02*
X169460000Y-147000000D01*
%TO.N,/ADXL375/SCL*%
X170500000Y-125500000D02*
X182500000Y-137500000D01*
%TO.N,/ADXL375/SDA*%
X182000000Y-138500000D02*
X169000000Y-125500000D01*
X184500000Y-138500000D02*
X182000000Y-138500000D01*
%TD*%
%TA.AperFunction,Conductor*%
%TO.N,GND*%
G36*
X158916602Y-84520185D02*
G01*
X158962357Y-84572989D01*
X158972301Y-84642147D01*
X158943276Y-84705703D01*
X158918454Y-84727602D01*
X158895036Y-84743248D01*
X158755751Y-84882533D01*
X158755748Y-84882537D01*
X158646314Y-85046315D01*
X158646307Y-85046328D01*
X158570930Y-85228306D01*
X158570927Y-85228318D01*
X158532500Y-85421504D01*
X158532500Y-85570000D01*
X159232500Y-85570000D01*
X159232500Y-86070000D01*
X158532500Y-86070000D01*
X158532500Y-86218495D01*
X158570927Y-86411681D01*
X158570930Y-86411693D01*
X158646307Y-86593671D01*
X158646314Y-86593684D01*
X158755748Y-86757462D01*
X158755751Y-86757466D01*
X158895033Y-86896748D01*
X158895037Y-86896751D01*
X159058815Y-87006185D01*
X159058828Y-87006192D01*
X159240808Y-87081569D01*
X159282500Y-87089862D01*
X159282500Y-86286988D01*
X159292440Y-86304205D01*
X159348295Y-86360060D01*
X159416704Y-86399556D01*
X159493004Y-86420000D01*
X159571996Y-86420000D01*
X159648296Y-86399556D01*
X159716705Y-86360060D01*
X159772560Y-86304205D01*
X159782500Y-86286988D01*
X159782500Y-87089862D01*
X159824190Y-87081569D01*
X159824192Y-87081569D01*
X160006171Y-87006192D01*
X160006184Y-87006185D01*
X160169962Y-86896751D01*
X160169966Y-86896748D01*
X160309248Y-86757466D01*
X160309251Y-86757462D01*
X160418685Y-86593684D01*
X160418692Y-86593671D01*
X160494069Y-86411693D01*
X160494072Y-86411681D01*
X160532499Y-86218495D01*
X160532500Y-86218492D01*
X160532500Y-86070000D01*
X159832500Y-86070000D01*
X159832500Y-85570000D01*
X160532500Y-85570000D01*
X160532500Y-85421508D01*
X160532499Y-85421504D01*
X160494072Y-85228318D01*
X160494069Y-85228306D01*
X160418692Y-85046328D01*
X160418685Y-85046315D01*
X160309251Y-84882537D01*
X160309248Y-84882533D01*
X160169963Y-84743248D01*
X160146546Y-84727602D01*
X160101741Y-84673990D01*
X160093034Y-84604665D01*
X160123188Y-84541638D01*
X160182631Y-84504918D01*
X160215437Y-84500500D01*
X167489563Y-84500500D01*
X167556602Y-84520185D01*
X167602357Y-84572989D01*
X167612301Y-84642147D01*
X167583276Y-84705703D01*
X167558454Y-84727602D01*
X167535036Y-84743248D01*
X167395751Y-84882533D01*
X167395748Y-84882537D01*
X167286314Y-85046315D01*
X167286307Y-85046328D01*
X167210930Y-85228306D01*
X167210927Y-85228318D01*
X167172500Y-85421504D01*
X167172500Y-85570000D01*
X167872500Y-85570000D01*
X167872500Y-86070000D01*
X167172500Y-86070000D01*
X167172500Y-86218495D01*
X167210927Y-86411681D01*
X167210930Y-86411693D01*
X167286307Y-86593671D01*
X167286314Y-86593684D01*
X167395748Y-86757462D01*
X167395751Y-86757466D01*
X167535033Y-86896748D01*
X167535037Y-86896751D01*
X167698815Y-87006185D01*
X167698828Y-87006192D01*
X167880808Y-87081569D01*
X167922500Y-87089862D01*
X167922500Y-86286988D01*
X167932440Y-86304205D01*
X167988295Y-86360060D01*
X168056704Y-86399556D01*
X168133004Y-86420000D01*
X168211996Y-86420000D01*
X168288296Y-86399556D01*
X168356705Y-86360060D01*
X168412560Y-86304205D01*
X168422500Y-86286988D01*
X168422500Y-87089862D01*
X168464190Y-87081569D01*
X168464192Y-87081569D01*
X168646171Y-87006192D01*
X168646184Y-87006185D01*
X168809962Y-86896751D01*
X168809966Y-86896748D01*
X168949248Y-86757466D01*
X168949251Y-86757462D01*
X169058685Y-86593684D01*
X169058692Y-86593671D01*
X169134069Y-86411693D01*
X169134072Y-86411681D01*
X169172499Y-86218495D01*
X169172500Y-86218492D01*
X169172500Y-86070000D01*
X168472500Y-86070000D01*
X168472500Y-85570000D01*
X169172500Y-85570000D01*
X169172500Y-85421508D01*
X169172499Y-85421504D01*
X169134072Y-85228318D01*
X169134069Y-85228306D01*
X169058692Y-85046328D01*
X169058685Y-85046315D01*
X168949251Y-84882537D01*
X168949248Y-84882533D01*
X168809963Y-84743248D01*
X168786546Y-84727602D01*
X168741741Y-84673990D01*
X168733034Y-84604665D01*
X168763188Y-84541638D01*
X168822631Y-84504918D01*
X168855437Y-84500500D01*
X229375500Y-84500500D01*
X229442539Y-84520185D01*
X229488294Y-84572989D01*
X229499500Y-84624500D01*
X229499500Y-149375500D01*
X229479815Y-149442539D01*
X229427011Y-149488294D01*
X229375500Y-149499500D01*
X153124500Y-149499500D01*
X153057461Y-149479815D01*
X153011706Y-149427011D01*
X153000500Y-149375500D01*
X153000500Y-144999999D01*
X158734785Y-144999999D01*
X158734785Y-145000000D01*
X158753602Y-145203082D01*
X158809417Y-145399247D01*
X158809422Y-145399260D01*
X158900327Y-145581821D01*
X159023237Y-145744581D01*
X159173958Y-145881980D01*
X159173960Y-145881982D01*
X159273141Y-145943392D01*
X159347363Y-145989348D01*
X159537544Y-146063024D01*
X159738024Y-146100500D01*
X159738026Y-146100500D01*
X159941974Y-146100500D01*
X159941976Y-146100500D01*
X160142456Y-146063024D01*
X160332637Y-145989348D01*
X160506041Y-145881981D01*
X160656764Y-145744579D01*
X160779673Y-145581821D01*
X160870582Y-145399250D01*
X160926397Y-145203083D01*
X160945215Y-145000000D01*
X160945215Y-144999999D01*
X161274785Y-144999999D01*
X161274785Y-145000000D01*
X161293602Y-145203082D01*
X161349417Y-145399247D01*
X161349422Y-145399260D01*
X161440327Y-145581821D01*
X161563237Y-145744581D01*
X161713958Y-145881980D01*
X161713960Y-145881982D01*
X161813141Y-145943392D01*
X161887363Y-145989348D01*
X162077544Y-146063024D01*
X162278024Y-146100500D01*
X162278026Y-146100500D01*
X162481974Y-146100500D01*
X162481976Y-146100500D01*
X162682456Y-146063024D01*
X162872637Y-145989348D01*
X163046041Y-145881981D01*
X163196764Y-145744579D01*
X163319673Y-145581821D01*
X163410582Y-145399250D01*
X163466397Y-145203083D01*
X163485215Y-145000000D01*
X163485215Y-144999999D01*
X163814785Y-144999999D01*
X163814785Y-145000000D01*
X163833602Y-145203082D01*
X163889417Y-145399247D01*
X163889422Y-145399260D01*
X163980327Y-145581821D01*
X164103237Y-145744581D01*
X164253958Y-145881980D01*
X164253960Y-145881982D01*
X164353141Y-145943392D01*
X164427363Y-145989348D01*
X164617544Y-146063024D01*
X164818024Y-146100500D01*
X164818026Y-146100500D01*
X165021974Y-146100500D01*
X165021976Y-146100500D01*
X165222456Y-146063024D01*
X165412637Y-145989348D01*
X165586041Y-145881981D01*
X165736764Y-145744579D01*
X165859673Y-145581821D01*
X165950582Y-145399250D01*
X166006397Y-145203083D01*
X166025215Y-145000000D01*
X166025215Y-144999999D01*
X166354785Y-144999999D01*
X166354785Y-145000000D01*
X166373602Y-145203082D01*
X166429417Y-145399247D01*
X166429422Y-145399260D01*
X166520327Y-145581821D01*
X166643237Y-145744581D01*
X166793958Y-145881980D01*
X166793960Y-145881982D01*
X166893141Y-145943392D01*
X166967363Y-145989348D01*
X167157544Y-146063024D01*
X167358024Y-146100500D01*
X167358026Y-146100500D01*
X167561974Y-146100500D01*
X167561976Y-146100500D01*
X167762456Y-146063024D01*
X167878037Y-146018247D01*
X167947658Y-146012385D01*
X168009399Y-146045094D01*
X168010511Y-146046193D01*
X169244788Y-147280470D01*
X169324712Y-147326614D01*
X169413856Y-147350500D01*
X175013908Y-147350500D01*
X175080947Y-147370185D01*
X175100412Y-147388086D01*
X175101628Y-147386871D01*
X175107372Y-147392615D01*
X175107377Y-147392619D01*
X175107379Y-147392621D01*
X175222375Y-147480861D01*
X175356291Y-147536330D01*
X175483280Y-147553048D01*
X175499999Y-147555250D01*
X175500000Y-147555250D01*
X175500001Y-147555250D01*
X175514977Y-147553278D01*
X175643709Y-147536330D01*
X175777625Y-147480861D01*
X175892621Y-147392621D01*
X175980861Y-147277625D01*
X176036330Y-147143709D01*
X176055250Y-147000000D01*
X176036330Y-146856291D01*
X175980861Y-146722375D01*
X175892621Y-146607379D01*
X175777625Y-146519139D01*
X175777624Y-146519138D01*
X175777622Y-146519137D01*
X175643712Y-146463671D01*
X175643710Y-146463670D01*
X175643709Y-146463670D01*
X175571854Y-146454210D01*
X175500001Y-146444750D01*
X175499999Y-146444750D01*
X175356291Y-146463670D01*
X175356287Y-146463671D01*
X175222377Y-146519137D01*
X175107372Y-146607384D01*
X175101628Y-146613129D01*
X175099111Y-146610612D01*
X175055817Y-146642203D01*
X175013908Y-146649500D01*
X169656544Y-146649500D01*
X169589505Y-146629815D01*
X169568863Y-146613181D01*
X168508576Y-145552894D01*
X168475091Y-145491571D01*
X168480075Y-145421879D01*
X168485251Y-145409954D01*
X168490582Y-145399250D01*
X168546397Y-145203083D01*
X168565215Y-145000000D01*
X168565215Y-144999999D01*
X168894785Y-144999999D01*
X168894785Y-145000000D01*
X168913602Y-145203082D01*
X168969417Y-145399247D01*
X168969422Y-145399260D01*
X169060327Y-145581821D01*
X169183237Y-145744581D01*
X169333958Y-145881980D01*
X169333960Y-145881982D01*
X169433141Y-145943392D01*
X169507363Y-145989348D01*
X169697544Y-146063024D01*
X169898024Y-146100500D01*
X169898026Y-146100500D01*
X170101974Y-146100500D01*
X170101976Y-146100500D01*
X170302456Y-146063024D01*
X170492637Y-145989348D01*
X170666041Y-145881981D01*
X170816764Y-145744579D01*
X170939673Y-145581821D01*
X170944845Y-145571434D01*
X170955000Y-145551041D01*
X171002503Y-145499803D01*
X171070165Y-145482382D01*
X171136506Y-145504307D01*
X171180461Y-145558619D01*
X171190000Y-145606312D01*
X171190000Y-145897844D01*
X171196401Y-145957372D01*
X171196403Y-145957379D01*
X171246645Y-146092086D01*
X171246649Y-146092093D01*
X171332809Y-146207187D01*
X171332812Y-146207190D01*
X171447906Y-146293350D01*
X171447913Y-146293354D01*
X171582620Y-146343596D01*
X171582627Y-146343598D01*
X171642155Y-146349999D01*
X171642172Y-146350000D01*
X172290000Y-146350000D01*
X172290000Y-145433012D01*
X172347007Y-145465925D01*
X172474174Y-145500000D01*
X172605826Y-145500000D01*
X172732993Y-145465925D01*
X172790000Y-145433012D01*
X172790000Y-146350000D01*
X173437828Y-146350000D01*
X173437844Y-146349999D01*
X173497372Y-146343598D01*
X173497379Y-146343596D01*
X173632086Y-146293354D01*
X173632093Y-146293350D01*
X173747187Y-146207190D01*
X173747190Y-146207187D01*
X173833350Y-146092093D01*
X173833354Y-146092086D01*
X173883596Y-145957379D01*
X173883598Y-145957372D01*
X173889999Y-145897844D01*
X173890000Y-145897827D01*
X173890000Y-145250000D01*
X172973012Y-145250000D01*
X173005925Y-145192993D01*
X173040000Y-145065826D01*
X173040000Y-144934174D01*
X173005925Y-144807007D01*
X172973012Y-144750000D01*
X173890000Y-144750000D01*
X173890000Y-144102172D01*
X173889999Y-144102155D01*
X173883598Y-144042627D01*
X173883596Y-144042620D01*
X173867699Y-143999997D01*
X213044726Y-143999997D01*
X213044726Y-144000002D01*
X213063808Y-144351954D01*
X213120833Y-144699793D01*
X213120834Y-144699796D01*
X213215126Y-145039408D01*
X213215127Y-145039410D01*
X213345588Y-145366844D01*
X213345597Y-145366862D01*
X213454055Y-145571434D01*
X213510695Y-145678269D01*
X213699936Y-145957379D01*
X213708498Y-145970006D01*
X213708505Y-145970016D01*
X213913626Y-146211502D01*
X213936686Y-146238650D01*
X214192580Y-146481046D01*
X214192587Y-146481051D01*
X214192589Y-146481053D01*
X214258064Y-146530826D01*
X214473182Y-146694354D01*
X214775202Y-146876074D01*
X214775206Y-146876075D01*
X214775210Y-146876078D01*
X215095088Y-147024070D01*
X215095092Y-147024070D01*
X215095099Y-147024074D01*
X215429122Y-147136619D01*
X215773355Y-147212391D01*
X216123763Y-147250500D01*
X216123769Y-147250500D01*
X216476231Y-147250500D01*
X216476237Y-147250500D01*
X216826645Y-147212391D01*
X217170878Y-147136619D01*
X217504901Y-147024074D01*
X217504908Y-147024070D01*
X217504911Y-147024070D01*
X217824789Y-146876078D01*
X217824798Y-146876074D01*
X218126818Y-146694354D01*
X218407420Y-146481046D01*
X218663314Y-146238650D01*
X218891501Y-145970008D01*
X219089305Y-145678269D01*
X219254407Y-145366854D01*
X219384871Y-145039414D01*
X219479168Y-144699788D01*
X219536191Y-144351957D01*
X219554696Y-144010655D01*
X219555274Y-144000002D01*
X219555274Y-143999997D01*
X219536191Y-143648045D01*
X219536191Y-143648043D01*
X219479168Y-143300212D01*
X219436704Y-143147271D01*
X219384873Y-142960591D01*
X219384872Y-142960589D01*
X219254411Y-142633155D01*
X219254402Y-142633137D01*
X219203077Y-142536328D01*
X219145944Y-142428563D01*
X220000000Y-142428563D01*
X220000000Y-143750000D01*
X221263498Y-143750000D01*
X221250000Y-143852527D01*
X221250000Y-144147473D01*
X221263498Y-144250000D01*
X220000000Y-144250000D01*
X220000000Y-145571436D01*
X220015300Y-145785362D01*
X220076109Y-146064895D01*
X220176091Y-146332958D01*
X220313191Y-146584038D01*
X220313192Y-146584039D01*
X220484639Y-146813065D01*
X220484649Y-146813077D01*
X220686922Y-147015350D01*
X220686934Y-147015360D01*
X220915960Y-147186807D01*
X220915961Y-147186808D01*
X221167042Y-147323908D01*
X221167041Y-147323908D01*
X221435104Y-147423890D01*
X221714637Y-147484699D01*
X221928563Y-147499999D01*
X221928566Y-147500000D01*
X223250000Y-147500000D01*
X223250000Y-146236502D01*
X223352527Y-146250000D01*
X223647473Y-146250000D01*
X223750000Y-146236502D01*
X223750000Y-147500000D01*
X225071434Y-147500000D01*
X225071436Y-147499999D01*
X225285362Y-147484699D01*
X225564895Y-147423890D01*
X225832958Y-147323908D01*
X226084038Y-147186808D01*
X226084039Y-147186807D01*
X226313065Y-147015360D01*
X226313077Y-147015350D01*
X226515350Y-146813077D01*
X226515360Y-146813065D01*
X226686807Y-146584039D01*
X226686808Y-146584038D01*
X226823908Y-146332958D01*
X226923890Y-146064895D01*
X226984699Y-145785362D01*
X226999999Y-145571436D01*
X227000000Y-145571434D01*
X227000000Y-144250000D01*
X225736502Y-144250000D01*
X225750000Y-144147473D01*
X225750000Y-143852527D01*
X225736502Y-143750000D01*
X227000000Y-143750000D01*
X227000000Y-142428566D01*
X226999999Y-142428563D01*
X226984699Y-142214637D01*
X226923890Y-141935104D01*
X226823908Y-141667041D01*
X226686808Y-141415961D01*
X226686807Y-141415960D01*
X226515360Y-141186934D01*
X226515350Y-141186922D01*
X226313077Y-140984649D01*
X226313065Y-140984639D01*
X226084039Y-140813192D01*
X226084038Y-140813191D01*
X225832957Y-140676091D01*
X225832958Y-140676091D01*
X225564895Y-140576109D01*
X225285362Y-140515300D01*
X225071436Y-140500000D01*
X223750000Y-140500000D01*
X223750000Y-141763497D01*
X223647473Y-141750000D01*
X223352527Y-141750000D01*
X223250000Y-141763497D01*
X223250000Y-140500000D01*
X221928563Y-140500000D01*
X221714637Y-140515300D01*
X221435104Y-140576109D01*
X221167041Y-140676091D01*
X220915961Y-140813191D01*
X220915960Y-140813192D01*
X220686934Y-140984639D01*
X220686922Y-140984649D01*
X220484649Y-141186922D01*
X220484639Y-141186934D01*
X220313192Y-141415960D01*
X220313191Y-141415961D01*
X220176091Y-141667041D01*
X220076109Y-141935104D01*
X220015300Y-142214637D01*
X220000000Y-142428563D01*
X219145944Y-142428563D01*
X219089305Y-142321731D01*
X218891501Y-142029992D01*
X218891497Y-142029987D01*
X218891494Y-142029983D01*
X218663314Y-141761350D01*
X218622171Y-141722377D01*
X218407420Y-141518954D01*
X218407413Y-141518948D01*
X218407410Y-141518946D01*
X218126815Y-141305644D01*
X217824802Y-141123928D01*
X217824789Y-141123921D01*
X217504911Y-140975929D01*
X217504906Y-140975928D01*
X217504903Y-140975927D01*
X217504901Y-140975926D01*
X217398432Y-140940052D01*
X217170880Y-140863381D01*
X216826643Y-140787608D01*
X216476238Y-140749500D01*
X216476237Y-140749500D01*
X216123763Y-140749500D01*
X216123761Y-140749500D01*
X215773356Y-140787608D01*
X215429119Y-140863381D01*
X215095093Y-140975928D01*
X215095088Y-140975929D01*
X214775210Y-141123921D01*
X214775197Y-141123928D01*
X214473184Y-141305644D01*
X214192589Y-141518946D01*
X214192580Y-141518954D01*
X213936685Y-141761350D01*
X213708505Y-142029983D01*
X213708498Y-142029993D01*
X213510695Y-142321730D01*
X213345597Y-142633137D01*
X213345588Y-142633155D01*
X213215127Y-142960589D01*
X213215126Y-142960591D01*
X213120834Y-143300203D01*
X213120833Y-143300206D01*
X213063808Y-143648045D01*
X213044726Y-143999997D01*
X173867699Y-143999997D01*
X173833354Y-143907913D01*
X173833350Y-143907906D01*
X173747190Y-143792812D01*
X173747187Y-143792809D01*
X173632093Y-143706649D01*
X173632086Y-143706645D01*
X173497379Y-143656403D01*
X173497372Y-143656401D01*
X173437844Y-143650000D01*
X172790000Y-143650000D01*
X172790000Y-144566988D01*
X172732993Y-144534075D01*
X172605826Y-144500000D01*
X172474174Y-144500000D01*
X172347007Y-144534075D01*
X172290000Y-144566988D01*
X172290000Y-143650000D01*
X171642155Y-143650000D01*
X171582627Y-143656401D01*
X171582620Y-143656403D01*
X171447913Y-143706645D01*
X171447906Y-143706649D01*
X171332812Y-143792809D01*
X171332809Y-143792812D01*
X171246649Y-143907906D01*
X171246645Y-143907913D01*
X171196403Y-144042620D01*
X171196401Y-144042627D01*
X171190000Y-144102155D01*
X171190000Y-144393687D01*
X171170315Y-144460726D01*
X171117511Y-144506481D01*
X171048353Y-144516425D01*
X170984797Y-144487400D01*
X170955000Y-144448960D01*
X170950486Y-144439895D01*
X170939673Y-144418179D01*
X170889663Y-144351954D01*
X170816762Y-144255418D01*
X170666041Y-144118019D01*
X170666039Y-144118017D01*
X170492642Y-144010655D01*
X170492635Y-144010651D01*
X170345897Y-143953805D01*
X170302456Y-143936976D01*
X170101976Y-143899500D01*
X169898024Y-143899500D01*
X169697544Y-143936976D01*
X169697541Y-143936976D01*
X169697541Y-143936977D01*
X169507364Y-144010651D01*
X169507357Y-144010655D01*
X169333960Y-144118017D01*
X169333958Y-144118019D01*
X169183237Y-144255418D01*
X169060327Y-144418178D01*
X168969422Y-144600739D01*
X168969417Y-144600752D01*
X168913602Y-144796917D01*
X168894785Y-144999999D01*
X168565215Y-144999999D01*
X168564963Y-144997285D01*
X168546397Y-144796917D01*
X168518763Y-144699796D01*
X168490582Y-144600750D01*
X168490159Y-144599901D01*
X168434141Y-144487400D01*
X168399673Y-144418179D01*
X168276764Y-144255421D01*
X168276762Y-144255418D01*
X168126041Y-144118019D01*
X168126039Y-144118017D01*
X167952642Y-144010655D01*
X167952635Y-144010651D01*
X167805897Y-143953805D01*
X167762456Y-143936976D01*
X167561976Y-143899500D01*
X167358024Y-143899500D01*
X167157544Y-143936976D01*
X167157541Y-143936976D01*
X167157541Y-143936977D01*
X166967364Y-144010651D01*
X166967357Y-144010655D01*
X166793960Y-144118017D01*
X166793958Y-144118019D01*
X166643237Y-144255418D01*
X166520327Y-144418178D01*
X166429422Y-144600739D01*
X166429417Y-144600752D01*
X166373602Y-144796917D01*
X166354785Y-144999999D01*
X166025215Y-144999999D01*
X166024963Y-144997285D01*
X166006397Y-144796917D01*
X165978763Y-144699796D01*
X165950582Y-144600750D01*
X165950159Y-144599901D01*
X165894141Y-144487400D01*
X165859673Y-144418179D01*
X165736764Y-144255421D01*
X165736762Y-144255418D01*
X165586041Y-144118019D01*
X165586039Y-144118017D01*
X165412642Y-144010655D01*
X165412635Y-144010651D01*
X165265897Y-143953805D01*
X165222456Y-143936976D01*
X165021976Y-143899500D01*
X164818024Y-143899500D01*
X164617544Y-143936976D01*
X164617541Y-143936976D01*
X164617541Y-143936977D01*
X164427364Y-144010651D01*
X164427357Y-144010655D01*
X164253960Y-144118017D01*
X164253958Y-144118019D01*
X164103237Y-144255418D01*
X163980327Y-144418178D01*
X163889422Y-144600739D01*
X163889417Y-144600752D01*
X163833602Y-144796917D01*
X163814785Y-144999999D01*
X163485215Y-144999999D01*
X163484963Y-144997285D01*
X163466397Y-144796917D01*
X163438763Y-144699796D01*
X163410582Y-144600750D01*
X163410159Y-144599901D01*
X163354141Y-144487400D01*
X163319673Y-144418179D01*
X163196764Y-144255421D01*
X163196762Y-144255418D01*
X163046041Y-144118019D01*
X163046039Y-144118017D01*
X162872642Y-144010655D01*
X162872635Y-144010651D01*
X162725897Y-143953805D01*
X162682456Y-143936976D01*
X162481976Y-143899500D01*
X162278024Y-143899500D01*
X162077544Y-143936976D01*
X162077541Y-143936976D01*
X162077541Y-143936977D01*
X161887364Y-144010651D01*
X161887357Y-144010655D01*
X161713960Y-144118017D01*
X161713958Y-144118019D01*
X161563237Y-144255418D01*
X161440327Y-144418178D01*
X161349422Y-144600739D01*
X161349417Y-144600752D01*
X161293602Y-144796917D01*
X161274785Y-144999999D01*
X160945215Y-144999999D01*
X160944963Y-144997285D01*
X160926397Y-144796917D01*
X160898763Y-144699796D01*
X160870582Y-144600750D01*
X160865256Y-144590055D01*
X160852996Y-144521272D01*
X160879869Y-144456777D01*
X160888566Y-144447114D01*
X161948863Y-143386819D01*
X162010186Y-143353334D01*
X162036544Y-143350500D01*
X176546142Y-143350500D01*
X176546144Y-143350500D01*
X176635288Y-143326614D01*
X176642586Y-143322400D01*
X176669810Y-143306683D01*
X176669811Y-143306682D01*
X176715212Y-143280470D01*
X177995681Y-142000000D01*
X209944750Y-142000000D01*
X209961230Y-142125179D01*
X209963670Y-142143708D01*
X209963671Y-142143712D01*
X210019137Y-142277622D01*
X210019138Y-142277624D01*
X210019139Y-142277625D01*
X210107379Y-142392621D01*
X210222375Y-142480861D01*
X210356291Y-142536330D01*
X210483280Y-142553048D01*
X210499999Y-142555250D01*
X210500000Y-142555250D01*
X210500001Y-142555250D01*
X210514977Y-142553278D01*
X210643709Y-142536330D01*
X210777625Y-142480861D01*
X210892621Y-142392621D01*
X210980861Y-142277625D01*
X211036330Y-142143709D01*
X211052998Y-142017102D01*
X211081264Y-141953206D01*
X211088244Y-141945619D01*
X213620047Y-139413819D01*
X213681370Y-139380334D01*
X213707728Y-139377500D01*
X226049697Y-139377500D01*
X226049699Y-139377500D01*
X226145710Y-139351774D01*
X226231790Y-139302075D01*
X228802075Y-136731790D01*
X228851774Y-136645710D01*
X228877500Y-136549699D01*
X228877500Y-136450301D01*
X228877500Y-135450301D01*
X228877500Y-91450301D01*
X228851774Y-91354291D01*
X228851774Y-91354290D01*
X228802075Y-91268210D01*
X227088256Y-89554391D01*
X227054771Y-89493068D01*
X227052998Y-89482896D01*
X227043467Y-89410504D01*
X227036330Y-89356291D01*
X226980861Y-89222375D01*
X226892621Y-89107379D01*
X226777625Y-89019139D01*
X226777624Y-89019138D01*
X226777622Y-89019137D01*
X226643712Y-88963671D01*
X226643710Y-88963670D01*
X226643709Y-88963670D01*
X226571854Y-88954210D01*
X226500001Y-88944750D01*
X226499999Y-88944750D01*
X226356291Y-88963670D01*
X226356287Y-88963671D01*
X226222377Y-89019137D01*
X226107379Y-89107379D01*
X226019137Y-89222377D01*
X225963671Y-89356287D01*
X225963670Y-89356291D01*
X225944750Y-89500000D01*
X225958878Y-89607314D01*
X225963670Y-89643708D01*
X225963671Y-89643712D01*
X226019137Y-89777622D01*
X226019138Y-89777623D01*
X226019139Y-89777625D01*
X226107379Y-89892621D01*
X226222375Y-89980861D01*
X226356291Y-90036330D01*
X226482896Y-90052998D01*
X226546792Y-90081265D01*
X226554391Y-90088256D01*
X228086181Y-91620046D01*
X228119666Y-91681369D01*
X228122500Y-91707727D01*
X228122500Y-136292273D01*
X228102815Y-136359312D01*
X228086181Y-136379954D01*
X225879954Y-138586181D01*
X225818631Y-138619666D01*
X225792273Y-138622500D01*
X213450301Y-138622500D01*
X213354290Y-138648226D01*
X213354283Y-138648229D01*
X213268216Y-138697919D01*
X213268208Y-138697925D01*
X210554390Y-141411743D01*
X210493067Y-141445228D01*
X210482896Y-141447001D01*
X210356291Y-141463670D01*
X210356287Y-141463671D01*
X210222377Y-141519137D01*
X210107379Y-141607379D01*
X210019137Y-141722377D01*
X209963671Y-141856287D01*
X209963670Y-141856291D01*
X209944750Y-142000000D01*
X177995681Y-142000000D01*
X178280469Y-141715212D01*
X178326614Y-141635288D01*
X178329774Y-141623490D01*
X178334093Y-141607378D01*
X178340097Y-141584964D01*
X178350500Y-141546144D01*
X178350500Y-135645543D01*
X178370185Y-135578504D01*
X178422989Y-135532749D01*
X178492147Y-135522805D01*
X178555703Y-135551830D01*
X178562173Y-135557855D01*
X181719531Y-138715212D01*
X181784788Y-138780469D01*
X181784791Y-138780470D01*
X181784794Y-138780473D01*
X181864706Y-138826611D01*
X181864707Y-138826611D01*
X181864712Y-138826614D01*
X181953856Y-138850500D01*
X184013908Y-138850500D01*
X184080947Y-138870185D01*
X184100412Y-138888086D01*
X184101628Y-138886871D01*
X184107372Y-138892615D01*
X184107377Y-138892619D01*
X184107379Y-138892621D01*
X184222375Y-138980861D01*
X184356291Y-139036330D01*
X184500000Y-139055250D01*
X184508129Y-139055250D01*
X184508129Y-139058828D01*
X184560970Y-139067031D01*
X184595878Y-139091560D01*
X184784788Y-139280470D01*
X184864712Y-139326614D01*
X184953856Y-139350500D01*
X184953858Y-139350500D01*
X203546142Y-139350500D01*
X203546144Y-139350500D01*
X203635288Y-139326614D01*
X203715212Y-139280470D01*
X204108863Y-138886819D01*
X204170186Y-138853334D01*
X204196544Y-138850500D01*
X205513908Y-138850500D01*
X205580947Y-138870185D01*
X205600412Y-138888086D01*
X205601628Y-138886871D01*
X205607372Y-138892615D01*
X205607377Y-138892619D01*
X205607379Y-138892621D01*
X205722375Y-138980861D01*
X205856291Y-139036330D01*
X205983280Y-139053048D01*
X205999999Y-139055250D01*
X206000000Y-139055250D01*
X206000001Y-139055250D01*
X206014977Y-139053278D01*
X206143709Y-139036330D01*
X206277625Y-138980861D01*
X206392621Y-138892621D01*
X206480861Y-138777625D01*
X206536330Y-138643709D01*
X206555250Y-138500000D01*
X206536330Y-138356291D01*
X206480861Y-138222375D01*
X206392621Y-138107379D01*
X206277625Y-138019139D01*
X206277624Y-138019138D01*
X206277622Y-138019137D01*
X206143712Y-137963671D01*
X206143710Y-137963670D01*
X206143709Y-137963670D01*
X206105654Y-137958659D01*
X206076421Y-137954811D01*
X206012524Y-137926544D01*
X205974054Y-137868219D01*
X205973223Y-137798354D01*
X205978046Y-137784419D01*
X205980859Y-137777627D01*
X205980861Y-137777625D01*
X206036330Y-137643709D01*
X206055250Y-137500000D01*
X206036330Y-137356291D01*
X205980861Y-137222375D01*
X205892621Y-137107379D01*
X205777625Y-137019139D01*
X205777624Y-137019138D01*
X205777622Y-137019137D01*
X205643712Y-136963671D01*
X205643710Y-136963670D01*
X205643709Y-136963670D01*
X205552638Y-136951680D01*
X205500001Y-136944750D01*
X205499999Y-136944750D01*
X205356291Y-136963670D01*
X205356287Y-136963671D01*
X205222377Y-137019137D01*
X205107372Y-137107384D01*
X205101628Y-137113129D01*
X205099111Y-137110612D01*
X205055817Y-137142203D01*
X205013908Y-137149500D01*
X182986092Y-137149500D01*
X182919053Y-137129815D01*
X182899587Y-137111913D01*
X182898372Y-137113129D01*
X182892627Y-137107384D01*
X182892621Y-137107379D01*
X182777625Y-137019139D01*
X182777624Y-137019138D01*
X182777622Y-137019137D01*
X182643712Y-136963671D01*
X182643710Y-136963670D01*
X182643709Y-136963670D01*
X182552638Y-136951680D01*
X182500001Y-136944750D01*
X182491873Y-136944750D01*
X182491873Y-136941243D01*
X182438613Y-136932772D01*
X182404122Y-136908440D01*
X182195951Y-136700269D01*
X182162466Y-136638946D01*
X182167450Y-136569254D01*
X182209322Y-136513321D01*
X182236175Y-136498029D01*
X182277625Y-136480861D01*
X182369974Y-136409999D01*
X222169364Y-136409999D01*
X222169364Y-136410000D01*
X223066988Y-136410000D01*
X223034075Y-136467007D01*
X223000000Y-136594174D01*
X223000000Y-136725826D01*
X223034075Y-136852993D01*
X223066988Y-136910000D01*
X222169364Y-136910000D01*
X222226567Y-137123486D01*
X222226570Y-137123492D01*
X222326399Y-137337578D01*
X222461894Y-137531082D01*
X222628917Y-137698105D01*
X222822421Y-137833600D01*
X223036507Y-137933429D01*
X223036516Y-137933433D01*
X223250000Y-137990634D01*
X223250000Y-137093012D01*
X223307007Y-137125925D01*
X223434174Y-137160000D01*
X223565826Y-137160000D01*
X223692993Y-137125925D01*
X223750000Y-137093012D01*
X223750000Y-137990633D01*
X223963483Y-137933433D01*
X223963492Y-137933429D01*
X224177578Y-137833600D01*
X224371082Y-137698105D01*
X224538105Y-137531082D01*
X224673600Y-137337578D01*
X224773429Y-137123492D01*
X224773432Y-137123486D01*
X224830636Y-136910000D01*
X223933012Y-136910000D01*
X223965925Y-136852993D01*
X224000000Y-136725826D01*
X224000000Y-136594174D01*
X223965925Y-136467007D01*
X223933012Y-136410000D01*
X224830636Y-136410000D01*
X224830635Y-136409999D01*
X224773432Y-136196513D01*
X224773429Y-136196507D01*
X224673600Y-135982422D01*
X224673599Y-135982420D01*
X224538113Y-135788926D01*
X224538108Y-135788920D01*
X224371082Y-135621894D01*
X224177578Y-135486399D01*
X223963492Y-135386570D01*
X223963477Y-135386564D01*
X223924414Y-135376097D01*
X223864754Y-135339732D01*
X223834226Y-135276885D01*
X223842521Y-135207509D01*
X223887007Y-135153632D01*
X223911710Y-135140698D01*
X223992637Y-135109348D01*
X224166041Y-135001981D01*
X224316764Y-134864579D01*
X224439673Y-134701821D01*
X224530582Y-134519250D01*
X224586397Y-134323083D01*
X224605215Y-134120000D01*
X224586397Y-133916917D01*
X224530582Y-133720750D01*
X224527824Y-133715212D01*
X224443639Y-133546144D01*
X224439673Y-133538179D01*
X224316764Y-133375421D01*
X224316762Y-133375418D01*
X224166041Y-133238019D01*
X224166039Y-133238017D01*
X223992642Y-133130655D01*
X223992635Y-133130651D01*
X223828411Y-133067031D01*
X223802456Y-133056976D01*
X223601976Y-133019500D01*
X223398024Y-133019500D01*
X223197544Y-133056976D01*
X223197541Y-133056976D01*
X223197541Y-133056977D01*
X223007364Y-133130651D01*
X223007357Y-133130655D01*
X222833960Y-133238017D01*
X222833958Y-133238019D01*
X222683237Y-133375418D01*
X222560327Y-133538178D01*
X222469422Y-133720739D01*
X222469417Y-133720752D01*
X222413602Y-133916917D01*
X222394785Y-134119999D01*
X222394785Y-134120000D01*
X222413602Y-134323082D01*
X222469417Y-134519247D01*
X222469422Y-134519260D01*
X222560327Y-134701821D01*
X222683237Y-134864581D01*
X222833958Y-135001980D01*
X222833960Y-135001982D01*
X222933141Y-135063392D01*
X223007363Y-135109348D01*
X223088283Y-135140696D01*
X223143685Y-135183269D01*
X223167276Y-135249035D01*
X223151565Y-135317116D01*
X223101542Y-135365895D01*
X223075586Y-135376097D01*
X223036519Y-135386565D01*
X223036507Y-135386570D01*
X222822422Y-135486399D01*
X222822420Y-135486400D01*
X222628926Y-135621886D01*
X222628920Y-135621891D01*
X222461891Y-135788920D01*
X222461886Y-135788926D01*
X222326400Y-135982420D01*
X222326399Y-135982422D01*
X222226570Y-136196507D01*
X222226567Y-136196513D01*
X222169364Y-136409999D01*
X182369974Y-136409999D01*
X182392621Y-136392621D01*
X182392623Y-136392617D01*
X182392627Y-136392615D01*
X182398372Y-136386871D01*
X182400888Y-136389387D01*
X182444183Y-136357797D01*
X182486092Y-136350500D01*
X203046142Y-136350500D01*
X203046144Y-136350500D01*
X203135288Y-136326614D01*
X203215212Y-136280470D01*
X204608862Y-134886818D01*
X204670185Y-134853334D01*
X204696543Y-134850500D01*
X212513908Y-134850500D01*
X212580947Y-134870185D01*
X212600412Y-134888086D01*
X212601628Y-134886871D01*
X212607372Y-134892615D01*
X212607377Y-134892619D01*
X212607379Y-134892621D01*
X212722375Y-134980861D01*
X212856291Y-135036330D01*
X212983280Y-135053048D01*
X212999999Y-135055250D01*
X213000000Y-135055250D01*
X213000001Y-135055250D01*
X213014977Y-135053278D01*
X213143709Y-135036330D01*
X213277625Y-134980861D01*
X213392621Y-134892621D01*
X213480861Y-134777625D01*
X213536330Y-134643709D01*
X213555250Y-134500000D01*
X213536330Y-134356291D01*
X213480861Y-134222375D01*
X213392621Y-134107379D01*
X213277625Y-134019139D01*
X213277624Y-134019138D01*
X213277622Y-134019137D01*
X213143712Y-133963671D01*
X213143710Y-133963670D01*
X213143709Y-133963670D01*
X213019840Y-133947362D01*
X213000001Y-133944750D01*
X212999999Y-133944750D01*
X212856291Y-133963670D01*
X212856287Y-133963671D01*
X212722377Y-134019137D01*
X212607372Y-134107384D01*
X212601628Y-134113129D01*
X212599111Y-134110612D01*
X212555817Y-134142203D01*
X212513908Y-134149500D01*
X204645544Y-134149500D01*
X204578505Y-134129815D01*
X204532750Y-134077011D01*
X204522806Y-134007853D01*
X204551831Y-133944297D01*
X204557863Y-133937819D01*
X208108863Y-130386819D01*
X208170186Y-130353334D01*
X208196544Y-130350500D01*
X210513908Y-130350500D01*
X210580947Y-130370185D01*
X210600412Y-130388086D01*
X210601628Y-130386871D01*
X210607372Y-130392615D01*
X210607377Y-130392619D01*
X210607379Y-130392621D01*
X210722375Y-130480861D01*
X210856291Y-130536330D01*
X210983280Y-130553048D01*
X210999999Y-130555250D01*
X211000000Y-130555250D01*
X211000001Y-130555250D01*
X211014977Y-130553278D01*
X211143709Y-130536330D01*
X211277625Y-130480861D01*
X211392621Y-130392621D01*
X211480861Y-130277625D01*
X211536330Y-130143709D01*
X211555250Y-130000000D01*
X211536330Y-129856291D01*
X211480861Y-129722375D01*
X211392621Y-129607379D01*
X211382840Y-129599873D01*
X211341639Y-129543446D01*
X211337485Y-129473700D01*
X211371699Y-129412780D01*
X211433416Y-129380028D01*
X211458329Y-129377500D01*
X213049697Y-129377500D01*
X213049699Y-129377500D01*
X213145710Y-129351774D01*
X213231790Y-129302075D01*
X216748747Y-125785118D01*
X216810068Y-125751635D01*
X216879760Y-125756619D01*
X216935693Y-125798491D01*
X216960110Y-125863955D01*
X216959365Y-125888986D01*
X216944750Y-125999997D01*
X216944750Y-126000000D01*
X216963670Y-126143708D01*
X216963671Y-126143712D01*
X217019137Y-126277622D01*
X217019138Y-126277624D01*
X217019139Y-126277625D01*
X217107379Y-126392621D01*
X217222375Y-126480861D01*
X217356291Y-126536330D01*
X217482896Y-126552998D01*
X217546792Y-126581265D01*
X217554391Y-126588256D01*
X217586181Y-126620046D01*
X217619666Y-126681369D01*
X217622500Y-126707727D01*
X217622500Y-133545580D01*
X217602815Y-133612619D01*
X217596876Y-133621066D01*
X217519139Y-133722374D01*
X217519138Y-133722376D01*
X217463671Y-133856287D01*
X217463670Y-133856291D01*
X217452084Y-133944297D01*
X217444750Y-134000000D01*
X217460548Y-134119999D01*
X217463670Y-134143708D01*
X217463671Y-134143712D01*
X217519137Y-134277622D01*
X217519138Y-134277624D01*
X217519139Y-134277625D01*
X217607379Y-134392621D01*
X217722375Y-134480861D01*
X217856291Y-134536330D01*
X217983280Y-134553048D01*
X217999999Y-134555250D01*
X218000000Y-134555250D01*
X218000001Y-134555250D01*
X218014977Y-134553278D01*
X218143709Y-134536330D01*
X218277625Y-134480861D01*
X218392621Y-134392621D01*
X218480861Y-134277625D01*
X218536330Y-134143709D01*
X218555250Y-134000000D01*
X218536330Y-133856291D01*
X218480861Y-133722375D01*
X218414038Y-133635290D01*
X218403124Y-133621066D01*
X218377930Y-133555897D01*
X218377500Y-133545580D01*
X218377500Y-131579999D01*
X222394785Y-131579999D01*
X222394785Y-131580000D01*
X222413602Y-131783082D01*
X222469417Y-131979247D01*
X222469422Y-131979260D01*
X222560327Y-132161821D01*
X222683237Y-132324581D01*
X222833958Y-132461980D01*
X222833960Y-132461982D01*
X222895360Y-132499999D01*
X223007363Y-132569348D01*
X223197544Y-132643024D01*
X223398024Y-132680500D01*
X223398026Y-132680500D01*
X223601974Y-132680500D01*
X223601976Y-132680500D01*
X223802456Y-132643024D01*
X223992637Y-132569348D01*
X224166041Y-132461981D01*
X224316764Y-132324579D01*
X224439673Y-132161821D01*
X224530582Y-131979250D01*
X224586397Y-131783083D01*
X224605215Y-131580000D01*
X224586397Y-131376917D01*
X224530582Y-131180750D01*
X224439673Y-130998179D01*
X224356598Y-130888170D01*
X224316762Y-130835418D01*
X224166041Y-130698019D01*
X224166039Y-130698017D01*
X223992642Y-130590655D01*
X223992635Y-130590651D01*
X223852412Y-130536329D01*
X223802456Y-130516976D01*
X223601976Y-130479500D01*
X223398024Y-130479500D01*
X223197544Y-130516976D01*
X223197541Y-130516976D01*
X223197541Y-130516977D01*
X223007364Y-130590651D01*
X223007357Y-130590655D01*
X222833960Y-130698017D01*
X222833958Y-130698019D01*
X222683237Y-130835418D01*
X222560327Y-130998178D01*
X222469422Y-131180739D01*
X222469417Y-131180752D01*
X222413602Y-131376917D01*
X222394785Y-131579999D01*
X218377500Y-131579999D01*
X218377500Y-126450300D01*
X218377499Y-126450298D01*
X218376014Y-126444754D01*
X218376014Y-126444755D01*
X218376013Y-126444750D01*
X218351774Y-126354290D01*
X218302075Y-126268210D01*
X218088256Y-126054391D01*
X218054771Y-125993068D01*
X218052998Y-125982896D01*
X218045111Y-125922989D01*
X218036330Y-125856291D01*
X217980861Y-125722375D01*
X217892621Y-125607379D01*
X217777625Y-125519139D01*
X217777624Y-125519138D01*
X217777622Y-125519137D01*
X217643712Y-125463671D01*
X217643710Y-125463670D01*
X217643709Y-125463670D01*
X217571854Y-125454210D01*
X217500001Y-125444750D01*
X217499999Y-125444750D01*
X217356291Y-125463670D01*
X217356287Y-125463671D01*
X217222377Y-125519137D01*
X217160544Y-125566584D01*
X217122368Y-125595878D01*
X217107378Y-125607380D01*
X217099875Y-125617159D01*
X217043446Y-125658361D01*
X216973700Y-125662515D01*
X216912780Y-125628301D01*
X216880028Y-125566584D01*
X216877500Y-125541671D01*
X216877500Y-112707726D01*
X216897185Y-112640687D01*
X216913814Y-112620050D01*
X218945609Y-110588254D01*
X219006930Y-110554771D01*
X219017095Y-110552999D01*
X219143709Y-110536330D01*
X219277625Y-110480861D01*
X219392621Y-110392621D01*
X219480861Y-110277625D01*
X219536330Y-110143709D01*
X219555250Y-110000000D01*
X219536330Y-109856291D01*
X219480861Y-109722375D01*
X219392621Y-109607379D01*
X219277625Y-109519139D01*
X219277624Y-109519138D01*
X219277622Y-109519137D01*
X219143712Y-109463671D01*
X219143710Y-109463670D01*
X219143709Y-109463670D01*
X219071854Y-109454210D01*
X219000001Y-109444750D01*
X218999999Y-109444750D01*
X218856291Y-109463670D01*
X218856287Y-109463671D01*
X218722377Y-109519137D01*
X218607379Y-109607379D01*
X218519137Y-109722377D01*
X218463671Y-109856287D01*
X218463670Y-109856291D01*
X218447001Y-109982896D01*
X218418734Y-110046792D01*
X218411743Y-110054390D01*
X216197927Y-112268207D01*
X216197923Y-112268213D01*
X216148226Y-112354290D01*
X216148224Y-112354294D01*
X216142757Y-112374698D01*
X216122500Y-112450299D01*
X216122500Y-125292272D01*
X216102815Y-125359311D01*
X216086181Y-125379953D01*
X212879954Y-128586181D01*
X212818631Y-128619666D01*
X212792273Y-128622500D01*
X208954419Y-128622500D01*
X208887380Y-128602815D01*
X208878947Y-128596886D01*
X208777625Y-128519139D01*
X208777624Y-128519138D01*
X208777622Y-128519137D01*
X208643712Y-128463671D01*
X208643710Y-128463670D01*
X208643709Y-128463670D01*
X208608901Y-128459087D01*
X208517103Y-128447001D01*
X208453206Y-128418734D01*
X208445608Y-128411743D01*
X208231792Y-128197927D01*
X208231790Y-128197925D01*
X208145710Y-128148226D01*
X208049699Y-128122500D01*
X208049698Y-128122500D01*
X197954419Y-128122500D01*
X197887380Y-128102815D01*
X197878947Y-128096886D01*
X197777625Y-128019139D01*
X197777624Y-128019138D01*
X197777622Y-128019137D01*
X197643712Y-127963671D01*
X197643710Y-127963670D01*
X197643709Y-127963670D01*
X197571854Y-127954210D01*
X197500001Y-127944750D01*
X197499999Y-127944750D01*
X197356291Y-127963670D01*
X197356287Y-127963671D01*
X197222377Y-128019137D01*
X197107379Y-128107379D01*
X197019137Y-128222377D01*
X196963671Y-128356287D01*
X196963670Y-128356291D01*
X196951697Y-128447237D01*
X196944750Y-128500000D01*
X196963280Y-128640750D01*
X196963670Y-128643708D01*
X196963671Y-128643712D01*
X197019137Y-128777622D01*
X197019138Y-128777624D01*
X197019139Y-128777625D01*
X197107379Y-128892621D01*
X197222375Y-128980861D01*
X197222376Y-128980861D01*
X197222377Y-128980862D01*
X197263816Y-128998026D01*
X197356291Y-129036330D01*
X197483280Y-129053048D01*
X197499999Y-129055250D01*
X197500000Y-129055250D01*
X197500001Y-129055250D01*
X197514977Y-129053278D01*
X197643709Y-129036330D01*
X197777625Y-128980861D01*
X197878934Y-128903122D01*
X197944101Y-128877930D01*
X197954419Y-128877500D01*
X207792273Y-128877500D01*
X207859312Y-128897185D01*
X207879954Y-128913819D01*
X207911743Y-128945608D01*
X207945228Y-129006931D01*
X207947001Y-129017103D01*
X207963670Y-129143707D01*
X207963671Y-129143712D01*
X208019137Y-129277622D01*
X208019138Y-129277624D01*
X208019139Y-129277625D01*
X208107379Y-129392621D01*
X208113327Y-129397185D01*
X208152345Y-129427125D01*
X208193547Y-129483553D01*
X208197702Y-129553299D01*
X208163489Y-129614219D01*
X208101772Y-129646971D01*
X208076858Y-129649500D01*
X207953856Y-129649500D01*
X207864712Y-129673386D01*
X207864709Y-129673387D01*
X207784791Y-129719527D01*
X207784786Y-129719531D01*
X202891137Y-134613181D01*
X202829814Y-134646666D01*
X202803456Y-134649500D01*
X182486092Y-134649500D01*
X182419053Y-134629815D01*
X182399587Y-134611913D01*
X182398372Y-134613129D01*
X182392627Y-134607384D01*
X182392621Y-134607379D01*
X182277625Y-134519139D01*
X182277624Y-134519138D01*
X182277622Y-134519137D01*
X182143712Y-134463671D01*
X182143710Y-134463670D01*
X182143709Y-134463670D01*
X182071854Y-134454210D01*
X182000001Y-134444750D01*
X181999999Y-134444750D01*
X181856291Y-134463670D01*
X181856287Y-134463671D01*
X181722377Y-134519137D01*
X181607379Y-134607379D01*
X181519137Y-134722377D01*
X181463671Y-134856287D01*
X181463670Y-134856291D01*
X181444750Y-134999999D01*
X181444750Y-135000000D01*
X181463670Y-135143708D01*
X181463671Y-135143712D01*
X181519137Y-135277622D01*
X181519138Y-135277624D01*
X181519139Y-135277625D01*
X181607379Y-135392621D01*
X181616711Y-135399782D01*
X181619113Y-135401625D01*
X181660316Y-135458053D01*
X181664470Y-135527799D01*
X181630257Y-135588719D01*
X181619113Y-135598375D01*
X181607381Y-135607377D01*
X181607380Y-135607378D01*
X181607379Y-135607379D01*
X181590163Y-135629815D01*
X181519138Y-135722376D01*
X181501972Y-135763820D01*
X181458131Y-135818223D01*
X181391837Y-135840288D01*
X181324138Y-135823009D01*
X181299730Y-135804048D01*
X174695951Y-129200269D01*
X174662466Y-129138946D01*
X174667450Y-129069254D01*
X174709322Y-129013321D01*
X174736175Y-128998029D01*
X174777625Y-128980861D01*
X174892621Y-128892621D01*
X174892623Y-128892617D01*
X174892627Y-128892615D01*
X174898372Y-128886871D01*
X174900888Y-128889387D01*
X174944183Y-128857797D01*
X174986092Y-128850500D01*
X179513908Y-128850500D01*
X179580947Y-128870185D01*
X179600412Y-128888086D01*
X179601628Y-128886871D01*
X179607372Y-128892615D01*
X179607377Y-128892619D01*
X179607379Y-128892621D01*
X179722375Y-128980861D01*
X179722376Y-128980861D01*
X179722377Y-128980862D01*
X179763816Y-128998026D01*
X179856291Y-129036330D01*
X179983280Y-129053048D01*
X179999999Y-129055250D01*
X180000000Y-129055250D01*
X180000001Y-129055250D01*
X180014977Y-129053278D01*
X180143709Y-129036330D01*
X180277625Y-128980861D01*
X180392621Y-128892621D01*
X180480861Y-128777625D01*
X180536330Y-128643709D01*
X180555250Y-128500000D01*
X180536330Y-128356291D01*
X180480861Y-128222375D01*
X180392621Y-128107379D01*
X180277625Y-128019139D01*
X180277624Y-128019138D01*
X180277622Y-128019137D01*
X180143712Y-127963671D01*
X180143710Y-127963670D01*
X180143709Y-127963670D01*
X180105654Y-127958659D01*
X180076421Y-127954811D01*
X180012524Y-127926544D01*
X179974054Y-127868219D01*
X179973223Y-127798354D01*
X179978046Y-127784419D01*
X179980859Y-127777627D01*
X179980861Y-127777625D01*
X180036330Y-127643709D01*
X180055250Y-127500000D01*
X180036330Y-127356291D01*
X179984760Y-127231789D01*
X179980862Y-127222377D01*
X179980861Y-127222376D01*
X179980861Y-127222375D01*
X179892621Y-127107379D01*
X179882840Y-127099873D01*
X179841639Y-127043446D01*
X179837485Y-126973700D01*
X179871699Y-126912780D01*
X179933416Y-126880028D01*
X179958329Y-126877500D01*
X180045581Y-126877500D01*
X180112620Y-126897185D01*
X180121052Y-126903113D01*
X180222375Y-126980861D01*
X180356291Y-127036330D01*
X180483280Y-127053048D01*
X180499999Y-127055250D01*
X180500000Y-127055250D01*
X180500001Y-127055250D01*
X180514977Y-127053278D01*
X180643709Y-127036330D01*
X180777625Y-126980861D01*
X180892621Y-126892621D01*
X180980861Y-126777625D01*
X181036330Y-126643709D01*
X181055250Y-126500000D01*
X181036330Y-126356291D01*
X181036329Y-126356290D01*
X181035269Y-126348234D01*
X181037707Y-126347912D01*
X181039068Y-126290484D01*
X181078224Y-126232618D01*
X181142450Y-126205107D01*
X181211353Y-126216686D01*
X181244865Y-126240547D01*
X181908440Y-126904121D01*
X181941925Y-126965444D01*
X181943090Y-126991873D01*
X181944750Y-126991873D01*
X181944750Y-127000000D01*
X181963670Y-127143708D01*
X181963671Y-127143712D01*
X182019137Y-127277622D01*
X182019138Y-127277624D01*
X182019139Y-127277625D01*
X182107379Y-127392621D01*
X182222375Y-127480861D01*
X182356291Y-127536330D01*
X182483280Y-127553048D01*
X182499999Y-127555250D01*
X182500000Y-127555250D01*
X182500001Y-127555250D01*
X182514977Y-127553278D01*
X182643709Y-127536330D01*
X182777625Y-127480861D01*
X182892621Y-127392621D01*
X182980861Y-127277625D01*
X183036330Y-127143709D01*
X183055250Y-127000000D01*
X183036330Y-126856291D01*
X182980861Y-126722375D01*
X182892621Y-126607379D01*
X182777625Y-126519139D01*
X182777624Y-126519138D01*
X182777622Y-126519137D01*
X182643712Y-126463671D01*
X182643710Y-126463670D01*
X182643709Y-126463670D01*
X182552638Y-126451680D01*
X182500001Y-126444750D01*
X182491873Y-126444750D01*
X182491873Y-126441277D01*
X182438413Y-126432677D01*
X182404121Y-126408440D01*
X181215213Y-125219531D01*
X181215208Y-125219527D01*
X181135291Y-125173387D01*
X181135287Y-125173385D01*
X181129926Y-125171949D01*
X181129926Y-125171948D01*
X181061476Y-125153608D01*
X181046144Y-125149500D01*
X181046143Y-125149500D01*
X175986092Y-125149500D01*
X175919053Y-125129815D01*
X175899587Y-125111913D01*
X175898372Y-125113129D01*
X175892623Y-125107380D01*
X175847655Y-125072875D01*
X175806453Y-125016447D01*
X175802298Y-124946701D01*
X175836511Y-124885781D01*
X175898228Y-124853029D01*
X175923142Y-124850500D01*
X177046142Y-124850500D01*
X177046144Y-124850500D01*
X177135288Y-124826614D01*
X177215212Y-124780470D01*
X183255136Y-118740545D01*
X183316457Y-118707062D01*
X183386149Y-118712046D01*
X183442082Y-118753918D01*
X183466499Y-118819382D01*
X183463758Y-118848105D01*
X183464731Y-118848234D01*
X183463670Y-118856290D01*
X183463670Y-118856291D01*
X183445538Y-118994015D01*
X183444750Y-119000000D01*
X183444750Y-119008128D01*
X183441456Y-119008128D01*
X183432192Y-119062588D01*
X183408439Y-119095877D01*
X181719531Y-120784786D01*
X181719529Y-120784788D01*
X181694554Y-120828049D01*
X181694552Y-120828051D01*
X181673388Y-120864706D01*
X181673387Y-120864709D01*
X181673386Y-120864711D01*
X181673386Y-120864712D01*
X181655501Y-120931461D01*
X181649500Y-120953856D01*
X181649500Y-123513908D01*
X181629815Y-123580947D01*
X181611913Y-123600412D01*
X181613129Y-123601628D01*
X181607384Y-123607372D01*
X181519137Y-123722377D01*
X181463671Y-123856287D01*
X181463670Y-123856291D01*
X181444750Y-123999999D01*
X181444750Y-124000000D01*
X181463670Y-124143708D01*
X181463671Y-124143712D01*
X181519137Y-124277622D01*
X181519138Y-124277624D01*
X181519139Y-124277625D01*
X181607379Y-124392621D01*
X181722375Y-124480861D01*
X181856291Y-124536330D01*
X181983280Y-124553048D01*
X181999999Y-124555250D01*
X182000000Y-124555250D01*
X182000001Y-124555250D01*
X182014977Y-124553278D01*
X182143709Y-124536330D01*
X182277625Y-124480861D01*
X182392621Y-124392621D01*
X182480861Y-124277625D01*
X182536330Y-124143709D01*
X182555250Y-124000000D01*
X182536330Y-123856291D01*
X182480861Y-123722375D01*
X182392621Y-123607379D01*
X182392619Y-123607377D01*
X182392615Y-123607372D01*
X182386871Y-123601628D01*
X182389387Y-123599111D01*
X182357797Y-123555817D01*
X182350500Y-123513908D01*
X182350500Y-122523690D01*
X182370185Y-122456651D01*
X182422989Y-122410896D01*
X182492147Y-122400952D01*
X182549985Y-122425314D01*
X182582699Y-122450416D01*
X182622373Y-122480860D01*
X182622374Y-122480860D01*
X182622375Y-122480861D01*
X182756291Y-122536330D01*
X182883280Y-122553048D01*
X182899999Y-122555250D01*
X182900000Y-122555250D01*
X182900001Y-122555250D01*
X182914977Y-122553278D01*
X183043709Y-122536330D01*
X183177625Y-122480861D01*
X183292621Y-122392621D01*
X183380861Y-122277625D01*
X183436330Y-122143709D01*
X183455250Y-122000000D01*
X183455250Y-121999999D01*
X183455250Y-121991871D01*
X183459013Y-121991871D01*
X183466492Y-121940188D01*
X183491556Y-121904123D01*
X184395680Y-120999999D01*
X186444750Y-120999999D01*
X186444750Y-121000000D01*
X186463670Y-121143708D01*
X186463671Y-121143712D01*
X186519137Y-121277622D01*
X186519138Y-121277624D01*
X186519139Y-121277625D01*
X186607379Y-121392621D01*
X186722375Y-121480861D01*
X186856291Y-121536330D01*
X186983280Y-121553048D01*
X186999999Y-121555250D01*
X187000000Y-121555250D01*
X187000001Y-121555250D01*
X187014977Y-121553278D01*
X187143709Y-121536330D01*
X187277625Y-121480861D01*
X187392621Y-121392621D01*
X187480861Y-121277625D01*
X187536330Y-121143709D01*
X187555250Y-121000000D01*
X187555250Y-120999999D01*
X187555250Y-120991871D01*
X187559049Y-120991871D01*
X187566388Y-120940418D01*
X187591556Y-120904124D01*
X189280470Y-119215212D01*
X189326614Y-119135288D01*
X189329287Y-119125309D01*
X189329290Y-119125305D01*
X189329289Y-119125305D01*
X189344535Y-119068404D01*
X189350500Y-119046144D01*
X189350500Y-117999999D01*
X210444750Y-117999999D01*
X210444750Y-118000000D01*
X210463670Y-118143708D01*
X210463671Y-118143712D01*
X210519137Y-118277622D01*
X210519138Y-118277624D01*
X210519139Y-118277625D01*
X210607379Y-118392621D01*
X210722375Y-118480861D01*
X210856291Y-118536330D01*
X210982896Y-118552998D01*
X211046792Y-118581265D01*
X211054391Y-118588256D01*
X212586181Y-120120046D01*
X212619666Y-120181369D01*
X212622500Y-120207727D01*
X212622500Y-122045580D01*
X212602815Y-122112619D01*
X212596876Y-122121066D01*
X212519139Y-122222374D01*
X212519138Y-122222376D01*
X212463671Y-122356287D01*
X212463670Y-122356291D01*
X212444750Y-122499999D01*
X212444750Y-122500000D01*
X212463670Y-122643708D01*
X212463671Y-122643712D01*
X212519137Y-122777622D01*
X212519138Y-122777624D01*
X212519139Y-122777625D01*
X212607379Y-122892621D01*
X212722375Y-122980861D01*
X212856291Y-123036330D01*
X212983280Y-123053048D01*
X212999999Y-123055250D01*
X213000000Y-123055250D01*
X213000001Y-123055250D01*
X213014977Y-123053278D01*
X213143709Y-123036330D01*
X213277625Y-122980861D01*
X213392621Y-122892621D01*
X213480861Y-122777625D01*
X213536330Y-122643709D01*
X213555250Y-122500000D01*
X213536330Y-122356291D01*
X213480861Y-122222375D01*
X213457454Y-122191871D01*
X213403124Y-122121066D01*
X213377930Y-122055897D01*
X213377500Y-122045580D01*
X213377500Y-119950303D01*
X213377500Y-119950301D01*
X213351774Y-119854291D01*
X213351774Y-119854290D01*
X213302075Y-119768210D01*
X211588256Y-118054391D01*
X211554771Y-117993068D01*
X211552998Y-117982896D01*
X211536330Y-117856291D01*
X211480861Y-117722375D01*
X211392621Y-117607379D01*
X211277625Y-117519139D01*
X211277624Y-117519138D01*
X211277622Y-117519137D01*
X211143712Y-117463671D01*
X211143710Y-117463670D01*
X211143709Y-117463670D01*
X211071854Y-117454210D01*
X211000001Y-117444750D01*
X210999999Y-117444750D01*
X210856291Y-117463670D01*
X210856287Y-117463671D01*
X210722377Y-117519137D01*
X210607379Y-117607379D01*
X210519137Y-117722377D01*
X210463671Y-117856287D01*
X210463670Y-117856291D01*
X210444750Y-117999999D01*
X189350500Y-117999999D01*
X189350500Y-109986092D01*
X189370185Y-109919053D01*
X189388114Y-109899609D01*
X189386874Y-109898369D01*
X189392619Y-109892623D01*
X189420501Y-109856287D01*
X189480861Y-109777625D01*
X189536330Y-109643709D01*
X189555250Y-109500000D01*
X189536330Y-109356291D01*
X189480861Y-109222375D01*
X189392621Y-109107379D01*
X189277625Y-109019139D01*
X189277624Y-109019138D01*
X189277622Y-109019137D01*
X189143712Y-108963671D01*
X189143710Y-108963670D01*
X189143709Y-108963670D01*
X189071854Y-108954210D01*
X189000001Y-108944750D01*
X188999999Y-108944750D01*
X188856291Y-108963670D01*
X188856287Y-108963671D01*
X188722377Y-109019137D01*
X188607379Y-109107379D01*
X188519137Y-109222377D01*
X188463671Y-109356287D01*
X188463670Y-109356291D01*
X188444750Y-109499999D01*
X188444750Y-109500000D01*
X188463670Y-109643708D01*
X188463671Y-109643712D01*
X188519138Y-109777623D01*
X188519139Y-109777625D01*
X188607380Y-109892623D01*
X188613126Y-109898369D01*
X188610574Y-109900920D01*
X188642091Y-109943873D01*
X188649500Y-109986092D01*
X188649500Y-118803455D01*
X188629815Y-118870494D01*
X188613181Y-118891136D01*
X187095877Y-120408439D01*
X187034554Y-120441924D01*
X187008128Y-120443208D01*
X187008128Y-120444750D01*
X187000000Y-120444750D01*
X186856291Y-120463670D01*
X186856287Y-120463671D01*
X186722377Y-120519137D01*
X186607379Y-120607379D01*
X186519137Y-120722377D01*
X186463671Y-120856287D01*
X186463670Y-120856291D01*
X186444750Y-120999999D01*
X184395680Y-120999999D01*
X186971460Y-118424220D01*
X187032781Y-118390737D01*
X187102473Y-118395721D01*
X187134623Y-118413526D01*
X187145342Y-118421751D01*
X187222373Y-118480860D01*
X187222374Y-118480860D01*
X187222375Y-118480861D01*
X187356291Y-118536330D01*
X187481102Y-118552762D01*
X187499999Y-118555250D01*
X187500000Y-118555250D01*
X187500001Y-118555250D01*
X187518898Y-118552762D01*
X187643709Y-118536330D01*
X187777625Y-118480861D01*
X187892621Y-118392621D01*
X187980861Y-118277625D01*
X188036330Y-118143709D01*
X188055250Y-118000000D01*
X188036330Y-117856291D01*
X187980861Y-117722375D01*
X187892621Y-117607379D01*
X187777625Y-117519139D01*
X187777624Y-117519138D01*
X187777622Y-117519137D01*
X187643712Y-117463671D01*
X187643710Y-117463670D01*
X187643709Y-117463670D01*
X187571854Y-117454210D01*
X187500001Y-117444750D01*
X187499999Y-117444750D01*
X187356291Y-117463670D01*
X187356287Y-117463671D01*
X187222377Y-117519137D01*
X187107372Y-117607384D01*
X187101628Y-117613129D01*
X187099111Y-117610612D01*
X187055817Y-117642203D01*
X187013908Y-117649500D01*
X186853856Y-117649500D01*
X186770073Y-117671948D01*
X186770074Y-117671949D01*
X186764715Y-117673385D01*
X186764712Y-117673386D01*
X186684791Y-117719528D01*
X186684785Y-117719533D01*
X182995877Y-121408440D01*
X182934554Y-121441925D01*
X182908127Y-121443042D01*
X182908127Y-121444750D01*
X182899999Y-121444750D01*
X182756291Y-121463670D01*
X182756287Y-121463671D01*
X182622376Y-121519138D01*
X182622374Y-121519139D01*
X182549986Y-121574685D01*
X182484817Y-121599879D01*
X182416372Y-121585841D01*
X182366383Y-121537027D01*
X182350500Y-121476309D01*
X182350500Y-121196543D01*
X182370185Y-121129504D01*
X182386814Y-121108867D01*
X183904123Y-119591557D01*
X183965444Y-119558074D01*
X183991871Y-119557144D01*
X183991871Y-119555250D01*
X184000000Y-119555250D01*
X184143709Y-119536330D01*
X184277625Y-119480861D01*
X184392621Y-119392621D01*
X184480861Y-119277625D01*
X184536330Y-119143709D01*
X184555250Y-119000000D01*
X184536330Y-118856291D01*
X184480861Y-118722375D01*
X184392621Y-118607379D01*
X184277625Y-118519139D01*
X184277624Y-118519138D01*
X184277622Y-118519137D01*
X184143712Y-118463671D01*
X184143710Y-118463670D01*
X184143709Y-118463670D01*
X184071854Y-118454210D01*
X184000001Y-118444750D01*
X183999999Y-118444750D01*
X183948474Y-118451533D01*
X183856291Y-118463670D01*
X183856290Y-118463670D01*
X183848234Y-118464731D01*
X183847913Y-118462297D01*
X183790455Y-118460922D01*
X183732598Y-118421751D01*
X183705103Y-118357519D01*
X183716699Y-118288618D01*
X183740544Y-118255137D01*
X185280469Y-116715213D01*
X185326614Y-116635288D01*
X185339105Y-116588670D01*
X185350500Y-116546144D01*
X185350500Y-108423141D01*
X185370185Y-108356102D01*
X185422989Y-108310347D01*
X185492147Y-108300403D01*
X185555703Y-108329428D01*
X185572871Y-108347650D01*
X185578372Y-108354818D01*
X185606239Y-108391136D01*
X185607379Y-108392621D01*
X185722375Y-108480861D01*
X185856291Y-108536330D01*
X185983280Y-108553048D01*
X185999999Y-108555250D01*
X186000000Y-108555250D01*
X186000001Y-108555250D01*
X186014977Y-108553278D01*
X186143709Y-108536330D01*
X186277625Y-108480861D01*
X186392621Y-108392621D01*
X186480861Y-108277625D01*
X186536330Y-108143709D01*
X186555250Y-108000000D01*
X186536330Y-107856291D01*
X186509937Y-107792572D01*
X186500500Y-107745124D01*
X186500500Y-102000000D01*
X203944750Y-102000000D01*
X203961249Y-102125323D01*
X203963670Y-102143708D01*
X203963671Y-102143712D01*
X204019137Y-102277622D01*
X204019138Y-102277624D01*
X204019139Y-102277625D01*
X204107379Y-102392621D01*
X204222375Y-102480861D01*
X204356291Y-102536330D01*
X204482896Y-102552998D01*
X204546792Y-102581265D01*
X204554390Y-102588255D01*
X207768209Y-105802075D01*
X207810713Y-105826614D01*
X207854291Y-105851774D01*
X207950301Y-105877500D01*
X218292273Y-105877500D01*
X218359312Y-105897185D01*
X218379954Y-105913819D01*
X219911743Y-107445608D01*
X219945228Y-107506931D01*
X219947001Y-107517103D01*
X219963670Y-107643707D01*
X219963671Y-107643712D01*
X220019137Y-107777622D01*
X220019138Y-107777624D01*
X220019139Y-107777625D01*
X220107379Y-107892621D01*
X220222375Y-107980861D01*
X220356291Y-108036330D01*
X220483280Y-108053048D01*
X220499999Y-108055250D01*
X220500000Y-108055250D01*
X220500001Y-108055250D01*
X220514977Y-108053278D01*
X220643709Y-108036330D01*
X220777625Y-107980861D01*
X220892621Y-107892621D01*
X220900125Y-107882841D01*
X220956550Y-107841639D01*
X221026296Y-107837484D01*
X221087217Y-107871695D01*
X221119971Y-107933412D01*
X221122500Y-107958328D01*
X221122500Y-112045580D01*
X221102815Y-112112619D01*
X221096876Y-112121066D01*
X221019139Y-112222374D01*
X221019138Y-112222376D01*
X220963671Y-112356287D01*
X220963670Y-112356291D01*
X220944750Y-112500000D01*
X220963670Y-112643709D01*
X221019139Y-112777625D01*
X221096875Y-112878933D01*
X221122070Y-112944100D01*
X221122500Y-112954418D01*
X221122500Y-117292272D01*
X221102815Y-117359311D01*
X221086181Y-117379953D01*
X218554390Y-119911743D01*
X218493067Y-119945228D01*
X218482896Y-119947001D01*
X218356291Y-119963670D01*
X218356287Y-119963671D01*
X218222377Y-120019137D01*
X218107379Y-120107379D01*
X218019137Y-120222377D01*
X217963671Y-120356287D01*
X217963670Y-120356291D01*
X217947270Y-120480862D01*
X217944750Y-120500000D01*
X217958357Y-120603357D01*
X217963670Y-120643708D01*
X217963671Y-120643712D01*
X218019137Y-120777622D01*
X218019138Y-120777624D01*
X218019139Y-120777625D01*
X218107379Y-120892621D01*
X218222375Y-120980861D01*
X218222376Y-120980861D01*
X218222377Y-120980862D01*
X218237027Y-120986930D01*
X218356291Y-121036330D01*
X218483280Y-121053048D01*
X218499999Y-121055250D01*
X218500000Y-121055250D01*
X218500001Y-121055250D01*
X218514977Y-121053278D01*
X218643709Y-121036330D01*
X218777625Y-120980861D01*
X218892621Y-120892621D01*
X218980861Y-120777625D01*
X219036330Y-120643709D01*
X219052998Y-120517102D01*
X219081264Y-120453206D01*
X219088244Y-120445619D01*
X221802076Y-117731790D01*
X221851774Y-117645710D01*
X221877500Y-117549699D01*
X221877500Y-117450301D01*
X221877500Y-112954418D01*
X221897185Y-112887379D01*
X221903116Y-112878942D01*
X221980861Y-112777625D01*
X222036330Y-112643709D01*
X222055250Y-112500000D01*
X222036330Y-112356291D01*
X221980861Y-112222375D01*
X221957454Y-112191871D01*
X221903124Y-112121066D01*
X221877930Y-112055897D01*
X221877500Y-112045580D01*
X221877500Y-106954418D01*
X221897185Y-106887379D01*
X221903116Y-106878942D01*
X221980861Y-106777625D01*
X222036330Y-106643709D01*
X222055250Y-106500000D01*
X222036330Y-106356291D01*
X221980861Y-106222375D01*
X221892621Y-106107379D01*
X221777625Y-106019139D01*
X221777624Y-106019138D01*
X221777622Y-106019137D01*
X221643712Y-105963671D01*
X221643710Y-105963670D01*
X221643709Y-105963670D01*
X221571854Y-105954210D01*
X221500001Y-105944750D01*
X221499999Y-105944750D01*
X221356291Y-105963670D01*
X221356287Y-105963671D01*
X221222377Y-106019137D01*
X221107379Y-106107379D01*
X221019137Y-106222377D01*
X220963671Y-106356287D01*
X220963670Y-106356291D01*
X220947270Y-106480862D01*
X220944750Y-106500000D01*
X220963670Y-106643709D01*
X221019139Y-106777625D01*
X221096875Y-106878933D01*
X221122070Y-106944100D01*
X221122500Y-106954418D01*
X221122500Y-107041671D01*
X221102815Y-107108710D01*
X221050011Y-107154465D01*
X220980853Y-107164409D01*
X220917297Y-107135384D01*
X220900125Y-107117159D01*
X220893642Y-107108710D01*
X220892621Y-107107379D01*
X220777625Y-107019139D01*
X220777624Y-107019138D01*
X220777622Y-107019137D01*
X220643712Y-106963671D01*
X220643710Y-106963670D01*
X220643709Y-106963670D01*
X220608901Y-106959087D01*
X220517103Y-106947001D01*
X220453206Y-106918734D01*
X220445608Y-106911743D01*
X218731792Y-105197927D01*
X218731790Y-105197925D01*
X218645710Y-105148226D01*
X218549699Y-105122500D01*
X218549698Y-105122500D01*
X208207728Y-105122500D01*
X208140689Y-105102815D01*
X208120047Y-105086181D01*
X205088256Y-102054391D01*
X205054771Y-101993068D01*
X205052998Y-101982896D01*
X205047976Y-101944750D01*
X205036330Y-101856291D01*
X204980861Y-101722375D01*
X204892621Y-101607379D01*
X204777625Y-101519139D01*
X204777624Y-101519138D01*
X204777622Y-101519137D01*
X204643712Y-101463671D01*
X204643710Y-101463670D01*
X204643709Y-101463670D01*
X204569166Y-101453856D01*
X204500001Y-101444750D01*
X204499999Y-101444750D01*
X204356291Y-101463670D01*
X204356287Y-101463671D01*
X204222377Y-101519137D01*
X204107379Y-101607379D01*
X204019137Y-101722377D01*
X203963671Y-101856287D01*
X203963670Y-101856291D01*
X203954742Y-101924108D01*
X203944750Y-102000000D01*
X186500500Y-102000000D01*
X186500500Y-101754875D01*
X186509939Y-101707422D01*
X186536330Y-101643709D01*
X186555250Y-101500000D01*
X186536330Y-101356291D01*
X186480861Y-101222375D01*
X186392621Y-101107379D01*
X186277625Y-101019139D01*
X186277624Y-101019138D01*
X186277622Y-101019137D01*
X186143712Y-100963671D01*
X186143710Y-100963670D01*
X186143709Y-100963670D01*
X186071854Y-100954210D01*
X186000001Y-100944750D01*
X185999999Y-100944750D01*
X185856291Y-100963670D01*
X185856287Y-100963671D01*
X185722377Y-101019137D01*
X185607379Y-101107379D01*
X185519137Y-101222377D01*
X185463671Y-101356287D01*
X185463670Y-101356291D01*
X185444750Y-101500000D01*
X185463670Y-101643709D01*
X185485554Y-101696543D01*
X185490061Y-101707422D01*
X185499500Y-101754875D01*
X185499500Y-103437942D01*
X185479815Y-103504981D01*
X185427011Y-103550736D01*
X185357853Y-103560680D01*
X185300015Y-103536319D01*
X185277624Y-103519138D01*
X185143712Y-103463671D01*
X185143710Y-103463670D01*
X185143709Y-103463670D01*
X185069166Y-103453856D01*
X185000001Y-103444750D01*
X184999999Y-103444750D01*
X184856291Y-103463670D01*
X184856287Y-103463671D01*
X184722377Y-103519137D01*
X184607379Y-103607379D01*
X184519137Y-103722377D01*
X184463671Y-103856287D01*
X184463670Y-103856291D01*
X184444750Y-103999999D01*
X184444750Y-104000000D01*
X184463670Y-104143708D01*
X184463671Y-104143712D01*
X184519138Y-104277623D01*
X184519139Y-104277625D01*
X184607380Y-104392623D01*
X184613126Y-104398369D01*
X184610574Y-104400920D01*
X184642091Y-104443873D01*
X184649500Y-104486092D01*
X184649500Y-116303456D01*
X184629815Y-116370495D01*
X184613181Y-116391137D01*
X184397181Y-116607137D01*
X184335858Y-116640622D01*
X184266166Y-116635638D01*
X184210233Y-116593766D01*
X184185816Y-116528302D01*
X184185500Y-116519456D01*
X184185500Y-110954036D01*
X184205185Y-110886997D01*
X184223114Y-110867553D01*
X184221874Y-110866313D01*
X184227619Y-110860567D01*
X184227621Y-110860565D01*
X184315861Y-110745569D01*
X184371330Y-110611653D01*
X184390250Y-110467944D01*
X184371330Y-110324235D01*
X184315861Y-110190319D01*
X184227621Y-110075323D01*
X184112625Y-109987083D01*
X184112624Y-109987082D01*
X184112622Y-109987081D01*
X183978712Y-109931615D01*
X183978710Y-109931614D01*
X183978709Y-109931614D01*
X183883301Y-109919053D01*
X183835001Y-109912694D01*
X183834999Y-109912694D01*
X183691291Y-109931614D01*
X183691287Y-109931615D01*
X183557377Y-109987081D01*
X183442379Y-110075323D01*
X183354137Y-110190321D01*
X183298671Y-110324231D01*
X183298670Y-110324235D01*
X183279750Y-110467943D01*
X183279750Y-110467944D01*
X183298670Y-110611652D01*
X183298671Y-110611656D01*
X183354138Y-110745567D01*
X183354139Y-110745569D01*
X183442380Y-110860567D01*
X183448126Y-110866313D01*
X183445574Y-110868864D01*
X183477091Y-110911817D01*
X183484500Y-110954036D01*
X183484500Y-116468456D01*
X183464815Y-116535495D01*
X183448181Y-116556137D01*
X180744865Y-119259452D01*
X180683542Y-119292937D01*
X180613850Y-119287953D01*
X180557917Y-119246081D01*
X180533500Y-119180617D01*
X180536245Y-119151894D01*
X180535269Y-119151766D01*
X180537439Y-119135289D01*
X180555250Y-119000000D01*
X180536330Y-118856291D01*
X180480861Y-118722375D01*
X180392621Y-118607379D01*
X180380886Y-118598374D01*
X180339685Y-118541950D01*
X180335529Y-118472204D01*
X180369740Y-118411283D01*
X180380876Y-118401632D01*
X180392621Y-118392621D01*
X180480861Y-118277625D01*
X180536330Y-118143709D01*
X180555250Y-118000000D01*
X180536330Y-117856291D01*
X180480861Y-117722375D01*
X180392621Y-117607379D01*
X180277625Y-117519139D01*
X180277624Y-117519138D01*
X180277622Y-117519137D01*
X180143712Y-117463671D01*
X180143710Y-117463670D01*
X180143709Y-117463670D01*
X180071854Y-117454210D01*
X180000001Y-117444750D01*
X179999999Y-117444750D01*
X179856291Y-117463670D01*
X179856287Y-117463671D01*
X179722377Y-117519137D01*
X179607372Y-117607384D01*
X179601628Y-117613129D01*
X179599111Y-117610612D01*
X179555817Y-117642203D01*
X179513908Y-117649500D01*
X174167874Y-117649500D01*
X174100835Y-117629815D01*
X174055080Y-117577011D01*
X174045136Y-117507853D01*
X174069497Y-117450015D01*
X174105861Y-117402625D01*
X174161330Y-117268709D01*
X174180250Y-117125000D01*
X174180250Y-117124999D01*
X174180250Y-117116871D01*
X174184049Y-117116871D01*
X174191388Y-117065418D01*
X174216556Y-117029124D01*
X182280470Y-108965212D01*
X182326614Y-108885288D01*
X182341951Y-108828050D01*
X182350500Y-108796144D01*
X182350500Y-105986092D01*
X182370185Y-105919053D01*
X182388114Y-105899609D01*
X182386874Y-105898369D01*
X182392619Y-105892623D01*
X182392621Y-105892621D01*
X182480861Y-105777625D01*
X182536330Y-105643709D01*
X182555250Y-105500000D01*
X182536330Y-105356291D01*
X182480861Y-105222375D01*
X182392621Y-105107379D01*
X182277625Y-105019139D01*
X182277624Y-105019138D01*
X182277622Y-105019137D01*
X182143712Y-104963671D01*
X182143710Y-104963670D01*
X182143709Y-104963670D01*
X182052638Y-104951680D01*
X182000001Y-104944750D01*
X181991873Y-104944750D01*
X181991873Y-104941243D01*
X181938613Y-104932772D01*
X181904122Y-104908440D01*
X181786819Y-104791137D01*
X181753334Y-104729814D01*
X181750500Y-104703456D01*
X181750500Y-102321015D01*
X181750500Y-102321013D01*
X181726614Y-102231869D01*
X181719490Y-102219530D01*
X181680473Y-102151951D01*
X181680470Y-102151948D01*
X181680469Y-102151945D01*
X181615212Y-102086688D01*
X181511420Y-101982896D01*
X181386819Y-101858294D01*
X181353334Y-101796971D01*
X181350500Y-101770613D01*
X181350500Y-98750000D01*
X185194750Y-98750000D01*
X185211164Y-98874678D01*
X185213670Y-98893708D01*
X185213671Y-98893712D01*
X185269137Y-99027622D01*
X185269138Y-99027624D01*
X185269139Y-99027625D01*
X185357379Y-99142621D01*
X185472375Y-99230861D01*
X185606291Y-99286330D01*
X185733280Y-99303048D01*
X185749999Y-99305250D01*
X185750000Y-99305250D01*
X185750001Y-99305250D01*
X185764977Y-99303278D01*
X185893709Y-99286330D01*
X186027625Y-99230861D01*
X186142621Y-99142621D01*
X186230861Y-99027625D01*
X186257252Y-98963907D01*
X186284129Y-98923683D01*
X186670995Y-98536819D01*
X186732318Y-98503334D01*
X186758676Y-98500500D01*
X206745124Y-98500500D01*
X206792572Y-98509937D01*
X206856291Y-98536330D01*
X206952097Y-98548943D01*
X206999999Y-98555250D01*
X207000000Y-98555250D01*
X207000001Y-98555250D01*
X207014977Y-98553278D01*
X207143709Y-98536330D01*
X207277625Y-98480861D01*
X207392621Y-98392621D01*
X207480861Y-98277625D01*
X207480863Y-98277619D01*
X207480864Y-98277619D01*
X207520613Y-98181653D01*
X207536330Y-98143709D01*
X207555250Y-98000000D01*
X207536330Y-97856291D01*
X207480861Y-97722375D01*
X207392621Y-97607379D01*
X207277625Y-97519139D01*
X207277624Y-97519138D01*
X207277622Y-97519137D01*
X207143712Y-97463671D01*
X207143710Y-97463670D01*
X207143709Y-97463670D01*
X207071854Y-97454210D01*
X207000001Y-97444750D01*
X206999999Y-97444750D01*
X206856293Y-97463669D01*
X206839912Y-97470453D01*
X206792572Y-97490062D01*
X206745124Y-97499500D01*
X186434107Y-97499500D01*
X186306812Y-97533608D01*
X186192686Y-97599500D01*
X186192683Y-97599502D01*
X185576317Y-98215867D01*
X185536089Y-98242747D01*
X185472378Y-98269137D01*
X185472375Y-98269138D01*
X185472375Y-98269139D01*
X185461316Y-98277625D01*
X185357379Y-98357379D01*
X185269137Y-98472377D01*
X185213671Y-98606287D01*
X185213670Y-98606291D01*
X185207078Y-98656365D01*
X185194750Y-98750000D01*
X181350500Y-98750000D01*
X181350500Y-98081542D01*
X181370185Y-98014503D01*
X181386814Y-97993865D01*
X182404122Y-96976557D01*
X182465443Y-96943074D01*
X182491871Y-96942117D01*
X182491871Y-96940250D01*
X182500000Y-96940250D01*
X182643709Y-96921330D01*
X182777625Y-96865861D01*
X182873874Y-96792005D01*
X182939043Y-96766811D01*
X183007488Y-96780849D01*
X183047736Y-96814894D01*
X183079499Y-96856287D01*
X183107379Y-96892621D01*
X183222375Y-96980861D01*
X183356291Y-97036330D01*
X183480153Y-97052637D01*
X183499999Y-97055250D01*
X183500000Y-97055250D01*
X183500001Y-97055250D01*
X183519847Y-97052637D01*
X183643709Y-97036330D01*
X183777625Y-96980861D01*
X183892621Y-96892621D01*
X183980861Y-96777625D01*
X184036330Y-96643709D01*
X184055250Y-96500000D01*
X184055250Y-96499999D01*
X184055250Y-96491871D01*
X184059049Y-96491871D01*
X184066388Y-96440418D01*
X184091556Y-96404124D01*
X184780470Y-95715212D01*
X184780470Y-95715211D01*
X188608862Y-91886819D01*
X188670185Y-91853334D01*
X188696543Y-91850500D01*
X195513908Y-91850500D01*
X195580947Y-91870185D01*
X195600412Y-91888086D01*
X195601628Y-91886871D01*
X195607372Y-91892615D01*
X195607377Y-91892619D01*
X195607379Y-91892621D01*
X195722375Y-91980861D01*
X195722376Y-91980861D01*
X195722377Y-91980862D01*
X195767013Y-91999350D01*
X195856291Y-92036330D01*
X195983280Y-92053048D01*
X195999999Y-92055250D01*
X196000000Y-92055250D01*
X196000001Y-92055250D01*
X196014977Y-92053278D01*
X196143709Y-92036330D01*
X196277625Y-91980861D01*
X196392621Y-91892621D01*
X196480861Y-91777625D01*
X196536330Y-91643709D01*
X196555250Y-91500000D01*
X196536330Y-91356291D01*
X196480861Y-91222375D01*
X196392621Y-91107379D01*
X196277625Y-91019139D01*
X196277624Y-91019138D01*
X196277622Y-91019137D01*
X196143712Y-90963671D01*
X196143710Y-90963670D01*
X196143709Y-90963670D01*
X196071854Y-90954210D01*
X196000001Y-90944750D01*
X195999999Y-90944750D01*
X195856291Y-90963670D01*
X195856287Y-90963671D01*
X195722377Y-91019137D01*
X195607372Y-91107384D01*
X195601628Y-91113129D01*
X195599111Y-91110612D01*
X195555817Y-91142203D01*
X195513908Y-91149500D01*
X188453856Y-91149500D01*
X188370073Y-91171948D01*
X188370074Y-91171949D01*
X188364715Y-91173385D01*
X188364712Y-91173386D01*
X188284791Y-91219528D01*
X188284785Y-91219533D01*
X184391137Y-95113181D01*
X184329814Y-95146666D01*
X184303456Y-95149500D01*
X181490327Y-95149500D01*
X181401183Y-95173386D01*
X181401180Y-95173387D01*
X181321262Y-95219527D01*
X181321257Y-95219531D01*
X178719531Y-97821257D01*
X178719527Y-97821262D01*
X178673387Y-97901180D01*
X178673386Y-97901183D01*
X178649500Y-97990327D01*
X178649500Y-99013908D01*
X178629815Y-99080947D01*
X178611913Y-99100412D01*
X178613129Y-99101628D01*
X178607384Y-99107372D01*
X178519137Y-99222377D01*
X178463671Y-99356287D01*
X178463670Y-99356291D01*
X178444750Y-99500000D01*
X178444750Y-99508128D01*
X178441456Y-99508128D01*
X178432192Y-99562588D01*
X178408440Y-99595877D01*
X178219529Y-99784789D01*
X178195383Y-99826613D01*
X178195381Y-99826615D01*
X178173388Y-99864706D01*
X178173387Y-99864709D01*
X178149500Y-99953856D01*
X178149500Y-108013908D01*
X178129815Y-108080947D01*
X178111913Y-108100412D01*
X178113129Y-108101628D01*
X178107384Y-108107372D01*
X178019137Y-108222377D01*
X177963671Y-108356287D01*
X177963670Y-108356291D01*
X177944750Y-108499999D01*
X177944750Y-108500000D01*
X177963670Y-108643708D01*
X177963671Y-108643712D01*
X178019137Y-108777622D01*
X178019138Y-108777623D01*
X178019139Y-108777625D01*
X178107379Y-108892621D01*
X178222375Y-108980861D01*
X178356291Y-109036330D01*
X178483280Y-109053048D01*
X178499999Y-109055250D01*
X178500000Y-109055250D01*
X178500001Y-109055250D01*
X178514977Y-109053278D01*
X178643709Y-109036330D01*
X178777625Y-108980861D01*
X178892621Y-108892621D01*
X178980861Y-108777625D01*
X179036330Y-108643709D01*
X179055250Y-108500000D01*
X179036330Y-108356291D01*
X178980861Y-108222375D01*
X178892621Y-108107379D01*
X178892619Y-108107377D01*
X178892615Y-108107372D01*
X178886871Y-108101628D01*
X178889387Y-108099111D01*
X178857797Y-108055817D01*
X178850500Y-108013908D01*
X178850500Y-104645544D01*
X178870185Y-104578505D01*
X178922989Y-104532750D01*
X178992147Y-104522806D01*
X179055703Y-104551831D01*
X179062181Y-104557863D01*
X179284788Y-104780470D01*
X179364712Y-104826614D01*
X179453856Y-104850500D01*
X179453857Y-104850500D01*
X179546144Y-104850500D01*
X179913908Y-104850500D01*
X179980947Y-104870185D01*
X180000412Y-104888086D01*
X180001628Y-104886871D01*
X180007372Y-104892615D01*
X180007377Y-104892619D01*
X180007379Y-104892621D01*
X180122375Y-104980861D01*
X180122376Y-104980861D01*
X180122377Y-104980862D01*
X180167013Y-104999350D01*
X180256291Y-105036330D01*
X180372451Y-105051623D01*
X180399999Y-105055250D01*
X180400000Y-105055250D01*
X180400001Y-105055250D01*
X180435679Y-105050552D01*
X180509314Y-105040858D01*
X180578349Y-105051623D01*
X180630605Y-105098003D01*
X180649500Y-105163797D01*
X180649500Y-105613908D01*
X180629815Y-105680947D01*
X180611913Y-105700412D01*
X180613129Y-105701628D01*
X180607384Y-105707372D01*
X180519137Y-105822377D01*
X180463671Y-105956287D01*
X180463670Y-105956291D01*
X180444750Y-106099999D01*
X180444750Y-106100000D01*
X180463670Y-106243708D01*
X180463671Y-106243712D01*
X180519138Y-106377623D01*
X180519139Y-106377625D01*
X180607380Y-106492623D01*
X180613126Y-106498369D01*
X180610574Y-106500920D01*
X180642091Y-106543873D01*
X180649500Y-106586092D01*
X180649500Y-108303455D01*
X180629815Y-108370494D01*
X180613181Y-108391136D01*
X173595877Y-115408439D01*
X173534554Y-115441924D01*
X173508128Y-115443208D01*
X173508128Y-115444750D01*
X173500000Y-115444750D01*
X173356291Y-115463670D01*
X173356287Y-115463671D01*
X173222377Y-115519137D01*
X173107379Y-115607379D01*
X173019137Y-115722377D01*
X172963671Y-115856287D01*
X172963670Y-115856291D01*
X172944750Y-115999999D01*
X172944750Y-116000000D01*
X172963670Y-116143708D01*
X172963671Y-116143712D01*
X173019137Y-116277622D01*
X173019138Y-116277624D01*
X173019139Y-116277625D01*
X173107379Y-116392621D01*
X173222375Y-116480861D01*
X173222376Y-116480861D01*
X173222377Y-116480862D01*
X173243318Y-116489536D01*
X173297722Y-116533376D01*
X173319787Y-116599670D01*
X173302508Y-116667370D01*
X173271354Y-116702472D01*
X173232377Y-116732380D01*
X173165256Y-116819854D01*
X173108828Y-116861057D01*
X173039082Y-116865211D01*
X172979200Y-116832048D01*
X167986819Y-111839666D01*
X167953334Y-111778343D01*
X167950500Y-111751985D01*
X167950500Y-106553858D01*
X167950500Y-106553856D01*
X167926614Y-106464712D01*
X167892423Y-106405492D01*
X167880470Y-106384788D01*
X167880468Y-106384786D01*
X167880467Y-106384784D01*
X167591560Y-106095877D01*
X167558075Y-106034554D01*
X167557009Y-106008129D01*
X167555250Y-106008129D01*
X167555250Y-106000000D01*
X167545368Y-105924941D01*
X167536330Y-105856291D01*
X167480861Y-105722375D01*
X167392621Y-105607379D01*
X167277625Y-105519139D01*
X167277624Y-105519138D01*
X167277622Y-105519137D01*
X167143712Y-105463671D01*
X167143710Y-105463670D01*
X167143709Y-105463670D01*
X167019840Y-105447362D01*
X167000001Y-105444750D01*
X166999999Y-105444750D01*
X166856291Y-105463670D01*
X166856287Y-105463671D01*
X166722377Y-105519137D01*
X166607379Y-105607379D01*
X166519137Y-105722377D01*
X166463671Y-105856287D01*
X166463670Y-105856291D01*
X166450505Y-105956291D01*
X166444750Y-106000000D01*
X166457915Y-106100000D01*
X166463670Y-106143708D01*
X166463671Y-106143712D01*
X166519137Y-106277622D01*
X166519138Y-106277624D01*
X166519139Y-106277625D01*
X166607379Y-106392621D01*
X166722375Y-106480861D01*
X166722376Y-106480861D01*
X166722377Y-106480862D01*
X166750771Y-106492623D01*
X166856291Y-106536330D01*
X167000000Y-106555250D01*
X167008129Y-106555250D01*
X167008129Y-106558828D01*
X167060970Y-106567031D01*
X167095878Y-106591560D01*
X167213181Y-106708863D01*
X167246666Y-106770186D01*
X167249500Y-106796544D01*
X167249500Y-107836202D01*
X167229815Y-107903241D01*
X167177011Y-107948996D01*
X167109315Y-107959141D01*
X167000002Y-107944750D01*
X166999999Y-107944750D01*
X166856291Y-107963670D01*
X166856287Y-107963671D01*
X166722377Y-108019137D01*
X166607379Y-108107379D01*
X166519137Y-108222377D01*
X166463671Y-108356287D01*
X166463670Y-108356291D01*
X166444750Y-108499999D01*
X166444750Y-108500000D01*
X166463670Y-108643708D01*
X166463671Y-108643712D01*
X166519138Y-108777623D01*
X166519139Y-108777625D01*
X166607380Y-108892623D01*
X166613126Y-108898369D01*
X166610574Y-108900920D01*
X166642091Y-108943873D01*
X166649500Y-108986092D01*
X166649500Y-112546143D01*
X166670711Y-112625305D01*
X166670711Y-112625306D01*
X166673385Y-112635286D01*
X166719527Y-112715208D01*
X166719529Y-112715211D01*
X166719530Y-112715212D01*
X173284788Y-119280470D01*
X173284789Y-119280471D01*
X173284791Y-119280472D01*
X173324750Y-119303542D01*
X173364712Y-119326614D01*
X173453856Y-119350500D01*
X178076858Y-119350500D01*
X178143897Y-119370185D01*
X178189652Y-119422989D01*
X178199596Y-119492147D01*
X178170571Y-119555703D01*
X178152345Y-119572875D01*
X178107381Y-119607377D01*
X178107380Y-119607378D01*
X178107379Y-119607379D01*
X178085964Y-119635288D01*
X178019137Y-119722377D01*
X177963671Y-119856287D01*
X177963670Y-119856291D01*
X177944750Y-120000000D01*
X177944750Y-120008128D01*
X177941456Y-120008128D01*
X177932192Y-120062588D01*
X177908439Y-120095877D01*
X176391137Y-121613181D01*
X176329814Y-121646666D01*
X176303456Y-121649500D01*
X173986092Y-121649500D01*
X173919053Y-121629815D01*
X173899587Y-121611913D01*
X173898372Y-121613129D01*
X173892627Y-121607384D01*
X173892621Y-121607379D01*
X173777625Y-121519139D01*
X173777624Y-121519138D01*
X173777622Y-121519137D01*
X173643712Y-121463671D01*
X173643710Y-121463670D01*
X173643709Y-121463670D01*
X173552638Y-121451680D01*
X173500001Y-121444750D01*
X173499999Y-121444750D01*
X173356291Y-121463670D01*
X173356287Y-121463671D01*
X173222377Y-121519137D01*
X173107379Y-121607379D01*
X173019137Y-121722377D01*
X172963671Y-121856287D01*
X172963670Y-121856291D01*
X172944750Y-121999999D01*
X172944750Y-122000000D01*
X172963670Y-122143708D01*
X172963671Y-122143712D01*
X173019137Y-122277622D01*
X173019138Y-122277624D01*
X173019139Y-122277625D01*
X173107379Y-122392621D01*
X173222375Y-122480861D01*
X173356291Y-122536330D01*
X173483280Y-122553048D01*
X173499999Y-122555250D01*
X173500000Y-122555250D01*
X173500001Y-122555250D01*
X173514977Y-122553278D01*
X173643709Y-122536330D01*
X173777625Y-122480861D01*
X173892621Y-122392621D01*
X173892623Y-122392617D01*
X173892627Y-122392615D01*
X173898372Y-122386871D01*
X173900888Y-122389387D01*
X173944183Y-122357797D01*
X173986092Y-122350500D01*
X176546142Y-122350500D01*
X176546144Y-122350500D01*
X176635288Y-122326614D01*
X176715212Y-122280470D01*
X178404123Y-120591557D01*
X178465444Y-120558074D01*
X178491871Y-120557144D01*
X178491871Y-120555250D01*
X178500000Y-120555250D01*
X178643709Y-120536330D01*
X178777625Y-120480861D01*
X178892621Y-120392621D01*
X178980861Y-120277625D01*
X179036330Y-120143709D01*
X179055250Y-120000000D01*
X179036330Y-119856291D01*
X178980861Y-119722375D01*
X178892621Y-119607379D01*
X178847655Y-119572875D01*
X178806453Y-119516447D01*
X178802298Y-119446701D01*
X178836511Y-119385781D01*
X178898228Y-119353029D01*
X178923142Y-119350500D01*
X179513908Y-119350500D01*
X179580947Y-119370185D01*
X179600412Y-119388086D01*
X179601628Y-119386871D01*
X179607372Y-119392615D01*
X179607377Y-119392619D01*
X179607379Y-119392621D01*
X179722375Y-119480861D01*
X179856291Y-119536330D01*
X179983280Y-119553048D01*
X179999999Y-119555250D01*
X180000000Y-119555250D01*
X180000001Y-119555250D01*
X180052645Y-119548319D01*
X180143709Y-119536330D01*
X180143709Y-119536329D01*
X180151766Y-119535269D01*
X180152087Y-119537708D01*
X180209507Y-119539065D01*
X180267376Y-119578218D01*
X180294892Y-119642442D01*
X180283317Y-119711346D01*
X180259452Y-119744865D01*
X176891137Y-123113181D01*
X176829814Y-123146666D01*
X176803456Y-123149500D01*
X167888170Y-123149500D01*
X167799026Y-123173386D01*
X167799023Y-123173387D01*
X167719105Y-123219527D01*
X167719100Y-123219531D01*
X160219531Y-130719100D01*
X160219527Y-130719105D01*
X160173387Y-130799023D01*
X160173386Y-130799026D01*
X160149500Y-130888170D01*
X160149500Y-133303454D01*
X160129815Y-133370493D01*
X160113179Y-133391138D01*
X160095874Y-133408442D01*
X160034550Y-133441925D01*
X160008128Y-133443185D01*
X160008128Y-133444750D01*
X160000000Y-133444750D01*
X159856291Y-133463670D01*
X159856287Y-133463671D01*
X159722377Y-133519137D01*
X159607379Y-133607379D01*
X159519137Y-133722377D01*
X159463671Y-133856287D01*
X159463670Y-133856291D01*
X159452084Y-133944297D01*
X159444750Y-134000000D01*
X159460548Y-134119999D01*
X159463670Y-134143708D01*
X159463671Y-134143712D01*
X159519137Y-134277622D01*
X159519138Y-134277624D01*
X159519139Y-134277625D01*
X159607379Y-134392621D01*
X159722375Y-134480861D01*
X159856291Y-134536330D01*
X159983280Y-134553048D01*
X159999999Y-134555250D01*
X160000000Y-134555250D01*
X160000001Y-134555250D01*
X160014977Y-134553278D01*
X160143709Y-134536330D01*
X160277625Y-134480861D01*
X160392621Y-134392621D01*
X160480861Y-134277625D01*
X160536330Y-134143709D01*
X160555250Y-134000000D01*
X160555250Y-133999999D01*
X160555250Y-133991871D01*
X160559049Y-133991871D01*
X160566388Y-133940418D01*
X160591554Y-133904127D01*
X160780470Y-133715212D01*
X160826614Y-133635288D01*
X160850500Y-133546144D01*
X160850500Y-133453856D01*
X160850500Y-131923141D01*
X160870185Y-131856102D01*
X160922989Y-131810347D01*
X160992147Y-131800403D01*
X161055703Y-131829428D01*
X161072871Y-131847650D01*
X161107379Y-131892621D01*
X161222375Y-131980861D01*
X161222376Y-131980861D01*
X161222377Y-131980862D01*
X161267013Y-131999350D01*
X161356291Y-132036330D01*
X161483280Y-132053048D01*
X161499999Y-132055250D01*
X161500000Y-132055250D01*
X161500001Y-132055250D01*
X161514977Y-132053278D01*
X161643709Y-132036330D01*
X161777625Y-131980861D01*
X161892621Y-131892621D01*
X161980861Y-131777625D01*
X162036330Y-131643709D01*
X162055250Y-131500000D01*
X162055250Y-131499999D01*
X162055250Y-131491871D01*
X162059049Y-131491871D01*
X162066388Y-131440418D01*
X162091556Y-131404124D01*
X168255136Y-125240545D01*
X168316457Y-125207062D01*
X168386149Y-125212046D01*
X168442082Y-125253918D01*
X168466499Y-125319382D01*
X168463758Y-125348105D01*
X168464731Y-125348234D01*
X168463670Y-125356290D01*
X168463670Y-125356291D01*
X168444750Y-125500000D01*
X168461641Y-125628301D01*
X168463670Y-125643708D01*
X168463671Y-125643712D01*
X168519137Y-125777622D01*
X168519138Y-125777624D01*
X168519139Y-125777625D01*
X168607379Y-125892621D01*
X168722375Y-125980861D01*
X168856291Y-126036330D01*
X169000000Y-126055250D01*
X169008129Y-126055250D01*
X169008129Y-126058828D01*
X169060970Y-126067031D01*
X169095878Y-126091560D01*
X174804048Y-131799730D01*
X174837533Y-131861053D01*
X174832549Y-131930745D01*
X174790677Y-131986678D01*
X174763820Y-132001972D01*
X174722376Y-132019138D01*
X174607379Y-132107379D01*
X174519137Y-132222377D01*
X174463671Y-132356287D01*
X174463670Y-132356291D01*
X174449756Y-132461980D01*
X174444750Y-132500000D01*
X174453879Y-132569344D01*
X174463670Y-132643708D01*
X174463671Y-132643712D01*
X174519137Y-132777622D01*
X174519138Y-132777624D01*
X174519139Y-132777625D01*
X174607379Y-132892621D01*
X174722375Y-132980861D01*
X174856291Y-133036330D01*
X175000000Y-133055250D01*
X175008129Y-133055250D01*
X175008129Y-133058828D01*
X175060970Y-133067031D01*
X175095878Y-133091560D01*
X177613181Y-135608863D01*
X177646666Y-135670186D01*
X177649500Y-135696544D01*
X177649500Y-141303456D01*
X177629815Y-141370495D01*
X177613181Y-141391137D01*
X176391137Y-142613181D01*
X176329814Y-142646666D01*
X176303456Y-142649500D01*
X161793856Y-142649500D01*
X161704712Y-142673386D01*
X161704709Y-142673387D01*
X161624791Y-142719527D01*
X161624786Y-142719531D01*
X160390511Y-143953805D01*
X160329188Y-143987290D01*
X160259496Y-143982306D01*
X160258037Y-143981751D01*
X160142461Y-143936977D01*
X160142456Y-143936976D01*
X159941976Y-143899500D01*
X159738024Y-143899500D01*
X159537544Y-143936976D01*
X159537541Y-143936976D01*
X159537541Y-143936977D01*
X159347364Y-144010651D01*
X159347357Y-144010655D01*
X159173960Y-144118017D01*
X159173958Y-144118019D01*
X159023237Y-144255418D01*
X158900327Y-144418178D01*
X158809422Y-144600739D01*
X158809417Y-144600752D01*
X158753602Y-144796917D01*
X158734785Y-144999999D01*
X153000500Y-144999999D01*
X153000500Y-121499999D01*
X159844750Y-121499999D01*
X159844750Y-121500000D01*
X159863670Y-121643708D01*
X159863671Y-121643712D01*
X159919137Y-121777622D01*
X159919138Y-121777624D01*
X159919139Y-121777625D01*
X160007379Y-121892621D01*
X160122375Y-121980861D01*
X160256291Y-122036330D01*
X160383280Y-122053048D01*
X160399999Y-122055250D01*
X160400000Y-122055250D01*
X160400001Y-122055250D01*
X160414977Y-122053278D01*
X160543709Y-122036330D01*
X160677625Y-121980861D01*
X160792621Y-121892621D01*
X160792623Y-121892617D01*
X160792627Y-121892615D01*
X160798372Y-121886871D01*
X160800888Y-121889387D01*
X160844183Y-121857797D01*
X160886092Y-121850500D01*
X161046142Y-121850500D01*
X161046144Y-121850500D01*
X161135288Y-121826614D01*
X161215212Y-121780470D01*
X162545082Y-120450600D01*
X164444750Y-120450600D01*
X164458899Y-120558074D01*
X164463670Y-120594308D01*
X164463671Y-120594312D01*
X164519137Y-120728222D01*
X164519138Y-120728224D01*
X164519139Y-120728225D01*
X164607379Y-120843221D01*
X164722375Y-120931461D01*
X164856291Y-120986930D01*
X164983280Y-121003648D01*
X164999999Y-121005850D01*
X165000000Y-121005850D01*
X165000001Y-121005850D01*
X165014977Y-121003878D01*
X165143709Y-120986930D01*
X165277625Y-120931461D01*
X165392621Y-120843221D01*
X165480861Y-120728225D01*
X165536330Y-120594309D01*
X165555250Y-120450600D01*
X165555250Y-120450599D01*
X165555250Y-120442471D01*
X165559049Y-120442471D01*
X165566388Y-120391018D01*
X165591556Y-120354724D01*
X166010198Y-119936084D01*
X166071521Y-119902599D01*
X166097879Y-119899765D01*
X171563173Y-119899765D01*
X171630212Y-119919450D01*
X171649677Y-119937351D01*
X171650893Y-119936136D01*
X171656637Y-119941880D01*
X171656642Y-119941884D01*
X171656644Y-119941886D01*
X171771640Y-120030126D01*
X171905556Y-120085595D01*
X172032545Y-120102313D01*
X172049264Y-120104515D01*
X172049265Y-120104515D01*
X172049266Y-120104515D01*
X172064242Y-120102543D01*
X172192974Y-120085595D01*
X172326890Y-120030126D01*
X172441886Y-119941886D01*
X172530126Y-119826890D01*
X172585595Y-119692974D01*
X172604515Y-119549265D01*
X172604390Y-119548319D01*
X172595509Y-119480861D01*
X172585595Y-119405556D01*
X172533784Y-119280472D01*
X172530127Y-119271642D01*
X172530126Y-119271641D01*
X172530126Y-119271640D01*
X172441886Y-119156644D01*
X172326890Y-119068404D01*
X172326889Y-119068403D01*
X172326887Y-119068402D01*
X172192977Y-119012936D01*
X172192975Y-119012935D01*
X172192974Y-119012935D01*
X172094725Y-119000000D01*
X172049266Y-118994015D01*
X172049264Y-118994015D01*
X171905556Y-119012935D01*
X171905552Y-119012936D01*
X171771642Y-119068402D01*
X171656637Y-119156649D01*
X171650893Y-119162394D01*
X171648376Y-119159877D01*
X171605082Y-119191468D01*
X171563173Y-119198765D01*
X165855191Y-119198765D01*
X165777698Y-119219528D01*
X165777695Y-119219530D01*
X165766047Y-119222651D01*
X165766045Y-119222652D01*
X165766044Y-119222652D01*
X165686126Y-119268792D01*
X165686121Y-119268796D01*
X165095877Y-119859039D01*
X165034554Y-119892524D01*
X165008128Y-119893808D01*
X165008128Y-119895350D01*
X165000000Y-119895350D01*
X164856291Y-119914270D01*
X164856287Y-119914271D01*
X164722377Y-119969737D01*
X164607379Y-120057979D01*
X164519137Y-120172977D01*
X164463671Y-120306887D01*
X164463670Y-120306891D01*
X164444750Y-120450600D01*
X162545082Y-120450600D01*
X163280470Y-119715212D01*
X163326614Y-119635288D01*
X163350500Y-119546144D01*
X163350500Y-119514744D01*
X163370185Y-119447705D01*
X163386819Y-119427063D01*
X163943388Y-118870494D01*
X164505470Y-118308412D01*
X164551614Y-118228488D01*
X164555171Y-118215212D01*
X164575500Y-118139344D01*
X164575500Y-103105602D01*
X164595185Y-103038563D01*
X164647989Y-102992808D01*
X164717147Y-102982864D01*
X164746952Y-102991041D01*
X164856291Y-103036330D01*
X164983280Y-103053048D01*
X164999999Y-103055250D01*
X165000000Y-103055250D01*
X165000001Y-103055250D01*
X165014977Y-103053278D01*
X165143709Y-103036330D01*
X165277625Y-102980861D01*
X165392621Y-102892621D01*
X165392623Y-102892617D01*
X165392627Y-102892615D01*
X165398372Y-102886871D01*
X165400888Y-102889387D01*
X165444183Y-102857797D01*
X165486092Y-102850500D01*
X165803456Y-102850500D01*
X165870495Y-102870185D01*
X165891137Y-102886819D01*
X166284788Y-103280470D01*
X166364712Y-103326614D01*
X166453856Y-103350500D01*
X170275500Y-103350500D01*
X170342539Y-103370185D01*
X170388294Y-103422989D01*
X170399500Y-103474500D01*
X170399500Y-103874678D01*
X170414032Y-103947735D01*
X170414033Y-103947739D01*
X170432405Y-103975235D01*
X170469399Y-104030601D01*
X170540664Y-104078218D01*
X170552260Y-104085966D01*
X170552264Y-104085967D01*
X170625321Y-104100499D01*
X170625324Y-104100500D01*
X170625326Y-104100500D01*
X172374676Y-104100500D01*
X172374677Y-104100499D01*
X172447740Y-104085966D01*
X172530601Y-104030601D01*
X172585966Y-103947740D01*
X172600500Y-103874674D01*
X172600500Y-102125326D01*
X172600500Y-102125323D01*
X172600499Y-102125321D01*
X172585967Y-102052264D01*
X172585966Y-102052260D01*
X172530601Y-101969399D01*
X172447740Y-101914034D01*
X172447739Y-101914033D01*
X172447735Y-101914032D01*
X172374677Y-101899500D01*
X172374674Y-101899500D01*
X170625326Y-101899500D01*
X170625323Y-101899500D01*
X170552264Y-101914032D01*
X170552260Y-101914033D01*
X170469399Y-101969399D01*
X170414033Y-102052260D01*
X170414032Y-102052264D01*
X170399500Y-102125321D01*
X170399500Y-102525500D01*
X170379815Y-102592539D01*
X170327011Y-102638294D01*
X170275500Y-102649500D01*
X166696544Y-102649500D01*
X166629505Y-102629815D01*
X166608863Y-102613181D01*
X166215213Y-102219531D01*
X166215208Y-102219527D01*
X166135291Y-102173387D01*
X166135287Y-102173385D01*
X166129926Y-102171949D01*
X166129926Y-102171948D01*
X166055269Y-102151945D01*
X166046144Y-102149500D01*
X166046143Y-102149500D01*
X165486092Y-102149500D01*
X165419053Y-102129815D01*
X165399587Y-102111913D01*
X165398372Y-102113129D01*
X165392627Y-102107384D01*
X165392621Y-102107379D01*
X165277625Y-102019139D01*
X165277624Y-102019138D01*
X165277622Y-102019137D01*
X165143712Y-101963671D01*
X165143710Y-101963670D01*
X165143709Y-101963670D01*
X165071854Y-101954210D01*
X165000001Y-101944750D01*
X164999999Y-101944750D01*
X164856291Y-101963670D01*
X164746951Y-102008959D01*
X164677482Y-102016427D01*
X164615003Y-101985151D01*
X164579351Y-101925062D01*
X164575500Y-101894397D01*
X164575500Y-101147437D01*
X164595185Y-101080398D01*
X164647989Y-101034643D01*
X164652048Y-101032876D01*
X164695420Y-101014911D01*
X164777625Y-100980861D01*
X164892621Y-100892621D01*
X164980861Y-100777625D01*
X165036330Y-100643709D01*
X165055250Y-100500000D01*
X165036330Y-100356291D01*
X164980861Y-100222375D01*
X164892621Y-100107379D01*
X164777625Y-100019139D01*
X164777624Y-100019138D01*
X164777622Y-100019137D01*
X164643712Y-99963671D01*
X164643710Y-99963670D01*
X164643709Y-99963670D01*
X164569166Y-99953856D01*
X164500001Y-99944750D01*
X164499999Y-99944750D01*
X164356291Y-99963670D01*
X164356287Y-99963671D01*
X164222377Y-100019137D01*
X164199971Y-100036330D01*
X164107379Y-100107379D01*
X164107377Y-100107380D01*
X164107376Y-100107382D01*
X164094352Y-100124355D01*
X164037924Y-100165557D01*
X163968178Y-100169710D01*
X163907258Y-100135497D01*
X163897603Y-100124354D01*
X163872439Y-100091560D01*
X163868145Y-100085964D01*
X163753149Y-99997724D01*
X163753148Y-99997723D01*
X163753146Y-99997722D01*
X163619236Y-99942256D01*
X163619234Y-99942255D01*
X163619233Y-99942255D01*
X163547378Y-99932795D01*
X163475525Y-99923335D01*
X163475523Y-99923335D01*
X163331815Y-99942255D01*
X163331811Y-99942256D01*
X163197901Y-99997722D01*
X163082903Y-100085964D01*
X162994661Y-100200962D01*
X162939195Y-100334872D01*
X162939194Y-100334876D01*
X162920274Y-100478584D01*
X162920274Y-100478585D01*
X162939194Y-100622293D01*
X162939195Y-100622297D01*
X162994661Y-100756207D01*
X162994662Y-100756209D01*
X162994663Y-100756210D01*
X163082903Y-100871206D01*
X163197899Y-100959446D01*
X163197900Y-100959446D01*
X163197901Y-100959447D01*
X163208099Y-100963671D01*
X163331815Y-101014915D01*
X163331826Y-101014916D01*
X163332582Y-101015119D01*
X163333163Y-101015473D01*
X163339324Y-101018025D01*
X163338926Y-101018985D01*
X163392246Y-101051479D01*
X163422781Y-101114323D01*
X163424500Y-101134897D01*
X163424500Y-117710256D01*
X163404815Y-117777295D01*
X163388181Y-117797937D01*
X162572937Y-118613181D01*
X162511614Y-118646666D01*
X162485256Y-118649500D01*
X162453856Y-118649500D01*
X162370073Y-118671948D01*
X162370074Y-118671949D01*
X162364712Y-118673385D01*
X162284787Y-118719531D01*
X162284784Y-118719533D01*
X161249662Y-119754654D01*
X161189877Y-119787298D01*
X161189878Y-119787301D01*
X161189869Y-119787303D01*
X161188339Y-119788139D01*
X161183790Y-119788932D01*
X161182023Y-119789405D01*
X161048112Y-119844872D01*
X160933114Y-119933114D01*
X160844872Y-120048112D01*
X160789406Y-120182022D01*
X160789405Y-120182026D01*
X160770485Y-120325734D01*
X160770485Y-120325735D01*
X160789405Y-120469443D01*
X160789406Y-120469447D01*
X160844872Y-120603357D01*
X160844873Y-120603359D01*
X160844874Y-120603360D01*
X160933114Y-120718356D01*
X160978990Y-120753558D01*
X161020588Y-120785478D01*
X161061790Y-120841906D01*
X161065945Y-120911652D01*
X161032783Y-120971534D01*
X160928542Y-121075776D01*
X160867219Y-121109261D01*
X160797527Y-121104277D01*
X160765374Y-121086471D01*
X160677625Y-121019139D01*
X160677623Y-121019138D01*
X160543712Y-120963671D01*
X160543710Y-120963670D01*
X160543709Y-120963670D01*
X160419840Y-120947362D01*
X160400001Y-120944750D01*
X160399999Y-120944750D01*
X160256291Y-120963670D01*
X160256287Y-120963671D01*
X160122377Y-121019137D01*
X160007379Y-121107379D01*
X159919137Y-121222377D01*
X159863671Y-121356287D01*
X159863670Y-121356291D01*
X159844750Y-121499999D01*
X153000500Y-121499999D01*
X153000500Y-103499999D01*
X158944750Y-103499999D01*
X158944750Y-103500000D01*
X158963670Y-103643708D01*
X158963671Y-103643712D01*
X159019137Y-103777622D01*
X159019138Y-103777624D01*
X159019139Y-103777625D01*
X159107379Y-103892621D01*
X159222375Y-103980861D01*
X159356291Y-104036330D01*
X159480153Y-104052637D01*
X159499999Y-104055250D01*
X159500000Y-104055250D01*
X159500001Y-104055250D01*
X159551525Y-104048466D01*
X159643709Y-104036330D01*
X159643709Y-104036329D01*
X159651766Y-104035269D01*
X159652087Y-104037708D01*
X159709507Y-104039065D01*
X159767376Y-104078218D01*
X159794892Y-104142442D01*
X159783317Y-104211346D01*
X159759453Y-104244864D01*
X159719529Y-104284788D01*
X159694554Y-104328049D01*
X159694552Y-104328051D01*
X159673388Y-104364706D01*
X159673387Y-104364709D01*
X159649500Y-104453856D01*
X159649500Y-117513908D01*
X159629815Y-117580947D01*
X159611913Y-117600412D01*
X159613129Y-117601628D01*
X159607384Y-117607372D01*
X159519137Y-117722377D01*
X159463671Y-117856287D01*
X159463670Y-117856291D01*
X159444750Y-117999999D01*
X159444750Y-118000000D01*
X159463670Y-118143708D01*
X159463671Y-118143712D01*
X159519137Y-118277622D01*
X159519138Y-118277624D01*
X159519139Y-118277625D01*
X159607379Y-118392621D01*
X159722375Y-118480861D01*
X159856291Y-118536330D01*
X159981102Y-118552762D01*
X159999999Y-118555250D01*
X160000000Y-118555250D01*
X160000001Y-118555250D01*
X160018898Y-118552762D01*
X160143709Y-118536330D01*
X160277625Y-118480861D01*
X160392621Y-118392621D01*
X160480861Y-118277625D01*
X160536330Y-118143709D01*
X160555250Y-118000000D01*
X160536330Y-117856291D01*
X160480861Y-117722375D01*
X160392621Y-117607379D01*
X160392619Y-117607377D01*
X160392615Y-117607372D01*
X160386871Y-117601628D01*
X160389387Y-117599111D01*
X160357797Y-117555817D01*
X160350500Y-117513908D01*
X160350500Y-116423141D01*
X160370185Y-116356102D01*
X160422989Y-116310347D01*
X160492147Y-116300403D01*
X160555703Y-116329428D01*
X160572871Y-116347650D01*
X160607379Y-116392621D01*
X160722375Y-116480861D01*
X160722376Y-116480861D01*
X160722377Y-116480862D01*
X160767013Y-116499350D01*
X160856291Y-116536330D01*
X160983280Y-116553048D01*
X160999999Y-116555250D01*
X161000000Y-116555250D01*
X161000001Y-116555250D01*
X161014977Y-116553278D01*
X161143709Y-116536330D01*
X161277625Y-116480861D01*
X161392621Y-116392621D01*
X161480861Y-116277625D01*
X161536330Y-116143709D01*
X161555250Y-116000000D01*
X161536330Y-115856291D01*
X161480861Y-115722375D01*
X161392621Y-115607379D01*
X161392619Y-115607377D01*
X161392615Y-115607372D01*
X161386871Y-115601628D01*
X161389387Y-115599111D01*
X161357797Y-115555817D01*
X161350500Y-115513908D01*
X161350500Y-107486092D01*
X161370185Y-107419053D01*
X161388114Y-107399609D01*
X161386874Y-107398369D01*
X161392619Y-107392623D01*
X161420642Y-107356103D01*
X161480861Y-107277625D01*
X161536330Y-107143709D01*
X161555250Y-107000000D01*
X161536330Y-106856291D01*
X161480861Y-106722375D01*
X161392621Y-106607379D01*
X161277625Y-106519139D01*
X161277624Y-106519138D01*
X161277622Y-106519137D01*
X161143712Y-106463671D01*
X161143710Y-106463670D01*
X161143709Y-106463670D01*
X161071854Y-106454210D01*
X161000001Y-106444750D01*
X160999999Y-106444750D01*
X160856291Y-106463670D01*
X160856287Y-106463671D01*
X160722377Y-106519137D01*
X160675314Y-106555250D01*
X160607379Y-106607379D01*
X160607378Y-106607380D01*
X160607377Y-106607381D01*
X160572875Y-106652345D01*
X160516447Y-106693547D01*
X160446701Y-106697702D01*
X160385781Y-106663489D01*
X160353029Y-106601772D01*
X160350500Y-106576858D01*
X160350500Y-104696544D01*
X160370185Y-104629505D01*
X160386819Y-104608863D01*
X160404122Y-104591560D01*
X160465445Y-104558075D01*
X160491871Y-104556982D01*
X160491871Y-104555250D01*
X160500000Y-104555250D01*
X160643709Y-104536330D01*
X160777625Y-104480861D01*
X160892621Y-104392621D01*
X160980861Y-104277625D01*
X161036330Y-104143709D01*
X161055250Y-104000000D01*
X161036330Y-103856291D01*
X160980861Y-103722375D01*
X160892621Y-103607379D01*
X160777625Y-103519139D01*
X160777624Y-103519138D01*
X160777622Y-103519137D01*
X160643712Y-103463671D01*
X160643710Y-103463670D01*
X160643709Y-103463670D01*
X160569166Y-103453856D01*
X160500001Y-103444750D01*
X160499999Y-103444750D01*
X160356293Y-103463669D01*
X160273057Y-103498146D01*
X160222378Y-103519138D01*
X160215579Y-103521954D01*
X160146109Y-103529422D01*
X160083630Y-103498146D01*
X160047978Y-103438057D01*
X160045189Y-103423585D01*
X160036330Y-103356291D01*
X159980861Y-103222375D01*
X159892621Y-103107379D01*
X159892619Y-103107377D01*
X159892615Y-103107372D01*
X159886871Y-103101628D01*
X159889387Y-103099111D01*
X159857797Y-103055817D01*
X159850500Y-103013908D01*
X159850500Y-101696543D01*
X159870185Y-101629504D01*
X159886814Y-101608867D01*
X163904123Y-97591557D01*
X163965444Y-97558074D01*
X163991871Y-97557144D01*
X163991871Y-97555250D01*
X164000000Y-97555250D01*
X164143709Y-97536330D01*
X164277625Y-97480861D01*
X164392621Y-97392621D01*
X164392623Y-97392617D01*
X164392627Y-97392615D01*
X164398372Y-97386871D01*
X164400888Y-97389387D01*
X164444183Y-97357797D01*
X164486092Y-97350500D01*
X166046142Y-97350500D01*
X166046144Y-97350500D01*
X166135288Y-97326614D01*
X166215212Y-97280470D01*
X172780470Y-90715212D01*
X172826614Y-90635288D01*
X172836203Y-90599500D01*
X172850500Y-90546144D01*
X172850500Y-89986092D01*
X172870185Y-89919053D01*
X172888114Y-89899609D01*
X172886874Y-89898369D01*
X172892619Y-89892623D01*
X172892621Y-89892621D01*
X172980861Y-89777625D01*
X173036330Y-89643709D01*
X173055250Y-89500000D01*
X173036330Y-89356291D01*
X172980861Y-89222375D01*
X172892621Y-89107379D01*
X172777625Y-89019139D01*
X172777624Y-89019138D01*
X172777622Y-89019137D01*
X172643712Y-88963671D01*
X172643710Y-88963670D01*
X172643709Y-88963670D01*
X172571854Y-88954210D01*
X172500001Y-88944750D01*
X172499999Y-88944750D01*
X172356291Y-88963670D01*
X172356287Y-88963671D01*
X172222377Y-89019137D01*
X172107379Y-89107379D01*
X172019137Y-89222377D01*
X171963671Y-89356287D01*
X171963670Y-89356291D01*
X171944750Y-89500000D01*
X171958878Y-89607314D01*
X171963670Y-89643708D01*
X171963671Y-89643712D01*
X172019138Y-89777623D01*
X172019139Y-89777625D01*
X172107380Y-89892623D01*
X172113126Y-89898369D01*
X172110574Y-89900920D01*
X172142091Y-89943873D01*
X172149500Y-89986092D01*
X172149500Y-90303456D01*
X172129815Y-90370495D01*
X172113181Y-90391137D01*
X165891137Y-96613181D01*
X165829814Y-96646666D01*
X165803456Y-96649500D01*
X164486092Y-96649500D01*
X164419053Y-96629815D01*
X164399587Y-96611913D01*
X164398372Y-96613129D01*
X164392627Y-96607384D01*
X164392621Y-96607379D01*
X164277625Y-96519139D01*
X164277624Y-96519138D01*
X164277622Y-96519137D01*
X164143712Y-96463671D01*
X164143710Y-96463670D01*
X164143709Y-96463670D01*
X164019840Y-96447362D01*
X164000001Y-96444750D01*
X163999999Y-96444750D01*
X163856291Y-96463670D01*
X163856287Y-96463671D01*
X163722377Y-96519137D01*
X163607379Y-96607379D01*
X163519137Y-96722377D01*
X163463671Y-96856287D01*
X163463670Y-96856291D01*
X163444750Y-96999999D01*
X163444750Y-97008128D01*
X163441456Y-97008128D01*
X163432192Y-97062588D01*
X163408439Y-97095877D01*
X161812181Y-98692136D01*
X161750858Y-98725621D01*
X161681166Y-98720637D01*
X161625233Y-98678765D01*
X161600816Y-98613301D01*
X161600500Y-98604455D01*
X161600500Y-97125323D01*
X161600499Y-97125321D01*
X161585967Y-97052264D01*
X161585966Y-97052260D01*
X161556478Y-97008128D01*
X161530601Y-96969399D01*
X161475235Y-96932405D01*
X161447739Y-96914033D01*
X161447735Y-96914032D01*
X161374677Y-96899500D01*
X161374674Y-96899500D01*
X159625326Y-96899500D01*
X159625323Y-96899500D01*
X159552264Y-96914032D01*
X159552260Y-96914033D01*
X159469399Y-96969399D01*
X159414033Y-97052260D01*
X159414032Y-97052264D01*
X159399500Y-97125321D01*
X159399500Y-98874678D01*
X159414032Y-98947735D01*
X159414033Y-98947739D01*
X159414034Y-98947740D01*
X159469399Y-99030601D01*
X159552260Y-99085966D01*
X159552264Y-99085967D01*
X159625321Y-99100499D01*
X159625324Y-99100500D01*
X161104455Y-99100500D01*
X161171494Y-99120185D01*
X161217249Y-99172989D01*
X161227193Y-99242147D01*
X161198168Y-99305703D01*
X161192136Y-99312181D01*
X159219529Y-101284788D01*
X159195383Y-101326613D01*
X159195381Y-101326615D01*
X159173388Y-101364706D01*
X159173387Y-101364709D01*
X159149500Y-101453856D01*
X159149500Y-103013908D01*
X159129815Y-103080947D01*
X159111913Y-103100412D01*
X159113129Y-103101628D01*
X159107384Y-103107372D01*
X159019137Y-103222377D01*
X158963671Y-103356287D01*
X158963670Y-103356291D01*
X158944750Y-103499999D01*
X153000500Y-103499999D01*
X153000500Y-92499999D01*
X160944750Y-92499999D01*
X160944750Y-92500000D01*
X160963670Y-92643708D01*
X160963671Y-92643712D01*
X161019137Y-92777622D01*
X161019138Y-92777624D01*
X161019139Y-92777625D01*
X161107379Y-92892621D01*
X161222375Y-92980861D01*
X161356291Y-93036330D01*
X161481102Y-93052762D01*
X161499999Y-93055250D01*
X161500000Y-93055250D01*
X161500001Y-93055250D01*
X161535927Y-93050520D01*
X161643709Y-93036330D01*
X161707427Y-93009937D01*
X161754876Y-93000500D01*
X166245124Y-93000500D01*
X166292572Y-93009937D01*
X166356291Y-93036330D01*
X166452097Y-93048943D01*
X166499999Y-93055250D01*
X166500000Y-93055250D01*
X166500001Y-93055250D01*
X166518898Y-93052762D01*
X166643709Y-93036330D01*
X166777625Y-92980861D01*
X166892621Y-92892621D01*
X166980861Y-92777625D01*
X167036330Y-92643709D01*
X167055250Y-92500000D01*
X167036330Y-92356291D01*
X166980861Y-92222375D01*
X166892621Y-92107379D01*
X166777625Y-92019139D01*
X166777624Y-92019138D01*
X166777622Y-92019137D01*
X166643712Y-91963671D01*
X166643710Y-91963670D01*
X166643709Y-91963670D01*
X166571854Y-91954210D01*
X166500001Y-91944750D01*
X166499999Y-91944750D01*
X166356293Y-91963669D01*
X166339912Y-91970453D01*
X166292572Y-91990062D01*
X166245124Y-91999500D01*
X161754876Y-91999500D01*
X161707427Y-91990062D01*
X161643709Y-91963670D01*
X161643708Y-91963669D01*
X161643706Y-91963669D01*
X161500001Y-91944750D01*
X161499999Y-91944750D01*
X161356291Y-91963670D01*
X161356287Y-91963671D01*
X161222377Y-92019137D01*
X161107379Y-92107379D01*
X161019137Y-92222377D01*
X160963671Y-92356287D01*
X160963670Y-92356291D01*
X160944750Y-92499999D01*
X153000500Y-92499999D01*
X153000500Y-89351504D01*
X158532500Y-89351504D01*
X158532500Y-89750000D01*
X159232500Y-89750000D01*
X159232500Y-90250000D01*
X158532500Y-90250000D01*
X158532500Y-90648495D01*
X158570927Y-90841681D01*
X158570930Y-90841693D01*
X158646307Y-91023671D01*
X158646314Y-91023684D01*
X158755748Y-91187462D01*
X158755751Y-91187466D01*
X158895033Y-91326748D01*
X158895037Y-91326751D01*
X159058815Y-91436185D01*
X159058828Y-91436192D01*
X159240808Y-91511569D01*
X159282500Y-91519862D01*
X159282500Y-90716988D01*
X159292440Y-90734205D01*
X159348295Y-90790060D01*
X159416704Y-90829556D01*
X159493004Y-90850000D01*
X159571996Y-90850000D01*
X159648296Y-90829556D01*
X159716705Y-90790060D01*
X159772560Y-90734205D01*
X159782500Y-90716988D01*
X159782500Y-91519862D01*
X159824190Y-91511569D01*
X159824192Y-91511569D01*
X160006171Y-91436192D01*
X160006184Y-91436185D01*
X160169962Y-91326751D01*
X160169966Y-91326748D01*
X160309248Y-91187466D01*
X160309251Y-91187462D01*
X160418685Y-91023684D01*
X160418692Y-91023671D01*
X160494069Y-90841693D01*
X160494072Y-90841681D01*
X160532499Y-90648495D01*
X160532500Y-90648492D01*
X160532500Y-90250000D01*
X159832500Y-90250000D01*
X159832500Y-89750000D01*
X160388036Y-89750000D01*
X160455075Y-89769685D01*
X160495423Y-89812000D01*
X160501982Y-89823361D01*
X160501984Y-89823364D01*
X160501985Y-89823365D01*
X160609135Y-89930515D01*
X160740365Y-90006281D01*
X160886734Y-90045500D01*
X160886736Y-90045500D01*
X161038264Y-90045500D01*
X161038266Y-90045500D01*
X161184635Y-90006281D01*
X161315865Y-89930515D01*
X161423015Y-89823365D01*
X161498781Y-89692135D01*
X161538000Y-89545766D01*
X161538000Y-89500000D01*
X162944750Y-89500000D01*
X162958878Y-89607314D01*
X162963670Y-89643708D01*
X162963671Y-89643712D01*
X163019137Y-89777622D01*
X163019138Y-89777623D01*
X163019139Y-89777625D01*
X163107379Y-89892621D01*
X163222375Y-89980861D01*
X163356291Y-90036330D01*
X163481102Y-90052762D01*
X163499999Y-90055250D01*
X163500000Y-90055250D01*
X163500001Y-90055250D01*
X163518898Y-90052762D01*
X163643709Y-90036330D01*
X163777625Y-89980861D01*
X163892621Y-89892621D01*
X163892623Y-89892617D01*
X163892627Y-89892615D01*
X163898372Y-89886871D01*
X163900888Y-89889387D01*
X163944183Y-89857797D01*
X163986092Y-89850500D01*
X164513908Y-89850500D01*
X164580947Y-89870185D01*
X164600412Y-89888086D01*
X164601628Y-89886871D01*
X164607372Y-89892615D01*
X164607377Y-89892619D01*
X164607379Y-89892621D01*
X164722375Y-89980861D01*
X164856291Y-90036330D01*
X164981102Y-90052762D01*
X164999999Y-90055250D01*
X165000000Y-90055250D01*
X165000001Y-90055250D01*
X165018898Y-90052762D01*
X165143709Y-90036330D01*
X165277625Y-89980861D01*
X165392621Y-89892621D01*
X165480861Y-89777625D01*
X165536330Y-89643709D01*
X165555250Y-89500000D01*
X165541325Y-89394234D01*
X166167000Y-89394234D01*
X166167000Y-89545765D01*
X166206219Y-89692136D01*
X166244102Y-89757750D01*
X166281985Y-89823365D01*
X166389135Y-89930515D01*
X166520365Y-90006281D01*
X166666734Y-90045500D01*
X166666736Y-90045500D01*
X166818264Y-90045500D01*
X166818266Y-90045500D01*
X166964635Y-90006281D01*
X167095865Y-89930515D01*
X167203015Y-89823365D01*
X167209577Y-89812000D01*
X167260144Y-89763784D01*
X167316964Y-89750000D01*
X167872500Y-89750000D01*
X167872500Y-90250000D01*
X167172500Y-90250000D01*
X167172500Y-90648495D01*
X167210927Y-90841681D01*
X167210930Y-90841693D01*
X167286307Y-91023671D01*
X167286314Y-91023684D01*
X167395748Y-91187462D01*
X167395751Y-91187466D01*
X167535033Y-91326748D01*
X167535037Y-91326751D01*
X167698815Y-91436185D01*
X167698828Y-91436192D01*
X167880808Y-91511569D01*
X167922500Y-91519862D01*
X167922500Y-90716988D01*
X167932440Y-90734205D01*
X167988295Y-90790060D01*
X168056704Y-90829556D01*
X168133004Y-90850000D01*
X168211996Y-90850000D01*
X168288296Y-90829556D01*
X168356705Y-90790060D01*
X168412560Y-90734205D01*
X168422500Y-90716988D01*
X168422500Y-91519862D01*
X168464190Y-91511569D01*
X168464192Y-91511569D01*
X168646171Y-91436192D01*
X168646184Y-91436185D01*
X168809962Y-91326751D01*
X168809966Y-91326748D01*
X168949248Y-91187466D01*
X168949251Y-91187462D01*
X169058685Y-91023684D01*
X169058692Y-91023671D01*
X169134069Y-90841693D01*
X169134072Y-90841681D01*
X169172499Y-90648495D01*
X169172500Y-90648492D01*
X169172500Y-90250000D01*
X168472500Y-90250000D01*
X168472500Y-89750000D01*
X169172500Y-89750000D01*
X169172500Y-89351508D01*
X169172499Y-89351504D01*
X169134072Y-89158318D01*
X169134069Y-89158306D01*
X169058692Y-88976328D01*
X169058685Y-88976315D01*
X168949251Y-88812537D01*
X168949248Y-88812533D01*
X168809966Y-88673251D01*
X168809962Y-88673248D01*
X168738235Y-88625321D01*
X197899500Y-88625321D01*
X197899500Y-90374678D01*
X197914032Y-90447735D01*
X197914033Y-90447739D01*
X197914034Y-90447740D01*
X197969399Y-90530601D01*
X198052260Y-90585966D01*
X198052264Y-90585967D01*
X198125321Y-90600499D01*
X198125324Y-90600500D01*
X198125326Y-90600500D01*
X199874676Y-90600500D01*
X199874677Y-90600499D01*
X199947740Y-90585966D01*
X200030601Y-90530601D01*
X200085966Y-90447740D01*
X200100500Y-90374674D01*
X200100500Y-88625326D01*
X200100500Y-88625323D01*
X200100499Y-88625321D01*
X202899500Y-88625321D01*
X202899500Y-90374678D01*
X202914032Y-90447735D01*
X202914033Y-90447739D01*
X202914034Y-90447740D01*
X202969399Y-90530601D01*
X203052260Y-90585966D01*
X203052264Y-90585967D01*
X203125321Y-90600499D01*
X203125324Y-90600500D01*
X203125326Y-90600500D01*
X204874676Y-90600500D01*
X204874677Y-90600499D01*
X204947740Y-90585966D01*
X205030601Y-90530601D01*
X205085966Y-90447740D01*
X205100500Y-90374674D01*
X205100500Y-88625326D01*
X205100500Y-88625323D01*
X205100499Y-88625321D01*
X207899500Y-88625321D01*
X207899500Y-90374678D01*
X207914032Y-90447735D01*
X207914033Y-90447739D01*
X207914034Y-90447740D01*
X207969399Y-90530601D01*
X208052260Y-90585966D01*
X208052264Y-90585967D01*
X208125321Y-90600499D01*
X208125324Y-90600500D01*
X208125326Y-90600500D01*
X209874676Y-90600500D01*
X209874677Y-90600499D01*
X209947740Y-90585966D01*
X210030601Y-90530601D01*
X210085966Y-90447740D01*
X210100500Y-90374674D01*
X210100500Y-89158676D01*
X210120185Y-89091637D01*
X210136819Y-89070995D01*
X210470995Y-88736819D01*
X210532318Y-88703334D01*
X210558676Y-88700500D01*
X210865890Y-88700500D01*
X210865892Y-88700500D01*
X210993186Y-88666392D01*
X211107314Y-88600500D01*
X212170994Y-87536818D01*
X212232317Y-87503334D01*
X212258675Y-87500500D01*
X213841324Y-87500500D01*
X213908363Y-87520185D01*
X213929005Y-87536819D01*
X214580005Y-88187819D01*
X214613490Y-88249142D01*
X214608506Y-88318834D01*
X214566634Y-88374767D01*
X214501170Y-88399184D01*
X214492324Y-88399500D01*
X213125323Y-88399500D01*
X213052264Y-88414032D01*
X213052260Y-88414033D01*
X212969399Y-88469399D01*
X212914033Y-88552260D01*
X212914032Y-88552264D01*
X212899500Y-88625321D01*
X212899500Y-90374678D01*
X212914032Y-90447735D01*
X212914033Y-90447739D01*
X212914034Y-90447740D01*
X212969399Y-90530601D01*
X213052260Y-90585966D01*
X213052264Y-90585967D01*
X213125321Y-90600499D01*
X213125324Y-90600500D01*
X213125326Y-90600500D01*
X213375500Y-90600500D01*
X213442539Y-90620185D01*
X213488294Y-90672989D01*
X213499500Y-90724500D01*
X213499500Y-102055891D01*
X213533608Y-102183187D01*
X213554591Y-102219530D01*
X213599500Y-102297314D01*
X213599501Y-102297315D01*
X213599502Y-102297316D01*
X215470866Y-104168679D01*
X215497746Y-104208907D01*
X215512640Y-104244864D01*
X215524139Y-104272625D01*
X215612379Y-104387621D01*
X215727375Y-104475861D01*
X215727376Y-104475861D01*
X215727377Y-104475862D01*
X215752075Y-104486092D01*
X215861291Y-104531330D01*
X215988280Y-104548048D01*
X216004999Y-104550250D01*
X216005000Y-104550250D01*
X216005001Y-104550250D01*
X216019977Y-104548278D01*
X216148709Y-104531330D01*
X216282625Y-104475861D01*
X216397621Y-104387621D01*
X216485861Y-104272625D01*
X216541330Y-104138709D01*
X216560250Y-103995000D01*
X216541330Y-103851291D01*
X216485861Y-103717375D01*
X216397621Y-103602379D01*
X216282625Y-103514139D01*
X216260516Y-103504981D01*
X216218907Y-103487746D01*
X216178679Y-103460866D01*
X214536819Y-101819005D01*
X214503334Y-101757682D01*
X214500500Y-101731324D01*
X214500500Y-90724500D01*
X214520185Y-90657461D01*
X214572989Y-90611706D01*
X214624500Y-90600500D01*
X214874676Y-90600500D01*
X214874677Y-90600499D01*
X214947740Y-90585966D01*
X215030601Y-90530601D01*
X215085966Y-90447740D01*
X215100500Y-90374674D01*
X215100500Y-89007676D01*
X215120185Y-88940637D01*
X215172989Y-88894882D01*
X215242147Y-88884938D01*
X215305703Y-88913963D01*
X215312181Y-88919995D01*
X215963181Y-89570995D01*
X215996666Y-89632318D01*
X215999500Y-89658676D01*
X215999500Y-91065891D01*
X216033608Y-91193187D01*
X216048818Y-91219531D01*
X216099500Y-91307314D01*
X216099502Y-91307316D01*
X218965867Y-94173681D01*
X218992747Y-94213909D01*
X219019139Y-94277625D01*
X219107379Y-94392621D01*
X219222375Y-94480861D01*
X219356291Y-94536330D01*
X219483280Y-94553048D01*
X219499999Y-94555250D01*
X219500000Y-94555250D01*
X219500001Y-94555250D01*
X219514977Y-94553278D01*
X219643709Y-94536330D01*
X219777625Y-94480861D01*
X219892621Y-94392621D01*
X219980861Y-94277625D01*
X220036330Y-94143709D01*
X220055250Y-94000000D01*
X220036330Y-93856291D01*
X219980861Y-93722375D01*
X219892621Y-93607379D01*
X219777625Y-93519139D01*
X219713909Y-93492747D01*
X219673681Y-93465867D01*
X218707813Y-92499999D01*
X220444750Y-92499999D01*
X220444750Y-92500000D01*
X220463670Y-92643708D01*
X220463671Y-92643712D01*
X220519137Y-92777622D01*
X220519138Y-92777624D01*
X220519139Y-92777625D01*
X220607379Y-92892621D01*
X220722375Y-92980861D01*
X220856291Y-93036330D01*
X220982896Y-93052998D01*
X221046792Y-93081265D01*
X221054391Y-93088256D01*
X226586181Y-98620046D01*
X226619666Y-98681369D01*
X226622500Y-98707727D01*
X226622500Y-126792273D01*
X226602815Y-126859312D01*
X226586181Y-126879954D01*
X226379954Y-127086181D01*
X226318631Y-127119666D01*
X226292273Y-127122500D01*
X224990301Y-127122500D01*
X224894289Y-127148226D01*
X224808210Y-127197925D01*
X224801764Y-127202872D01*
X224800020Y-127200600D01*
X224750824Y-127227446D01*
X224681134Y-127222442D01*
X224625212Y-127180554D01*
X224600813Y-127115083D01*
X224600500Y-127106272D01*
X224600500Y-125625323D01*
X224600499Y-125625321D01*
X224585967Y-125552264D01*
X224585966Y-125552260D01*
X224574136Y-125534555D01*
X224530601Y-125469399D01*
X224447740Y-125414034D01*
X224447739Y-125414033D01*
X224447735Y-125414032D01*
X224374677Y-125399500D01*
X224374674Y-125399500D01*
X222625326Y-125399500D01*
X222625323Y-125399500D01*
X222552264Y-125414032D01*
X222552260Y-125414033D01*
X222469399Y-125469399D01*
X222414033Y-125552260D01*
X222414032Y-125552264D01*
X222399500Y-125625321D01*
X222399500Y-127374678D01*
X222414032Y-127447735D01*
X222414033Y-127447739D01*
X222414034Y-127447740D01*
X222469399Y-127530601D01*
X222552260Y-127585966D01*
X222552264Y-127585967D01*
X222625321Y-127600499D01*
X222625324Y-127600500D01*
X224106272Y-127600500D01*
X224173311Y-127620185D01*
X224219066Y-127672989D01*
X224229010Y-127742147D01*
X224199985Y-127805703D01*
X224193953Y-127812181D01*
X224022990Y-127983143D01*
X223961667Y-128016628D01*
X223891975Y-128011644D01*
X223890516Y-128011089D01*
X223802461Y-127976977D01*
X223802456Y-127976976D01*
X223601976Y-127939500D01*
X223398024Y-127939500D01*
X223197544Y-127976976D01*
X223197541Y-127976976D01*
X223197541Y-127976977D01*
X223007364Y-128050651D01*
X223007357Y-128050655D01*
X222833960Y-128158017D01*
X222833958Y-128158019D01*
X222683237Y-128295418D01*
X222560327Y-128458178D01*
X222469422Y-128640739D01*
X222469417Y-128640752D01*
X222413602Y-128836917D01*
X222394785Y-129039999D01*
X222394785Y-129040000D01*
X222413602Y-129243082D01*
X222469417Y-129439247D01*
X222469422Y-129439260D01*
X222560327Y-129621821D01*
X222683237Y-129784581D01*
X222833958Y-129921980D01*
X222833960Y-129921982D01*
X222933141Y-129983392D01*
X223007363Y-130029348D01*
X223197544Y-130103024D01*
X223398024Y-130140500D01*
X223398026Y-130140500D01*
X223601974Y-130140500D01*
X223601976Y-130140500D01*
X223802456Y-130103024D01*
X223992637Y-130029348D01*
X224166041Y-129921981D01*
X224316764Y-129784579D01*
X224439673Y-129621821D01*
X224530582Y-129439250D01*
X224586397Y-129243083D01*
X224605215Y-129040000D01*
X224596468Y-128945608D01*
X224586397Y-128836917D01*
X224531424Y-128643708D01*
X224530582Y-128640750D01*
X224530581Y-128640749D01*
X224529013Y-128635236D01*
X224531585Y-128634504D01*
X224526706Y-128576143D01*
X224559452Y-128514423D01*
X224560403Y-128513460D01*
X225160046Y-127913819D01*
X225221369Y-127880334D01*
X225247727Y-127877500D01*
X226549697Y-127877500D01*
X226549699Y-127877500D01*
X226645710Y-127851774D01*
X226731790Y-127802075D01*
X227302075Y-127231790D01*
X227351774Y-127145710D01*
X227377500Y-127049699D01*
X227377500Y-126950301D01*
X227377500Y-98450301D01*
X227351774Y-98354291D01*
X227307511Y-98277625D01*
X227307508Y-98277619D01*
X227302077Y-98268211D01*
X227302073Y-98268206D01*
X221588256Y-92554391D01*
X221554771Y-92493068D01*
X221552998Y-92482896D01*
X221536330Y-92356291D01*
X221480861Y-92222375D01*
X221392621Y-92107379D01*
X221277625Y-92019139D01*
X221277624Y-92019138D01*
X221277622Y-92019137D01*
X221143712Y-91963671D01*
X221143710Y-91963670D01*
X221143709Y-91963670D01*
X221071854Y-91954210D01*
X221000001Y-91944750D01*
X220999999Y-91944750D01*
X220856291Y-91963670D01*
X220856287Y-91963671D01*
X220722377Y-92019137D01*
X220607379Y-92107379D01*
X220519137Y-92222377D01*
X220463671Y-92356287D01*
X220463670Y-92356291D01*
X220444750Y-92499999D01*
X218707813Y-92499999D01*
X217036819Y-90829005D01*
X217003334Y-90767682D01*
X217000500Y-90741324D01*
X217000500Y-89334110D01*
X217000500Y-89334108D01*
X216966392Y-89206814D01*
X216900500Y-89092686D01*
X216807314Y-88999500D01*
X216433135Y-88625321D01*
X217899500Y-88625321D01*
X217899500Y-90374678D01*
X217914032Y-90447735D01*
X217914033Y-90447739D01*
X217914034Y-90447740D01*
X217969399Y-90530601D01*
X218052260Y-90585966D01*
X218052264Y-90585967D01*
X218125321Y-90600499D01*
X218125324Y-90600500D01*
X218125326Y-90600500D01*
X219874676Y-90600500D01*
X219874677Y-90600499D01*
X219947740Y-90585966D01*
X220030601Y-90530601D01*
X220085966Y-90447740D01*
X220100500Y-90374674D01*
X220100500Y-88625326D01*
X220100500Y-88625323D01*
X220100499Y-88625321D01*
X223399500Y-88625321D01*
X223399500Y-90374678D01*
X223414032Y-90447735D01*
X223414033Y-90447739D01*
X223414034Y-90447740D01*
X223469399Y-90530601D01*
X223552260Y-90585966D01*
X223552264Y-90585967D01*
X223625321Y-90600499D01*
X223625324Y-90600500D01*
X223625326Y-90600500D01*
X225374676Y-90600500D01*
X225374677Y-90600499D01*
X225447740Y-90585966D01*
X225530601Y-90530601D01*
X225585966Y-90447740D01*
X225600500Y-90374674D01*
X225600500Y-88625326D01*
X225600500Y-88625323D01*
X225600499Y-88625321D01*
X225585967Y-88552264D01*
X225585966Y-88552260D01*
X225530601Y-88469399D01*
X225447740Y-88414034D01*
X225447739Y-88414033D01*
X225447735Y-88414032D01*
X225374677Y-88399500D01*
X225374674Y-88399500D01*
X223625326Y-88399500D01*
X223625323Y-88399500D01*
X223552264Y-88414032D01*
X223552260Y-88414033D01*
X223469399Y-88469399D01*
X223414033Y-88552260D01*
X223414032Y-88552264D01*
X223399500Y-88625321D01*
X220100499Y-88625321D01*
X220085967Y-88552264D01*
X220085966Y-88552260D01*
X220030601Y-88469399D01*
X219947740Y-88414034D01*
X219947739Y-88414033D01*
X219947735Y-88414032D01*
X219874677Y-88399500D01*
X219874674Y-88399500D01*
X218125326Y-88399500D01*
X218125323Y-88399500D01*
X218052264Y-88414032D01*
X218052260Y-88414033D01*
X217969399Y-88469399D01*
X217914033Y-88552260D01*
X217914032Y-88552264D01*
X217899500Y-88625321D01*
X216433135Y-88625321D01*
X214407314Y-86599500D01*
X214350250Y-86566554D01*
X214293187Y-86533608D01*
X214229539Y-86516554D01*
X214165892Y-86499500D01*
X212065892Y-86499500D01*
X211934107Y-86499500D01*
X211806812Y-86533608D01*
X211692686Y-86599500D01*
X211692683Y-86599502D01*
X210629005Y-87663181D01*
X210567682Y-87696666D01*
X210541324Y-87699500D01*
X210234108Y-87699500D01*
X210106812Y-87733608D01*
X209992686Y-87799500D01*
X209992683Y-87799502D01*
X209429005Y-88363181D01*
X209367682Y-88396666D01*
X209341324Y-88399500D01*
X208125323Y-88399500D01*
X208052264Y-88414032D01*
X208052260Y-88414033D01*
X207969399Y-88469399D01*
X207914033Y-88552260D01*
X207914032Y-88552264D01*
X207899500Y-88625321D01*
X205100499Y-88625321D01*
X205085967Y-88552264D01*
X205085966Y-88552260D01*
X205030601Y-88469399D01*
X204947740Y-88414034D01*
X204947739Y-88414033D01*
X204947735Y-88414032D01*
X204874677Y-88399500D01*
X204874674Y-88399500D01*
X203125326Y-88399500D01*
X203125323Y-88399500D01*
X203052264Y-88414032D01*
X203052260Y-88414033D01*
X202969399Y-88469399D01*
X202914033Y-88552260D01*
X202914032Y-88552264D01*
X202899500Y-88625321D01*
X200100499Y-88625321D01*
X200085967Y-88552264D01*
X200085966Y-88552260D01*
X200030601Y-88469399D01*
X199947740Y-88414034D01*
X199947739Y-88414033D01*
X199947735Y-88414032D01*
X199874677Y-88399500D01*
X199874674Y-88399500D01*
X198125326Y-88399500D01*
X198125323Y-88399500D01*
X198052264Y-88414032D01*
X198052260Y-88414033D01*
X197969399Y-88469399D01*
X197914033Y-88552260D01*
X197914032Y-88552264D01*
X197899500Y-88625321D01*
X168738235Y-88625321D01*
X168646184Y-88563814D01*
X168646171Y-88563807D01*
X168464191Y-88488429D01*
X168464183Y-88488427D01*
X168422500Y-88480135D01*
X168422500Y-89283011D01*
X168412560Y-89265795D01*
X168356705Y-89209940D01*
X168288296Y-89170444D01*
X168211996Y-89150000D01*
X168133004Y-89150000D01*
X168056704Y-89170444D01*
X167988295Y-89209940D01*
X167932440Y-89265795D01*
X167922500Y-89283011D01*
X167922500Y-88480136D01*
X167922499Y-88480135D01*
X167880816Y-88488427D01*
X167880808Y-88488429D01*
X167698828Y-88563807D01*
X167698815Y-88563814D01*
X167535037Y-88673248D01*
X167535033Y-88673251D01*
X167395748Y-88812536D01*
X167282927Y-88981387D01*
X167281503Y-88980435D01*
X167238242Y-89024451D01*
X167170100Y-89039892D01*
X167104427Y-89016041D01*
X167102407Y-89014306D01*
X167102311Y-89014432D01*
X167095867Y-89009487D01*
X167095865Y-89009485D01*
X167016513Y-88963671D01*
X166964636Y-88933719D01*
X166890904Y-88913963D01*
X166818266Y-88894500D01*
X166666734Y-88894500D01*
X166520363Y-88933719D01*
X166389135Y-89009485D01*
X166389132Y-89009487D01*
X166281987Y-89116632D01*
X166281985Y-89116635D01*
X166206219Y-89247863D01*
X166167000Y-89394234D01*
X165541325Y-89394234D01*
X165536330Y-89356291D01*
X165480861Y-89222375D01*
X165392621Y-89107379D01*
X165277625Y-89019139D01*
X165277624Y-89019138D01*
X165277622Y-89019137D01*
X165143712Y-88963671D01*
X165143710Y-88963670D01*
X165143709Y-88963670D01*
X165071854Y-88954210D01*
X165000001Y-88944750D01*
X164999999Y-88944750D01*
X164856291Y-88963670D01*
X164856287Y-88963671D01*
X164722377Y-89019137D01*
X164607372Y-89107384D01*
X164601628Y-89113129D01*
X164599111Y-89110612D01*
X164555817Y-89142203D01*
X164513908Y-89149500D01*
X163986092Y-89149500D01*
X163919053Y-89129815D01*
X163899587Y-89111913D01*
X163898372Y-89113129D01*
X163892627Y-89107384D01*
X163892621Y-89107379D01*
X163777625Y-89019139D01*
X163777624Y-89019138D01*
X163777622Y-89019137D01*
X163643712Y-88963671D01*
X163643710Y-88963670D01*
X163643709Y-88963670D01*
X163571854Y-88954210D01*
X163500001Y-88944750D01*
X163499999Y-88944750D01*
X163356291Y-88963670D01*
X163356287Y-88963671D01*
X163222377Y-89019137D01*
X163107379Y-89107379D01*
X163019137Y-89222377D01*
X162963671Y-89356287D01*
X162963670Y-89356291D01*
X162944750Y-89500000D01*
X161538000Y-89500000D01*
X161538000Y-89394234D01*
X161498781Y-89247865D01*
X161423015Y-89116635D01*
X161315865Y-89009485D01*
X161236513Y-88963671D01*
X161184636Y-88933719D01*
X161110904Y-88913963D01*
X161038266Y-88894500D01*
X160886734Y-88894500D01*
X160740363Y-88933719D01*
X160609135Y-89009485D01*
X160602689Y-89014432D01*
X160600599Y-89011709D01*
X160552717Y-89037466D01*
X160483058Y-89032043D01*
X160427388Y-88989821D01*
X160421799Y-88980976D01*
X160309251Y-88812537D01*
X160309248Y-88812533D01*
X160169966Y-88673251D01*
X160169962Y-88673248D01*
X160006184Y-88563814D01*
X160006171Y-88563807D01*
X159824191Y-88488429D01*
X159824183Y-88488427D01*
X159782500Y-88480135D01*
X159782500Y-89283011D01*
X159772560Y-89265795D01*
X159716705Y-89209940D01*
X159648296Y-89170444D01*
X159571996Y-89150000D01*
X159493004Y-89150000D01*
X159416704Y-89170444D01*
X159348295Y-89209940D01*
X159292440Y-89265795D01*
X159282500Y-89283011D01*
X159282500Y-88480136D01*
X159282499Y-88480135D01*
X159240816Y-88488427D01*
X159240808Y-88488429D01*
X159058828Y-88563807D01*
X159058815Y-88563814D01*
X158895037Y-88673248D01*
X158895033Y-88673251D01*
X158755751Y-88812533D01*
X158755748Y-88812537D01*
X158646314Y-88976315D01*
X158646307Y-88976328D01*
X158570930Y-89158306D01*
X158570927Y-89158318D01*
X158532500Y-89351504D01*
X153000500Y-89351504D01*
X153000500Y-84624500D01*
X153020185Y-84557461D01*
X153072989Y-84511706D01*
X153124500Y-84500500D01*
X158849563Y-84500500D01*
X158916602Y-84520185D01*
G37*
%TD.AperFunction*%
%TD*%
M02*
