%TF.GenerationSoftware,KiCad,Pcbnew,8.0.7*%
%TF.CreationDate,2024-12-30T10:45:42+13:00*%
%TF.ProjectId,Flight Computer V1,466c6967-6874-4204-936f-6d7075746572,rev?*%
%TF.SameCoordinates,Original*%
%TF.FileFunction,Paste,Top*%
%TF.FilePolarity,Positive*%
%FSLAX46Y46*%
G04 Gerber Fmt 4.6, Leading zero omitted, Abs format (unit mm)*
G04 Created by KiCad (PCBNEW 8.0.7) date 2024-12-30 10:45:42*
%MOMM*%
%LPD*%
G01*
G04 APERTURE LIST*
G04 Aperture macros list*
%AMRoundRect*
0 Rectangle with rounded corners*
0 $1 Rounding radius*
0 $2 $3 $4 $5 $6 $7 $8 $9 X,Y pos of 4 corners*
0 Add a 4 corners polygon primitive as box body*
4,1,4,$2,$3,$4,$5,$6,$7,$8,$9,$2,$3,0*
0 Add four circle primitives for the rounded corners*
1,1,$1+$1,$2,$3*
1,1,$1+$1,$4,$5*
1,1,$1+$1,$6,$7*
1,1,$1+$1,$8,$9*
0 Add four rect primitives between the rounded corners*
20,1,$1+$1,$2,$3,$4,$5,0*
20,1,$1+$1,$4,$5,$6,$7,0*
20,1,$1+$1,$6,$7,$8,$9,0*
20,1,$1+$1,$8,$9,$2,$3,0*%
G04 Aperture macros list end*
%ADD10RoundRect,0.062500X-0.350000X0.062500X-0.350000X-0.062500X0.350000X-0.062500X0.350000X0.062500X0*%
%ADD11RoundRect,0.062500X-0.062500X0.350000X-0.062500X-0.350000X0.062500X-0.350000X0.062500X0.350000X0*%
%ADD12RoundRect,0.250000X-0.275000X0.275000X-0.275000X-0.275000X0.275000X-0.275000X0.275000X0.275000X0*%
%ADD13RoundRect,0.075000X-0.650000X-0.075000X0.650000X-0.075000X0.650000X0.075000X-0.650000X0.075000X0*%
%ADD14RoundRect,0.075000X-0.075000X0.650000X-0.075000X-0.650000X0.075000X-0.650000X0.075000X0.650000X0*%
%ADD15RoundRect,0.375000X0.375000X-0.625000X0.375000X0.625000X-0.375000X0.625000X-0.375000X-0.625000X0*%
%ADD16RoundRect,0.500000X1.400000X-0.500000X1.400000X0.500000X-1.400000X0.500000X-1.400000X-0.500000X0*%
%ADD17RoundRect,0.250000X0.300000X-2.050000X0.300000X2.050000X-0.300000X2.050000X-0.300000X-2.050000X0*%
%ADD18RoundRect,0.250000X2.375000X-2.025000X2.375000X2.025000X-2.375000X2.025000X-2.375000X-2.025000X0*%
%ADD19RoundRect,0.250000X-2.050000X-0.300000X2.050000X-0.300000X2.050000X0.300000X-2.050000X0.300000X0*%
%ADD20RoundRect,0.250000X-2.025000X-2.375000X2.025000X-2.375000X2.025000X2.375000X-2.025000X2.375000X0*%
%ADD21R,0.600000X1.000000*%
%ADD22R,0.650000X0.350000*%
%ADD23RoundRect,0.050000X-0.225000X-0.050000X0.225000X-0.050000X0.225000X0.050000X-0.225000X0.050000X0*%
%ADD24RoundRect,0.050000X0.050000X-0.225000X0.050000X0.225000X-0.050000X0.225000X-0.050000X-0.225000X0*%
%ADD25R,0.950000X0.550000*%
%ADD26RoundRect,0.093750X-0.093750X0.156250X-0.093750X-0.156250X0.093750X-0.156250X0.093750X0.156250X0*%
%ADD27RoundRect,0.075000X-0.075000X0.250000X-0.075000X-0.250000X0.075000X-0.250000X0.075000X0.250000X0*%
%ADD28R,1.117800X0.449200*%
%ADD29R,0.500000X0.813000*%
%ADD30R,1.550000X1.300000*%
%ADD31RoundRect,0.200000X0.200000X0.275000X-0.200000X0.275000X-0.200000X-0.275000X0.200000X-0.275000X0*%
%ADD32RoundRect,0.200000X-0.200000X-0.275000X0.200000X-0.275000X0.200000X0.275000X-0.200000X0.275000X0*%
%ADD33RoundRect,0.200000X-0.275000X0.200000X-0.275000X-0.200000X0.275000X-0.200000X0.275000X0.200000X0*%
%ADD34RoundRect,0.200000X0.275000X-0.200000X0.275000X0.200000X-0.275000X0.200000X-0.275000X-0.200000X0*%
%ADD35RoundRect,0.150000X-0.150000X0.587500X-0.150000X-0.587500X0.150000X-0.587500X0.150000X0.587500X0*%
%ADD36RoundRect,0.150000X-0.150000X-0.625000X0.150000X-0.625000X0.150000X0.625000X-0.150000X0.625000X0*%
%ADD37RoundRect,0.250000X-0.350000X-0.650000X0.350000X-0.650000X0.350000X0.650000X-0.350000X0.650000X0*%
%ADD38R,0.600000X1.450000*%
%ADD39R,0.300000X1.450000*%
%ADD40R,0.900000X0.900000*%
%ADD41R,0.900000X1.500000*%
%ADD42R,1.500000X0.900000*%
%ADD43RoundRect,0.237500X0.237500X-0.287500X0.237500X0.287500X-0.237500X0.287500X-0.237500X-0.287500X0*%
%ADD44RoundRect,0.218750X0.218750X0.256250X-0.218750X0.256250X-0.218750X-0.256250X0.218750X-0.256250X0*%
%ADD45RoundRect,0.250000X0.625000X-0.375000X0.625000X0.375000X-0.625000X0.375000X-0.625000X-0.375000X0*%
%ADD46RoundRect,0.237500X0.287500X0.237500X-0.287500X0.237500X-0.287500X-0.237500X0.287500X-0.237500X0*%
%ADD47RoundRect,0.218750X-0.256250X0.218750X-0.256250X-0.218750X0.256250X-0.218750X0.256250X0.218750X0*%
%ADD48RoundRect,0.225000X-0.225000X-0.250000X0.225000X-0.250000X0.225000X0.250000X-0.225000X0.250000X0*%
%ADD49RoundRect,0.225000X-0.250000X0.225000X-0.250000X-0.225000X0.250000X-0.225000X0.250000X0.225000X0*%
%ADD50RoundRect,0.225000X0.250000X-0.225000X0.250000X0.225000X-0.250000X0.225000X-0.250000X-0.225000X0*%
%ADD51RoundRect,0.250000X0.337500X0.475000X-0.337500X0.475000X-0.337500X-0.475000X0.337500X-0.475000X0*%
%ADD52RoundRect,0.225000X0.225000X0.250000X-0.225000X0.250000X-0.225000X-0.250000X0.225000X-0.250000X0*%
G04 APERTURE END LIST*
D10*
%TO.C,U11*%
X165937500Y-105220000D03*
X165937500Y-105720000D03*
X165937500Y-106220000D03*
X165937500Y-106720000D03*
X165937500Y-107220000D03*
X165937500Y-107720000D03*
D11*
X165250000Y-108407500D03*
X164750000Y-108407500D03*
X164250000Y-108407500D03*
X163750000Y-108407500D03*
X163250000Y-108407500D03*
X162750000Y-108407500D03*
D10*
X162062500Y-107720000D03*
X162062500Y-107220000D03*
X162062500Y-106720000D03*
X162062500Y-106220000D03*
X162062500Y-105720000D03*
X162062500Y-105220000D03*
D11*
X162750000Y-104532500D03*
X163250000Y-104532500D03*
X163750000Y-104532500D03*
X164250000Y-104532500D03*
X164750000Y-104532500D03*
X165250000Y-104532500D03*
D12*
X163350000Y-107120000D03*
X164650000Y-107120000D03*
X163350000Y-105820000D03*
X164650000Y-105820000D03*
%TD*%
D13*
%TO.C,U10*%
X212500000Y-118500000D03*
X212500000Y-119000000D03*
X212500000Y-119500000D03*
X212500000Y-120000000D03*
X212500000Y-120500000D03*
X216900000Y-120500000D03*
X216900000Y-120000000D03*
X216900000Y-119500000D03*
X216900000Y-119000000D03*
X216900000Y-118500000D03*
%TD*%
D14*
%TO.C,U9*%
X209200000Y-137300000D03*
X208700000Y-137300000D03*
X208200000Y-137300000D03*
X207700000Y-137300000D03*
X207200000Y-137300000D03*
X207200000Y-141700000D03*
X207700000Y-141700000D03*
X208200000Y-141700000D03*
X208700000Y-141700000D03*
X209200000Y-141700000D03*
%TD*%
D15*
%TO.C,U8*%
X200500000Y-99800000D03*
X202800000Y-99800000D03*
D16*
X202800000Y-93500000D03*
D15*
X205100000Y-99800000D03*
%TD*%
D17*
%TO.C,U7*%
X193460000Y-146275000D03*
X196000000Y-146275000D03*
D18*
X193225000Y-139550000D03*
X198775000Y-139550000D03*
X193225000Y-134700000D03*
X198775000Y-134700000D03*
D17*
X198540000Y-146275000D03*
%TD*%
D19*
%TO.C,U6*%
X214775000Y-97685000D03*
X214775000Y-100225000D03*
D20*
X221500000Y-97450000D03*
X221500000Y-103000000D03*
X226350000Y-97450000D03*
X226350000Y-103000000D03*
D19*
X214775000Y-102765000D03*
%TD*%
D21*
%TO.C,U5*%
X214725000Y-131800000D03*
X214725000Y-133000000D03*
X215500000Y-131800000D03*
X215500000Y-133000000D03*
D22*
X213562500Y-131425000D03*
X213562500Y-132075000D03*
X213562500Y-132725000D03*
X213562500Y-133375000D03*
X216662500Y-133375000D03*
X216662500Y-132725000D03*
X216662500Y-132075000D03*
X216662500Y-131425000D03*
%TD*%
D23*
%TO.C,U4*%
X181500000Y-97885000D03*
X181500000Y-98285000D03*
X181500000Y-98685000D03*
X181500000Y-99085000D03*
X181500000Y-99485000D03*
X181500000Y-99885000D03*
D24*
X182000000Y-100385000D03*
X182400000Y-100385000D03*
X182800000Y-100385000D03*
X183200000Y-100385000D03*
X183600000Y-100385000D03*
X184000000Y-100385000D03*
D23*
X184500000Y-99885000D03*
X184500000Y-99485000D03*
X184500000Y-99085000D03*
X184500000Y-98685000D03*
X184500000Y-98285000D03*
X184500000Y-97885000D03*
D24*
X184000000Y-97385000D03*
X183600000Y-97385000D03*
X183200000Y-97385000D03*
X182800000Y-97385000D03*
X182400000Y-97385000D03*
X182000000Y-97385000D03*
%TD*%
D25*
%TO.C,U3*%
X175000000Y-115750000D03*
X175000000Y-114500000D03*
X175000000Y-113250000D03*
X175000000Y-112000000D03*
X177150000Y-112000000D03*
X177150000Y-113250000D03*
X177150000Y-114500000D03*
X177150000Y-115750000D03*
%TD*%
D26*
%TO.C,U2*%
X164500000Y-97745000D03*
D27*
X163962500Y-97820000D03*
D26*
X163425000Y-97745000D03*
X163425000Y-96045000D03*
D27*
X163962500Y-95970000D03*
D26*
X164500000Y-96045000D03*
%TD*%
D28*
%TO.C,U1*%
X184370901Y-131781501D03*
X184370901Y-130981500D03*
X184370901Y-130181499D03*
X184370901Y-129381501D03*
X184370901Y-128581500D03*
X184370901Y-127781501D03*
D29*
X183000000Y-128063002D03*
D28*
X181629099Y-127781499D03*
X181629099Y-128581500D03*
X181629099Y-129381501D03*
X181629099Y-130181499D03*
X181629099Y-130981500D03*
X181629099Y-131781499D03*
D29*
X183000000Y-131499998D03*
%TD*%
D30*
%TO.C,SW2*%
X200450000Y-117500000D03*
X192500000Y-117500000D03*
X200450000Y-113000000D03*
X192500000Y-113000000D03*
%TD*%
%TO.C,SW1*%
X200450000Y-108500000D03*
X192500000Y-108500000D03*
X200450000Y-104000000D03*
X192500000Y-104000000D03*
%TD*%
D31*
%TO.C,R21*%
X224500000Y-113500000D03*
X222850000Y-113500000D03*
%TD*%
%TO.C,R20*%
X224511400Y-111493700D03*
X222861400Y-111493700D03*
%TD*%
%TO.C,R19*%
X224650000Y-108500000D03*
X223000000Y-108500000D03*
%TD*%
%TO.C,R18*%
X172120000Y-120450600D03*
X170470000Y-120450600D03*
%TD*%
D32*
%TO.C,R17*%
X166620000Y-120450600D03*
X168270000Y-120450600D03*
%TD*%
%TO.C,R16*%
X165650000Y-111470000D03*
X164000000Y-111470000D03*
%TD*%
D33*
%TO.C,R15*%
X155000000Y-128000000D03*
X155000000Y-126350000D03*
%TD*%
%TO.C,R14*%
X155000000Y-132500000D03*
X155000000Y-130850000D03*
%TD*%
%TO.C,R13*%
X161000000Y-119150000D03*
X161000000Y-117500000D03*
%TD*%
D32*
%TO.C,R12*%
X160000000Y-108970000D03*
X158350000Y-108970000D03*
%TD*%
D33*
%TO.C,R11*%
X158500000Y-105970000D03*
X158500000Y-104320000D03*
%TD*%
%TO.C,R10*%
X159500000Y-95150000D03*
X159500000Y-93500000D03*
%TD*%
%TO.C,R9*%
X167962500Y-98470000D03*
X167962500Y-96820000D03*
%TD*%
%TO.C,R8*%
X181750000Y-119928052D03*
X181750000Y-118278052D03*
%TD*%
%TO.C,R7*%
X184950000Y-119928052D03*
X184950000Y-118278052D03*
%TD*%
D31*
%TO.C,R6*%
X188650000Y-117200000D03*
X190300000Y-117200000D03*
%TD*%
%TO.C,R5*%
X188975000Y-108700000D03*
X190625000Y-108700000D03*
%TD*%
D34*
%TO.C,R4*%
X209500000Y-119500000D03*
X209500000Y-117850000D03*
%TD*%
%TO.C,R3*%
X220500000Y-119500000D03*
X220500000Y-117850000D03*
%TD*%
D31*
%TO.C,R2*%
X209500000Y-145000000D03*
X207850000Y-145000000D03*
%TD*%
D33*
%TO.C,R1*%
X219500000Y-131850000D03*
X219500000Y-133500000D03*
%TD*%
D35*
%TO.C,Q2*%
X181000000Y-124303052D03*
X180050000Y-122428052D03*
X181950000Y-122428052D03*
%TD*%
%TO.C,Q1*%
X185900000Y-124303052D03*
X184950000Y-122428052D03*
X186850000Y-122428052D03*
%TD*%
D36*
%TO.C,J5*%
X181500000Y-144500000D03*
X182500000Y-144500000D03*
X183500000Y-144500000D03*
X184500000Y-144500000D03*
D37*
X180200000Y-148375000D03*
X185800000Y-148375000D03*
%TD*%
D38*
%TO.C,J4*%
X167102500Y-90915000D03*
X166302500Y-90915000D03*
D39*
X165602500Y-90915000D03*
X164602500Y-90915000D03*
X163102500Y-90915000D03*
X162102500Y-90915000D03*
D38*
X161402500Y-90915000D03*
X160602500Y-90915000D03*
X160602500Y-90915000D03*
X161402500Y-90915000D03*
D39*
X162602500Y-90915000D03*
X163602500Y-90915000D03*
X164102500Y-90915000D03*
X165102500Y-90915000D03*
D38*
X166302500Y-90915000D03*
X167102500Y-90915000D03*
%TD*%
D40*
%TO.C,IC1*%
X167120000Y-129650606D03*
X169920000Y-129655000D03*
X168520000Y-129655000D03*
X167120000Y-131050606D03*
X169920000Y-131055000D03*
X168520000Y-131055000D03*
X167120000Y-132450606D03*
X169920000Y-132455000D03*
X168520000Y-132455000D03*
D41*
X176240000Y-123805000D03*
X174970000Y-123805000D03*
X173700000Y-123805000D03*
X172430000Y-123805000D03*
X171160000Y-123805000D03*
X169890000Y-123805000D03*
X168620000Y-123805000D03*
X167350000Y-123805000D03*
X166080000Y-123805000D03*
X164810000Y-123805000D03*
X163540000Y-123805000D03*
X162270000Y-123805000D03*
X161000000Y-123805000D03*
X159730000Y-123805000D03*
D42*
X158480000Y-125570000D03*
X158480000Y-126840000D03*
X158480000Y-128110000D03*
X158480000Y-129380000D03*
X158480000Y-130650000D03*
X158480000Y-131920000D03*
X158480000Y-133190000D03*
X158480000Y-134460000D03*
X158480000Y-135730000D03*
X158480000Y-137000000D03*
X158480000Y-138270000D03*
X158480000Y-139540000D03*
D41*
X159730000Y-141305000D03*
X161000000Y-141305000D03*
X162270000Y-141305000D03*
X163540000Y-141305000D03*
X164810000Y-141305000D03*
X166080000Y-141305000D03*
X167350000Y-141305000D03*
X168620000Y-141305000D03*
X169890000Y-141305000D03*
X171160000Y-141305000D03*
X172430000Y-141305000D03*
X173700000Y-141305000D03*
X174970000Y-141305000D03*
X176240000Y-141305000D03*
%TD*%
D43*
%TO.C,FB1*%
X171462500Y-91720000D03*
X171462500Y-93470000D03*
%TD*%
D44*
%TO.C,F2*%
X170387500Y-88470000D03*
X171962500Y-88470000D03*
%TD*%
D45*
%TO.C,F1*%
X220000000Y-122000000D03*
X220000000Y-124800000D03*
%TD*%
D46*
%TO.C,D9*%
X228250000Y-113500000D03*
X226500000Y-113500000D03*
%TD*%
%TO.C,D8*%
X228250000Y-111500000D03*
X226500000Y-111500000D03*
%TD*%
%TO.C,D7*%
X228323600Y-108460400D03*
X226573600Y-108460400D03*
%TD*%
D44*
%TO.C,D6*%
X166887500Y-93470000D03*
X168462500Y-93470000D03*
%TD*%
D47*
%TO.C,D5*%
X177000000Y-146000000D03*
X177000000Y-144425000D03*
%TD*%
D44*
%TO.C,D4*%
X176000000Y-88500000D03*
X174425000Y-88500000D03*
%TD*%
D47*
%TO.C,D3*%
X217500000Y-107500000D03*
X217500000Y-109075000D03*
%TD*%
%TO.C,D2*%
X196000000Y-129500000D03*
X196000000Y-131075000D03*
%TD*%
%TO.C,D1*%
X219500000Y-127925000D03*
X219500000Y-129500000D03*
%TD*%
D48*
%TO.C,C27*%
X183500000Y-112500000D03*
X181950000Y-112500000D03*
%TD*%
%TO.C,C26*%
X187550000Y-109500000D03*
X186000000Y-109500000D03*
%TD*%
D49*
%TO.C,C25*%
X179500000Y-109500000D03*
X179500000Y-107950000D03*
%TD*%
D48*
%TO.C,C24*%
X188179100Y-128381500D03*
X186629100Y-128381500D03*
%TD*%
D50*
%TO.C,C23*%
X188070900Y-130216300D03*
X188070900Y-131766300D03*
%TD*%
D51*
%TO.C,C22*%
X182075000Y-140000000D03*
X180000000Y-140000000D03*
%TD*%
D48*
%TO.C,C21*%
X175120000Y-120450600D03*
X176670000Y-120450600D03*
%TD*%
D50*
%TO.C,C20*%
X161000000Y-100970000D03*
X161000000Y-102520000D03*
%TD*%
%TO.C,C19*%
X158490000Y-100970000D03*
X158490000Y-102520000D03*
%TD*%
D52*
%TO.C,C18*%
X202425000Y-117250000D03*
X203975000Y-117250000D03*
%TD*%
D50*
%TO.C,C17*%
X204475000Y-110650000D03*
X204475000Y-112200000D03*
%TD*%
D49*
%TO.C,C16*%
X214500000Y-122950000D03*
X214500000Y-124500000D03*
%TD*%
D52*
%TO.C,C15*%
X216000000Y-114000000D03*
X217550000Y-114000000D03*
%TD*%
%TO.C,C14*%
X216050000Y-111000000D03*
X217600000Y-111000000D03*
%TD*%
%TO.C,C13*%
X205500000Y-141000000D03*
X203950000Y-141000000D03*
%TD*%
%TO.C,C12*%
X198050000Y-93000000D03*
X196500000Y-93000000D03*
%TD*%
D48*
%TO.C,C11*%
X187950000Y-136000000D03*
X189500000Y-136000000D03*
%TD*%
D49*
%TO.C,C10*%
X226232118Y-92116380D03*
X226232118Y-93666380D03*
%TD*%
D50*
%TO.C,C9*%
X208800000Y-97500000D03*
X208800000Y-95950000D03*
%TD*%
%TO.C,C8*%
X204000000Y-148500000D03*
X204000000Y-146950000D03*
%TD*%
D48*
%TO.C,C7*%
X209725000Y-103000000D03*
X211275000Y-103000000D03*
%TD*%
D50*
%TO.C,C6*%
X211500000Y-133000000D03*
X211500000Y-131450000D03*
%TD*%
%TO.C,C5*%
X217000000Y-137050000D03*
X217000000Y-135500000D03*
%TD*%
D48*
%TO.C,C4*%
X184550000Y-102100000D03*
X183000000Y-102100000D03*
%TD*%
%TO.C,C3*%
X186315000Y-100100000D03*
X187865000Y-100100000D03*
%TD*%
D49*
%TO.C,C2*%
X179865000Y-98550000D03*
X179865000Y-100100000D03*
%TD*%
D48*
%TO.C,C1*%
X181050000Y-115500000D03*
X179500000Y-115500000D03*
%TD*%
D24*
%TO.C,U12*%
X181635000Y-106815000D03*
X182035000Y-106815000D03*
X182435000Y-106815000D03*
X182835000Y-106815000D03*
X183235000Y-106815000D03*
X183635000Y-106815000D03*
D23*
X184135000Y-107315000D03*
X184135000Y-107715000D03*
X184135000Y-108115000D03*
X184135000Y-108515000D03*
X184135000Y-108915000D03*
X184135000Y-109315000D03*
D24*
X183635000Y-109815000D03*
X183235000Y-109815000D03*
X182835000Y-109815000D03*
X182435000Y-109815000D03*
X182035000Y-109815000D03*
X181635000Y-109815000D03*
D23*
X181135000Y-109315000D03*
X181135000Y-108915000D03*
X181135000Y-108515000D03*
X181135000Y-108115000D03*
X181135000Y-107715000D03*
X181135000Y-107315000D03*
%TD*%
M02*
